<svg version="1.1" xmlns="http://www.w3.org/2000/svg" xmlns:xlink="http://www.w3.org/1999/xlink" width="2304" height="2304" viewBox="0 0 2304 2304"><path stroke="none" fill="#000000" fill-rule="evenodd" d="M1137.0129530820777,1944.8784953630377C1127.515520839922,1924.6360654320627 1095.5990420670366,1874.3380448181192 1080.1035333720802,1855.1934400012037C1078.4593389522868,1853.1620480005417 1074.0812736490898,1847.675 1070.374499364976,1843.0C1056.8851332863796,1825.9871522828605 1046.1157098293831,1814.0392385782682 1026.7960544227249,1794.6527972338126C1018.6582244902262,1786.4868357124094 1012.0,1779.2341345274988 1012.0,1778.535683489567C1012.0,1777.837232451635 1013.6875,1776.0992973711466 1015.75,1774.6736055329266C1017.8125,1773.2479136947063 1022.65,1769.5737118042825 1026.5,1766.508712443096C1033.0901636004662,1761.2622586182795 1037.558084848978,1757.821873986856 1044.4427210883778,1752.6924747690473C1046.0612176869854,1751.4866136460714 1049.8901813872812,1748.4364195561277 1052.9515293112577,1745.9142656802837C1061.883172476699,1738.5557494361992 1062.124845036451,1738.4988146528538 1066.1782585751132,1742.798227327476C1068.0977413351734,1744.834202297364 1070.679688894985,1747.85 1071.9159198191392,1749.5C1073.152150743293,1751.15 1075.8259328352287,1754.3 1077.8576578012187,1756.5C1089.1422050098997,1768.7191754664996 1112.816106998249,1798.3364347958222 1125.6746675494678,1816.3215190197038C1131.266716753431,1824.1430380394079 1131.266716753431,1824.1430380394079 1137.3318053022235,1814.8215190197038C1158.4602795112442,1782.3488728889367 1189.750910370098,1737.341173527126 1198.6842896365665,1726.5735644649944C1199.5633398084308,1725.5140249207411 1201.6831145845392,1722.8140249207413 1203.3949002501408,1720.5735644649944C1222.971159297547,1694.9512946046182 1259.7235492341786,1652.4338029476085 1271.498968316614,1641.786466515247C1275.2137550891523,1638.427555527467 1274.7331819126987,1637.9959923097238 1286.21308086807,1655.0C1290.8545928431151,1661.875 1299.005450001227,1673.8719940310327 1304.3260967749852,1681.6599867356283C1309.6467435487432,1689.447979440224 1313.995039312409,1696.197979440224 1313.9889762497978,1696.6599867356283C1313.9829131871868,1697.1219940310327 1307.1637521645011,1703.8 1298.8352850882743,1711.5C1247.4842022834157,1758.9761242349236 1204.4236180191735,1817.702072246611 1169.4309499240535,1887.9814014762815C1158.4112190360142,1910.113446194841 1149.4295788249995,1931.080304848982 1145.2198973508264,1944.5C1143.6130363278812,1949.622379260824 1142.2925957693742,1952.0 1141.0546812481803,1952.0C1140.669445121666,1952.0 1138.8506674469197,1948.795322913367 1137.0129530820777,1944.8784953630377zM827.0,1714.4100160228668C790.5574286068116,1710.2768845347773 760.6095096194102,1699.585088328488 730.737171140845,1680.0429353306831C722.3871322579643,1674.5804323698262 721.0697765100244,1673.355476560033 721.6338232053808,1671.5781004069681C722.2598135482552,1669.6055326805133 725.7975946717835,1662.0420508293341 738.626111995414,1635.25C744.3928028677487,1623.2064043863393 749.8998700906205,1611.485221988889 755.1879325544439,1600.0C756.8339454331203,1596.425 758.8846001089829,1592.7126920548505 759.7449429452497,1591.7504267885568C761.2099888161783,1590.111820995965 761.6444033576316,1590.37126236464 766.5941609612673,1595.8409217579137C769.5008880338102,1599.0529592573541 775.6188174381107,1604.8308820423429 780.1895596374908,1608.680750169C795.2631109558497,1621.3769780997623 806.2665521872154,1627.7815919278298 822.3346752098059,1633.2115477898863C830.8319399611255,1636.08305757874 832.4840142855008,1636.30566935948 845.0,1636.2656284920372C859.7906280613552,1636.2183106386053 865.2364681948528,1634.875286260358 873.3234229931215,1629.2806552606003C881.9943841046427,1623.282003228738 886.7576748723745,1612.5434122871195 885.6153716259987,1601.569097289365C884.0087996250063,1586.1344679460644 873.4153108741955,1575.0306398043485 849.1816564924488,1563.3801945658684C834.9609596938644,1556.543526571225 820.8673283898564,1550.0 820.3630176537988,1550.0C819.7024397885804,1550.0 793.1961153425776,1536.7293199442192 788.5,1534.0474331416017C775.6911502958177,1526.732475464369 760.4565070705411,1513.9016494833654 750.5638303023843,1502.0970694489142C747.814169056883,1498.8159962873376 738.0,1483.5447058852258 738.0,1482.547181934392C738.0,1482.278830843506 736.8060103837021,1479.4584349165418 735.3466897415602,1476.279635430027C733.8873690994184,1473.100835943512 732.2868135092161,1468.925 731.7898995411109,1467.0C731.2929855730057,1465.075 730.4333490549859,1461.7 729.8795961677337,1459.5C723.0481192138604,1432.3592849906438 725.3155153904896,1399.542759364086 735.7179648940719,1375.0C748.8222367948634,1344.0827634595148 770.9156533745771,1320.9806043218632 800.1995633678503,1307.5742967812776C809.0041189592583,1303.5435310794398 823.4709815681767,1298.5665720320208 831.0,1296.9781837258915C834.025,1296.340002976362 838.075,1295.4251963029308 840.0,1294.9452800071551C851.1187443901619,1292.1732973466862 877.2158593362741,1291.2114787048042 892.0909958078429,1293.0254474530343C913.0040431345018,1295.575717452461 924.6223005267516,1298.4974589404299 943.1894618685706,1305.8756110550885C956.0352962922219,1310.98024275794 969.9765772750126,1319.417665460864 969.9912536523934,1322.0963619857253C969.9960641435771,1322.9743610778742 969.3681611151019,1324.9993610778743 968.5959135891152,1326.5963619857253C966.4943790480114,1330.9423164330838 963.8022686057955,1337.1465651288804 958.0068331141827,1351.0C955.1307508013477,1357.875 951.4356627421779,1366.425 949.7955263160275,1370.0C944.6596273264016,1381.1947022181603 938.0,1397.0461653408215 938.0,1398.0760981428543C938.0,1401.0927005493763 934.4481177071659,1399.5919473818924 927.7387079951206,1393.74046277851C908.4791650074382,1376.9436171397222 882.4119947622335,1368.0965687617959 860.7748553093861,1371.0133144647416C841.9886414635041,1373.5457475818362 832.1075249916278,1379.6852738774621 826.5500801118312,1392.2785133808084C823.7444259910458,1398.636160657716 823.3856785907909,1403.1373026377782 825.1867501246788,1409.3839804406116C828.5943738881122,1421.2026824315847 837.685989933147,1428.3913019174647 863.8325446567002,1439.9406944773777C904.7212790714747,1458.001966795175 926.1679574709573,1469.34725967623 941.7171378110579,1481.1416442840996C958.5786553515152,1493.9314646215498 973.136625809428,1513.1216426912629 981.0577008722998,1533.0C983.3477870243574,1538.74709246372 983.8944311890915,1540.6824432730502 986.7067456046423,1553.0C989.2123466284507,1563.974193559301 989.1586758443347,1598.1696039546725 986.617282291898,1610.0C981.2938147571954,1634.7811792902332 968.3437549753813,1659.5385500207008 951.6667240495988,1676.8169832587585C944.9776678308268,1683.7472583068777 931.287573433298,1693.4030826010783 920.5,1698.799330678005C907.1960720909505,1705.4543301399958 898.6155644067767,1708.2882577692046 877.5,1713.0011579522513C872.5717572509516,1714.1011198432361 833.8109245400556,1715.1824765162762 827.0,1714.4100160228668zM1501.368423294393,1709.7871044182002C1500.9478077227257,1709.106534127045 1500.5564454327664,1704.1646234717114 1500.4987293167055,1698.8050807396808C1500.4410132006446,1693.4455380076504 1500.0991936219577,1688.7658602886245 1499.7391302529563,1688.4057969196233C1499.3790668839551,1688.045733550622 1497.7239928590063,1688.8959019380718 1496.061187975292,1690.2950600028453C1492.2353558356265,1693.5142855085612 1480.1766841337546,1700.1786138241375 1473.0,1703.0400232802444C1461.0099468746273,1707.8205668784778 1453.16295249466,1709.2377468132881 1436.0,1709.7222833978049C1413.3231601162224,1710.3624855161952 1402.4936772417554,1708.0580630301617 1381.8761839989502,1698.2051925017267C1334.1355885329715,1675.3904933267538 1304.1416951100477,1625.3437291478947 1295.4238910901406,1553.9539125854603C1293.4544756604114,1537.8264330111842 1293.139972453617,1496.2775434476027 1294.8792378758856,1482.0C1297.247612503199,1462.5581303412769 1301.1453480397524,1442.8207441756356 1305.0494487866868,1430.5C1311.434214233689,1410.3506578612996 1312.788097807738,1406.7721830789362 1319.2519224163716,1392.9611785642605C1335.9943945267082,1357.1881847250033 1365.9493851098232,1325.5568419005606 1398.147635953927,1309.6502739802295C1409.4841508642053,1304.049813095777 1426.5564021343484,1297.8361180779098 1435.6750877223435,1295.9916101990523C1456.584988878574,1291.762000892249 1457.8057959010564,1291.6373860362858 1479.0,1291.5691850297362C1501.5756514971151,1291.4965386520553 1511.442656672471,1292.5908432550132 1528.4824371542127,1297.0570567578952C1535.592465706167,1298.9206315591455 1540.1111289339917,1300.4210230213826 1554.4921160391218,1305.6933941362026C1560.0671858563887,1307.7373315135735 1560.9096547428799,1308.6711224768303 1560.463375018016,1312.3119265985483C1560.2484431348153,1314.0653669693468 1559.5819185312212,1320.0 1558.9822092322513,1325.5C1557.5912073178092,1338.2570316861395 1556.3638687727853,1349.0788453167897 1554.3889670299754,1366.0C1553.5223804574343,1373.425 1552.5746266270166,1381.8625 1552.282847406825,1384.75C1551.6177462068404,1391.3319619152255 1550.712544715348,1391.4083533489115 1541.4741353973063,1385.6621648765133C1512.579134412626,1367.689793675785 1484.1281994605592,1362.7344424271257 1458.374968284274,1371.1886313279722C1441.1391036131747,1376.8467662160356 1423.7211105369245,1392.6319845202618 1413.2594085245619,1412.0750271720185C1401.037870540055,1434.7887198409571 1394.1140289183115,1470.4495783706943 1394.0523318434139,1511.0C1393.9970970203594,1547.3031045993212 1398.2563754437695,1571.6816985028865 1407.3055878545701,1586.856920839021C1417.4877001990226,1603.931977945001 1440.74627440294,1613.6393108633818 1459.505153033685,1608.6432329725928C1470.9685416831735,1605.5901729409893 1483.3907299219516,1597.2993352103188 1486.022900423232,1590.9447134876498C1486.948678517596,1588.7096874564882 1487.3667263469401,1582.0400055111702 1487.4216557492482,1568.6284795809188C1487.5,1549.5 1487.5,1549.5 1465.0,1549.0C1442.5,1548.5 1442.5,1548.5 1442.8384697232034,1535.0C1443.0246280709653,1527.575 1443.4746280709653,1513.625 1443.8384697232034,1504.0C1444.5,1486.5 1444.5,1486.5 1511.0,1486.5C1577.5,1486.5 1577.5,1486.5 1577.2062769499873,1571.0C1577.0447292724805,1617.475 1576.5947292724804,1667.875 1576.2062769499873,1683.0C1575.5,1710.5 1575.5,1710.5 1538.8165894396216,1710.7622524737867C1510.515405073265,1710.964579779176 1501.958430833807,1710.7417566705903 1501.368423294393,1709.7871044182002zM1091.5134200208634,1671.3778760453274C1090.6810390093885,1669.3857078702576 1090.0,1666.9318817297642 1090.0,1665.9249290664534C1090.0,1664.9179764031426 1089.590526329364,1663.060432182745 1089.0900585096974,1661.797053021126C1088.589590690031,1660.5336738595067 1086.735612869872,1654.1 1084.9701077982331,1647.5C1083.2046027265942,1640.9 1080.9743502160654,1633.025 1080.0139911081692,1630.0C1078.21571085111,1624.33566284437 1077.500573592154,1621.841886770375 1073.9918455776685,1609.0C1072.8647913278878,1604.875 1071.0694973020084,1598.575 1070.0023032979361,1595.0C1068.9351092938637,1591.425 1067.3437091589856,1585.8 1066.4658585537622,1582.5C1062.991987683843,1569.441087922568 1061.8005012324163,1565.1705209413342 1059.3513689216138,1557.0C1057.9500269955347,1552.325 1056.427612614883,1546.925 1055.968225853499,1545.0C1055.508839092115,1543.075 1054.6920499061857,1539.925 1054.1531387736557,1538.0C1053.6142276411256,1536.075 1052.4507820506024,1531.8 1051.5677041280483,1528.5C1050.6846262054944,1525.2 1049.5728228959238,1521.375 1049.0970301067805,1520.0C1048.621237317637,1518.625 1047.7330585093912,1515.7 1047.1232994217894,1513.5C1043.050848209784,1498.8066680782842 1035.6649032973298,1472.4453737170368 1034.0948633471937,1467.0C1033.0640997828536,1463.425 1031.2170908167725,1456.675 1029.9903989781246,1452.0C1028.763707139477,1447.325 1027.373496451999,1442.15 1026.9010418948403,1440.5C1025.435521512424,1435.381817532823 1021.904563825736,1422.674388802224 1020.9269308552884,1419.0C1020.4147522129597,1417.075 1017.7684140865429,1407.625 1015.0461794632512,1398.0C1012.3239448399595,1388.375 1009.4318570172718,1378.025 1008.6193176350562,1375.0C1006.3559601194447,1366.5737542886159 1000.1570856976123,1343.930041897981 999.0378231777311,1340.0C998.1444276809609,1336.8630400183981 995.9834399444647,1328.9729979179892 992.8753435036818,1317.5C992.2793517482052,1315.3 991.3885846508182,1312.4663261404933 990.895861065044,1311.202946978874C990.4031374792697,1309.939567817255 990.0,1307.7979438501816 990.0,1306.4437826076C990.0,1303.9816712574518 990.0,1303.9816712574518 1040.6781895190836,1304.240835628726C1091.3563790381672,1304.5 1091.3563790381672,1304.5 1092.207671495064,1307.5C1093.153924634253,1310.834646506694 1094.4599694485462,1316.7092805391942 1096.098260104276,1325.0C1096.6960163372557,1328.025 1097.5411311722596,1332.3 1097.9762930709514,1334.5C1099.1408174247142,1340.387357293872 1102.6704957849458,1357.1338991566736 1105.0371075385883,1368.0C1109.0440075821332,1386.3973479702704 1113.0875605338572,1405.5546582568709 1114.0076257312421,1410.5C1114.5192545375473,1413.25 1115.8266946530398,1419.55 1116.913048210114,1424.5C1117.9994017671886,1429.45 1120.2732315657538,1440.025 1121.966003318037,1448.0C1123.6587750703204,1455.975 1125.7137681649192,1465.425 1126.532654639368,1469.0C1127.3515411138167,1472.575 1128.4886982973658,1477.75 1129.0596706028105,1480.5C1129.630642908255,1483.25 1130.5148903484373,1487.3 1131.0246649143264,1489.5C1131.5344394802157,1491.7 1133.1096665163932,1498.9 1134.5251694391652,1505.5C1135.9406723619372,1512.1 1137.3339769898257,1518.294034351031 1137.621401945584,1519.264520780069C1138.29934813145,1521.5535967973724 1140.0,1520.4978132010488 1140.0,1517.7878606507734C1140.0,1516.6361027025112 1142.2342051744404,1506.6501603499798 1144.9649003876455,1495.5968776451482C1149.243568272473,1478.2777255470367 1155.2950725647527,1451.9003693789884 1158.064090387738,1438.5C1158.518692722814,1436.3 1159.319861282342,1432.7 1159.8444649644666,1430.5C1160.3690686465914,1428.3 1161.3390594125815,1424.025 1162.0,1421.0C1162.6609405874185,1417.975 1163.5579152257935,1413.925 1163.9932769741667,1412.0C1164.4286387225397,1410.075 1165.7816640841647,1403.775 1167.0,1398.0C1168.2183359158353,1392.225 1169.5615690636057,1385.925 1169.9849625506008,1384.0C1172.4868047673847,1372.6251290696782 1176.2004211655062,1355.9361036827293 1176.994294361691,1352.5C1177.502579673448,1350.3 1178.8403496376945,1344.0 1179.9671165044608,1338.5C1183.5595248665431,1320.9646547797788 1183.8260991112256,1319.6832677949296 1186.0001519474613,1309.5C1187.1743615273417,1304.0 1188.5546858036596,1297.8727911982728 1189.0675392281673,1295.8839804406064C1189.5803926526753,1293.89516968294 1190.0,1291.3076696829398 1190.0,1290.1339804406064C1190.0,1288.0 1190.0,1288.0 1239.9409830056252,1288.0C1267.4085236587189,1288.0 1290.0766379613117,1288.3375 1290.3145703447203,1288.75C1290.5525027281287,1289.1625 1288.9679966420795,1295.575 1286.7934457090553,1303.0C1282.3019440108603,1318.3362239543949 1281.5032031961473,1321.096879190735 1280.138852083394,1326.0C1279.6031981612866,1327.925 1278.1907147237591,1332.65 1277.0,1336.5C1275.8092852762409,1340.35 1274.4679872997037,1344.85 1274.0193378299175,1346.5C1272.5774044414409,1351.803004352419 1268.0038193111643,1367.151231338517 1264.0367449217567,1380.0C1259.5596026003436,1394.5008034399282 1254.7205114476399,1410.5201423689834 1251.8025826662201,1420.5C1250.6769127194316,1424.35 1248.939469438492,1429.975 1247.9415975974657,1433.0C1246.9437257564396,1436.025 1244.72000683758,1443.45 1243.0,1449.5C1241.27999316242,1455.55 1239.0562742435604,1462.975 1238.0584024025343,1466.0C1237.0605305615081,1469.025 1235.2495039471669,1474.875 1234.0338988151093,1479.0C1230.851977944531,1489.7974400938226 1230.204343605663,1491.919989505695 1228.3891608400877,1497.5C1227.4945832025676,1500.25 1226.403169003373,1503.85 1225.9637959529887,1505.5C1225.524422902604,1507.15 1224.1907147237591,1511.65 1223.0,1515.5C1221.8092852762409,1519.35 1220.4679170433283,1523.85 1220.0191817046389,1525.5C1219.5704463659495,1527.15 1217.761814598862,1533.0 1216.0,1538.5C1214.238185401138,1544.0 1212.4375124252279,1549.85 1211.9985044979771,1551.5C1211.5594965707264,1553.15 1209.793298398185,1559.0 1208.0736196701068,1564.5C1206.3539409420287,1570.0 1204.0419733319468,1577.8033648009875 1202.9359138699244,1581.840810668861C1201.829854407902,1585.8782565367344 1199.8678875921871,1592.4032565367345 1198.57598761278,1596.340810668861C1195.9488293601873,1604.3480697431985 1192.5503076787545,1615.4519807020547 1190.87563313894,1621.5C1190.266461142937,1623.7 1189.4009297018902,1626.625 1188.952229936613,1628.0C1188.503530171336,1629.375 1187.2240703592488,1633.65 1186.1089859097522,1637.5C1178.6428128684981,1663.2781069602447 1175.8461754734878,1672.139826530109 1174.6689821080208,1673.75C1173.9640136911732,1674.714260821729 1164.5282186956274,1675.0 1133.3909753054213,1675.0C1093.0268400417267,1675.0 1093.0268400417267,1675.0 1091.5134200208634,1671.3778760453274zM1064.8657952678839,1213.8380952189693C1053.5152435948894,1208.1913020854433 1041.9736973309664,1196.761377959072 1036.7558393034403,1186.0C1024.4011792565243,1160.5195891457124 1024.001821859343,1122.1107440308733 1035.4873397609404,1064.0C1036.9548819829788,1056.575 1038.811676077871,1047.1785873593617 1039.613548860701,1043.1190830208038C1040.4154216435313,1039.0595786822457 1040.8722292918806,1035.5388959585487 1040.6286769681437,1035.2953436348103C1040.3851246444071,1035.0517913110718 1033.3877463245317,1036.5294129911968 1025.0789473684204,1038.5789473684213C1016.7701484123091,1040.6284817456458 1009.6812118231733,1042.0145451565095 1009.3257549481184,1041.6590882814517C1008.9702980730635,1041.3036314063938 1009.4218663178373,1038.4224223669073 1010.3292399365043,1035.2564015270368C1011.2366135551715,1032.0903806871665 1013.1031258629166,1025.0 1014.4770450648268,1019.5C1018.6709810907017,1002.7110592018498 1020.9769180252827,994.6178930743724 1021.7562760650874,993.9520221338581C1022.1653242292892,993.6025379790773 1029.025,992.0646545544384 1037.0,990.5345034124385C1044.975,989.0043522704386 1052.2534069761805,987.3605314222191 1053.1742377248454,986.8815681941728C1054.699198518902,986.0883712406347 1060.0,975.9823980557114 1060.0,973.8682586474276C1060.0,973.3787281342144 1060.8482607753626,971.070607455865 1061.8850239452504,968.739101584429C1062.9217871151384,966.407595712993 1064.7999071374522,961.8 1066.058623994837,958.5C1067.3173408522216,955.2 1069.3420266452895,950.25 1070.5579257572097,947.5C1071.7738248691298,944.75 1074.2205169102738,939.125 1075.995019181974,935.0C1082.0741819347538,920.8684056058196 1084.936052451041,915.0 1085.7485049105298,915.0C1086.1957051985182,915.0 1095.4481627031491,917.925 1106.3095215874873,921.5C1117.1708804718257,925.075 1126.7336444529503,928.0 1127.5601082122084,928.0C1129.9171320522146,928.0 1130.2069605880088,930.2633849320257 1128.3992087388488,934.5528657599182C1125.1133681860092,942.3495940893433 1119.6595979796402,957.5306547106729 1118.0,963.5C1117.5412668335164,965.15 1116.6938402308717,968.0189009572665 1116.116829771901,969.8753354605924C1115.0677198464991,973.2506709211847 1115.0677198464991,973.2506709211847 1120.7838599232496,972.6024110379226C1123.9277369654624,972.2458681021285 1128.9659428793261,971.3029100241885 1131.9798730651692,970.5069486425004C1134.9938032510124,969.7109872608124 1137.8246660182117,969.4246660182125 1138.270679214501,969.8706792145007C1138.71669241079,970.3166924107888 1138.6612318096363,972.4407495314623 1138.147433434159,974.5908061493305C1135.7274918573785,984.7173687278469 1127.859210474231,1014.418785243579 1127.399409234422,1015.1627592776597C1127.1148154616774,1015.6232416749469 1125.6256741280713,1016.0 1124.0902062708526,1016.0C1122.554738413634,1016.0 1119.9937960611028,1016.4081283499586 1118.3992232652276,1016.906951888797C1116.8046504693523,1017.4057754276354 1112.6499545394433,1018.3752326250204 1109.1665656432074,1019.0613012163194C1102.361988197174,1020.4014923353269 1101.774394646905,1021.0342082237569 1099.9366483767894,1029.0C1099.4925416678336,1030.925 1098.1906387143258,1036.325 1097.0435307023272,1041.0C1095.8964226903286,1045.675 1094.4757116586245,1051.975 1093.886395076318,1055.0C1093.2970784940117,1058.025 1092.4495534267608,1062.3 1092.003006037983,1064.5C1085.071344042823,1098.6501412226082 1082.4847319585128,1122.6216436713219 1083.2628121649718,1145.5C1083.6858160202114,1157.9378346194103 1084.1766696438842,1161.6014967333772 1086.1364769216934,1166.948627838713C1088.8080593011043,1174.23776356301 1096.2098116900258,1183.0537294522017 1103.5530071973785,1187.6928420126874C1105.9968863463873,1189.2367789057093 1107.9972284697535,1191.0220464801453 1107.99821191597,1191.6601032892117C1108.0000359839673,1192.8435528630978 1099.3688914985462,1200.7957085242977 1086.0958752443137,1211.8394422924239C1081.0059900267827,1216.0744508372834 1077.8384343665662,1218.0 1075.9616705121975,1218.0C1074.460126525161,1218.0 1069.46698266522,1216.127142848536 1064.8657952678839,1213.8380952189693zM1177.3040489480181,1178.559051020571C1147.8886077340983,1171.0865007561065 1130.5071204702929,1143.4159242223388 1132.2549024903783,1106.8427567864878C1133.4680572416733,1081.4569184297363 1142.5112097038295,1055.5548768608485 1156.1554912718461,1038.384987581649C1162.844477850368,1029.967603465765 1163.2725386050051,1029.6485922110894 1167.657120938894,1029.8134255518376C1171.4307660501445,1029.9552914088601 1171.3548666294746,1030.0635692907172 1169.9928715756128,1026.4812508230073C1168.4895431805817,1022.5271974971284 1171.0098077926252,1018.1857807042711 1179.3954096450639,1010.2844052715022C1186.2199715918723,1003.8539275246677 1193.1734366406586,999.5831390971367 1201.0,997.0149584817299C1206.5221313429022,995.2029459777175 1221.7952488699732,994.598131371844 1228.2194755629014,995.9370687610831C1239.3369655044446,998.2541761218195 1252.0135020236025,1006.6193342928623 1257.4862357527568,1015.25C1258.5051037879853,1016.856785538441 1260.123938495237,1018.0 1261.380339260573,1018.0C1264.1527747749765,1018.0 1286.178833192613,1010.7971363089589 1293.4238701684617,1007.5212669950799C1303.5879389255617,1002.9255470482346 1309.4291506373568,1000.2622923870482 1316.0,997.2278576868737C1319.575,995.5769137290349 1322.7952440678046,994.4007016300636 1323.1560979284545,994.614053022493C1323.5169517891045,994.8274044149222 1323.4136882143016,996.464022599946 1322.9266233177816,998.2509823225458C1322.4395584212616,1000.0379420451457 1320.8533240159688,1006.9 1319.4016579726867,1013.5C1314.12045907653,1037.51097199727 1313.4701351751844,1039.957025847186 1311.9978227919762,1041.347937789843C1311.1740202563892,1042.126194359717 1307.575,1043.9915234059097 1304.0,1045.493113448049C1300.425,1046.9947034901884 1296.6,1048.6313023151974 1295.5,1049.1299997258473C1294.4,1049.628697136497 1289.6889942753114,1051.5182961750988 1285.0310983895808,1053.3291087005177C1276.5621967791617,1056.6214951103705 1276.5621967791617,1056.6214951103705 1276.3198552346812,1068.7759857203164C1275.6418646604297,1102.7801845712754 1261.926949826273,1137.236035806336 1240.576973198264,1158.5724912802298C1225.5463051229829,1173.5936402828183 1213.1264144642346,1179.2078901740365 1194.0,1179.627005679472C1186.9261922575129,1179.782013431337 1180.5001497115916,1179.3709723319803 1177.3040489480181,1178.559051020571zM1206.0213325000273,1130.6045805828257C1209.8897692861874,1128.044570249962 1215.8544577552912,1120.1662839885591 1219.800849814008,1112.4043036520495C1224.6390568471477,1102.888252713258 1231.6316472816693,1077.9238559886203 1232.2298032425033,1068.031431085515C1232.4598155006563,1064.2274415918755 1232.2025538003045,1063.514077655795 1230.5,1063.234839723376C1221.145988324429,1061.700676820775 1213.6786733626238,1057.032783395787 1210.3227142625183,1050.6218161787892C1207.6849263366112,1045.5827881650546 1205.2255270087408,1034.5735018555963 1203.752402430895,1021.2103890562994C1203.613581093903,1019.951103037264 1203.05,1018.826103037264 1202.5,1018.7103890562994C1200.8783294989912,1018.3692073299636 1200.7013448848609,1024.8208697790449 1202.0480451727776,1035.1856064179847C1203.306505412157,1044.8712128359693 1203.306505412157,1044.8712128359693 1200.0603139038785,1047.602702906206C1195.6966208459555,1051.2745085365518 1192.7759095994556,1056.1070267523114 1189.6012298669134,1064.9079788691638C1180.8103644816097,1089.2783065367657 1179.474075860869,1116.9174284622393 1186.5635719830093,1127.737367159974C1190.87093716166,1134.3112373446559 1198.6811082155982,1135.4621111700908 1206.0213325000273,1130.6045805828257zM2061.5,999.4281048691946C2058.2,998.6552067333984 2051.45,997.0982468620539 2046.5,995.9681940439847C2041.55,994.8381412259155 2033.7875,993.0330032313542 2029.25,991.9567762782931C2017.1306424956726,989.0822464270663 2005.2460268233212,986.3721446784609 1999.0,985.0587342922964C1979.8953376196991,981.041418532338 1976.1070744046126,979.9210017273462 1975.5665997994397,978.1280713757797C1975.0861902379252,976.5343963431723 1973.7632309365817,968.9812171136302 1972.0411149095085,958.0C1971.5667229611488,954.975 1970.960135630423,951.825 1970.6931430634515,951.0C1970.42615049648,950.175 1969.672628851422,946.125 1969.018650518878,942.0C1968.3646721863342,937.875 1967.4519808565872,932.475 1966.9904475638846,930.0C1966.5289142711817,927.525 1965.637182492542,922.575 1965.0088213891295,919.0C1964.3804602857172,915.425 1963.4829703750354,910.7 1963.0143993653926,908.5C1962.077339395538,904.1003852324294 1961.030559371333,898.7988859753648 1957.9794291950852,883.0C1955.9182300594389,872.327020403748 1954.6006238616737,866.2880490932071 1952.9611999321473,860.0C1952.4593127780304,858.075 1950.948931165068,851.9645158847322 1949.6047963477863,846.421146410516C1945.4762634204883,829.394592892049 1939.029010279369,813.655393607216 1933.2640630832184,806.5297303792396C1931.1759352101894,803.9487360537252 1930.6795702587056,803.8095884284804 1925.7554513566129,804.4248164695866C1916.9388171268238,805.5263821941749 1917.507080834135,802.6148089000654 1918.877834324444,839.6631852415787C1919.5460457438649,857.7234333587104 1920.5069404895225,879.25 1921.0131559814613,887.5C1921.81310033951,900.5370189356054 1923.4338553010527,933.6765060959302 1923.4829626251774,938.0C1923.5060265534341,940.0305882065298 1919.3672880458032,939.8600221615525 1904.5,937.2176725224463C1897.9,936.0446605000535 1887.325,934.1908388253166 1881.0,933.0980688008085C1870.1949127242733,931.2312742573922 1853.4856900588961,928.2265428307101 1841.0,925.9050796669496C1837.975,925.3426417049907 1833.8191683785774,924.625553842036 1831.7648186190609,924.3115510826057C1829.710468859544,923.9975483231754 1827.5960535651236,923.2182006092305 1827.0661179647932,922.5796672738392C1826.4493082641595,921.8364570513112 1826.4348498623158,904.3410832548113 1827.0259375084825,873.9593487865639C1828.1749865359773,814.8985603049831 1830.0399520434983,633.366482154414 1830.0170635498282,582.809016994375C1830.00650710249,559.4913087082501 1830.3702901617316,544.8891820831002 1830.9710104666715,544.5179165169152C1831.5050662233407,544.187851907406 1835.8925662233407,544.3904164339984 1840.7210104666715,544.9680599093427C1845.5494547100022,545.545703384687 1853.55,546.4770814555469 1858.5,547.0377889556978C1887.4078049129698,550.3122986582438 1896.4447470231414,551.5317899028043 1914.5,554.5947157195116C1962.9204823705836,562.808854048139 1991.861371649567,577.4495024293542 2011.6483418722783,603.7402240160716C2025.3061559281496,621.8872057310351 2032.3613792707076,641.6833328214649 2035.09150266383,669.5189765654804C2039.5819383428757,715.302316663656 2024.3504003524129,756.0513131795279 1995.758746347607,774.7460620438469C1992.601056838791,776.8107279197311 1990.0135568387911,778.8598046251165 1990.008746347607,779.299565833592C1990.0039358564231,779.7393270420677 1991.6195498919408,781.7643270420676 1993.5989997598685,783.799565833592C1997.7309241303708,788.0479445870764 2006.597614082933,801.1562610737415 2010.30679680383,808.5C2020.143530210886,827.9755576805757 2028.418091072631,851.6154359458762 2041.9841070498435,899.0C2047.5802641347714,918.546745654223 2055.7133043112713,946.3609661264181 2057.627818865449,952.5C2060.477694341648,961.6383385128603 2067.1095596411997,984.4138828003694 2068.692796202617,990.5C2069.5512549672617,993.8 2070.6853039517346,997.042787805575 2071.212905057001,997.7061951235C2072.455627072997,999.2687977627442 2071.3507934198556,1001.0230986173357 2069.1909830056247,1000.9166871035029C2068.2609423525314,1000.8708650104295 2064.8,1000.2010030049908 2061.5,999.4281048691946zM252.36191158362163,955.75C253.89692431467125,887.3273272228819 255.06624933773446,836.2959670641558 255.96511477681042,798.5C256.7512479226332,765.444259734691 258.1296100588984,676.7227239853578 259.2741889907055,585.5036194110837C259.5,567.5072388221673 259.5,567.5072388221673 263.5,566.8011571027123C286.23730932636147,562.7875574864784 299.2697053136995,560.6247968810686 323.0,556.926974631054C326.575,556.369892862009 330.85,555.6942890445475 332.5,555.4256328144729C334.15,555.1569765843983 341.735564059411,554.2763043797478 349.3568090209134,553.468583470805C390.3779091686938,549.1210522650024 417.9357044304997,554.7200950870988 438.3354873375764,571.5467869488248C445.88156838192526,577.7711463488858 448.46687417555006,580.9683343472026 454.46520174414024,591.4940324329414C469.5766448708383,618.0111717809707 472.23916350559495,660.0783679558795 461.01098743862224,694.9159756013717C452.6830806400539,720.7549317974846 437.55409491752397,746.8893945448892 420.5021023047815,764.8927717254292C413.0584323816194,772.7517475224269 398.41013104878164,785.0081043131169 388.5,791.6691995846979C381.060291638279,796.6698000758786 359.38690402762205,807.4179793807622 352.0,809.770132935576C346.5,811.5214545316197 346.5,811.5214545316197 346.73049956260496,829.5107272658099C347.05209742493037,854.6097408635893 348.9129312644321,920.6326637280441 349.95734114611236,944.0C350.4948836072288,956.0268255497117 350.46985120578785,963.9328636155376 349.89202327733426,964.6294852755187C349.3767414594473,965.250702177054 347.72773911472973,966.0178044184511 346.2275736224063,966.3341569230677C344.72740813008284,966.6505094276843 334.5,968.7566969703611 323.5,971.0145736845716C312.5,973.2724503987822 297.425,976.4954738587412 290.0,978.176848040036C282.575,979.8582222213307 274.7,981.6218385374605 272.5,982.095995409213C270.3,982.5701522809655 265.35016808107986,983.6425265796096 261.50037351351074,984.4790494061997C257.6505789459416,985.3155722327899 253.86681580049273,986.0 253.09201096806873,986.0C251.8964532340259,986.0 251.78597024978973,981.42238995904 252.36191158362163,955.75zM783.5587064990307,889.0949891107923C783.2510763796852,888.597233121728 783.4590239495274,879.484733121728 784.0208122097912,868.8449891107923C785.7715576916795,835.6875077728085 787.0014575993393,810.3503431134314 787.9936775995468,787.0C788.5195252259788,774.625 789.4178863414663,753.7 789.9900356339638,740.5C793.2998129770812,664.1404527593585 793.9729392543419,641.9457544739498 793.9857820905584,608.75C793.9969018851313,580.007908750309 793.72762215135,572.0004857897616 792.75,572.0022293927535C792.0625,572.003455558768 784.75,572.6955643386236 776.5,573.5402489035439C752.8568023091836,575.960981528367 742.1775078118252,576.9642358140287 732.5916935283204,577.6651652690168C723.6833870566409,578.3165543128049 723.6833870566409,578.3165543128049 724.355996320232,570.9082771564024C724.725931415207,566.8337247203812 725.4745492703415,555.625 726.0195915538643,546.0C727.4820111516225,520.1748685304809 728.9119118652827,503.6795533224783 729.7548416271119,502.9102058972927C730.5212384712447,502.2107105592418 751.8903397469212,500.83761079667033 790.5,499.0069456963539C802.6,498.43322793845005 821.275,497.5326083581897 832.0,497.00556885133096C842.725,496.4785293444723 870.0960096124287,495.50183132632594 892.8244658053972,494.8351288110058C928.6048565140742,493.7855688988815 934.2700382901743,493.8159349116488 935.0516374261974,495.0614712097573C935.5481256246692,495.8526620443908 935.7588415786,497.175 935.5198951015993,498.0C935.2809486245986,498.825 934.604131120331,512.6572023906623 934.0158562032268,528.7382275348051C933.4275812861225,544.8192526789479 932.6934978223999,558.63515693498 932.3845596171763,559.4402369926544C931.7167336645618,561.1805635283706 929.0749009665576,561.5432901240273 906.0,563.0628666523854C870.5617530025413,565.3966200419035 874.4984470058114,561.8414603845986 874.5110366028933,591.5C874.5171067344846,605.8 875.1025343977066,634.6 875.8119869656085,655.5C876.5214395335105,676.4 877.5277526349386,707.9 878.0482383021154,725.5C878.5687239692921,743.1 879.4420109532188,771.45 879.9888760441745,788.5C882.1293615501124,855.2354316079159 882.3997196135982,878.0 881.0518018271378,878.0C880.3555352204238,878.0 872.5215434702076,878.8969151128904 863.6429312711016,879.9931446953119C854.7643190719957,881.0893742777336 843.675,882.4530572374703 839.0,883.0235512725047C834.325,883.5940453075392 827.125,884.4784302291092 823.0,884.988851098216C818.875,885.4992719673227 811.0,886.4274958515281 805.5,887.0515708408947C800.0,887.6756458302613 793.3403505036948,888.5943457958008 790.7007788970997,889.0931263198715C784.749338119618,890.2177265173243 784.2526764362098,890.2178560563185 783.5587064990307,889.0949891107923zM1106.0792823117329,881.5955293415215C1105.533923610368,880.9384123062629 1104.8174379436493,878.3980975990875 1104.4870919412472,875.9503855477983C1104.156745938845,873.5026734965093 1103.4920807081055,869.7 1103.0100580951591,867.5C1102.5280354822128,865.3 1101.6555406664352,860.8 1101.0711807267642,857.5C1100.4868207870932,854.2 1099.2930044094844,847.9 1098.418255443189,843.5C1097.5435064768935,839.1 1096.378033435259,832.8 1095.8283153506677,829.5C1094.4992652084973,821.5216096357381 1093.4493789900323,815.7507472197096 1092.0078100261042,808.5C1091.3517152214154,805.2 1090.4614637966592,800.7 1090.029473526646,798.5C1082.889526081464,762.1383375511709 1079.138232149661,748.6441324643555 1071.9834369228518,733.5845539265106C1069.8426944550754,729.0786696487916 1066.7648179789767,724.0041285500224 1065.1437114204105,722.3077959292459C1062.4485260783538,719.4875428184247 1061.78128185591,719.2680794477515 1057.348122475145,719.743747910898C1048.4914756860123,720.6940470553635 1048.7779041380118,720.0570536784188 1049.443461166789,737.323066115029C1050.2473590250158,758.1779437855582 1051.826027375562,795.1423619232335 1053.035390784796,821.4278676556327C1053.661446214145,835.035178288073 1053.6893643314522,843.7106356685479 1053.1089657605817,844.2910342394182C1052.5945513500978,844.8054486499024 1039.8720917951325,845.8327980613187 1024.8368334162146,846.5740329314547C1009.8015750372965,847.3152678015907 989.4368135499806,848.3691236877561 979.5818078888458,848.9159349007111C969.7268022277109,849.4627461136662 961.2222620667042,849.6373655116329 960.6828297532752,849.3039780073038C960.0560962679699,848.9166354114975 959.9410867839638,840.1788824590508 960.3642338328171,825.0989094542618C961.791650119192,774.229125242235 964.6931287806857,621.0527216626876 965.654136719482,545.831544776393C966.3142406650809,494.163089552786 966.3142406650809,494.163089552786 975.5750998729886,493.46877493968043C989.9511569590919,492.3909584769057 1068.422086039644,493.56599138304045 1076.0,494.97254918610736C1087.0397932472797,497.02167608533625 1102.1886875482353,501.0294681493845 1109.0,503.70303046653C1118.4332545044472,507.4057520711742 1131.0839235643957,516.2304134358449 1138.7896478157431,524.4832400270668C1153.482156427233,540.2189089668751 1161.9411684659108,565.8205135661644 1161.9825409203618,594.6776405153341C1162.0356236645052,631.7026492294146 1152.2214159106916,658.5233328619971 1131.585933539729,677.746779717425C1128.189234595174,680.9110508728413 1124.080340889599,684.1563832204446 1122.455058638451,684.9586293787656C1116.5512113219213,687.8727932574733 1116.5174446716826,688.070485447487 1121.1776047947787,692.4376847843733C1131.4677723142447,702.0809613200305 1140.5414870181037,715.0100299411092 1146.8373044144626,729.0C1148.4461389650182,732.575 1153.0115423854077,745.625 1156.9826453486612,758.0C1160.9537483119148,770.375 1165.0022749878285,782.975 1165.9793712951362,786.0C1166.9564676024438,789.025 1168.7415230185159,794.875 1169.94616110863,799.0C1171.1507991987437,803.125 1172.526660885774,807.625 1173.0036315242528,809.0C1173.4806021627314,810.375 1175.2789679768177,816.225 1177.0,822.0C1178.7210320231823,827.775 1180.4979013087445,833.625 1180.9485984123603,835.0C1181.3992955159763,836.375 1182.2641009039103,839.3 1182.8703881633248,841.5C1184.0978709453223,845.9540967642997 1190.0578108678328,865.097558799438 1193.2295009163295,874.7737048163606C1194.3605334476856,878.2242424653588 1195.1090908679755,881.2028267085054 1194.8929618503066,881.392780912242C1194.676832832638,881.5827351159784 1174.8284398070618,881.9748826557916 1150.785421793471,882.2642198896044C1117.567782165908,882.6639658764935 1106.8327454917487,882.5033969336022 1106.0792823117329,881.5955293415215zM1782.0,877.02882022332C1779.525,876.5947968774052 1773.675,875.7181627062567 1769.0,875.0807442874345C1764.325,874.4433258686123 1758.025,873.5069280901722 1755.0,872.9998603353454C1745.5633534659805,871.4180358159736 1727.8406862594215,868.7260477651088 1715.5,867.0C1711.1,866.3845876957871 1704.8,865.4845876957871 1701.5,865.0C1693.0976541309126,863.7661595685129 1683.0577184208955,862.3757689406029 1664.5,859.8760176640039C1655.7,858.690645047869 1648.0212885034136,857.221115912322 1647.4361966742526,856.6103973627885C1646.6938676775135,855.8355547388271 1646.597299386221,841.7502009386121 1647.1166387495016,810.0C1647.5259737200495,784.975 1647.8666370808644,713.875 1647.8736684402015,652.0C1647.886361875537,540.2995060078273 1647.9006571366904,539.4977830973512 1649.8851816296242,539.1880554422996C1651.9185845495158,538.8706992592968 1669.2078032305265,540.2446755647132 1685.5,542.0183693775588C1690.45,542.5572644386616 1699.0,543.4348691257528 1704.5,543.9686020155393C1726.2259139631253,546.0769356233194 1735.169528699695,547.036646763946 1751.5,549.0120240476864C1760.85,550.1430249394137 1772.876930155534,551.5101209451391 1778.2265114567422,552.0500151715205C1794.691047242392,553.7116606929586 1793.0700525123386,549.7888443296556 1792.763878781389,587.2305258562154C1792.5,619.5 1792.5,619.5 1786.5,619.4748957378957C1780.3957457597692,619.4493552714961 1730.1964252750229,613.2394314849636 1728.720507688237,612.3272642517361C1728.2760430955566,612.052570026664 1727.3027837192878,612.3337486883815 1726.5577090743063,612.9521057222198C1725.4655716531609,613.8584992773249 1725.2915573621872,618.478048577867 1725.6598248840655,636.7881956191447C1725.9110632244144,649.2796880286152 1726.3072866315115,660.4460864987661 1726.540321344281,661.6024144417024C1726.910430275816,663.4389103627503 1728.1362588128313,663.8658658321449 1736.2320104110222,664.9780249204655C1741.3294046849599,665.6782827408487 1752.025,667.2188062731524 1760.0,668.4014105478069C1774.5,670.5516001380879 1774.5,670.5516001380879 1774.3243422001997,680.525800069044C1774.2277304103093,686.0116100310697 1773.5881084065456,700.7375 1772.9029599696137,713.25C1771.4474636166365,739.8309525862414 1774.4415759343062,737.4393149464686 1747.52423121312,733.5220260644255C1738.1875583803358,732.1632573945593 1730.2532314014998,731.3774416196637 1729.8923934823733,731.7757687868798C1729.1099497422372,732.6395045030949 1730.6764323370369,782.8986111339962 1731.7538863531126,791.5C1732.5054770784204,797.5 1732.5054770784204,797.5 1738.0027385392102,798.1511843900278C1744.0823623554431,798.8713531785435 1757.9723658877526,800.6532296072421 1768.0,801.9993773007177C1771.575,802.4792988804547 1778.1312021779959,803.3217926759967 1782.569338173324,803.8715857352553C1797.5116998027654,805.7226346263768 1796.390945423299,804.5203068306892 1795.6413363794227,817.8950212678931C1795.0337365128203,828.7359719931736 1793.75403341285,847.4144978827954 1792.1742882547421,868.5C1791.4119319372244,878.675480307431 1791.4081394124512,878.6786594744816 1782.0,877.02882022332zM1539.0,844.433636309964C1507.9024171293868,839.0097543294991 1485.978341947222,826.1589832834383 1468.712556171923,803.2347332528232C1461.0748567978592,793.0939535403695 1450.8516195712555,772.534800693984 1447.9595571636178,761.5C1447.5271159166086,759.85 1446.5264029661962,756.025 1445.7357506071455,753.0C1440.7861362379406,734.0630003244111 1439.6881698491381,723.7940949377629 1439.6946879396482,696.5C1439.7003803026344,672.6635872472087 1440.1291354326418,667.5165124594391 1443.418273530067,651.7994887496394C1449.7125796672717,621.7223816580808 1460.0285187021332,597.3884240326048 1474.9760198315107,577.3588722764575C1484.393383282319,564.7396681023434 1501.9396952209881,550.4545912698982 1515.2560482842478,544.5654679831978C1528.242433448983,538.8222721607091 1534.4857865299616,537.6055679915635 1551.0,537.5996894167423C1568.2441235732292,537.5935510153685 1576.364301707254,539.2219728424211 1588.9866613061279,545.217540575519C1596.5111570868578,548.7916444312514 1610.0,557.6270973573612 1610.0,558.981683730394C1610.0,559.4880885478026 1609.3013432941507,562.5118753155857 1608.447429542557,565.701209881023C1607.5935157909635,568.8905444464604 1606.426870626737,573.975 1605.854884733165,577.0C1605.2828988395927,580.025 1604.4555742355144,584.3 1604.0163856129911,586.5C1603.5771969904679,588.7 1602.483925777483,594.55 1601.58689402858,599.5C1599.3667913413667,611.7509691715476 1596.8680616053546,622.3211684152299 1595.9471475583773,623.357419637962C1595.5280547995103,623.829000438841 1590.7532927425846,619.7487494697825 1585.3365652096538,614.2901952622763C1572.6919136935082,601.5479047711465 1565.3579573320885,597.5477186274258 1555.7873785938773,598.1730763385192C1536.9752470518056,599.4022926527814 1526.6826468771924,614.8024378772109 1520.8149743881838,650.5C1519.0189010002225,661.4268950276174 1519.0160495161977,706.4696261210496 1520.8109544446506,714.0C1525.4010730325965,733.2574595835248 1529.6720885007628,741.5614952018175 1538.345607627298,748.0922166328805C1544.3868101749022,752.640936751146 1548.8377663130193,754.0029785325594 1557.6160195593893,753.9891757091068C1567.6742652747557,753.9733602403621 1577.7275909376385,750.3733857408936 1588.6801752671886,742.8654767317149C1590.9792716641423,741.2894645292718 1593.305606657279,740.0 1593.8498085852702,740.0C1594.9581174499826,740.0 1597.8510739234591,748.8633026065348 1603.152126598568,768.5C1603.7460307389415,770.7 1604.5775737695858,773.625 1605.0,775.0C1605.4224262304142,776.375 1606.2695951746975,779.3 1606.8825976539633,781.5C1608.116431694892,785.9280977350949 1614.3908707658345,806.956732072385 1616.5798165287058,814.0C1617.349010717935,816.475 1617.9832223491155,818.8465850899963 1617.9891757091068,819.2701890888808C1618.007200367144,820.5527114349529 1603.0807803560658,829.8757767696941 1593.5,834.5661666213708C1579.852589675752,841.2474256115108 1569.1890252438852,843.9210338950553 1554.1309007712487,844.436932675836C1547.183905347062,844.6749401697931 1540.375,844.6734568051507 1539.0,844.433636309964zM565.0,831.910757103537C543.4488828217452,826.3998235340677 527.4632715981376,815.5830723898287 513.8353152386562,797.2898937098635C505.18949236085695,785.6843691127084 496.1854344131292,765.2974579320738 493.1701487208454,750.5C492.6097797918143,747.75 491.55475449502035,742.575 490.82564806130347,739.0C489.11791099010543,730.6265174092492 489.01458531075315,685.693140690247 490.68652645377534,678.5C491.3257240367651,675.75 492.3784659177653,670.575 493.02595285599807,667.0C494.3523512607389,659.6764942781849 497.70010555031274,647.3893863868636 499.0845069473497,644.7635688444391C499.58802812630734,643.8085317088805 500.0,642.1475893563493 500.0,641.072585838814C500.0,639.9975823212787 500.45,638.8399186938125 501.0,638.5C501.55,638.1600813061875 502.0,637.1823489317321 502.0,636.3272613900989C501.9999999999999,633.6987745674418 515.5177962817697,606.9685952319979 521.1297337347297,598.5C527.8183244767715,588.4067001117476 541.1251520348048,574.4685176265526 551.5,566.6887879373812C559.4242255483728,560.7466928850796 572.8526719965658,553.7380453820243 582.5,550.5091000313427C602.4133176842038,543.8441442497866 624.7817048298124,544.8952032815948 643.3008611139953,553.3660469269586C681.5309017150568,570.8528423034893 706.0277203640477,619.0122157514606 705.9920110177261,676.6133364365655C705.9852126170799,687.5795269838904 704.1707154711489,707.6295744239193 702.563328711097,714.5C702.3059755942518,715.6 701.3542871467495,719.65 700.4484654944251,723.5C693.8188322985696,751.6778291991029 679.8885795486563,779.1485690806186 663.0572214961098,797.2362886492053C645.1812497860226,816.4465961180751 625.9842428078325,827.6373598805513 602.5,832.5377062423142C592.5494688041143,834.614036730905 574.3838015770272,834.3103314129494 565.0,831.910757103537zM1397.5,827.9045243893171C1388.15,827.4824375769651 1370.7741816647517,826.7209267243566 1358.887070366115,826.2122780501868C1346.9999590674786,825.7036293760169 1336.815937021168,825.0042768117612 1336.255910263203,824.6581612407294C1335.6958835052378,824.3120456696976 1334.9450154595313,820.5348666569296 1334.5873146060771,816.2644301012449C1334.2296137526228,811.9939935455602 1333.510365927002,803.55 1332.9889861046977,797.5C1332.467606282393,791.45 1331.5820698531522,780.2 1331.0211273730513,772.5C1328.7027309076686,740.6756090566845 1331.5322881005513,744.366071601445 1308.8190060722254,743.5427846162565C1296.3631668749263,743.0912985523778 1288.4211395590041,743.1788604409957 1287.8257621269177,743.7742378730823C1286.8574677772974,744.7425322227026 1282.4179185585413,783.8030016814178 1280.095467760303,811.7876581857461C1279.6715364878162,816.8958701879063 1278.9021157934772,821.4978842065232 1278.3856439951055,822.0143560048946C1277.8095300665268,822.5904699334728 1261.0914938277726,822.7059273706235 1235.1291360868217,822.3130923799002C1202.1008497680677,821.8133432169354 1192.7036681776747,821.3913465860255 1192.3196685036755,820.3906594762298C1192.0490688841294,819.6854881713293 1193.4702185720994,812.446610618991 1195.4777789213867,804.3042649154781C1197.485339270674,796.1619192119651 1200.224113701707,784.8875 1201.5639443236819,779.25C1202.9037749456568,773.6125 1205.1001724769305,764.3875 1206.4448277265124,758.75C1207.7894829760942,753.1125 1210.5008913544862,741.3 1212.4701796784946,732.5C1214.439468002503,723.7 1216.9212483457295,713.125 1217.985247107887,709.0C1220.7791051386293,698.1685359168605 1225.7977053484865,676.7973912785351 1227.6133045697761,668.0C1228.129038924724,665.5010360970316 1230.2733829398499,656.286698957793 1233.9548757028042,640.75C1238.5412890600087,621.3943396157332 1241.9250700228104,606.8872888381924 1243.9263467052854,598.0C1246.8953001927746,584.8154426514159 1247.5912752231197,581.7788290336789 1250.0,571.5C1251.159975285754,566.55 1252.5099752857539,560.7 1253.0,558.5C1253.9341472630356,554.3060809609565 1256.6538554267984,542.6755045797078 1259.9567762782926,528.75C1261.7141272796098,521.34080053162 1263.4417592046204,513.6688699321849 1267.0812599674496,497.1121588437119C1268.2656166850084,491.7243176874238 1268.2656166850084,491.7243176874238 1294.3828083425042,492.35241666319416C1308.7472637541268,492.6978710998678 1328.0448024368134,493.27315404294956 1337.266227637363,493.6308232033758C1353.2602422183493,494.25117912912634 1354.0526609493115,494.3782863705478 1354.4711592526855,496.39056538389355C1354.7124464405633,497.5507544227521 1355.4079310675183,500.75 1356.016680645919,503.5C1356.6254302243196,506.25 1357.508168349403,510.5715525783767 1357.978320923882,513.1034501741705C1358.448473498361,515.6353477699643 1359.5262832834142,520.5853477699642 1360.373453779556,524.1034501741705C1361.220624275698,527.6215525783767 1363.0763390250731,535.9 1364.4972643337233,542.5C1365.9181896423736,549.1 1368.391856769501,560.35 1369.9943023940064,567.5C1371.596748018512,574.65 1373.6342053081005,584.1 1374.5219852597588,588.5C1375.4097652114172,592.9 1376.981493832353,600.1 1378.0147155285051,604.5C1379.0479372246573,608.9 1382.4365804044703,623.975 1385.5450337058674,638.0C1392.0431006337174,667.3185645163583 1394.8707334559303,680.0385089377629 1395.9930937162844,685.0C1396.4285562564928,686.925 1397.7806987994063,693.225 1398.997854922759,699.0C1401.5421504955746,711.0718342134585 1402.2078835774837,714.139445930478 1404.96590480695,726.5C1406.0704026319725,731.45 1407.9283242171232,740.0 1409.0946194406183,745.5C1411.3758230887265,756.2576707953881 1411.6693664021986,757.573675726302 1415.00561386342,772.0C1416.2139530532347,777.225 1418.0017804236584,785.1 1418.978563575473,789.5C1419.9553467272872,793.9 1422.2059976014386,803.9174783986506 1423.9800099624758,811.7610631081124C1425.7540223235133,819.6046478175741 1426.9483755698238,826.6921478175741 1426.6341282876106,827.5110631081124C1425.9992728234834,829.1654699280977 1425.562832570873,829.1713641267936 1397.5,827.9045243893171zM604.6124320286044,746.75C615.3369570375845,739.5463238174989 623.6732953265309,721.6253346727234 628.6850712656382,695.0C631.0279614004701,682.553267604291 631.0469978584047,648.2143077354934 628.7167957330633,637.7737440696023C623.0748222229303,612.4946564774959 616.2886089620876,604.0 601.7356187448437,604.0C589.3298452256255,604.0 581.0826007522896,612.2846614060979 573.0593448425616,632.8063753217243C569.4779579871671,641.9667707141326 567.7404892661685,649.9731780028998 565.5304888248149,667.5C561.3496996852404,700.6565305081323 567.0386653165987,731.904066690163 579.586640169384,744.7056163072044C582.8642461153428,748.0494574954892 587.7366128433713,749.8608353302161 593.6369855133635,749.9290499169813C598.965274541428,749.9906506080805 600.4115554560782,749.5717337817567 604.6124320286044,746.75zM1926.2460493915703,734.555497240679C1934.4385586389662,732.5975532625428 1939.9289088835444,729.6792848590129 1944.652318227617,724.7720717070972C1954.5239077810359,714.5163452692354 1958.1172808639956,702.278571894 1958.0908460912588,679.0051405548836C1958.0603724117052,652.1758163239847 1952.3813520121298,639.3851146433161 1937.1361247588266,631.8093971860594C1933.2524255057579,629.8794942898052 1930.958185946983,629.5117577487349 1923.0,629.5435616053476C1917.775,629.5644426392803 1912.7125,629.8865603608789 1911.75,630.2593787644556C1910.1141447762104,630.8930171364201 1910.0,634.3636207853829 1910.0,683.4686152036611C1910.0,736.0 1910.0,736.0 1915.25,735.9643784711311C1918.1375,735.9447866302532 1923.0857222262066,735.3107900765498 1926.2460493915703,734.555497240679zM354.80403756481076,730.0716267582832C377.7914886175568,721.6694215166928 390.3641573239699,701.9704551001404 392.50591376866714,671.0C394.18321921305335,646.7456488186623 387.7314535435179,629.1180845937453 375.46193659754454,624.4323133199574C368.2134467314383,621.6640897833258 353.64911246744816,623.7237646478864 346.2663691995082,628.5611238262499C344.0,630.0461059597083 344.0,630.0461059597083 344.0,680.3563863131874C344.0,708.027040507601 344.3,730.9666666666666 344.66666666666663,731.3333333333333C345.83186717394864,732.4985338406153 349.36859754553086,732.0583491015109 354.80403756481076,730.0716267582832zM1320.268047220151,663.0C1320.140473191234,659.425 1319.6005958961618,653.35 1319.0683198977686,649.5C1318.5360438993755,645.65 1317.6149543577765,638.45 1317.021454249771,633.5C1314.2240639458237,610.1687793013579 1311.0418433576292,587.7085100242966 1310.4497216372486,587.1163883039148C1310.2023747367618,586.8690414034277 1309.8136626594828,586.8541666666657 1309.5859170210729,587.0833333333328C1309.161372687364,587.5105266288341 1305.697492946915,608.0046445683369 1301.994181083256,632.0C1300.848247210096,639.425 1299.0526217785239,650.6408356424405 1298.0039023464299,656.9240792054233C1296.9551829143359,663.207322768406 1296.3354788384133,668.7337991686842 1296.6267821777133,669.205137872708C1296.9180855170134,669.6764765767317 1302.4087290749235,669.9356409342913 1308.8282123064023,669.7810586672847C1320.5,669.5 1320.5,669.5 1320.268047220151,663.0zM1063.5,655.1019987315577C1076.700766180881,648.8999884476984 1084.8204722418734,635.377255340477 1088.1796372873255,614.0C1089.4645694896356,605.82287163259 1088.6440516838932,584.69567629479 1086.8522492686436,579.8215997709281C1082.890233513985,569.044090034028 1074.2285803138236,562.1022997216861 1063.7101973172141,561.2746470897528C1056.5332012804183,560.7099158319971 1046.1984785299082,562.3729500415203 1044.1490586476953,564.4223699237332C1042.9779174062355,565.593511165193 1042.7466370166317,573.5026663924243 1042.7765265764733,611.3592037134165C1042.7962973326316,636.3997989024118 1043.1407623172213,657.4187412192241 1043.5420043200058,658.0679644174437C1044.7722929398174,660.0586132202707 1056.7334868478094,658.2810554302921 1063.5,655.1019987315577z"/></svg>