<svg version="1.1" xmlns="http://www.w3.org/2000/svg" xmlns:xlink="http://www.w3.org/1999/xlink" width="2048" height="2048" viewBox="0 0 2048 2048"><rect width="2048" height="2048" fill="#ffffff"/><path stroke="none" fill="#000000" fill-rule="evenodd" d="M707.5,1630.0458979691662C700.9785710288618,1629.1687579514548 695.7811228160942,1626.8458509152745 689.5034450091093,1622.0026578051463C683.4279168069165,1617.3154219778298 675.2411841420625,1607.4356513945138 671.6855706414751,1600.5C664.4273569194505,1586.3419819492399 649.1837179144942,1542.7180961461822 637.9652557979225,1504.0C636.7700483668511,1499.875 635.4072237371477,1495.375 634.9367566208039,1494.0C632.5357246090608,1486.9826784881304 622.4525776515181,1450.246936097105 618.6053255696008,1434.5C617.9900596465719,1431.9816952551146 614.1950926668229,1415.8204828745652 612.9696588034371,1410.5C609.270567668245,1394.4396056986168 603.2740664093824,1359.4071730328335 600.9877592840708,1340.5C600.3891917324521,1335.55 599.4904733064106,1328.35 598.9906072262008,1324.5C598.1197351602545,1317.7924885551638 597.6621862293302,1313.2711339585942 594.7909187859786,1283.0C593.1146207587049,1265.3271627811505 593.1462309862069,1180.2123570704457 594.836784638152,1159.5C595.510154046622,1151.25 596.5097301914252,1138.425 597.0580649599369,1131.0C599.1546469561171,1102.6101873972102 602.6266137795653,1070.5705517236072 605.0770557984265,1057.0C608.1661429376429,1039.892630603458 612.1655609965342,1025.6388196257667 616.4515919116391,1016.4614803130628C621.6830769667023,1005.2597147610567 630.2733652824812,995.5946007841413 638.758998996746,991.3629476350641C643.7987943521684,988.8496803170763 645.5992596634119,988.5 653.5,988.5C664.9565084801078,988.5 669.4502214491903,990.5194138764356 677.7592298421913,999.4017700311565C684.3407588475973,1006.43744527706 691.5262281936224,1019.4365080859184 694.6495180940387,1029.9575914079392C695.6360806212691,1033.2809161335726 696.7831589703133,1036.0 697.1985810919145,1036.0C697.6140032135158,1035.9999999999998 698.7015499462372,1034.7624999999998 699.6153516090731,1033.25C711.2534280486151,1013.9869680635317 727.0438420107595,998.0788588095782 742.0987263004635,990.4499715974828C748.0886402308709,987.414652500644 762.7228799440444,982.5808606687717 771.0,980.9036785561186C779.2003618267346,979.2420498640004 796.7928041240135,979.2646711693252 804.0,980.9461117250388C823.369842556378,985.4651007177755 835.3756147709929,991.7862559915936 849.000567627629,1004.6393461375592C865.2129299941967,1019.9332673106563 875.8296731977282,1041.6503839663756 881.1975512493046,1070.5C882.8278393196907,1079.261969702539 882.8665807542219,1119.3636895905565 881.2516516804035,1126.5C880.6293336059089,1129.25 879.5761139877244,1134.65 878.9111636399937,1138.5C872.5394681478582,1175.3915178831533 850.4465418487995,1227.7435786565213 828.6923529427575,1257.5C804.9282636564418,1290.005659333097 785.689011925388,1306.0731208256634 761.0,1314.0325663104359C751.206962987419,1317.189725635708 733.187275172833,1317.4374461692205 722.7356407753083,1314.5585947066645C719.0152432017279,1313.5338294318165 715.7359682999999,1312.9306983666552 715.4483632159129,1313.2183034507507C715.1607581318258,1313.505908534846 715.6130857521781,1318.636946883739 716.4535357055848,1324.620610892735C717.2939856589916,1330.6042749017306 718.4435555591635,1338.875 719.0081354837449,1343.0C721.7353208779396,1362.9256814868056 722.5577554404978,1368.2972357114681 726.6305609141207,1392.7842301220278C730.7214347557575,1417.3798572746691 734.7108274200295,1438.892434318227 737.0091144156121,1448.75C738.8998104296419,1456.8593702302578 739.9291980662346,1461.551637431441 742.0,1471.5C743.1448527893127,1477.0 744.513201657668,1483.4125 745.0407752630116,1485.75C745.5683488683552,1488.0875 746.4254646558279,1491.9125 746.945477012951,1494.25C747.4654893700741,1496.5875 748.8400247142462,1502.55 750.0,1507.5C751.1599752857538,1512.45 752.5345106299259,1518.4125 753.054522987049,1520.75C756.7395050414348,1537.3143093556116 756.7232377512895,1537.2356587835964 758.6491661091181,1547.7994887496343C760.7664503322233,1559.4129168565214 760.8167101025199,1582.579816424561 758.7407186276421,1590.0C756.0928551370195,1599.4642166988087 754.3301589689628,1603.8563309933288 750.8602535255932,1609.635773906706C744.5820140828718,1620.0927523598377 732.9382272162737,1628.1324413128784 721.3146946312772,1630.036104673276C715.0725732722588,1631.0584184694844 715.0282002086782,1631.0584499257384 707.5,1630.0458979691662zM700.75,1594.7223206208487C702.4363263015193,1593.4174952213837 702.3236290099035,1590.5265096420792 700.4448053512368,1586.8932653187694C699.0831342554291,1584.260083776565 698.4307245144525,1583.9240619123225 695.2019079236494,1584.192925245654C692.2528870355217,1584.4384900102502 691.2329553921602,1585.0894711204057 690.1101291717861,1587.4428016526945C688.9036365566266,1589.971488511547 688.9047522637977,1590.7396104253937 690.1180576615568,1592.9012650332688C692.2066454997507,1596.6223442707983 697.1910939986449,1597.4760883469955 700.75,1594.7223206208487zM1602.2887290761407,1524.5084923716026C1587.5433144545511,1520.4122502107482 1575.8940423311242,1509.253287101577 1567.3079210688313,1491.0C1563.5129470789468,1482.932241851208 1557.7133431159566,1466.9111336852623 1555.0,1457.0C1554.322426230414,1454.525 1553.3985861944786,1451.375 1552.9470221423653,1450.0C1549.506175926296,1439.522718814852 1541.741932774474,1399.5147690523206 1538.9256446149293,1377.75C1538.3029232465,1372.9375 1537.50240355742,1369.0036712992228 1537.146711972529,1369.0081584427173C1536.7910203876381,1369.0126455862119 1534.7,1371.9579112402175 1532.5,1375.5531932293966C1515.6463709100447,1403.0957155564051 1499.2389907080756,1417.4320080891969 1477.0,1424.0474821271723C1466.493779498822,1427.1727871320238 1449.6843363106066,1427.2152423999462 1438.700269897509,1424.1442149745753C1408.9129688914559,1415.8160043759676 1384.6541536184714,1392.2203152723923 1374.6113199943316,1361.8071667769227C1362.9059360805209,1326.359245155333 1363.3671923275967,1283.049822694606 1376.0417251159677,1227.5C1379.9367917797047,1210.4287385841328 1388.9425510301555,1182.8980104166717 1395.1780484615324,1169.0C1396.5352484609864,1165.975 1398.266176438725,1161.925 1399.02455507873,1160.0C1401.209741647636,1154.4533193272466 1412.406333579155,1132.7692843041816 1417.5510029946354,1124.1204977444431C1423.058252341483,1114.8621722262235 1430.7061633308824,1105.0230975807337 1439.3116406348763,1096.125331695499C1459.0431087594313,1075.7236761286686 1481.3394767696752,1070.701667831671 1503.6732946048962,1081.628586750429C1510.8532721723325,1085.1414224553102 1522.3723759568375,1095.9397579551812 1526.8305213776368,1103.336829736747C1531.7753108511042,1111.541354091049 1536.5335920042282,1123.2423589765413 1539.49454889761,1134.478715454014C1540.94080067001,1139.9670089537217 1542.354926902296,1144.68826023563 1542.6370516360232,1144.9703849693658C1542.9191763697504,1145.2525097031016 1543.6231052358442,1144.637957056806 1544.20133800512,1143.6047124220422C1550.088293639533,1133.0853063151135 1566.0972884655794,1125.768872090502 1579.3838615529291,1127.5255880178925C1590.085612703929,1128.940545552415 1603.3042147371823,1137.543850428579 1608.5625188537065,1146.5164679917489C1611.876359611599,1152.1711097026334 1614.681315666753,1160.2757887631951 1616.6208324031704,1169.8002713040237C1617.9417154412604,1176.2867981787572 1618.1688003212782,1186.0872505212149 1618.0620534238435,1232.0C1617.9443128716478,1282.6412139965712 1618.4390325575037,1300.3721429476607 1621.0196134504715,1338.0C1622.6210826041145,1361.3512743395179 1625.613922667976,1387.9440371314302 1629.0101951811819,1409.0C1629.498119880545,1412.025 1630.412100355463,1418.1 1631.041262903222,1422.5C1631.670425450981,1426.9 1633.0485086107967,1435.0 1634.1036699250349,1440.5C1635.158831239273,1446.0 1636.4496306407596,1452.975 1636.9721130394491,1456.0C1637.494595438139,1459.025 1638.4878447277695,1464.65 1639.1793336830724,1468.5C1639.8708226383756,1472.35 1640.445526418878,1481.575 1640.4564531953001,1489.0C1640.4763200615223,1502.5 1640.4763200615223,1502.5 1637.0193970401992,1508.8990403591106C1633.0947821292423,1516.163815725606 1627.398589824333,1520.921527027602 1619.6162003122997,1523.4349586236374C1612.158590581482,1525.8434980445127 1608.0178827737816,1526.1000380503476 1602.2887290761407,1524.5084923716026zM1756.0,1510.9919825104694C1742.592206890499,1503.7474185631356 1732.3141983815358,1485.5833837685525 1723.1855897417681,1453.0C1719.3711072691026,1439.3846998825388 1716.94893492604,1429.2308497765646 1714.9557119157707,1418.5C1714.3427468598013,1415.2 1713.4505551845784,1410.7 1712.9730637486086,1408.5C1711.827353362604,1403.2212396718894 1710.3259005280918,1393.3510684948953 1706.9643141636502,1369.0C1704.7594962024484,1353.0284712717976 1702.8590647920046,1332.1109347943586 1700.9888417008533,1303.2295846492648C1699.7143346894106,1283.5477170506792 1699.7119784535582,1217.9610381838165 1700.9850399046875,1197.405210580949C1702.6272213102295,1170.8892887964876 1704.0564048505435,1151.9497960696854 1705.090484152387,1143.0C1708.3836688471824,1114.4979969276299 1711.1180107519865,1094.1231250025344 1713.008382874721,1084.0C1713.4705594261907,1081.525 1714.330786180414,1076.8 1714.9199978841061,1073.5C1716.0524187726041,1067.1576464645461 1718.6458111165653,1054.1982135059638 1720.1230188155375,1047.5C1720.6082014593642,1045.3 1721.4348462907212,1041.25 1721.9600073296642,1038.5C1723.1815526793323,1032.1033912219586 1732.2505408367222,996.5242975065509 1734.8322829871481,988.0C1739.9080316374682,971.2410872028169 1748.2174328052904,947.4139982294265 1750.57823250906,942.848715009455C1752.2320878886926,939.6505113664939 1752.0337720282419,939.4773510797454 1745.6576556863997,938.5522936761151C1739.874906979206,937.713323020919 1732.692780027528,934.765786814784 1728.3382661922403,931.4444371949282C1724.8317650068805,928.7698983555656 1717.0628092428803,917.4410778001584 1715.0038708167947,912.0C1714.275438580428,910.075 1713.3820103642383,908.1529377233736 1713.018474780818,907.7287504963858C1712.6549391973977,907.3045632693979 1708.1145632694052,908.936848121966 1702.9287504963904,911.3560501687593C1691.9187338601819,916.4922662157686 1686.304659666003,918.0044765954036 1678.3071799468266,917.9881311246136C1666.038346161321,917.9630557419542 1655.0086746684105,913.0577427598406 1645.2976431282545,903.3075389062707C1638.2976119703203,896.2792710555308 1634.8506685157688,889.6926675156748 1631.838041436698,877.5882135632341C1630.1867316029575,870.9534050326392 1629.9335465013285,867.3015574804891 1630.31130890313,855.5671924619708C1630.8145339779912,839.9356031700519 1631.583957488231,835.188329213134 1635.5086604803787,823.5C1646.7740472846424,789.9500600567792 1667.4598030145155,767.0742322894382 1695.0,757.7101079471845C1701.5,755.5 1701.5,755.5 1701.7107978395795,751.0C1702.3634992348111,737.0664782694112 1706.3512940495766,697.8295853659786 1709.0792488732036,678.5C1713.3015017553087,648.5822034094864 1719.5216191957418,617.2440895303074 1725.9503976754318,593.5C1729.3743433568297,580.8539781993045 1733.6258231854033,572.5213919920049 1739.343006704166,567.2514762453825C1748.2146502662922,559.0738807644897 1757.32986832811,557.6852631791512 1765.6096541461645,563.25C1775.581614903557,569.952025683046 1782.0,582.8252016269239 1782.0,596.1236594621548C1782.0,602.8270980122876 1779.4157845969992,621.3922901366833 1774.0133967915756,653.5C1769.4680205236223,680.5142810341256 1767.4052376508746,695.4951805113111 1762.9978613044618,733.5C1762.0243291705144,741.8947705185683 1760.681119049817,758.5820028456411 1759.001509927166,783.148258947699C1757.0302072567245,811.9808757772025 1758.3113978277675,852.0173548502117 1761.8928180889661,873.5C1764.26745387585,887.7439184036282 1767.6114721726583,901.0029900728058 1768.827552082872,900.9963014166644C1769.1973984372923,900.9942671958299 1771.0460347742007,897.9567671958299 1772.935632831557,894.2463014166644C1781.0427281574443,878.3269900805694 1792.0039803017964,865.6002602046354 1801.7329957306365,860.8106816599679C1810.1904970928435,856.6470674317652 1819.9143259640498,856.2773186590018 1826.8018255912798,859.8574389406277C1837.205398418314,865.2652130379483 1845.6800267680007,878.5362712389242 1848.604571951279,894.0C1851.3297256387004,908.4094328565935 1849.5341949574695,919.1576550036842 1836.9108103257636,964.0C1835.7495984932852,968.125 1834.4234537350499,973.075 1833.963821974129,975.0C1830.1935365592808,990.7904654130991 1826.8232279860474,1005.2461422824682 1826.0367983884848,1009.0C1825.5182882582587,1011.475 1824.1589093233208,1017.775 1823.0159563108448,1023.0C1821.8730032983688,1028.225 1820.4820132167606,1034.975 1819.924867240604,1038.0C1819.3677212644475,1041.025 1818.4812512925198,1045.75 1817.9549339696532,1048.5C1816.7470700307929,1054.8110706935797 1815.3472324754039,1062.794827475819 1814.0975486486136,1070.5C1813.5623294026504,1073.8 1812.409348073837,1080.775 1811.535367917917,1086.0C1808.1731386022036,1106.100740337879 1804.6461149922945,1129.3049395583105 1803.023403325707,1142.0C1802.4258341312834,1146.675 1801.5195042147263,1153.65 1801.009336844469,1157.5C1800.4991694742118,1161.35 1799.5946298758895,1169.45 1798.9992488481973,1175.5C1798.4038678205052,1181.55 1797.5033076213883,1190.55 1796.9980039612708,1195.5C1796.021646666999,1205.0644836720996 1794.5558990088123,1228.3608893446703 1792.9712948009649,1259.5C1790.5281546210076,1307.5102299573678 1793.0656115943896,1367.2585441484136 1799.9574613191805,1424.0C1803.8101738324349,1455.7198612432455 1804.26376012854,1462.5305085166951 1803.0543421180319,1470.5C1798.7493115433163,1498.8681111100298 1786.634702549186,1514.0306014767534 1768.3129495240255,1513.9818846228054C1762.6789122209314,1513.9669039289793 1760.5482804558794,1513.4495315152851 1756.0,1510.9919825104694zM1770.0657414540892,1495.964816241512C1772.4366422507126,1494.695948642173 1772.5700374643582,1491.287365651222 1770.3450124378878,1488.828740671584C1768.1885945383337,1486.4459257138608 1765.7532089397803,1486.510232146703 1763.491207498119,1489.0097156052184C1761.9169284461257,1490.7492743769646 1761.8483255784924,1491.3480766591995 1762.9808659610446,1493.4642477211762C1763.7005003100116,1494.8088968020827 1765.0117013388085,1496.1023241720206 1765.8946460250377,1496.3385307654826C1766.777590711267,1496.5747373589443 1767.6420836543402,1496.8201979067633 1767.8157414540892,1496.8839986495248C1767.9893992538384,1496.9477993922862 1769.0018992538385,1496.5341673086805 1770.0657414540892,1495.964816241512zM367.0,1490.8894943825674C347.82318379589344,1487.069808223138 337.46976868412867,1483.7486018162795 323.0,1476.7750132838896C293.6363797748196,1462.62345290018 270.71273805751684,1442.264731120061 252.87918849334406,1414.5C244.6354087470066,1401.6654082522139 241.83442852906387,1394.260997793458 241.7197698077416,1385.0C241.6059048599205,1375.803115381348 244.15242595799197,1369.79627315173 250.55404052463453,1364.1613466504168C256.5153907050081,1358.9139563607807 261.81299069120763,1357.2677137408675 267.6843442385366,1358.8380613628626C274.6418467820994,1360.6989095448425 280.2036607703298,1365.1472214728085 290.1538721680299,1376.8090811265654C302.6253411473439,1391.425908357649 310.0736986563092,1396.8437054437275 324.5,1401.7918173958897C334.5026107781039,1405.222637033219 341.8646465863572,1406.269217148792 356.0,1406.2698278945065C368.571227713755,1406.2703710590974 377.51910280982645,1405.0923244985609 387.768488623555,1402.087297589311C400.2828960534588,1398.4181868968628 412.1651930314276,1388.5198938327444 415.83737239907373,1378.705114993816C418.40273597968934,1371.8485664256768 418.525051561562,1368.744399001301 416.4611083632693,1362.8757265232316C412.7797895721003,1352.4081640968018 407.08806140427197,1347.5667795185739 390.0,1340.367904966176C381.17306823306996,1336.6492868637845 375.77371133271066,1334.822501948886 341.97033413500606,1324.1178458037684C307.8695893620749,1313.319021030976 280.58242780618923,1297.5959633502227 259.3951020919062,1276.5374064181558C243.3330547657236,1260.5729783149927 234.99545155681713,1247.1104472230172 229.95427632242257,1229.0C227.947216657395,1221.7896281230353 227.58154538014136,1218.148325187406 227.54411962597894,1205.0C227.49505862661857,1187.764008687456 228.16311658561338,1183.807606807943 234.2138893268122,1165.5C250.01923224148948,1117.6783388795238 293.8073594459259,1065.4788220020057 338.1060377336975,1041.6509043561605C362.9611211319645,1028.2815465516867 384.7558192038535,1023.7704588001637 407.0,1027.3911652072954C448.07355105334113,1034.076746071134 478.62905108652484,1062.4881971968166 493.15418808911625,1107.5C495.9013741264909,1116.013227527968 496.9704586013393,1121.0425899034176 498.5746871650448,1133.0C500.3541722951916,1146.2637168688657 500.3433035727587,1155.1145330119707 498.5335494670501,1166.5C496.6745368852768,1178.195360332847 495.5179948132369,1182.1459348626006 491.69080411489904,1189.8737934445537C481.24185519563594,1210.972297789578 462.0277942410298,1217.5633542988564 444.89265343655643,1205.927102340544C439.0846269365122,1201.9829468470903 433.4821043398999,1194.611981067218 431.21265997720195,1187.9290020350224C429.5318916718149,1182.9795353164254 429.6954041230876,1167.9010456258102 431.5209505938004,1159.4996264864885C432.3574734203906,1155.64983191892 433.4845151715991,1150.475 434.02548781870826,1148.0C435.3628623934308,1141.8813873675003 437.56836583389764,1126.7061696433263 438.9669073316828,1114.0C439.6025494942248,1108.225 440.35578564434553,1102.2625 440.64076544306226,1100.75C441.0130478240056,1098.774150821524 440.74992902833674,1098.0 439.70609397082296,1098.0C436.6377519023384,1098.0 404.74288755474413,1118.1511110499284 393.0,1127.5088160920627C384.2455115887137,1134.4851172757099 365.89707990773667,1152.7939853425212 358.4257507008541,1162.0085150272798C333.6119201473366,1192.6118751385352 327.68467432882886,1215.9093723353592 341.13244753404683,1229.9811779451054C347.7307807913465,1236.8857012091516 364.96059035120595,1245.817007770552 399.0,1259.9776122780424C405.875,1262.8376547110183 414.2,1266.4409765942696 417.5,1267.984994240823C420.8,1269.5290118873763 425.75,1271.7767920043993 428.5,1272.9800611675405C438.70391071606764,1277.4448070250282 448.6798649078845,1282.4355448822678 454.8522039385308,1286.1634558873764C458.34591610472273,1288.2735551493195 461.374678276413,1290.0 461.58278654228695,1290.0C462.58572828243655,1290.0 474.2695302964597,1297.8914867528836 480.5,1302.777085680144C502.95801505996184,1320.3874520740296 516.7878480701081,1342.4366249661562 520.1551086853063,1366.0C521.4252057393672,1374.8878695872654 520.6456337980876,1392.4415658293747 518.641934984262,1400.0722774938256C516.8181084098894,1407.0179794221654 512.4402544008242,1417.968697916986 508.67638523863263,1425.0C501.57165990378365,1438.2723715659336 485.24956403991894,1456.6343474341606 471.60438832826503,1466.705128945002C459.5323262191109,1475.6148786217873 437.14641895422346,1485.5184840188429 421.5,1488.8714894499562C418.75,1489.4608105567565 414.38823097606996,1490.4058113378437 411.80717994682215,1490.9714911857056C406.15683339755446,1492.2098577038942 373.3272903752315,1492.149779886466 367.0,1490.8894943825674zM941.715785940949,1486.529776864797C933.9971457888141,1484.8413439869084 923.6928678195662,1479.495868134098 918.592622556379,1474.534340417751C913.1878357442781,1469.2765541377978 906.6345829636293,1455.6309182717455 903.9286484321892,1444.0C897.8410191424664,1417.8335433046273 895.8361402308308,1403.2127459539245 893.507137646597,1368.0C890.4360439960682,1321.5674020935628 892.1440051238035,1246.992531270898 897.0914001943147,1211.5C902.1912884107851,1174.9134853955668 907.0378771526242,1156.4610154848963 913.9557604376641,1147.2921382380327C918.0013752794418,1141.930130186731 927.2528800644737,1136.6186163668442 934.3417333371228,1135.5880555722047C944.5514842345892,1134.1037860305348 957.5690246138282,1133.8058159771704 962.8989590772571,1134.9343838469918C980.5066235791016,1138.6626556589104 991.4392571157971,1146.6996675792755 997.4783075202589,1160.3550324676598C999.9268057192509,1165.89152150095 1000.0,1166.7010507411983 1000.0,1188.2449683529749C1000.0,1200.448336228222 999.5629461326471,1216.523005206858 999.0287691836603,1223.9664549721665C995.0778835036442,1279.0197835432596 993.5643217010565,1345.6865009776166 995.0279050891811,1400.189504221888C996.3953254525844,1451.1114517566627 996.0347098664544,1455.7418504208804 989.6792366701327,1468.8678089193659C982.6807372959505,1483.3218093532519 961.9494823199009,1490.9558464229149 941.715785940949,1486.529776864797zM1101.6749523710462,1474.4350272651493C1094.0935700710363,1472.3660726041192 1084.631902603193,1467.5656807384282 1080.144339253616,1463.511436849029C1075.961877739519,1459.732834138546 1069.3023724389006,1447.4779397419377 1067.0961410565083,1439.5C1064.1220270568533,1428.7453246453365 1063.975812192464,1421.5974459226088 1065.0403431840014,1339.0C1065.6322329844702,1293.075 1066.4728075234575,1213.65 1066.9082866039735,1162.5C1067.6992646053536,1069.5942174244701 1067.7023499878235,1069.4934217592845 1069.953801500096,1063.0067596044207C1071.1933556124475,1059.4354773868522 1073.1229069960832,1054.7192443177173 1074.241693463731,1052.5262416730102C1076.872285361226,1047.369855575062 1087.424388927734,1036.910339289515 1092.2864679077993,1034.639797422614C1109.9022752840272,1026.4133929707366 1134.6345256587872,1029.4356839649738 1148.7795180279854,1041.5432709855968C1160.17522327004,1051.2975705481765 1165.9380463016419,1069.104090559863 1165.9800074388831,1094.690983005625C1165.991646049505,1101.7879278877865 1166.421525320584,1107.1424829864893 1167.0087886849547,1107.5054317060183C1167.5636224616799,1107.8483378381409 1171.7261224616798,1104.346392632844 1176.2587886849547,1099.723331249803C1202.5683363844564,1072.8890910954597 1236.8229559915592,1050.8242244890757 1261.0,1045.137890069129C1276.4729608963771,1041.4987177165106 1283.84455267673,1041.153379239243 1295.1752893605862,1043.5368732549018C1330.5387988515445,1050.9758170408327 1356.9510413021135,1090.193396238577 1348.490860978728,1122.7012098810192C1344.9518233710794,1136.2997823257485 1335.83303597572,1149.9256581834811 1325.597959243849,1156.9092491233284C1316.8668339517797,1162.866664888908 1311.6248649081792,1163.9988278403014 1292.71248739289,1164.0118688753864C1281.5248494634272,1164.0195833141788 1273.7498608928784,1164.4924148304847 1270.5,1165.3627086868673C1243.608191293991,1172.5641787421391 1208.997917741921,1209.7860472035711 1188.546678241132,1253.5C1170.5993481539854,1291.8619164120191 1167.198276921827,1312.6539442509409 1164.9917724269912,1397.5C1163.9700230491878,1436.7890224667901 1163.5437801856144,1440.2804118678525 1158.5138438280255,1450.561231481176C1153.0355526921871,1461.758455253571 1143.7449581898682,1469.1290908886294 1129.0848441187513,1473.9085462205248C1121.668552563748,1476.3263878582845 1109.464532691762,1476.5607990405672 1101.6749523710462,1474.4350272651493zM940.8,1468.8C943.017284260249,1466.582715739751 942.2501008786621,1461.2099783492804 939.4546628359835,1459.3783369955818C937.2824124634573,1457.9550238860936 936.5495296124845,1457.903125038858 934.4546628359835,1459.0242637138376C931.0595731687615,1460.841260562345 931.1474731496185,1465.1842419836898 934.6348586918014,1467.927419850967C937.6489112660599,1470.298273951412 939.0967998692804,1470.5032001307197 940.8,1468.8zM1108.2246704235122,1456.6707160232347C1109.5026872863687,1454.6616026518113 1109.0910620338716,1453.4564635300223 1106.25,1450.8893589136367C1099.934654105073,1445.182988053847 1094.7285681649303,1444.5248550281601 1094.1735278366987,1449.3626985288793C1093.8249110983545,1452.4013123665668 1096.8025311636227,1456.4983209175198 1100.5,1458.0675063896083C1102.8907633149454,1459.0821332132623 1107.1846368941592,1458.3057063987776 1108.2246704235122,1456.6707160232347zM1100.25,1453.3377192982457C1099.5625,1453.060307017544 1099.0,1452.2054807893508 1099.0,1451.4381054578164C1099.0,1450.3127753961562 1099.4836088401628,1450.2632245159157 1101.5,1451.1819538114578C1105.424523110695,1452.970086205928 1104.2706421180983,1454.9600836616887 1100.25,1453.3377192982457zM1482.8502724339546,1333.717621557539C1487.0810201124189,1327.5684405906702 1490.631604864357,1321.0086665931512 1493.0495958922365,1314.8741742134353C1494.2071603011505,1311.9374097822863 1496.1801331005838,1307.276816953339 1497.4339798909773,1304.5173012602186C1505.4255574865647,1286.9291206652915 1515.475315741859,1252.57774985144 1518.9420329247423,1231.0C1521.5822681864138,1214.566488692365 1522.0,1210.8553896424135 1522.0,1203.8332429116545C1522.0,1191.8705573078994 1516.7069988390676,1177.583960849838 1510.1381981054747,1171.816477416991C1499.1564051972846,1162.1743355360484 1492.5806466009258,1165.8066815650525 1481.6496590397942,1187.5531000789983C1474.7389316710326,1201.3014982686766 1469.537095474038,1216.8908214407697 1465.0668266721739,1237.25C1464.1055054442409,1241.6281954508208 1462.9683000829823,1247.967896609174 1460.8065900056072,1261.0C1458.8393082917144,1272.8599709381338 1459.219812809736,1306.9712628275886 1461.4089490144584,1315.0C1463.8728274834466,1324.036364484582 1466.496751486156,1329.4372024064019 1470.6641298021166,1334.0499920423254C1475.633195491017,1339.5501537680311 1478.8986623653184,1339.4610899156821 1482.8502724339546,1333.717621557539zM728.7468702113292,1222.8533209985426C758.0001021240507,1203.188556056164 782.4674417425117,1175.2778541161226 801.0138647357085,1140.4159748985735C805.2163387844903,1132.5165463803496 811.5670295221013,1115.4255416032918 813.9879737056319,1105.5C816.9357307624613,1093.4145973281843 817.2726611018252,1073.8272858422852 814.6588306144349,1066.5C810.7683335070756,1055.5938664493626 803.6861829073471,1048.8369468390192 794.2748746244183,1047.052128901269C781.9890894202556,1044.7221776179279 768.470200487626,1052.2019414478928 758.8148909345957,1066.671515134564C745.4870555442247,1086.644784267533 737.4043350559831,1108.010314852554 728.9935575891184,1145.5C725.7029103414696,1160.1675298129915 721.9500432067401,1185.9781620041051 719.0088724865072,1214.1704392869906C717.611395378227,1227.5658066018132 717.6712378250634,1229.3401354920497 719.4968702113292,1228.6395746131248C720.3201488275602,1228.3236529657406 724.4826488275602,1225.7198388391787 728.7468702113292,1222.8533209985426zM928.4299927163854,1158.5936975779805C935.5467563461691,1155.620123869336 935.0169073485795,1150.0 927.6198038036241,1150.0C922.1354646749646,1150.0 919.4722401659548,1152.4816871197822 920.9069543434603,1156.2552713772218C921.7106911251051,1158.3692593156507 922.7499661495401,1159.3523801900476 924.7821186308964,1159.921052631579C924.9372838778895,1159.9644736842106 926.5788272163595,1159.3671639100912 928.4299927163854,1158.5936975779805zM1590.8,1158.8C1592.565681439546,1157.0343185604538 1592.2600598194558,1152.9178987203538 1590.25,1151.392045970486C1587.6010887281498,1149.3812358895186 1585.0323717670767,1149.7395360840444 1584.0991770277979,1152.25C1582.1761510991641,1157.4232902041558 1587.2333444214316,1162.3666555785683 1590.8,1158.8zM959.0,1058.0721731111453C946.6508918470186,1054.1532575853025 939.4535165531448,1048.3479645487757 934.5641608589356,1038.3625982987746C932.1926802047095,1033.5194033323535 931.8454185968635,1031.7414961336012 932.165276136406,1026.0808075082066C932.6352403992213,1017.7636005395517 936.5711576322516,1009.3261808838536 942.9396182072828,1002.9838671551083C949.6249645341119,996.3259687053162 953.8482835214033,994.6072637072923 964.5724126919938,994.1802716620907C972.942471627316,993.847009303311 974.1621347269979,994.053603630795 980.3269906100297,996.8488827159304C989.2393420421985,1000.8899357478897 996.9519762331043,1008.5829727065857 999.8462097635977,1016.3185049794035C1002.2568563376009,1022.7615352929878 1002.64797038615,1033.3297984921392 1000.6739220744967,1038.68405688737C997.5450785599911,1047.1704938990733 988.52858022681,1055.5036084157884 978.9290020350227,1058.780872984914C974.0145727711518,1060.4586430475335 965.5743308620905,1060.1584976431116 959.0,1058.0721731111453zM1104.4265502978476,1055.4717543640622C1106.17303956189,1052.8062748366565 1105.9500374874265,1051.8858141516207 1102.6769196719742,1048.25C1098.8240962849202,1043.9702427214156 1092.0,1046.4298526632608 1092.0,1052.098283593463C1092.0,1057.8320533430713 1101.2369863915862,1060.339644175085 1104.4265502978476,1055.4717543640622zM665.4996325109366,1017.640904909606C669.3388709173578,1011.7814864844045 661.0459638459978,1004.9334654805048 655.828740671584,1009.6549875621121C653.3905775070034,1011.8614949004574 653.5195985551064,1014.8597336525012 656.1743140267095,1017.6855487786324C659.0672778285692,1020.7649676308941 663.4664674359439,1020.7439070263704 665.4996325109366,1017.640904909606zM1409.0,994.3479314018336C1394.546751537842,989.5863196676845 1385.7656228880767,975.7264103987528 1376.1510579882174,942.5C1372.986612352453,931.5641781012891 1368.0672911719996,906.2066814533086 1368.0031129269487,900.5C1367.9307650254414,894.0668788171439 1366.5354501330546,894.5268732321776 1359.7455982512063,903.2222605116776C1349.2376372179913,916.6792242704846 1339.8511731262688,922.7183589050023 1325.7643751157423,925.0853582186863C1315.8852633617025,926.7453416105221 1307.6956633406521,925.3180855660099 1296.5,919.9852610020384C1287.233143383191,915.5711839533404 1278.6682149589853,907.6007055768582 1272.8253333930618,897.9537379215021C1256.197056265419,870.4993988586996 1259.0286554387244,817.2150266218829 1279.9050638951142,764.7290220210065C1290.2471087515837,738.7277768809214 1306.4836409450413,716.2234149339497 1319.2206788342053,710.2363004093322C1321.6804789839364,709.0800578565296 1326.4241299317328,707.8250538673368 1329.7621253848638,707.4474026555705C1348.5001065517095,705.3274413215681 1363.956412032205,720.7985075044413 1370.997446033075,748.7221028499675C1372.062064301387,752.9442056999351 1372.062064301387,752.9442056999351 1378.5942403526606,748.4721028499675C1384.7301855361993,744.2712702748568 1385.5320260041194,744.0002267444905 1391.813208201967,744.0037380604379C1401.6571273388938,744.009241022963 1408.5707822828974,748.7802217227724 1413.0844740076286,758.682630692669C1417.1152095442549,767.525501266765 1417.9853194772,778.5210827936754 1417.9929283614756,820.710781361126C1417.996817762664,842.2767111097454 1418.45547894919,864.5517111097454 1419.012175442644,870.210781361126C1420.7520987666437,887.8978845462588 1422.0939251770933,899.3311051517411 1422.9777480072426,904.0C1423.4462660560982,906.475 1424.370473813116,911.875 1425.0315430228375,916.0C1425.6926122325592,920.125 1427.3334981251483,929.125 1428.6779561174799,936.0C1434.64970939974,966.5370670186103 1434.950195247482,969.9236284649047 1432.4508147144488,978.5211954667033C1429.362263855445,989.1454371929226 1423.107221362081,995.0583768175692 1415.1021167802082,994.921052631579C1412.5709525510938,994.8776315789473 1409.825,994.619727025562 1409.0,994.3479314018336zM1420.0,978.9334314451733C1420.0,977.4081599126193 1417.0011292359488,976.5988707640512 1415.8,977.8C1415.213939187107,978.3860608128931 1415.0125105889329,979.5902187811787 1415.3523808929467,980.4759065961903C1415.8429363417345,981.7542736039809 1416.3856886800174,981.863953199598 1417.9851634501222,981.0079402805266C1419.093323552555,980.4148709919001 1420.0,979.4813420159911 1420.0,978.9334314451733zM962.5,963.9696253940172C956.8322749401718,961.2056416611725 952.7784897959089,956.1775007291003 950.3007401687526,948.8381876104214C947.0849407049765,939.3127057244168 945.7147706160193,927.3587667948754 942.9835557902314,885.0C941.2776032343331,858.5421594097528 938.2693474239791,826.4377717267226 936.921688056307,820.3071799468225C936.4147596253382,818.001128917575 935.9931092514673,814.4011289175751 935.984687225483,812.3071799468225C935.9658135795545,807.6146687221268 934.8391414288815,805.6933051784056 932.3801727037071,806.1602428890305C928.6298074987708,806.8724060511202 918.3894611718498,829.6733486731742 911.118968029662,853.5C904.2138872451065,876.129132442544 901.8284740640077,888.0602119983695 898.9230721456236,914.5C897.669544584046,925.9073728569529 894.6684514413072,935.8481350173475 890.8659488259838,941.1882575141983C889.6716417033882,942.8655072043946 886.6501217261292,945.5342968642349 884.1514599876305,947.1189012027321C875.9615408629634,952.3127940682336 866.1308776274435,950.4688397150508 859.056739465505,942.4118414611792C851.1352025319148,933.3897093256614 850.002690007199,924.1819882184751 849.9922219075413,868.7141579270648C849.9820488762226,814.8098206361075 852.9541241932117,737.9699479185366 855.580112226721,724.2451471886357C858.413035109129,709.4387956180751 863.9264332557078,701.6370757755537 873.8133729031806,698.4442186448351C883.8585958674256,695.2002459986335 896.9104429680689,698.6188582677069 901.7206889642277,705.7538578359425C906.2924481588627,712.5351118312362 907.8077068324721,718.2122339546311 908.6592185639602,731.75C909.0138115869283,737.3875 909.5942216976921,742.0 909.9490188101018,742.0C910.3038159225116,742.0 912.3729309634972,740.142444627479 914.5470522345142,737.8720991721756C920.4681085080422,731.6889835473003 931.758585752628,724.6702750203108 939.9348764188828,722.0897957119756C954.7390677285208,717.4175169353875 968.741180991519,720.6704871861886 978.4352135665345,731.0341921066309C987.4914855606222,740.7160793810654 994.8514071908188,762.9827464717969 998.9171064330626,793.0C1002.0154866935736,815.8754908479655 1002.4995556189565,825.2907609411177 1002.4903220690732,862.5C1002.4794974568592,906.1208813157299 1001.9564067525987,913.0027537085025 996.2826721764563,944.1689229459405C996.0154427278756,945.6368305662079 994.3778312649738,949.6868305662078 992.64353559223,953.1689229459405C990.2423978588345,957.9898906364832 988.3314888193318,960.275200710641 984.6321208797115,962.75C980.34294843468,965.6193660896007 978.9966597192761,965.9953333343014 973.1369855133635,965.9601541977581C968.6570492188456,965.9332584549111 965.1999825661801,965.2863279180651 962.5,963.9696253940172zM1487.5,964.1333836861071C1475.2767214115468,960.9168564899791 1467.8738807455727,952.1899200108091 1465.9541759918202,938.7338045252309C1464.6791102752502,929.7962679064703 1465.814820283765,716.200863721223 1467.1801022613568,708.1712356653675C1469.2008393946428,696.2866815254519 1477.7113565633674,687.607827713669 1489.8761265225464,685.026287741943C1502.2918571521263,682.3914902894635 1515.2107596832473,686.3209241564944 1521.5778450164514,694.6687326781864C1525.6204024129543,699.9688807550418 1527.9948699439863,710.1875088164815 1528.015312774517,722.3726653778236C1528.0237348005014,727.3926994200207 1528.4438522259748,732.1532066262133 1528.9489070533468,732.951570280474C1529.6760816693868,734.1010490148285 1531.5979458597758,732.7483104831913 1538.1835942788298,726.451570280474C1551.573976088903,713.6486160217446 1572.179633633271,700.9769976803586 1586.0,697.0464788656095C1588.475,696.3425876800675 1591.8046504693516,695.3691744503108 1593.3992232652258,694.8833383550392C1594.9937960610998,694.3975022597676 1599.9501486805846,694.0 1604.413340197414,694.0C1620.8060287132341,694.0 1631.9199003134086,701.1742678156639 1639.7032510405043,716.7804747694996C1642.701456189208,722.7921028820342 1643.4137038720999,725.4330614103679 1643.7900343066017,731.9339464890998C1644.7594762376868,748.6804809351621 1638.7776177971975,760.5260750189962 1626.0,767.1627181542893C1621.9313754625423,769.2759453250477 1620.3711427105864,769.4780167863325 1609.724045539302,769.2706766608358C1596.0377332428918,769.0041512724155 1591.743228295763,770.1050513399064 1582.523496106157,776.2435610969706C1573.6682453173348,782.1393986604214 1559.1251107610594,797.2304391673563 1552.3387353001176,807.5655189770564C1542.5674898741977,822.4463050311535 1534.1699170930112,841.4879661286249 1531.860640875962,854.0C1528.1219687956705,874.2567329785871 1526.0144699831362,899.3851256321342 1525.9897951393737,924.0C1525.975333067359,938.4269235972573 1524.7003990669539,945.5126285377304 1521.0588376956239,951.4047986086607C1518.5544002564195,955.457063507991 1513.265440055162,960.2942552228466 1508.8329489159871,962.5863854728502C1505.3038959601774,964.4113296813979 1492.1743947009036,965.3634397281166 1487.5,964.1333836861071zM496.61161818170467,960.9252616949822C488.9687491974475,959.772794097383 475.89899478657304,953.3571660937102 469.2788409636962,947.5082589399724C464.5372307105093,943.3190453851053 452.0,926.2063984489959 452.0,923.9235685323006C452.0,923.4036175824082 451.05515311506815,920.8456074558663 449.90034025570696,918.2391015844298C446.9149668636379,911.5008727781084 446.37991000065205,910.0559135891086 444.9980065313748,905.0C444.3215291695328,902.525 443.4115859658695,899.375 442.9759105232341,898.0C442.19672493299424,895.5408754275912 441.11992290639085,889.8396944999926 439.0095669102459,877.0C433.9359665473777,846.1315215095074 437.70589672557855,796.5414015752799 448.13218290682187,757.0C451.57453877608987,743.9449607055084 456.2878839099375,730.8925487032866 461.09312915154385,721.107951885403C465.74680286189766,711.6319899545663 465.74680286189766,711.6319899545663 463.8771394913861,708.5659949772831C461.5341053337428,704.7237359523488 461.32003014981865,694.2155968425361 463.49894850490523,690.0020333672968C464.32337018260307,688.4077776388827 466.59010790322606,685.8889481353924 468.53614343962295,684.4046344706517C482.909459600957,673.4415717788943 527.3335455040814,695.6099687441127 549.4410973802435,724.777623558588C562.8411172812673,742.4569739077143 571.3815462149173,763.5037768349637 576.7187761200224,792.0C578.7774522819001,802.9915623603346 579.0712204514003,844.1379723775664 577.1649999968097,854.5C573.6396918063506,873.6632299187416 571.5928836872008,882.1109156858072 567.352167096615,895.0C552.2973667623183,940.7570287231291 525.9146672165313,965.3438660951177 496.61161818170467,960.9252616949822zM1492.2407293967622,953.0968759837212C1492.648130564981,952.7237918562363 1492.2671800314683,951.3987654236862 1491.3941726556227,950.1523728002767C1489.5535291097344,947.5244860247515 1486.2524638807974,947.6004004337328 1484.6021275458952,950.3085690746673C1482.5161385529655,953.7316349410091 1488.9736077330936,956.0887948351212 1492.2407293967622,953.0968759837212zM966.6681290506235,952.4224585399991C967.3927535986921,950.5341172371454 964.6519476811287,947.4790401854259 963.0959613462945,948.4406926263837C961.8883823304382,949.1870175022841 961.6166995878795,952.2833662545462 962.6666666666667,953.3333333333333C963.8648554867026,954.5315221533692 966.0496515538206,954.0341850612871 966.6681290506235,952.4224585399991zM369.80831285489546,952.0161259114298C363.5977182903363,950.1426512060374 355.21796553745963,945.2469860609691 351.2443876891146,941.1706076640603C346.33581377142133,936.1350438871864 340.91169608286475,926.8282719418737 338.45989453330185,919.2348073976724C337.52487152525407,916.3389514663922 336.4302353712109,913.7659000825707 336.0273697465393,913.5169154336247C335.6245041218677,913.2679307846788 331.74103726425795,914.8619879001958 327.39744339629544,917.0592645792182C316.27102468118755,922.6877420812394 305.9837481188748,924.7472737912939 296.83361292180746,923.1781997183336C271.2443794428578,918.7901331013925 254.44712782783523,900.576927867053 246.8674020869357,869.0C245.1260918230862,861.7457495857615 245.09722171672976,831.4374264267811 246.82453746591312,824.0C249.76044240125216,811.358665048396 250.3800534995452,809.0907291822944 253.24485165006809,800.5C256.97008356529227,789.3290703765326 266.12331342491245,771.4589007364918 272.196518681091,763.5C281.7702854706376,750.9536334047322 295.27112982842715,738.9098196764804 307.57816268331067,731.9367941390136C313.43410480164385,728.6188836061866 324.9783361501834,724.0 327.41503139846554,724.0C328.5920072615634,724.0 330.55511532272146,723.2994832141079 331.7774937565945,722.4432960313509C333.6385971091734,721.139728500946 334.0,719.9460053722157 334.0,715.102300223507C334.0,711.9209397119498 334.4473219298046,705.5339564978419 334.9940487328991,700.9090041921561C335.5407755359936,696.2840518864703 336.4588068439367,688.225 337.03411830610605,683.0C337.60942976827533,677.775 338.4806239801953,671.025 338.97010544370596,668.0C339.45958690721665,664.975 340.39004950953625,658.675 341.0378001155274,654.0C341.68555072151844,649.325 343.3199107987681,638.975 344.66971139830434,631.0C346.01951199784065,623.025 347.5129929568093,614.025 347.98855797379025,611.0C349.2212170578513,603.1592346027549 354.0193872375586,580.1011364863513 355.8959953482182,573.0C364.31591229641344,541.1388036675045 367.55465579996445,533.3017907386203 375.8408994870434,524.7379281718518C380.70693969289175,519.7088581684874 388.4874536000396,516.0 394.1714930477235,516.0C406.2573765134172,515.9999999999995 416.8828272759586,526.3938488889206 420.572034491116,541.8250915166527C422.15630986709346,548.4518100201308 422.4122632991826,563.8118246646545 421.0532079443975,570.7007788971023C420.53247231381613,573.3403505036961 419.16400741908717,581.575 418.0121748449998,589.0C416.8603422709123,596.425 415.4919598366921,604.75 414.97132499117697,607.5C414.0595503785089,612.3160053181924 410.73361146470694,633.2439215118252 409.56792400165693,641.5C409.25730287294755,643.7 408.3319288472811,650.225 407.5115372779537,656.0C404.06614223229474,680.2532433688864 404.1836153610217,679.3027180943651 401.0540856556652,708.25C395.098012853337,763.3420217067686 393.7846758974189,784.3239187734109 393.6944790762741,825.8272196190189C393.61214684875466,863.7116945335148 394.2409860474333,871.146736852702 399.9509789334296,899.8005681406858C404.8869258666904,924.5700894861433 403.78596039593157,935.5727937633121 395.4429690149528,944.8522081138797C389.1775720451626,951.8208374577891 378.786986613,954.7246134803605 369.80831285489546,952.0161259114298zM1097.0,952.344458736314C1082.748190834341,949.8361030696576 1071.5820573264677,937.3078577306096 1064.1613913887263,915.5C1061.1230860080213,906.5710262339707 1054.5268815484894,882.8174353428993 1052.0817485547036,872.0C1050.9007089193783,866.775 1049.5236521613278,860.7 1049.0216224257024,858.5C1048.519592690077,856.3 1047.9149675034287,853.375 1047.6780108998173,852.0C1047.441054296206,850.625 1046.514605726795,845.9 1045.6192363011262,841.5C1043.0229773155363,828.7415349361933 1041.423418410126,819.0389157121111 1039.0248977273104,801.5C1038.4231791731183,797.1 1037.518889758959,790.575 1037.015365695845,787.0C1034.8598383361928,771.6958449947713 1031.9936415024422,740.4614372443959 1031.9972558774116,732.3150996611746C1032.0004883611289,725.0294959776484 1033.1495514226797,721.5333301128062 1036.813618396327,717.6607235918476C1041.6093484397925,712.5920456521008 1044.653765575839,711.5660255393191 1055.0,711.5316051201515C1065.235745475088,711.4975522816694 1070.0283602899501,713.1120852304789 1074.6541491240887,718.1526820410954C1078.3940127253325,722.227910119266 1081.1070840085615,731.3120755756267 1084.9122980380314,752.5C1086.8397364719879,763.232226769644 1090.130679694251,780.2393441820489 1092.6524532741278,792.5C1094.0099422921965,799.1 1095.542313679666,806.75 1096.0577230240606,809.5C1096.573132368455,812.25 1097.3917985406358,816.3 1097.8769811844625,818.5C1098.362163828289,820.7 1099.4487272848658,825.875 1100.2915666435215,830.0C1101.1344060021775,834.125 1102.1130344041328,838.85 1102.4662964256445,840.5C1102.8195584471564,842.15 1103.4292915900348,845.075 1103.8212589653745,847.0C1104.2132263407138,848.925 1104.9762933634163,850.4313690125092 1105.5169634602685,850.3474866944648C1106.0576335571209,850.2636043764204 1107.3185924011236,847.5636043764205 1108.3190942247193,844.3474866944648C1109.3195960483147,841.1313690125091 1111.525683712134,834.0 1113.2215112554288,828.5C1123.662800433842,794.6362438012426 1125.4872652941142,790.6766824148224 1132.6463865319943,786.3429885080736C1140.734082989227,781.4471919861641 1148.4170950517541,784.8076205492404 1153.8367158809692,795.6113050778994C1157.0569961073404,802.0307378677453 1166.4156789979845,831.146919225613 1169.8481826832633,845.4252347375021C1170.787935760478,849.3343611857232 1172.7833965917712,849.8212496274678 1173.5195434589634,846.3210394053414C1174.3149229734638,842.5391914736338 1175.7818613761744,835.9434553960001 1176.9826528685821,830.75C1177.987135111485,826.4055873708513 1180.6401277199957,813.6757012391769 1182.0365135308784,806.5C1182.7474838132744,802.8464894181507 1183.849140849941,797.254008796018 1185.9762930709517,786.5C1186.9605862190626,781.5238177277137 1190.9411516202535,762.7115415247354 1192.0067230258333,758.0C1192.4420847742065,756.075 1193.3007203296752,752.025 1193.9148020379862,749.0C1196.6631484874397,735.4614954376916 1201.3229095462698,717.1303403969494 1204.2098610488983,708.5C1209.6474704696827,692.244645448912 1225.4368388290331,689.1706855516971 1232.4605633612837,703.0C1235.7862331197814,709.548054757885 1236.5008154879472,719.0996252863526 1236.425656368754,756.0C1236.3567224416317,789.8440334135759 1235.98484991803,797.0660030522034 1232.9499569959883,823.5C1230.5417186461705,844.475819188317 1226.7312847167068,867.8126187217346 1222.9490535796717,884.75C1222.4270741108521,887.0875 1221.5215874568719,891.1375 1220.936861015271,893.75C1213.4344058080396,927.270229006966 1204.9031991090317,944.9647361222537 1193.5711561207418,950.508988154328C1188.6725879899475,952.9056342261329 1187.321815482837,953.1457130631504 1182.2801189705438,952.5157946694678C1167.6271992964605,950.6850332181682 1159.2977632547752,941.9689926217987 1150.2509349621687,919.0C1147.97632787556,913.225 1145.459763764274,906.475 1144.6585702704217,904.0C1143.8573767765695,901.525 1142.6234796643998,899.5 1141.9165766878223,899.5C1141.1785939819924,899.5 1139.5993782520177,902.9065493946953 1138.2079189300716,907.5C1130.5487670964083,932.7841998839428 1123.3160541125237,945.2915658752612 1113.7703854646372,949.7592705749983C1109.2963324403984,951.8532828920601 1101.2535472516595,953.0930941711613 1097.0,952.344458736314zM755.2260965945372,946.5315474285983C749.643475342184,944.7881979154854 743.1412860563246,939.7293816675065 738.4764097281177,933.5C734.3086742565537,927.9344901954654 732.8807874237697,925.0270809615548 725.4926394870363,907.0629374659246C722.6793814067177,900.2225530721831 719.9186971870004,894.4728990623335 719.3577856654422,894.2859285551474C718.7968741438841,894.0989580479613 717.747029228027,895.8706361882953 717.0247969635376,898.2229910892228C713.9729184018844,908.1631472474569 713.0276711257802,910.8998960144766 710.0213088569822,918.5C704.0851329912398,933.5066924150275 698.561621975386,940.4595294947825 689.1385035125168,944.7866757958041C684.5707858485623,946.884196130667 682.7201392394904,947.1796721760903 676.6385035125168,946.7824380065289C667.8536737966068,946.2086393290678 662.5524371368075,943.6658038470724 655.9630089797009,936.8650575008571C645.8699727158905,926.4483448731764 635.9370782381559,899.8950969815974 627.0227092635373,859.5C626.5372144087262,857.3 625.6885652953949,853.475 625.1368223450233,851.0C624.5850793946518,848.525 623.619539714283,843.575 622.9911786108704,840.0C622.3628175074579,836.425 621.4667871325662,831.475 621.0,829.0C619.4887462791723,820.9870264236168 618.1254406584579,812.6651114798465 617.0682925602791,805.0C614.5540106281665,786.7695823937916 614.0721843315409,782.9057714568165 613.0778174196696,773.0C612.4981080107567,767.225 611.5684452422304,758.1483023208527 611.0119001562776,752.829560713006C609.6625746879971,739.9344445906788 609.7327667045965,727.6239843637605 611.1832213590736,722.7827982003171C612.6046156027621,718.0386070433566 618.0178237897801,712.361339544877 623.5,709.8652002346973C628.1023566406614,707.7696595425167 637.9252638569176,707.4052756594576 643.1007767347742,709.1381031563731C650.9998718567177,711.7828206077809 655.7997806794771,717.7322027414009 658.0474232224683,727.6641449740387C659.4259353305462,733.755550685821 662.5035338342195,750.0634733132313 665.0933710225966,765.0C666.1900597347719,771.325 667.5176966369413,778.8625 668.0436752496396,781.75C668.5696538623378,784.6375 669.4222811672012,789.3625 669.9384025937803,792.25C671.5372184774054,801.1947572339051 674.0097035706453,813.3343229522275 674.9792753463639,817.0C675.4884379495976,818.925 676.8563558744779,824.55 678.0190929572091,829.5C681.150823947585,842.8323935673826 682.3612375740274,847.0 683.101683841262,847.0C683.8628394147374,847.0 684.181696050795,846.0002080001236 687.5666054503154,833.0C692.3701256714817,814.5514229075642 698.6982575510214,794.6375869554176 701.5894735893962,788.8717958133716C707.6968314251641,776.6922321822261 718.2260786519562,773.3898574228734 725.7433815014929,781.296206209428C731.499821049178,787.3505610416959 733.5022402803852,792.533777360652 746.2248335981743,834.3119758789193C747.5332606630662,838.6085626123248 749.0304387209328,842.2085626123248 749.5518959489889,842.3119758789193C750.073353177045,842.4153891455137 751.0641798830607,839.8 751.7537330734683,836.5C752.4432862638758,833.2 753.5050841302972,828.25 754.1132838877379,825.5C754.7214836451786,822.75 755.5674904798196,818.7 755.9932990758289,816.5C756.8647343954277,811.9976068564948 760.7452125149662,793.6002919228416 762.1101626438251,787.5C762.6024161820936,785.3 763.440798296689,781.25 763.9732340095926,778.5C765.2438017445107,771.9375903299755 767.3137613105654,762.6052701668389 769.9619814278648,751.5C771.1423840100348,746.55 772.5985381439717,740.25 773.1978795032803,737.5C773.7972208625889,734.75 775.0704889579671,729.575 776.0273641596764,726.0C776.9842393613858,722.425 778.3130784225369,717.25 778.9803398511234,714.5C783.1744096024763,697.2148830696647 789.3718058472061,688.9937365465712 798.2003400731157,689.0037380604379C803.3359003457191,689.0095559432216 807.4403752818557,692.156825077787 810.5191975860196,698.4497112060224C812.878955354493,703.2728823605054 813.4035365421154,706.0109917169634 814.2234198149145,717.7843076091174C816.5037394594902,750.5291194638849 813.1764864652482,802.5813422077691 805.9637667828806,847.0C805.4725660549968,850.025 804.634813586847,855.2 804.1020946314366,858.5C802.2223499679442,870.144333895996 797.5877766385216,891.2820248618981 794.8933272145152,900.5C786.2002511498489,930.2398638563288 780.5187546112357,940.7170444651587 770.5195272718327,945.4474363642412C764.5199309157339,948.2856998657437 761.5234967713457,948.4981091987504 755.2260965945372,946.5315474285983zM1186.889886468273,941.6326786889604C1187.754388907415,940.5910169746411 1187.6543710917658,939.9580429143051 1186.4699495396578,938.9750603330178C1184.558644144879,937.3888177429162 1182.4258245044462,939.0613393523789 1183.3358326464859,941.4327825571756C1184.076534798229,943.3630214236024 1185.3924062159056,943.437032009685 1186.889886468273,941.6326786889604zM383.44422733797114,937.0902420628057C384.4232904212134,935.5060847169896 382.8601644043616,933.0 380.8930111958157,933.0C378.7573265447635,933.0 378.3937276983515,934.9937276983516 380.2,936.8C381.6330018642825,938.2330018642825 382.68006863917003,938.3266768102649 383.44422733797114,937.0902420628057zM766.375,937.2022542485938C766.6461686938125,936.7634940853203 766.4820232726254,935.7799300384766 766.0102323973622,935.0165563667185C765.303560744802,933.8731376139899 764.876668523707,933.8574666033373 763.5872258809325,934.927608948485C762.7263631721594,935.6420615402145 762.2686238882837,936.6256255870584 762.5700274723201,937.1133068303602C763.2520678785704,938.216871389374 765.7123865465035,938.2743853377541 766.375,937.2022542485938zM879.0,936.0C879.0,935.45 878.55,935.0 878.0,935.0C877.45,935.0 877.0,935.45 877.0,936.0C877.0,936.55 877.45,937.0 878.0,937.0C878.55,937.0 879.0,936.55 879.0,936.0zM508.5291608306685,890.5617482602406C519.1111916348356,879.9797174560736 526.6070592819024,839.2871309626933 522.9086973428682,812.5C521.5000646668814,802.2973133533164 518.1797332511625,784.3973061432723 516.9729117280231,780.5C513.8766502840421,770.5009417172029 511.3155051300452,763.6168421488632 508.23002378437275,757.0C504.73271954589717,749.5 504.73271954589717,749.5 502.70206062482447,754.0C500.33472758364627,759.2460797698485 496.19452312087617,773.646135532649 493.93291151911774,784.5C490.99201277440324,798.613880722276 489.9995868820323,809.5502537839951 489.99339182094116,827.9128708596272C489.9864414914112,848.514159181193 490.85641585144504,857.7606957970526 494.17893177890414,872.3989502849346C498.39722117127394,890.9837802683584 502.6828694669951,896.4080396239139 508.5291608306685,890.5617482602406zM1823.0143997976788,892.0C1823.4823534713425,892.0 1824.160427500784,891.0698982056234 1824.521230974215,889.9331071236077C1825.185746979042,887.8394025897771 1820.913721342487,880.0 1819.1082562230476,880.0C1817.6705779479296,880.0 1816.0470483382646,882.514758308677 1815.401771783566,885.7411410821708C1814.934820143687,888.0758992815661 1815.3035247393746,889.3035247393746 1816.9731521309795,890.9731521309797C1818.1877037153884,892.1877037153884 1819.8214867458578,892.8987435661635 1820.6591062658822,892.5773187976463C1821.4865640347064,892.2597934589409 1822.546446124015,892.0 1823.0143997976788,892.0zM1681.3826232457584,882.0446265624222C1685.468699091894,880.4911032946546 1691.9210651335163,874.035702750371 1696.8975121988865,866.5224410654345C1702.812995692889,857.5914557862695 1704.393753784383,854.4461240007059 1703.6067311634245,853.1726946500796C1703.2606901152294,852.6127884725975 1702.541212281311,849.9823796491777 1702.0078915324946,847.3273417091468C1701.4745707836782,844.6723037691161 1700.414642848283,839.575 1699.652496120505,836.0C1698.890349392727,832.425 1697.6773494652998,824.4375 1696.9569407262218,818.25C1696.0872321669572,810.7801826330739 1695.2371799096063,807.0 1694.4271455222743,807.0C1690.438133589683,807.0 1677.2858408169482,828.8726516181005 1672.51030806804,843.4483484735658C1665.6798809052118,864.2959147982862 1666.9992331040737,878.9810401743271 1676.0,882.2905648194316C1678.2220327271077,883.1075920969539 1678.6366379630495,883.0886483060885 1681.3826232457584,882.0446265624222zM305.66037953934773,873.75C311.1966284522443,869.6644605237806 318.71522665140054,858.4514747646967 324.5096492608644,845.6388298911605C327.16031951136983,839.777659782321 327.16031951136983,839.777659782321 325.5773199173342,820.6388298911605C324.7066701406146,810.1124734510222 323.9955982505564,797.1125 323.9971601616493,791.75C323.99872207274217,786.3875 323.62081630590444,782.0 323.1573695686766,782.0C322.1616519676761,782.0 315.6743817512999,789.5811817053847 311.6922812759027,795.3983809393947C304.04999909338807,806.5625085983733 294.31186739745027,829.4114560369383 291.1915600737787,843.5C289.3100168429557,851.9953825941285 288.7223439845817,863.2551477985015 289.9269987624896,867.7288941011248C292.011539953193,875.4702890763483 299.464332794043,878.3224449844505 305.66037953934773,873.75zM1332.986527969169,871.013472030831C1336.8323518834063,867.1676481165936 1345.1772630881974,848.0915817466265 1348.5220563597436,835.5C1352.7222086709544,819.6883916639059 1353.9535952490278,814.6283474078758 1355.579348540849,806.5C1358.327956875962,792.7576668007514 1358.0892002131727,785.69993276789 1354.6379278557993,778.6712611891326C1351.3775108307004,772.0312750894414 1345.8464396517304,766.0 1343.0175579464403,766.0C1335.7874096470423,766.0 1324.0162837990615,797.7801539326156 1320.914663827611,825.6742730070456C1319.1142890558654,841.8657692973496 1321.6971733206192,860.7046694942754 1327.1632678795622,871.25C1328.3577127212034,873.5543537740043 1330.5340439978957,873.4659560021043 1332.986527969169,871.013472030831zM1403.7988468069484,762.8059880499468C1404.1852350164781,760.799635432197 1400.920405248378,758.8131242843288 1399.0928728067406,759.9426014488038C1398.074725176071,760.5718512901226 1398.0468827829002,761.2190841893397 1398.9642263708056,762.9331563624137C1400.2918255073885,765.4137980402061 1403.3119271968,765.3343582495557 1403.7988468069484,762.8059880499468zM1046.8415554594374,725.8821022482086C1048.3844778124414,723.4114908530065 1047.19117756568,721.6266643503842 1044.356219776856,722.1647704147297C1041.744696406076,722.6604661773041 1041.137844598258,728.0 1043.6930308655315,728.0C1044.6972624218406,728.0 1046.1140984890983,727.0469460116939 1046.8415554594374,725.8821022482086zM626.5,721.9166666666667C626.5,720.1722207574217 625.9474887906304,719.5 624.5136950430322,719.5C622.1671646776838,719.5 621.1745461629471,722.8623808720984 623.1516068646307,724.1139167960043C625.2203536581799,725.4234926362336 626.5,724.5837755013576 626.5,721.9166666666667zM895.8195509530758,714.7602156686828C895.4156373895078,711.9291201511192 892.0,711.0346844554887 892.0,713.7600091701228C892.0,716.0249514389692 892.823442161686,717.0 894.7362176197425,717.0C895.6176116541728,717.0 896.0203161241353,716.1674112351016 895.8195509530758,714.7602156686828zM1488.0,700.083368636039C1488.0,696.2782301632615 1483.355257303531,694.6620885617232 1480.9048775014226,697.6146155990455C1479.7580943708558,698.9964047388472 1479.8841106269817,699.4877401605438 1481.778780809212,701.0219509973138C1484.3497918607573,703.103829444407 1488.0,702.5531301571117 1488.0,700.083368636039zM1200.5,668.7784679793979C1194.1678870206056,666.5334441627765 1186.7346578838828,660.3102970387894 1184.0423287280016,655.0C1183.0663506259832,653.075 1181.6697428655182,649.126779155958 1180.9387559269683,646.226175902129C1178.7863435854172,637.6852650975268 1181.9348401450366,626.0542667808063 1189.3857644032269,615.0217138649966C1194.0690272718198,608.0872257899633 1195.795504440345,606.327018697896 1206.25,597.8280042458348C1216.0,589.9017116347038 1216.0,589.9017116347038 1215.9011030753027,582.2008558173519C1215.8467097667194,577.9653851178084 1215.5092097667193,572.1214779781271 1215.1511030753027,569.2143955069491C1214.5,563.9287910138983 1214.5,563.9287910138983 1208.7974584922777,569.417782214937C1196.2636797999178,581.482192594934 1180.7497054283674,583.3953236960732 1170.969967197601,574.0825411181506C1156.8737767994323,560.6594051141465 1168.330424629834,522.5581383460471 1189.4698726267166,512.5575782866242C1196.4461811762656,509.25725593889234 1204.3350821051336,509.0851250667266 1209.4804395614942,512.1209602621273C1212.8080731612552,514.0843121351957 1213.208299027003,514.1214670955862 1214.8663404148397,512.6209602621273C1217.7634809416986,509.99908411962895 1224.6255195634453,510.4928850916094 1227.43604486691,513.5254920810344C1228.723345754301,514.9145127256032 1230.0055148857382,517.0520127256033 1230.2853096034369,518.2754920810344C1234.942323608777,538.6395666438009 1235.433292784708,541.7603329881806 1238.5014401261683,570.5C1240.9667635587928,593.5929504501387 1240.1409736524186,620.7729735862212 1236.4962124798258,636.5C1232.7927065790957,652.480508013081 1224.7370788829398,664.6894113235451 1215.2821186308965,668.6515380786878C1211.5154168811382,670.2299846700561 1204.7576829806835,670.2880114329597 1200.5,668.7784679793979zM1040.6571322492773,662.4905018126344C1030.904304782621,659.8107406294661 1023.3599273608877,653.2003510805715 1016.2100862675167,641.0699805124095C1012.5286241988211,634.8240376246282 1012.4289855573574,626.7123712144555 1016.0,623.9666790781716C1017.375,622.9094650153249 1019.3354608323718,622.0344655606626 1020.3565796274931,622.0222358455887C1021.3776984226143,622.010006130515 1025.4300750682987,625.1192690564931 1029.3618610623473,628.9317090144291C1037.8059201782346,637.1194558626324 1040.7633302019938,638.5465675688441 1045.8940421580048,636.9093884641098C1055.152035475289,633.955218878918 1059.9370528566815,624.8053818907736 1062.581440920213,605.0C1064.2057180282998,592.8348307248275 1064.3862627486026,586.0 1063.0833333333335,586.0C1062.5791666666667,586.0 1062.0166666666667,586.3375 1061.8333333333335,586.75C1061.2003825179095,588.1741393347033 1054.3610669361074,592.8222965596666 1050.5643339804265,594.4086728794462C1042.5110130014937,597.7735652344506 1029.2962167602957,595.375562428173 1022.4619045730993,589.3091084705832C1020.0799664939188,587.1947892397104 1014.8918685377773,579.6156280958207 1013.3230113733341,575.9583304352873C1010.8059314473621,570.090549267394 1009.6554034932678,555.2897706905226 1010.9110236445226,544.929709029584C1012.8283221737119,529.1101707998278 1015.9055090581406,524.0 1023.5142474199232,524.0C1030.6607839904216,524.0 1033.9208659667918,530.0769479989357 1033.9755540223518,543.5003735135107C1033.9963311041327,548.6002002825688 1035.000827543561,554.6163180020966 1037.6771946806293,565.670194213186C1038.3863763426186,568.5992416500006 1041.6864917828034,572.0050866706276 1043.7889551474195,571.9777641544113C1046.1996614934826,571.9464358733377 1049.221957425994,569.2364898098955 1052.6862407722808,564.0C1057.223957973823,557.1409450351304 1057.96868183371,554.7426848492911 1060.9511829465864,537.3841188358007C1063.9857595272906,519.7224664489089 1066.5119826402074,515.9354610695906 1074.2861855911037,517.393910334501C1082.6514145007168,518.9632367376183 1085.7029159496735,528.1248137922681 1086.9545169691464,555.4282668685457C1088.4030075653427,587.026830955143 1085.1126573424453,619.5563788240368 1078.691051958512,637.1237589641098C1073.6868528290893,650.8135862186991 1065.3492986079448,659.6226013195279 1054.3839804406107,662.8053142954195C1049.3564312631654,664.2645739137728 1046.9095230700914,664.2084563525766 1040.6571322492773,662.4905018126344zM1398.5,656.8403468313566C1392.8667318105386,653.7453284614605 1389.2102484529503,646.8052964677672 1386.2027094649206,633.5C1382.105073763191,615.3721359738239 1381.5680796019963,608.5717468677042 1381.6622098277867,576.0C1381.7398739807195,549.1259846795331 1382.0628966224788,542.5510690413419 1383.8617876302028,531.2290253966149C1386.6514273310122,513.671306607643 1388.2611779968172,510.6326193808946 1395.6563374747514,508.9647401758011C1399.3679261610434,508.1276410427536 1402.7057234902054,509.07498703345715 1404.2088552739594,511.392147429295C1404.651270585047,512.0741549874108 1405.9668280821968,511.205002602284 1407.7088552739594,509.0797944120119C1409.2439848732818,507.2069935665165 1413.157266320812,503.94789402338387 1416.4050362684711,501.8373509828283C1421.7822853182263,498.3429792316903 1422.917664128899,498.0 1429.1079832473454,498.0C1439.0079688484986,498.0 1446.0429082041294,501.58871525813805 1452.1291854046535,509.74374579028665C1463.4459367233794,524.9071124080599 1464.3108089073528,548.1515807282195 1454.3075428988084,568.2896936206758C1449.9413226595505,577.0795664498498 1439.6746700897947,587.5116069391397 1431.565495831684,591.3980976697694C1426.3120816640494,593.9159058727748 1424.8368650831546,594.1855129796231 1418.7115720628215,593.7472504950919C1411.7921524622745,593.2521685429986 1411.7921524622745,593.2521685429986 1412.2810075740863,604.3760842714993C1412.5498778855829,610.4942379221746 1413.52601641847,621.7914694203814 1414.4502043138355,629.4810431564032C1416.5957505389192,647.3327548965827 1415.8649513769124,650.8613310730868 1409.1387028301992,655.1269915523385C1404.3112169638785,658.1884924069531 1401.714839356201,658.6066371142016 1398.5,656.8403468313566zM1211.570308731437,643.7080353799565C1213.7330626734538,639.8398701458452 1215.4622410437291,630.0881342818047 1216.6164892192628,615.25C1217.4299314961797,604.7930064424363 1216.1596847602432,604.4594002129121 1209.001243318441,613.25C1198.6714974745448,625.9349765209739 1195.2252524820576,638.2944854437194 1200.1065547514295,645.1496423494783C1201.878059684931,647.6374916176292 1202.7886398514256,648.059672124418 1205.8316346459665,647.8040128488781C1208.8420773081782,647.5510884628568 1209.8064445674722,646.8627715264001 1211.570308731437,643.7080353799565zM1409.0,646.0C1409.0,645.45 1408.55,645.0 1408.0,645.0C1407.45,645.0 1407.0,645.45 1407.0,646.0C1407.0,646.55 1407.45,647.0 1408.0,647.0C1408.55,647.0 1409.0,646.55 1409.0,646.0zM818.1727493191024,622.0948686430345C809.9943000904254,619.2703281581618 802.0,610.6581373006798 802.0,604.6721046423263C802.0,601.0225687840077 804.2788910391121,599.6840911798879 809.2311851302871,600.4249602277757C822.2937907737058,602.379141467379 821.9675171072008,602.4009296479459 825.2189418497785,599.3573162036795C828.0899446002309,596.6698104910685 834.0,585.5260915878999 834.0,582.8001712905761C834.0,582.1161125511079 834.965618476823,578.4968502759506 836.1458188373845,574.7573662346709C837.326019197946,571.0178821933913 838.047762170202,567.7144288368683 837.7496921090643,567.4163587757309C837.4516220479267,567.1182887145936 833.8292041073479,568.4776702377707 829.6998744633336,570.4372066050133C823.0220818575158,573.6060932263496 821.3000511128506,574.0 814.1245145724629,574.0C803.6901092445112,574.0 797.2664761448456,571.314725915603 790.983222721184,564.3262358974175C784.723612490217,557.3640427997925 781.714143417909,548.4137707110401 781.6268371832223,536.5C781.569774905014,528.7133064005919 781.8923586721696,526.9138333754265 784.0196819774012,523.1519642370733C787.76204330847,516.5341297211386 793.1199044979395,514.4592844407373 798.835021808645,517.4146864616032C803.3725116340759,519.7611136424795 805.9289293860118,527.2382477436137 805.975554022352,538.2996599268843C805.9890216471529,541.4947722268473 806.6851620016353,545.4242770638323 807.5256801462316,547.0496599268843C808.9518476819889,549.8075638309983 809.4335801082966,550.0 814.9113732268431,550.0C825.898045372088,550.0 832.4765122681911,544.4443613092623 838.0014465046245,530.5C842.6861975506101,518.676173971739 845.5039831132879,516.0507966226575 852.0948263083437,517.3689652616688C859.2297093870246,518.795941877405 862.0,526.1978792527027 862.0,543.8345912915468C862.0,568.3049229565428 856.3828229563375,593.4328210280651 847.5392934066256,608.523163237212C843.8670608496548,614.789354314514 835.8978079800098,621.5364993743925 830.5903580820116,622.8729306641258C824.8709065183718,624.3131051691445 824.5346395427272,624.2920353667621 818.1727493191024,622.0948686430345zM893.0,615.8229106137893C882.1098212691289,611.7185440548801 876.6953165020317,605.6418996339964 877.6167649678056,598.5584601507344C877.907134362289,596.3263070678305 878.1239412922519,593.1819004441915 878.0985581455009,591.570889875981C878.0110611762715,586.0176563270599 881.8611403170478,584.378583462444 886.8456295006001,587.847047643452C892.9180805633537,592.0725717095055 903.5763207085676,593.3286361988914 910.1278760453274,590.59084049476C914.9611412791714,588.5710921885983 919.0,585.1445485568878 919.0,583.0637834873307C919.0,580.6838396643597 914.7992338553471,576.5908073825823 910.2073291735674,574.4966116200178C893.9083889077259,567.063275345758 886.4372085341715,561.2899590124326 881.7417742772334,552.5C880.1127031177223,549.4503419839647 879.6003709441563,546.7181087800662 879.5853624498677,541.0C879.5679540440922,534.3675453381788 879.9565206226396,532.7721867416515 882.9445521208345,527.2079951935739C889.1002643322324,515.7450765865415 902.0492801580276,506.1937212242036 915.7352295203191,503.02118311243066C936.6771450995398,498.1666404314777 952.4827055847527,523.8269728829501 938.7857656388594,540.443735798227C935.3915849584264,544.5614654430357 932.4369367310824,544.9873667852695 929.0640866823962,541.8450789693044C926.9970829111812,539.9193720235204 926.8066041865279,539.0418381493856 927.2733301945746,533.5950789693044C927.56058404225,530.242785536187 928.114742648039,526.7125 928.5047937629947,525.75C930.3659345915394,521.1574018025109 921.742352349263,526.2670479494825 912.1922779673715,535.4154941230686C905.9767277781929,541.36964945957 903.1529846919572,546.4247896715714 904.6776021140556,548.8684673313694C905.2374569364536,549.7658102991162 911.4385794167694,553.3805243713035 918.457874292535,556.9011652695633C933.9461841388506,564.6695776321957 940.5428120034337,570.4893833088562 943.8357393428641,579.2905202723507C946.5272046281303,586.4841058472495 946.5589696706348,590.4626743689437 943.9788290104783,597.2124873928897C940.6946268223145,605.8041704143867 933.5352282281733,612.3030649047469 923.4334209132239,615.8624393029168C915.1116127797244,618.7946305329975 900.835711284909,618.7760881655847 893.0,615.8229106137893zM1562.0,606.8737302370491C1560.625,606.2819552080722 1558.0573127185382,605.1850045283322 1556.294028263418,604.4360620598495C1551.079077062645,602.221048813414 1545.2470497735424,596.2193805338077 1542.5188383647192,590.2601818449104C1540.3020996010928,585.418186576103 1540.153648043287,584.4830902342104 1541.3814348678059,583.0956773766613C1542.158084303281,582.2180548194975 1542.9563294686711,580.6 1543.1553130131174,579.5C1543.7015468291665,576.4803674001002 1548.258327103073,576.4515135554075 1554.235054197151,579.4298423202033C1558.4479076914495,581.5291957868143 1560.7763753156742,581.9912015194899 1566.9463443236018,581.9519683944617C1575.3878787523652,581.8982910137086 1580.112494627421,580.1376989416095 1583.267074576012,575.8701727409855C1586.6656339030035,571.2725904293401 1585.1230822575224,569.6444607866703 1570.589847752233,562.4896361222545C1562.071959991826,558.2962135627612 1555.712609074136,554.4236285019101 1552.867257351803,551.6973021698424C1535.303517218782,534.8682800006661 1544.805934476862,507.6256151832231 1572.903492128535,494.2550310717198C1580.259853064325,490.7544121259056 1591.5948172181825,490.4536794027483 1597.0,493.6157164402483C1606.741303356318,499.31438811326143 1610.9389347803437,516.2612830522637 1605.413014566479,527.5811744750738C1603.693759873542,531.1030813609852 1603.0754982484307,531.5308537309481 1599.3088430829173,531.8046226014452C1595.7235332375087,532.0652108909563 1594.870994241045,531.7327457369956 1593.4111093491583,529.5046797695667C1591.8922243190168,527.1865682096053 1591.8484755472118,526.3000925240907 1593.0133261477786,521.444450382993C1593.7331626361915,518.4438352087054 1594.0006458690527,515.6673125357199 1593.6077333319142,515.2743999985807C1591.5632378545527,513.2299045212151 1577.0422799472708,524.1712973124794 1571.9205592836636,531.6154631233096C1567.0817081485563,538.6484921675549 1567.6992988299726,539.603272411888 1581.5484829098573,546.5C1597.3766644387626,554.3822445849789 1603.1901595073778,558.2238986195957 1606.485139865189,562.9785568185106C1612.2945451525202,571.361531367888 1613.2689718569948,578.4600984544672 1609.8803888167506,587.7124873928897C1607.186925813803,595.0668791839568 1602.2263748470298,600.2594766704628 1594.028600160265,604.3057969840281C1588.0126879335878,607.2751769410946 1586.7457631200864,607.5158254687766 1576.028600160265,607.7248424175946C1569.4769974900667,607.852618397593 1563.4207281411275,607.4851858275105 1562.0,606.8737302370491zM1483.6389540440812,604.0077178752292C1477.9818262463955,601.7980337275432 1475.5675704854532,599.8333853916971 1472.5698306918603,595.0C1468.508934446766,588.4524415260502 1467.4947721185129,583.2598465784147 1467.589442344367,569.5C1467.7164863254923,551.0347890720498 1471.3514660032365,535.0796521413881 1477.0877783909127,527.808638377278C1480.0983944686895,523.9925576863111 1480.7320991571983,521.5704961510336 1479.0,520.5C1478.45,520.1600813061875 1478.0,518.5649084802964 1478.0,516.9551714980196C1478.0,514.6477632518663 1478.84765226649,513.4674272573297 1482.0054230042865,511.3777134622138C1485.5650272975101,509.02207880271504 1486.7080598699388,508.7830155731509 1492.2749088886771,509.2298687544559C1507.3057242208965,510.43639826984247 1520.0479260953996,522.3260239081404 1526.3151153248523,540.9924569760685C1529.4115529851497,550.215003833808 1529.341682068331,570.8777660856724 1526.1869347246466,578.899005049976C1517.5093957146244,600.9624562359497 1500.9144752740071,610.7555670965953 1483.6389540440812,604.0077178752292zM1298.017857142857,604.2974468713105C1293.6932131895776,602.49167226033 1289.3871379381312,594.6177703195547 1287.4644797940318,585.0C1286.4057971177524,579.7041199950202 1286.1899900630146,579.662790619471 1281.4378090543971,583.8458276370435C1273.304528497354,591.0050275039509 1263.5839050904492,591.5980974193609 1255.4953021183355,585.4286191669742C1250.5562440106376,581.6614158949417 1248.6215238788136,576.8116437187128 1248.1702554378767,567.0668897384519C1247.500536816717,552.6048919403072 1251.2628374349867,537.4644071600941 1258.293983773001,526.3263508159014C1263.4789859526388,518.1127760095658 1271.1410272277901,514.57306161806 1278.3445117638767,517.0633959533686C1281.5604462865713,518.1751845775893 1283.2652798023782,519.6870222499058 1285.8847040043308,523.75C1289.4153956071962,529.2264407438066 1290.9123952496063,530.0154098411505 1293.0,527.5C1295.7823732533636,524.1474453260633 1302.8117058003722,527.4610438935408 1303.1590936857347,532.2889551474195C1303.246595212889,533.5050298163388 1303.3941022245228,544.175 1303.4868870449213,556.0C1303.6634774016652,578.5056314117559 1304.7971640879268,587.2543312729789 1308.1718950044474,592.1543704993999C1310.8387941825908,596.0266527373234 1310.5498348797269,600.4097144830558 1307.4957229514225,602.4108454762315C1304.6005790428728,604.3078166223805 1300.1597091760689,605.1917868594886 1298.017857142857,604.2974468713105zM529.4012687611548,602.1029523993891C527.5329248045114,600.9636572547977 525.598253286743,598.4835062964323 524.5287971778293,595.8566904598267C520.371768478824,585.6461276057186 518.75340958903,552.0730232723639 521.1471733850665,525.7043842398932C521.8376863675526,518.097999845342 521.9419976145023,512.5882461296628 521.4043842398928,512.1184239093111C520.2813672326821,511.13701539393765 509.46739609830536,512.1763115601074 497.2418414427326,514.4406085889216C488.67469403022886,516.0273313984836 487.6218218316361,516.0351227435013 483.1354730737462,514.5449969306944C476.5585494755003,512.3604936404922 473.8249882019339,509.234016323696 473.248770205979,503.2372012895711C472.8526885582219,499.1151009791243 473.1644367058354,497.9580286423691 475.38080461751883,495.3240250365993C480.73794701636376,488.9574230294165 488.2559399315197,486.8808086073831 519.9090041921552,483.02447880565524C541.2630827999061,480.4228864591624 574.7012726303104,483.6572010010982 585.8029031984814,489.3980772827841C592.1348230991049,492.67244031907927 594.3391897377712,499.2606669021403 591.1172014102882,505.2810071616909C588.6017008588171,509.98126293660033 586.0563155633853,510.5171161902313 567.3190214683619,510.29098823420816C550.0,510.0819764684163 550.0,510.0819764684163 550.0053409988302,516.7909882342082C550.0204323155048,535.7477085682514 547.777295547761,590.0556199098578 546.8260461261016,593.7639426076684C544.6157826533813,602.3803685601076 536.3462601827044,606.3379301066072 529.4012687611548,602.1029523993891zM762.8981166478468,601.7487785786556C759.6181989107345,598.9139824910959 757.1851456357216,594.2141606117073 755.0168367250269,586.5248571794586C754.0824135496842,583.2111857307564 753.0476280838873,580.5 752.7173134677003,580.5C752.3869988515133,580.5 749.7824585219801,582.2801470588236 746.9294460687374,584.4558823529412C742.0570312377714,588.1716337171757 741.3273865504498,588.4117647058823 734.9093875246886,588.4117647058823C728.7908312483061,588.4117647058823 727.6848108585036,588.094643695602 724.3281744204057,585.3778920751786C718.1923580866954,580.411763251089 716.0611935686588,575.0509206469234 716.0281697184987,564.4996264864894C715.992433923019,553.0818515046685 718.5390616337643,540.6943318026642 722.5158764485591,532.9415802905933C728.5596982107895,521.1592241870358 734.7908051949433,516.0 742.9772472757047,516.0C747.321311604368,516.0 748.5221240560865,516.4769130183884 751.9298789860491,519.555614871739C754.0944813337128,521.5112030511953 756.1565325736964,524.4362030511953 756.5122150749015,526.055614871739C757.1459904777106,528.9411753797796 759.276350009663,529.9799072746988 760.5,528.0C760.8399186938125,527.45 762.8811025003467,527.0 765.0359640145207,527.0C771.7162928629378,527.0 771.9158287231247,527.8691621420908 771.6935709962297,556.0C771.4895740085373,581.8196026047935 772.2864294048254,588.6585991127768 776.1391816920293,594.1543704993999C778.5988272638041,597.6629401521878 778.4954495550978,598.6363306480051 775.3539772731649,601.5477488994625C771.8929614757486,604.7553100863397 766.4778552348351,604.8427064616809 762.8981166478468,601.7487785786556zM689.2226480020755,601.379293117548C685.1678400872628,599.3309587180212 681.1891152872086,594.7185906532987 680.4184246827823,591.172927884135C679.5284059016836,587.0782802552754 677.8394163827548,583.0 677.0336672185524,583.0C676.6356365666719,583.0 675.4764792974596,583.9210025216472 674.4577621758584,585.0466722703271C671.4539422898259,588.3658558832179 666.3080866211991,590.2658341452546 660.464523301524,590.2133250854879C653.5975882471276,590.1516202175058 648.8302806398796,587.378673512658 644.8787154801753,581.1477018865796C642.241410325391,576.9891032238662 642.0,575.8322743483529 642.0,567.3530094414284C642.0,552.0187953970108 646.1444791023184,540.3203090453113 654.744240703229,531.3802557493907C660.2073467447956,525.7009751554148 667.5338650979489,521.8775852013506 672.2478257032506,522.2458991800952C675.4930483946318,522.4994568530274 675.5004521914863,522.4893123726869 675.7115490524734,517.5C676.1315729481605,507.5726594901689 679.419481533862,481.4973611629815 681.1965878690338,474.0C684.8677388536765,458.51193140727804 688.0917555637682,453.72727272727275 694.8568332193526,453.72727272727275C700.8856743997454,453.72727272727275 703.6857855414393,456.6369503189827 704.585298129321,463.8364058715907C705.2210482388097,468.9247778604787 704.6194482236367,476.6788906084433 702.0511050679145,496.5C701.552236868653,500.35 700.397862705773,509.35 699.4858291504033,516.5C697.1106138226722,535.1207946991531 697.0865247561746,569.3691872332449 699.4429239817915,577.5C704.1296123216365,593.671531959928 704.0193174855272,593.018087064259 702.6251669944013,596.3532892991236C700.1591841184654,602.2526177082949 694.874504864488,604.23439576993 689.2226480020755,601.379293117548zM590.0939056996871,594.7084845144466C585.6294218791405,593.283271224678 580.9196873800048,588.4755078082139 578.0314000155358,582.3949085475223C576.0838954160278,578.2949027192795 575.7038972847417,575.8760621642626 575.6914204736868,567.5C575.6690612156187,552.489551040009 578.6547249991349,541.1858005073317 585.2653235133605,531.2531150754494C587.4490675677207,527.9719533608139 587.962840938677,526.2664858939434 587.5247042151473,523.7531150754494C586.5552754898853,518.1919882905197 589.7841065402157,516.0 598.9451569614806,516.0C617.0207551371861,516.0 630.0,533.4418072241323 630.0,557.7322110321998C630.0,573.9140413899966 622.498110421198,588.1175325231746 610.7898380672964,594.1032295352001C606.5966594738109,596.2469357814552 595.8936176466955,596.5599475000809 590.0939056996871,594.7084845144466zM1116.4790910033303,594.2557680845391C1106.7316764211407,590.7742699800165 1102.0749680446092,585.7173298322302 1099.4146893429402,575.7247262247408C1095.5803755790737,561.3221835418956 1101.0236763375656,534.5829557006125 1109.8018057940885,524.699900347188C1111.1266636631037,523.2082791857835 1111.2011927179715,522.3713667600313 1110.2367136710668,519.8161700094366C1106.7810179300698,510.6609866420233 1119.2034446563096,507.0384032304445 1132.2183002769739,513.4059787679347C1147.2523430694557,520.7614505384392 1155.7905409380553,537.8774666528603 1154.7438358977645,558.5615767764242C1154.3004174350865,567.3240418069787 1153.7890703472883,569.5835738920481 1150.7834699018144,576.0615767764242C1146.369356869892,585.5753619489731 1143.182399535978,589.2744081428208 1136.6435020988138,592.4735925653459C1129.5646935071836,595.9369309024283 1122.848015118545,596.5305658832787 1116.4790910033303,594.2557680845391zM1647.7344674539759,594.9119486529622C1635.5364429015058,592.0381274933756 1624.9899568630037,581.1555032021788 1621.4250478952865,567.7639936534081C1618.1098148410006,555.3103867016158 1620.5529555557678,535.7715232891182 1627.0296963663047,522.9411718288678C1639.448157341742,498.3403388526517 1665.8681517721466,494.3565960071842 1674.0362494160086,515.853281636645C1676.5345935334308,522.4283888927134 1676.5090511621054,526.1190413133857 1673.9104177515283,534.0348721865612C1669.4161317321023,547.7251479602222 1656.7407411557303,560.5077870060694 1645.75,562.4335596533647C1642.952834584709,562.9236726102985 1642.0,563.5765921277424 1642.0,565.0032062947726C1642.0,567.6750097005005 1648.947492928495,574.6977334842798 1652.4637433242226,575.5802561553039C1658.254066654092,577.0335348004708 1668.5459320133568,572.4632457433163 1674.9243140267095,565.606233282316C1678.0977397187414,562.1946753874189 1680.590952177925,562.3083085895335 1682.4743198537685,565.9503400731157C1684.3969018923588,569.6682037723428 1684.404519344657,572.787601023395 1682.502134564596,577.3406486822558C1679.1954857315422,585.2545732919365 1670.813922841624,591.8995940685253 1660.763993653408,594.5749521047135C1654.87201542717,596.1434359220019 1653.1505391408195,596.1879603012858 1647.7344674539759,594.9119486529622zM1501.719278333026,577.8944904473179C1504.70650390786,570.6333192874782 1504.8121179360287,559.2456048987195 1501.9628626167132,551.6302876674572C1499.6428651529293,545.4295388111972 1495.8823650447264,539.4263314108442 1494.460166828869,539.6530937889263C1493.0140136687992,539.8836756628112 1491.027974978022,546.4475665357868 1489.3627926947497,556.5C1487.4430096099975,568.0894169179285 1488.8977479164296,579.9886570073388 1492.6991287203932,583.7900378113023C1494.8774764160662,585.9683855069752 1495.289536426013,586.0531748157186 1497.2959847697175,584.7359297624898C1498.5081931463728,583.9401078851702 1500.4986752498617,580.8614601933429 1501.719278333026,577.8944904473179zM1767.8106843987753,579.239333122717C1768.0062649963477,577.9148259069783 1767.3502601512444,576.7226373026796 1766.04001767218,576.0214168082032C1762.2473884372164,573.9916632396839 1760.636977660127,576.8363959243917 1763.6770068574792,580.1955903759228C1765.7191283222646,582.4521091948329 1767.393470971022,582.0647779900568 1767.8106843987753,579.239333122717zM603.7025142498597,575.75C609.85548421724,569.0005012429046 609.0366758912393,551.8206649077365 602.1773619771114,543.75C599.1023105866003,540.131896257034 597.6527305772746,542.3652324953567 595.3889120146232,554.2088164887276C593.6573443230435,563.2678319653971 594.019653205473,570.2035381982308 596.4721977175025,574.9462363140931C598.345761168096,578.5693085166542 600.8759665519782,578.8505807398479 603.7025142498597,575.75zM1127.807775023925,574.6743716097465C1134.254416710579,569.6701724062655 1132.7430412425342,547.6630860697413 1125.4310802532295,540.0674005955115C1123.0893466455684,537.6348011910229 1123.0893466455684,537.6348011910229 1121.9832335277742,540.5440991638862C1118.1213147021347,550.7017154420516 1117.0031482697473,565.361832344222 1119.612390502948,571.6278760453274C1121.8795416949613,577.0723948659285 1123.7992249312024,577.7860046360776 1127.807775023925,574.6743716097465zM665.2199402770216,571.25C670.1925379110464,565.9786057192093 674.0,558.233748113645 674.0,553.3902522903368C674.0,548.765040699775 672.656152092206,545.0 671.0052852318684,545.0C669.2699281300515,545.0 664.7905589057607,550.4919657490525 662.4412520597443,555.5C661.1512062048618,558.25 659.78703574743,563.5375 659.4097621543403,567.25C658.7734811096752,573.5112210915012 658.8650856431597,574.0 660.6748138786863,574.0C661.7478659201663,574.0 663.7931727994171,572.7625 665.2199402770216,571.25zM741.6347809282536,563.9406340793653C742.7748290064277,561.9829828230161 745.1287866962448,556.6959967761767 746.8657980167359,552.1917761974998C749.2965823012842,545.8885423223796 749.8817143726008,543.1124761930896 749.4062427361471,540.1390399271697C748.4168543572283,533.9517449101661 747.5222274433222,533.1607647371203 744.6090106735162,535.8975897896231C739.7077226845117,540.5021107771677 736.0,551.9084511772254 736.0,562.3821234523091C736.0,571.3438981580434 737.1398539886916,571.6591676560573 741.6347809282536,563.9406340793653zM1273.6644936086325,566.25C1278.5001369233719,557.329358572474 1283.1485823280334,539.4355408586259 1281.6469228426627,535.5222789678922C1281.0734826153919,534.0279176896837 1280.6887423662045,534.0854465631729 1277.8798465459965,536.0855568057395C1272.6953249845667,539.7772617822009 1268.0,552.9875820905952 1268.0,563.8825544362337C1268.0,571.2604075294404 1270.4038711334101,572.2650929336193 1273.6644936086325,566.25zM1421.3164971922288,564.114243896001C1430.0850169926912,557.5344478531597 1436.1613762078073,547.9410515674164 1438.9374644872173,536.2941436987618C1440.887774489145,528.1117378739019 1438.1157972875549,519.1190326188567 1432.9886470527886,516.9952974552921C1424.99866484655,513.6857384623484 1415.9086905505694,523.0417371726343 1413.5527495541905,537.0C1412.3365330015536,544.2057281242558 1410.2057201202706,567.4281178290412 1410.6850118123657,568.2536703700027C1411.5086666067948,569.672368669244 1416.4986755816117,567.7294816202726 1421.3164971922288,564.114243896001zM1192.1346591138936,556.6233505602519C1196.7541595896803,553.0960996379047 1201.5431507859228,547.6157087385849 1206.6608272189794,540.0C1212.459873777558,531.3703318040273 1211.5093872105099,528.5342360359762 1203.6756468696578,531.0927122496059C1195.403394726961,533.7944051088738 1186.735979058414,545.3513048358712 1185.3391798850605,555.5420658276731C1184.5722683433619,561.1372955302664 1185.9382636932999,561.3546503137811 1192.1346591138936,556.6233505602519zM1651.0030258987704,540.4004004799496C1655.870917934342,535.8470574113525 1661.0,527.3157717990649 1661.0,523.7722708800595C1661.0,520.7345055010163 1658.1163261350746,520.5135443174976 1655.1903021380886,523.3271034389461C1653.7106359621398,524.749897055925 1650.9866031796116,528.9708507163807 1649.1368959546924,532.7070004621811C1647.287188729773,536.4431502079815 1645.3746887297732,540.2813940200028 1644.8868959546924,541.2364311555618C1642.2108951483317,546.4757054446014 1644.9011799132134,546.1079629979664 1651.0030258987704,540.4004004799496zM409.0,538.1107839623098C409.0,535.24060125902 405.6073514762002,531.5529597623835 403.6557578410321,532.3018565077759C401.46319401404725,533.1432221919558 401.52701723266847,537.6251326012294 403.75,538.9199012005281C406.5812884092217,540.5689753101842 409.0,540.1962093592552 409.0,538.1107839623098z"/></svg>