<svg version="1.1" xmlns="http://www.w3.org/2000/svg" xmlns:xlink="http://www.w3.org/1999/xlink" width="2304" height="2304" viewBox="0 0 2304 2304"><rect width="2304" height="2304" fill="#ffffff"/><path stroke="none" fill="#000000" fill-rule="evenodd" d="M1765.5553561823813,1911.9052866895372C1735.1013260970847,1903.1771354659943 1716.1972712782701,1873.7971845132024 1724.7582487499142,1848.5C1727.316666804742,1840.940025241363 1731.929556774288,1829.4218242915033 1735.771641788873,1821.0C1737.402577492554,1817.425 1740.642829670588,1810.225 1742.972202184504,1805.0C1745.3015746984202,1799.775 1749.3872638027578,1790.775 1752.0515113052547,1785.0C1754.7157588077516,1779.225 1757.7750679642645,1772.25 1758.8499760975055,1769.5C1759.9248842307468,1766.75 1762.4233747542248,1761.0105979304947 1764.4021772607903,1756.7457731788772C1766.3809797673557,1752.4809484272596 1768.0,1748.8131306046546 1768.0,1748.5950669064214C1768.0,1748.1667738240108 1773.3941159887886,1736.4793958625348 1780.9678828848255,1720.4976828401304C1787.8659512999861,1705.941788615595 1787.7702929949328,1706.8363456202453 1783.1920357495987,1699.6983228317758C1778.6344445816542,1692.5925208040562 1765.280171878105,1669.2985600545512 1759.000018050766,1657.5C1756.6579799789565,1653.1 1754.1333073482654,1648.516210367952 1753.3896344270083,1647.3138008176713C1747.8328624762232,1638.329319237973 1735.1423905570514,1615.1415468495197 1724.4850874531405,1594.5C1690.902347711965,1529.4554301924352 1687.5370668324638,1521.6222111794073 1687.5380602915386,1508.5C1687.538781303014,1498.9764422803642 1689.7702900705106,1493.9118302531415 1698.007983125954,1484.7375582459572C1706.261662677904,1475.5454821683372 1723.1436929758563,1463.476262906781 1734.971772053188,1458.3115854555408C1744.3167787859352,1454.231130358922 1752.9032463081437,1453.8065663265431 1759.6851222927921,1457.0896161644232C1769.1632365667044,1461.6778925647604 1772.9005475964166,1467.8262159389299 1808.5632629050197,1537.5C1825.8943996094665,1571.359616852764 1829.1009254087187,1577.2038643411652 1830.6249264321204,1577.7098188913C1831.269724669857,1577.923886071894 1833.9839836461424,1572.41029807245 1836.9843564796734,1564.7916421440402C1839.863333468161,1557.4812389648182 1842.8068028492446,1550.15 1843.525399548748,1548.5C1844.2439962482515,1546.85 1848.5112533142046,1536.275 1853.0081930286442,1525.0C1861.9215369746355,1502.6519234473262 1871.9098097091694,1479.1297229930988 1875.5388100230389,1471.9408071460416C1879.4939379074465,1464.1058446036873 1885.6451194257013,1457.2164449113393 1891.2665779754443,1454.3255117152275C1901.3843110845962,1449.122290832991 1918.6240907153467,1451.2164909750734 1935.5,1459.6987612968742C1948.0231577020163,1465.9932256199108 1956.3780581545027,1473.877737319495 1961.2510468590503,1484.0C1963.9885991049516,1489.686494390755 1964.383964214202,1491.5638150274744 1964.410057910629,1499.0C1964.4426887782618,1508.299148865743 1963.5098557117337,1511.762312746498 1954.9825059804657,1534.0C1952.346191837985,1540.875 1948.741181872338,1550.325 1946.9713727234725,1555.0C1945.2015635746068,1559.675 1940.407656390242,1572.275 1936.3182456471063,1583.0C1932.2288349039704,1593.725 1927.30464000171,1606.775 1925.3755903087495,1612.0C1923.446540615789,1617.225 1920.2807415463892,1625.5458781966083 1918.340481265639,1630.4908404369075C1916.4002209848888,1635.4358026772065 1914.1404279325657,1641.5108026772066 1913.318718927143,1643.9908404369075C1912.49700992172,1646.4708781966083 1909.1256769299541,1655.475 1905.8268678343293,1664.0C1898.388910929331,1683.2216587189641 1892.6540566520744,1698.2167542877658 1888.9991265877654,1708.0C1875.8532785669454,1743.187830962695 1848.4923230268382,1812.223412315371 1836.3684370702294,1840.794713346516C1833.9657966816033,1846.4568056870999 1832.0,1851.2809697435873 1832.0,1851.5150779164883C1832.0,1851.7491860893892 1830.9270534315697,1854.3165650834571 1829.6156742923768,1857.2203645699724C1828.304295153184,1860.1241640564874 1825.7701338081554,1865.875 1823.9842046367576,1870.0C1813.441573894459,1894.3505467677323 1805.3175037322208,1905.978293589237 1795.3548946134406,1910.9763039926506C1788.6613851802022,1914.3342827494012 1775.465859069699,1914.7456453435345 1765.5553561823813,1911.9052866895372zM459.0,1882.900260448206C457.075,1882.3946107886215 453.7,1881.4327266221624 451.5,1880.7627400782965C439.0412720873327,1876.9685673259453 430.24376398794016,1867.6348529073532 427.2172863517343,1855.0C423.9322174562295,1841.2855876452943 421.979494433482,1769.2670592825102 422.0113646411586,1663.0C422.0367652361377,1578.305022175015 423.3441861857566,1522.7477978962288 425.9531204056702,1495.5C428.1738435000286,1472.306692327961 432.4992910208435,1461.0158360077055 441.52876278053327,1454.8423942137824C446.0270555297784,1451.7669154705557 458.7741628110632,1447.2787463739517 466.99375246417975,1445.8763459001166C499.0511593352428,1440.4068122027934 597.566606333143,1439.4148300595878 613.5936334724206,1444.400186895739C625.7927985988042,1448.1948514164662 632.3949683277824,1460.5253688588368 635.1002406665315,1484.5669208664267C635.9922000170468,1492.4936965950349 635.9834440127962,1497.8712897642217 635.0626314949657,1507.6649937227585C632.6695735515314,1533.1174073246514 627.3437396324753,1544.2955568717537 615.0016627212956,1549.7700447664042C607.3072778229729,1553.1829887373244 596.6636588974851,1553.7874666038804 552.0,1553.3480675176745C530.0551155887231,1553.1321747226095 513.9112837149503,1553.3624461283819 513.0807330994461,1553.9032017863472C511.86177135942046,1554.6968445161908 511.84049802768317,1558.1913538889323 512.9300004097861,1578.6636296920876C514.7977940939077,1613.7603748418487 515.5944960779781,1624.9278294113215 516.2794169961231,1625.6127503294572C516.8455692521364,1626.1789025854628 527.777987677518,1625.3335459059465 550.6704392869905,1622.9534411740847C569.4629006164809,1620.9996082296423 576.9636753138273,1621.9192469853092 582.2525418841553,1626.8255912793365C589.2503403591302,1633.3172673618965 592.0,1645.3552877321972 592.0,1669.5C592.0,1693.1875560101525 589.8460922996445,1703.111115253047 583.1358384850224,1710.3392764081523C577.5693092374398,1716.335438638031 576.8985739522088,1716.457981326575 547.6071106704586,1716.8303406518467L520.7142213409172,1717.1722087937362L521.3889272449919,1735.336104396868C521.760015492233,1745.3262469785907 522.5455886344171,1761.6 523.1346453387343,1771.5C523.7237020430516,1781.4 524.2718845845116,1803.675 524.352828764201,1821.0L524.5,1852.5L520.8790789616271,1860.0C515.4462631811645,1871.2529707004544 507.759922626596,1877.7329988861486 494.7973670794685,1881.9883866617238C489.8396671509335,1883.6159157083036 486.1713536969228,1883.982780042237 475.58484411875145,1883.909811732816C468.38817985343815,1883.8602081858648 460.925,1883.4059101077903 459.0,1882.900260448206zM828.5,1882.605645613964C817.1138503018369,1880.3314231649365 811.8484282267312,1877.855725544311 805.9539549639735,1872.004939867296C795.9370447181963,1862.0622711365331 795.1781754031244,1856.6551107006164 793.0414981342217,1780.0C788.1683469149714,1605.1715635256912 786.8091796650893,1506.9925695181664 789.0694706019306,1493.081912969594C792.4741088484338,1472.1285248250467 800.8599115806492,1463.6997693785872 824.042232197629,1457.9300182505535C830.5878421279072,1456.3009086845666 834.797653354792,1455.9091200702358 842.9794484729144,1456.1676148258111C852.2774598094404,1456.4613751966192 854.2553321912999,1456.858673903614 860.0,1459.586562972352C872.841060277366,1465.684215461254 879.28507208444,1475.27332052979 889.8464466238872,1504.0C894.8736865314931,1517.6739691321663 896.0096769762978,1520.7838946066734 903.179129858665,1540.5C905.3791175881382,1546.55 910.6973536122871,1561.625 914.9974321345512,1574.0C926.1552060933225,1606.1104491522376 930.8660192519687,1619.1993525853093 931.4894668815436,1619.8228002148742C933.2922962135525,1621.6256295468543 933.693634163621,1616.915854611103 932.8803951672858,1603.5C932.380298683368,1595.25 931.8651248454896,1561.95 931.735564416445,1529.5L931.5,1470.5L934.7410510925467,1462.4616861398931C941.3125033472943,1446.1634562656877 953.4632982588007,1440.0 979.0225921447427,1440.0C1004.0058745901267,1440.0 1020.5930270888153,1448.4486225698763 1025.6059028611198,1463.7270869927231C1027.2934721931476,1468.87053541866 1027.483470000413,1472.4440152094367 1027.3484009228557,1496.5C1027.2650214304263,1511.35 1026.690192885783,1542.85 1026.0710041569819,1566.5C1025.4518154281807,1590.15 1024.5199166168065,1627.95 1024.0001179094838,1650.5C1020.6619302869881,1795.3178493459427 1019.4498052722367,1830.417200389496 1017.5448238101809,1837.425136370753C1014.2385766317631,1849.5879678870024 1006.6286526512803,1859.1339673006617 996.4095741404653,1863.937501208049C984.1244344293536,1869.712198515332 963.6830991832735,1871.8023963492321 953.4281388319084,1868.3325028993938C946.6863277992824,1866.0513272399442 936.7746239679738,1855.9422252215825 931.6508521990675,1846.1215070906717C926.3645550285474,1835.989277005218 908.5923195651512,1792.8871360564774 899.0268102539939,1767.0C891.5946610573678,1746.8863760217469 882.5635273547911,1725.0 881.6960463517684,1725.0C881.1227513531181,1725.0 880.9989648013244,1731.720254902155 881.3783027468708,1742.25C881.7200934288796,1751.7375 882.4972911725522,1773.0 883.1054088439208,1789.5C883.7135265152895,1806.0 884.0510849364218,1827.6 883.8555386686592,1837.5C883.5133371334398,1854.8247755502327 883.3958684153467,1855.708686418357 880.7240807861677,1861.0631213172487C875.2635686358207,1872.0063401959978 864.750205545938,1879.6241709747771 851.1846239356744,1882.466984349494C842.7017510363388,1884.2446615053345 836.8839601386984,1884.2802231370626 828.5,1882.605645613964zM2011.2721516694273,1882.5631372143853C1992.9293081260994,1878.1184391908102 1980.3815641514593,1864.6808432802072 1976.8968196723606,1845.75C1974.7764182879826,1834.2309384046498 1978.9338852943176,1819.476322213108 1987.0484783326324,1809.722335315802C1994.046497420649,1801.310504165512 2008.957086033281,1794.0 2019.115934778348,1794.0C2036.5354203270383,1794.0 2052.389157450737,1803.8886192512637 2060.108426252098,1819.5686805692417C2063.1170527657487,1825.6800687629816 2063.502778435769,1827.439907676778 2063.841954656813,1836.6025704113067C2064.2859548337533,1848.5969957954012 2062.9989401403523,1853.5260277978798 2057.0208732917577,1862.7260704088262C2052.9813127662483,1868.942817378279 2044.9267324512082,1876.5084744616834 2039.2995806937656,1879.3716580902515C2035.1485168869765,1881.483784872157 2024.468097307014,1883.9898728302953 2020.0,1883.9001736988052C2018.075,1883.8615284285138 2014.1474682512423,1883.2598620105246 2011.2721516694273,1882.5631372143853zM1069.5,1874.4095749709768C1068.4,1874.148533053195 1065.475,1873.4560417583446 1063.0,1872.8707054268648C1052.681762653931,1870.4304471660614 1042.3997784323228,1865.4649124829102 1036.7528824098367,1860.1950418664396C1033.1323004372682,1856.8161947129258 1029.9956988504046,1848.209102500754 1030.0174590796382,1841.7124873928897C1030.034101804821,1836.7437263243896 1031.5899642068916,1825.9233452816918 1034.0022371602172,1814.0C1034.6142403783922,1810.975 1035.5143651877565,1806.25 1036.0025145143602,1803.5C1036.4906638409639,1800.75 1038.7213023764198,1789.725 1040.9594890375959,1779.0C1043.197675698772,1768.275 1045.9034170023158,1755.225 1046.9722474899158,1750.0C1048.0410779775157,1744.775 1049.8417645121472,1736.225 1050.9737731224304,1731.0C1052.105781732714,1725.775 1053.906145470928,1717.225 1054.9745814295734,1712.0C1056.69663685083,1703.5785878383647 1059.7807951848783,1689.141045141531 1062.024065345276,1679.0C1062.4498888179558,1677.075 1063.272512769957,1673.25 1063.852118571946,1670.5C1064.4317243739351,1667.75 1065.8295730107902,1661.225 1066.9584488760688,1656.0C1068.0873247413474,1650.775 1069.7141159891517,1643.125 1070.5735405378564,1639.0C1071.4329650865611,1634.875 1073.0230014506417,1627.675 1074.1069546802582,1623.0C1075.1909079098746,1618.325 1076.48574317476,1612.7 1076.9843663800038,1610.5C1077.4829895852479,1608.3 1078.7879161375986,1602.675 1079.8842031630056,1598.0C1080.980490188413,1593.325 1082.3988517837838,1587.025 1083.0361178193855,1584.0C1083.6733838549872,1580.975 1085.4739818678702,1573.1 1087.0374467369031,1566.5C1088.600911605936,1559.9 1090.868090062661,1550.225 1092.0756210851805,1545.0C1096.6481337853331,1525.2146873142449 1105.0997975942794,1492.5553420083918 1107.4899179941592,1485.4352969098936C1112.8531019714947,1469.4586491259197 1116.7428684309787,1464.5742063121495 1128.5,1459.0525962673041C1137.889505165254,1454.6429164289668 1144.1674604505586,1453.5 1159.0,1453.5C1174.0626004648043,1453.5 1179.7897410062885,1454.8601748894343 1193.8229181525091,1461.7703154401013C1206.663913026386,1468.0934080986144 1213.3101261526392,1476.0397284074522 1217.4339095019673,1490.0C1219.472956023882,1496.9027979465518 1228.2872774419363,1535.9244930727357 1232.0033363202044,1554.5C1233.5437332242946,1562.2 1235.9341272412225,1574.125 1237.3153230244889,1581.0C1238.696518807755,1587.875 1241.2419468051144,1600.925 1242.9718296852875,1610.0C1246.0689657550504,1626.247637429815 1248.9604080174856,1641.2001647116128 1251.0935720993682,1652.0C1251.6910646698923,1655.025 1252.5489572251765,1659.525 1253.0,1662.0C1253.8133660202886,1666.4631707070407 1254.1496305113978,1668.1877593833408 1257.972051968753,1687.5C1259.0606526356958,1693.0 1260.620742973871,1701.325 1261.4389193869206,1706.0C1262.2570957999699,1710.675 1264.3055403112041,1721.925 1265.9910183007744,1731.0C1267.6764962903446,1740.075 1270.8675337874615,1758.075 1273.082212738812,1771.0C1275.2968916901625,1783.925 1278.2373619572115,1801.025 1279.6165911100322,1809.0C1283.215864112993,1829.8117716623874 1283.8240217657772,1844.2374288757408 1281.392801468614,1851.1321702594832C1276.3391242708913,1865.463984351308 1257.8506161765768,1874.0707233418925 1231.5,1874.358182740256C1216.6708577829072,1874.519954148993 1211.057339088406,1873.3202163465119 1205.6015425647543,1868.8230878912C1196.5797132858281,1861.386533944707 1193.7544134224272,1854.0204889075699 1188.0257656984838,1823.0C1186.857708774497,1816.675 1185.4740700234345,1809.8727911982749 1184.951012918345,1807.883980440611C1184.4279558132553,1805.895169682947 1184.0,1803.3558146448302 1184.0,1802.240969244796C1184.0,1801.1261238447614 1183.4375,1800.0115297298946 1182.75,1799.7640934339806C1181.2950722681203,1799.240454264819 1129.210008439069,1801.7054345921588 1127.448778897372,1802.381281780783C1126.7974587885647,1802.6312167574629 1126.0347420944188,1803.8851744836102 1125.7538529103813,1805.167854505555C1125.472963726344,1806.4505345274997 1124.031651438958,1813.35 1122.5509367161903,1820.5C1116.5366120628792,1849.5416652242086 1112.934279694119,1859.7806758431736 1106.4285744722733,1866.3250436994167C1099.7984044424338,1872.9946160432435 1096.0462035523199,1874.3233220450406 1083.0,1874.6214245240358C1076.675,1874.765949187635 1070.6,1874.6706168887583 1069.5,1874.4095749709768zM1336.0,1868.5050076344487C1324.1115378411498,1866.7205292422977 1315.0176345278503,1863.4600705983628 1310.452559259846,1859.3454233369305C1305.57697917853,1854.950908230009 1301.2560833994917,1845.7317459652022 1298.8078477620584,1834.5C1297.066498889111,1826.5112313215718 1297.1073049721092,1528.5192826783373 1298.8545186829815,1493.6792779647017C1300.3423847062597,1464.0107497579309 1303.6675014600462,1449.6052258126751 1310.6363636363644,1442.6363636363628C1318.7915993425433,1434.4811279301898 1344.1755839231507,1429.9686669412893 1363.2041795623854,1433.2914864408774C1382.3675376621372,1436.6378384880118 1392.4603674332834,1444.8507547302504 1396.6406456821596,1460.5C1398.2778573540854,1466.6290482324607 1398.3730124747026,1486.315367783331 1397.0394148594373,1543.0C1396.5024198331298,1565.825 1395.602354197163,1608.8 1395.0392690017334,1638.5C1394.4761838063039,1668.2 1393.7268230624577,1706.8551969721761 1393.3740229042974,1724.400437715947L1392.7325680712784,1756.300875431894L1403.6162840356392,1755.634317101316C1440.1016727405806,1753.399819263877 1467.2751573048583,1753.9803871658798 1478.3091761594928,1757.2301483452738C1483.4302038394126,1758.7384036031322 1489.9964003990688,1764.7003249065046 1492.8670896602166,1770.4483232573518C1501.9866920689328,1788.7085579386624 1501.9615128931878,1832.3418584761766 1492.8208114834556,1850.644339813954C1490.1093138313067,1856.073587849892 1484.2891257549652,1861.5422192480357 1478.4941816860423,1864.1055985416897C1473.415061680307,1866.3523348169379 1458.8795499387643,1867.444315341862 1413.5,1868.9882873590154C1374.4512849788716,1870.3168620888168 1346.9273849135404,1870.1452266973 1336.0,1868.5050076344487zM1552.5,1868.5225943127134C1541.1538654155706,1866.9276471476905 1538.594434963192,1866.2605865657201 1532.8925554678758,1863.4123349781053C1522.216509644642,1858.0793453050585 1518.0244964858064,1851.3704685234952 1514.8268057713017,1834.5C1513.081765948293,1825.2934687764607 1513.1223500817496,1568.5039890683943 1514.8779820786426,1510.690269049681C1516.3196332158707,1463.2160743665897 1517.6975075243952,1454.6407077761592 1525.5349613220192,1444.3652761289377C1532.4675394145092,1435.276197689968 1556.7047628925818,1429.9916483449604 1577.3084471944458,1433.0768733503182C1593.4063494041027,1435.4873961336893 1600.8567382661406,1439.1606832428329 1606.9735884751876,1447.7027651091632C1613.2876974996395,1456.520315704081 1613.9992536697014,1460.23712933621 1614.00503029342,1484.4315012274294C1614.0077969548013,1496.0191755523433 1613.5712894643427,1521.25 1613.0350136479565,1540.5C1612.0259692568204,1576.7203626116636 1610.4883053211638,1651.361196040467 1609.386694607827,1717.5956367349181C1608.8575369775963,1749.4112856326838 1608.979499659493,1755.7738599187728 1610.1265441338514,1756.192259051259C1610.8819448602333,1756.4678011210415 1618.025,1756.1115946348473 1626.0,1755.4006890819383C1655.7198720481915,1752.7514073175746 1689.9589818053446,1754.3749115702233 1698.680616206803,1758.8469612056526C1707.543550737425,1763.391462994202 1711.560655853014,1771.5377715411416 1714.5359126123176,1791.0C1717.9882750085774,1813.5831486538686 1714.9461404869942,1840.884334305249 1707.576024303729,1853.4604867002236C1704.8257870758084,1858.1534117017575 1698.807152099201,1862.8967391729584 1693.1625156900195,1864.8198716154948C1688.8802101980916,1866.2788567517175 1667.2807001074818,1867.6966245674362 1629.5,1868.9986083291687C1591.4759387947565,1870.3089787062 1563.999641508313,1870.1391202305033 1552.5,1868.5225943127134zM688.5,1866.605645613964C670.2100070781472,1862.9524780728643 660.9369630995559,1855.2907819298734 656.0974402279909,1839.833577261718C651.9027551356763,1826.4359536299905 651.8825184148952,1825.4686632781902 651.8957927919747,1639.0C651.9066684474271,1486.2268097897718 652.125364617575,1458.308004506714 653.3645787357634,1451.4944358220137C658.4711698632481,1423.4168753091783 671.7416453667757,1414.3689257795418 707.5,1414.5843372174666C734.3978708813787,1414.7463723307458 748.0698280899016,1421.0673758324901 755.271063358814,1436.6704989986686C757.4528100552232,1441.3977521920806 757.4976899576201,1442.262174204764 757.3908890839414,1477.5C757.3308780801091,1497.3 756.757428924353,1536.675 756.1165576267058,1565.0C753.4678678050195,1682.0658437578347 752.974213262439,1703.2779740509245 752.0206371183117,1741.0C749.8593688289188,1826.4964954791337 749.0142655746162,1836.8777983732639 743.4213471106281,1846.63423320136C737.5890071818321,1856.8083211622316 725.2978124582147,1863.938749112573 709.0,1866.6029133048833C699.0890600695163,1868.223030810998 696.5992817697348,1868.2233626570398 688.5,1866.605645613964zM2015.5,1766.308569295365C2011.8723434499307,1765.5484544526616 2005.5517973424312,1760.4789046063374 2003.3598788186691,1756.5712857723242C1999.8972511222137,1750.3983240243572 1996.2699258053028,1731.9748633139952 1993.0093177149529,1704.0C1992.4003182327804,1698.775 1991.4950223475298,1691.125 1990.997549081063,1687.0C1988.2172310736398,1663.945873168063 1984.6738320510335,1620.5030111275128 1982.9226551454242,1588.0C1981.2393935011553,1556.7575414117562 1981.1728391634563,1473.8575003703672 1982.8255131565852,1467.0C1985.5584746929956,1455.660023195105 1990.2567177774226,1445.3966304202238 1995.5406706682788,1439.223519857976C2000.441450550647,1433.4980607783816 2011.1973079603981,1426.6119602369288 2019.5,1423.8843103092854C2028.731772054886,1420.8514334715771 2042.7430946252496,1420.8377389399932 2051.2487272761396,1423.8532794093646C2058.5515832236974,1426.4423940062131 2066.9966665428888,1432.033451426654 2071.643171290384,1437.3553969411691C2076.0169687303037,1442.36499295618 2081.3353083368997,1453.4627134523296 2083.0134956950205,1461.081727248601C2084.396943771953,1467.3626171227677 2083.852474629628,1494.021835071575 2082.065481495891,1507.5C2081.4821105525766,1511.9 2080.596776998059,1518.65 2080.098073596963,1522.5C2077.1956822950733,1544.906517556758 2066.3529546189466,1614.5341666050538 2062.9683835862224,1632.5C2061.8286282351714,1638.55 2060.4964536728826,1645.75 2060.0079956700247,1648.5C2059.519537667167,1651.25 2058.4172171379873,1657.325 2057.55839449407,1662.0C2056.699571850152,1666.675 2055.513554925252,1673.2 2054.9228013276247,1676.5C2051.4402478039206,1695.9538411181616 2044.1753352848166,1732.2708808396392 2041.9201084494798,1741.5C2037.12767560812,1761.112188480511 2028.6576808789455,1769.065541570333 2015.5,1766.308569295365zM1168.0,1689.1490474057282C1173.1852999522441,1688.5371373181051 1173.5193610226602,1688.3296347914006 1173.8383718095704,1685.5225341432943C1174.024476304834,1683.8849279221063 1173.6477310772639,1679.8349279221063 1173.0011601927476,1676.5225341432943C1171.1462640987172,1667.0198695022673 1169.2322227569257,1655.7325372608393 1166.977451714856,1641.0C1166.3461327245243,1636.875 1165.433547659098,1631.475 1164.9494849027974,1629.0C1164.4654221464968,1626.525 1163.0738727885978,1618.5375 1161.8571529963551,1611.25C1160.3392483184418,1602.1585638198567 1159.2358531678994,1598.0 1158.3415196243536,1598.0C1157.6246410619956,1598.0 1156.81521005761,1599.0125 1156.5427840590523,1600.25C1155.9884926318684,1602.7678787809211 1151.323040580542,1630.4886966199088 1150.021105368367,1639.0C1149.558384931678,1642.025 1147.522059618688,1654.5723107129606 1145.4959380061675,1666.882912695468C1142.9225520896616,1682.5186620847076 1142.1413753495422,1689.4693407824384 1142.9044769757688,1689.9409635243169C1144.0873376546745,1690.6720116278364 1159.1121816557775,1690.1978865764372 1168.0,1689.1490474057282zM1082.5,1276.83141943972C1068.077131973943,1271.9724233573033 1061.7556044178991,1265.1201866633187 1058.8881356723357,1251.2372759791397C1057.8745605158613,1246.3300303846377 1057.8596716261977,1240.2343904364152 1058.813792559804,1220.8005639836078C1062.9764287972778,1136.0147183157267 1062.7643538542202,1089.4610743592912 1058.0357112582637,1050.0C1054.582824535876,1021.1852573034586 1055.5618633939735,1013.6631141192794 1063.8760955740654,1005.1272079644916C1070.7102862650784,998.1108041500673 1077.7713151497553,995.6441726101203 1089.2310327590415,996.2699594281546C1099.4077819627566,996.8256865166619 1106.9538773505944,999.9055650298541 1111.8770519692546,1005.512751148928C1115.8635008751992,1010.0530656210346 1117.118530329853,1014.5099757640598 1117.7288748157143,1026.293975448375C1118.0734847780614,1032.9474044242752 1118.5991120025878,1035.9685096342557 1119.368073654875,1035.7154664254504C1119.9906331446937,1035.5105999662355 1122.0001528019147,1033.3533110144667 1123.833672893144,1030.9214909770753C1129.2976507566125,1023.6745505613105 1140.9730522855095,1012.1549084623292 1149.307744604398,1005.7872642705142C1175.5619904778175,985.7292117533881 1208.6030017964638,984.7423116888049 1225.8929988908571,1003.4997437199925C1228.245876533328,1006.052314562856 1231.5574926366232,1011.1037375224081 1233.2521457870687,1014.7251280745526C1235.9525268297946,1020.4957097376772 1236.3308831698262,1022.3717701250033 1236.3135085319866,1029.9047372664986C1236.2904876268153,1039.885706298712 1234.3415786538653,1045.0582461939277 1227.80679095795,1052.4821570638096C1221.5204072204745,1059.6238661341845 1215.8045863461377,1062.5060725059361 1208.0,1062.4697442114875C1202.5258787989196,1062.444263618664 1200.0398795675728,1061.773496711678 1192.248631494509,1058.2197442114875C1181.3815955968262,1053.263060041134 1175.8903455276804,1052.8173553816114 1166.162670794386,1056.1024423064998C1158.2241011514623,1058.7833390316982 1151.1933048170922,1065.099157212091 1143.6398454840416,1076.3348687349962C1133.15489752371,1091.9311466019462 1127.7088026157487,1106.848648451406 1125.0252867902514,1127.3223594846654C1123.5227034798131,1138.7862220074865 1123.8019818158489,1177.5723867034926 1125.5485994371504,1200.0C1128.0156703807058,1231.6786641920407 1128.466017726061,1248.230824064407 1127.0096971018734,1253.7014870523094C1124.2554962827066,1264.0476321472947 1118.1814917870968,1271.2702475223348 1108.721486619191,1275.4480482064314C1103.8955846598683,1277.5793003727033 1101.5052007148513,1277.986985205381 1094.221486619191,1277.921052631579C1089.424668978636,1277.8776315789473 1084.15,1277.3872966426109 1082.5,1276.83141943972zM1240.5,1274.6595173680853C1231.1053560821988,1271.5819430274219 1224.9332510077252,1266.1102696067073 1221.9935657753795,1258.2532567751064C1215.0028162105477,1239.5688042939241 1228.2248749193639,1219.7016616212516 1247.5762761640085,1219.813300605069C1254.7296127676095,1219.8545684811897 1259.712868126977,1221.704368028793 1265.5449641441082,1226.4833322409413C1271.711577232812,1231.53640804328 1274.3784823498368,1237.7591180498544 1274.3379186885304,1247.0C1274.2990106200598,1255.8637183150872 1272.612919340396,1260.294875303351 1266.9354269668615,1266.4542272524998C1260.2130392667145,1273.7471567818898 1248.6607316701372,1277.3328766362815 1240.5,1274.6595173680853zM1308.9693785581348,1273.524439559339C1298.3111509713726,1270.0968096478036 1290.4425034653607,1258.7527033709562 1290.571149548863,1247.0C1290.6947007611798,1235.712748107454 1295.7384732022226,1227.483174544687 1305.5864703797888,1222.5005427403655C1315.8437414220316,1217.3108372602453 1327.406063781621,1218.8548599152261 1335.9259313917228,1226.5520484574226C1341.8773494937552,1231.9287971724464 1344.3773988821279,1238.005944812326 1344.3379186885304,1247.0C1344.3008574986457,1255.442977522971 1342.7141606585133,1259.9780864102204 1337.8649824211418,1265.5009953069432C1330.7066070694689,1273.653934419626 1319.2574390275634,1276.833025673647 1308.9693785581348,1273.524439559339zM1377.740524061463,1273.6314268371184C1367.8545085245075,1269.9439915791113 1360.674138235526,1260.5872117201427 1359.3979884035705,1249.7291681375152C1358.1164720579761,1238.8254638985 1363.695545001101,1228.202857187873 1373.8339555328057,1222.2429526202263C1377.932772470898,1219.8334469373692 1379.533302196596,1219.5 1387.0,1219.5C1394.4620367794942,1219.5 1396.0684973820719,1219.8341957644902 1400.1554903412252,1222.2367674904538C1405.3954391865084,1225.3171136195015 1409.982722014124,1230.6198166102351 1412.3837592229343,1236.3721239546726C1414.2682877506552,1240.8870007966611 1414.4260647184137,1251.9316785360122 1412.6739220744967,1256.68405688737C1410.6167507426005,1262.2637718361943 1405.3190073216665,1268.7287415789158 1400.4800290123958,1271.5645717460084C1394.781984560967,1274.9038482039832 1383.8225245487783,1275.899983158147 1377.740524061463,1273.6314268371184zM1058.5161940052767,877.8684699847258C1043.6432901909332,873.6316262452286 1034.3941510688694,867.5650713273427 1030.5921542350784,859.5529577452107C1026.4116220795015,850.7431401865686 1024.251329250866,819.9014492759957 1019.0310915814152,694.5C1018.0746982206877,671.5253538042821 1017.2499471497674,646.6544908564133 1015.0019891201596,573.0C1014.4396523744442,554.575 1013.4705717450815,526.3811184396931 1012.8484766104648,510.3469298659846C1012.2263814758479,494.3127412922761 1011.9412741141316,478.06484916152016 1012.2149046955395,474.24050290874914C1013.213963890235,460.2773403562614 1020.1632141266921,451.5235947455382 1036.1733645102347,444.06080649454987C1073.8854899720166,426.4821079768095 1122.934240252064,423.1277541133954 1159.0,435.6609186904185C1200.6638557544097,450.13947022330956 1227.3247767471369,483.0083272411282 1238.765793981543,534.0C1240.055335827242,539.7473819379452 1240.45138733789,546.5241717778906 1240.4606220756782,563.0C1240.476761385791,591.7943747979327 1238.2651712858565,602.3391571813925 1227.771768367714,623.5C1217.3467418936948,644.5229558816558 1203.519757026458,659.4181984784753 1183.8311837111464,670.8353861734909C1178.9214865300519,673.6824657127002 1175.5456676490198,676.2828153708709 1175.6111989102685,677.1671342383032C1175.6723583109163,677.992456548343 1192.5047397279254,703.7731545634169 1213.0164909480668,734.4575742718011C1233.5282421682084,765.1419939801854 1251.846140440126,793.2403270554415 1253.7229315523282,796.8983144390372C1259.1575815176093,807.4907990677224 1258.3977802387506,815.6838783840333 1250.9459439398227,826.8430913204973C1245.4327321287537,835.0991911723415 1239.131302698616,841.941865817102 1228.5,851.2169723863019C1216.3248824334748,861.8389550466924 1211.8033153013878,864.0 1201.7539957495142,864.0C1190.2229558633849,864.0 1184.6706739121548,860.6734633220661 1175.1804714080154,848.0790139693142C1169.8692136665447,841.030442919836 1156.304523637157,819.003352234634 1149.2674359829834,806.0C1147.6303819549323,802.975 1145.16250402095,798.475 1143.7832627963562,796.0C1140.4459258756099,790.0112659543804 1129.7471367226378,769.6448964276931 1124.2152246427725,758.75C1121.7716652146457,753.9375 1119.3046295388697,750.0 1118.7329231410476,750.0C1118.025522060382,750.0 1117.9044786809602,756.788468413545 1118.3540200282955,771.25C1120.6807226040999,846.0989165495523 1120.626580655375,847.7703531489079 1115.4953851409145,859.5C1111.8822810873578,867.7593684970755 1102.4571763343918,875.135161579616 1091.118515834746,878.5765777903799C1084.1801226966566,880.6824613401008 1067.09145033467,880.3113030418948 1058.5161940052767,877.8684699847258zM1638.5,872.4973753324188C1616.4650911709925,867.8545298993638 1599.8891579235803,858.834551746087 1583.4098790190496,842.5194742216546C1574.9534492186463,834.147305234602 1570.6220719457908,828.810908496569 1563.3157905456092,817.7629080237805C1548.123640264273,794.7904991747713 1535.3709018967209,760.2985661833158 1529.0184637899986,725.0C1528.3750958380656,721.425 1527.4653710662305,716.475 1526.9968531859208,714.0C1526.109091633582,709.3102967157078 1524.7462718319541,698.2967590376294 1523.0160694478636,681.8295607130095C1521.501926078865,667.4187037066428 1521.7560527198846,621.8294831029157 1523.4387639203464,606.0C1525.9582654713788,582.2987212428974 1527.6059036663166,572.0153696847195 1532.4112996150097,550.0C1535.005400852192,538.1154230898098 1544.0236305543526,512.6583733928732 1549.9468104291582,500.5C1565.500669613997,468.5729554620093 1585.2163544771818,446.35854570429524 1610.0,432.8357940826379C1639.3098525593023,416.8433987805854 1674.7167235243548,419.0117292656465 1699.7706649681193,438.33338435845485C1716.6227681632738,451.329763640974 1728.1499912255226,469.46629260657227 1735.1781002188554,494.0422026536076C1738.1697996199052,504.50358500236047 1738.4567174924557,506.71749491156305 1738.4773749653507,519.5C1738.4925734565834,528.9045768573252 1738.0446029727611,534.8129780407643 1737.1126286560775,537.5C1731.8240650721584,552.7477232777974 1723.9519448921526,563.4255201112952 1710.64123547082,573.4059760100873C1702.8708415528272,579.2322675592427 1697.3890096826492,581.3569681170145 1688.992987008552,581.7966101396723C1682.5482465472533,582.1340769191096 1680.6487700112114,581.8194494900847 1675.5695060954076,579.5731579368519C1666.0116266541233,575.3462100539172 1661.93397317965,571.3261887990623 1657.07004453278,561.3351617091965C1651.8812798264264,550.6768867821005 1649.6145136740458,548.0 1645.7779370738276,548.0C1640.0525885616787,548.0 1634.8621923026199,556.858280580041 1630.0277542444433,574.8803250707733C1622.9084582237172,601.4199700272823 1621.959011662877,653.3499837256539 1627.876575136278,692.5391435468812C1630.7367545195395,711.4807277769141 1638.4141287615553,733.618993817742 1644.6486444948055,740.9026232744004C1649.266681402414,746.2977607784733 1652.7284597210669,748.0 1659.0823060843659,748.0C1665.4544325972508,748.0 1669.4081439201564,745.7445158531276 1673.8304221423355,739.5866032574837C1676.726958831738,735.5532478539363 1678.9830131984045,731.2323722165337 1690.322702917637,708.0C1694.2497591329438,699.9543802371843 1703.131182421883,690.7299939660801 1709.6346909474405,687.9422647187978C1727.9204933983813,680.1040546046438 1757.628736491079,694.8301253587016 1768.3028288047249,717.0234576523355C1775.104632543925,731.1656147692623 1775.3609045946307,743.9133793995584 1769.2760978167046,765.4368693080634C1761.49180581188,792.9718653277401 1749.9720134545094,815.8073373841663 1733.8716739379354,835.6184061862195C1713.638746630125,860.5145218581498 1685.3767476332248,874.2249813472866 1655.0,873.8806285606904C1649.225,873.8151627851371 1641.8,873.1926988324149 1638.5,872.4973753324188zM301.5,872.0316411926804C282.9426867195294,869.0037899018566 271.4268363657479,858.8554221689315 265.71950101335403,840.5C261.83852376145353,828.0183476196515 254.27080848843872,616.3470043958254 253.7067632803856,504.5C253.47256585976558,458.05996370577196 253.0718910555501,460.6357674072618 261.7164688527778,453.0082938978202C285.54358386752875,431.9846311065944 354.7137828644587,421.4384969029761 396.5,432.45832832696414C420.7932692752505,438.8649319992336 445.0986013400687,455.8827657162449 460.12060954296777,477.00349032227405C483.5235563689848,509.90769249056063 494.1906661032931,556.4470181642089 488.5501105075542,601.0380073643908C486.05513981169696,620.7618110687246 483.5007244537086,630.9746609874372 477.06808395229336,646.9444859661712C462.3310296859287,683.5310443606854 436.89892111871535,708.9511482176939 407.3610802313965,716.6185859120346C398.12922130655755,719.0149934009629 396.4218937628896,719.1453508842577 380.6040494158118,718.6615326275011L363.70809883162354,718.144738481692L364.4012418383875,730.322369240846C367.36479451464294,782.388176548384 369.05622466952184,823.9856698539797 368.43398568963573,829.5C366.05608140517796,850.5731723726726 352.8117381308415,864.1736892416443 328.5,870.5079106805978C321.8304608264729,872.2456037156878 307.6990988694935,873.043099544989 301.5,872.0316411926804zM851.6913186096499,866.4992228320035C838.9300795546895,862.991063453576 829.261715992949,855.0760151907848 823.4176918893731,843.3528942288158L820.5,837.5L820.5,809.5C820.5,794.1 821.0926200418015,763.95 821.8169334262254,742.5C822.5412468106495,721.05 823.522608350056,688.875 823.9977368471286,671.0C824.4728653442013,653.125 825.4158197400568,618.3605744376613 826.0931910601407,593.7457209725806C826.7705623802246,569.1308675074998 827.0567837981008,548.7234504647789 826.7292386554211,548.3959053220897C826.4016935127415,548.0683601794004 815.6411190750846,547.8620180229389 802.8168510161836,547.9373671966197C777.6978224599856,548.0849544145942 768.626220474231,547.0457428338789 759.0418369128893,542.9226518603914C745.3041126230723,537.0128417350886 740.0027341697121,521.4413546946248 740.0027341697121,487.0C740.0027341697121,462.83264193571006 741.7549598397112,452.3351237034569 747.7644252525265,440.5C752.3331501610493,431.502290429341 756.2419852209465,428.3659383996322 766.0,425.8682283862729C781.9348532449507,421.7894640666328 854.3428116742118,419.3447735492456 911.6909326290242,420.9493044282741C949.8962158474034,422.01824192169653 962.110654735156,422.89141649158046 971.0,425.18913647195455C988.5229956606739,429.7184843649622 995.9363680991886,446.33295007404655 995.9820632222845,481.17764051532987C996.0180492124944,508.618658377424 991.2544916034208,526.5594050025496 981.8259826969518,534.4929721964468C975.6459314114875,539.693142511959 970.3779924473965,540.7021323783366 938.0,542.8871416670295L913.5,544.5405093877105L913.7074683364915,563.0202546938552C913.8215759215619,573.1841146122349 914.3857960027202,603.1 914.9612907390655,629.5C917.6592406192029,753.2646017198217 918.0430685263935,773.6172030410683 918.2521707964879,804.0C918.4720155602073,835.9436934642569 918.4360596226129,836.5990861554477 916.1515879402089,842.2887151150363C909.9501931868633,857.7337020020452 889.5135175440399,868.1378060487556 865.8228146681033,867.9105825272227C860.6952666006465,867.8614029171952 854.3360933743425,867.2262910543466 851.6913186096499,866.4992228320035zM1836.0,864.9764008540297C1814.5445811298061,863.4980856674481 1807.1414226734375,861.0658448669391 1799.6189804701216,853.0237457020164C1789.6593011236398,842.3760428961466 1789.537943766407,840.3363491080304 1789.5326852200744,683.5C1789.5283222849655,553.3752905055792 1790.157631659973,520.9459700310708 1793.5505207328733,476.45449800526865C1795.4491634304784,451.55730665816424 1797.6319254180742,443.34461225612023 1804.5289227920784,435.14799658761615C1815.4374705584453,422.1839241523509 1857.628346320468,417.54654428954154 1929.0,421.4668473694295C1944.8487027144056,422.33738510899894 1956.3148557916952,423.4284018676784 1959.2950882994041,424.34945750183647C1974.27051982937,428.97768887269206 1979.9811696988972,442.40148981847005 1979.9916268797792,473.0C1980.0034636873304,507.63540321764265 1974.079369573293,523.1513503485099 1958.813361574206,528.4685388988214C1953.3746573654346,530.3628530999631 1916.8613289684868,530.575443731612 1894.2117948674625,528.8446669724497C1883.9635886851793,528.061544591023 1878.5921002931639,528.0078997068277 1877.9180580602292,528.6819419397696C1876.9650357726264,529.6349642273824 1878.0500344712318,560.4817528598874 1879.8286304380624,583.0L1880.5,591.5L1889.0,591.3763376755793C1893.675,591.3083233971479 1907.6328169065005,590.9082723284135 1920.0173709033343,590.487335300614C1941.8067764085017,589.7467379732328 1942.669705833749,589.7908487589704 1946.7094389338076,591.8517668049028C1955.1502455184059,596.1579450056781 1958.462926248614,603.7178421776059 1960.5774175406902,623.5C1961.6584226187313,633.6133606654017 1961.7382937482416,639.6086885141827 1960.9371177190912,650.5C1959.1280687428068,675.092493006444 1955.60120160768,682.3968627542102 1943.7063383086709,686.186057635222C1941.9428522389019,686.7478288990297 1928.458896741032,687.5243847070857 1913.7419927578492,687.9117372086796C1895.7466523014334,688.3853789577046 1886.606510779981,688.9934892200214 1885.831314535615,689.7686854643852C1884.346416529244,691.253583470752 1886.2450219610614,745.6450219610604 1887.837334075467,747.2373340754671C1888.5690262849284,747.9690262849289 1892.7580593008222,747.8649385259173 1901.6930516162815,746.8930516162817C1919.0702825319136,745.0028761515085 1972.4398618768407,744.9702268740758 1979.7315344232325,746.8453109350385C1994.9027347192205,750.746648478612 2001.3546013619962,763.6116760074 2002.6275573664711,792.5C2004.283920151024,830.0893154211402 1996.3737763866764,853.5141327268885 1979.6669627086922,860.4946851932061C1974.6065877781407,862.6090448420783 1953.4759605655747,863.7502207494896 1906.5,864.4461237483272C1885.05,864.7638845592899 1863.225,865.2069760445232 1858.0,865.4307714932902C1852.775,865.6545669420573 1842.875,865.45010015439 1836.0,864.9764008540297zM602.4957318152757,862.534692744418C587.9239780205376,859.1975723859183 575.4770312342672,852.1685083390611 562.8074902044082,840.1218715939613C543.2067571584331,821.4848183348057 531.6348313727216,801.8159962925798 519.492906724955,766.5C508.7606837917711,735.2842614482748 502.54216871480384,680.869337977176 504.9549765695471,639.2862927011658C505.96068297254527,621.9536506476211 507.62251079826166,605.4450553564984 509.51369401383516,594.0C511.192905193648,583.8377561994275 512.2210605489691,578.1001248100013 513.0079982080207,574.5C529.1694496889243,500.5637208388798 563.7366631058942,451.95188698352354 608.5,440.2097038852372C624.7985941449409,435.93430598209846 640.2695663365274,436.3751061462069 655.8246194304389,441.55808068748183C688.1907758984812,452.342548214529 713.7677982794122,487.800209600238 728.0483803299528,541.6825447410708C731.5906212072955,555.047841017305 735.2175019423379,576.1175120195089 737.1402456434896,594.5C738.953734742645,611.8379538562555 738.9888202172489,672.7353396703847 737.1932506061888,686.5C732.7362032309151,720.6672875369214 727.8154787111151,744.9371549027521 721.7842227006095,762.5C703.0014384679693,817.1949307736699 674.2844286035219,852.0991691773571 640.2138083725291,861.6451826577436C632.4225302462016,863.8281674557632 610.4105107933439,864.3472796459532 602.4957318152757,862.534692744418zM1302.5,862.8841055087587C1293.5400236661055,861.2852686280543 1288.6026383145665,859.7771209831328 1282.5,856.775011170188C1271.8803154384361,851.5508019693002 1266.8202815688674,845.1824225891534 1264.8672781650703,834.5830920953451C1263.5074502902035,827.2030409226815 1264.209667563176,820.7329546930146 1268.674948168861,799.5C1270.0629251331416,792.9 1271.5515572709644,785.7 1271.9830195862448,783.5C1272.4144819015253,781.3 1273.7696288940597,774.775 1274.9944573474324,769.0C1276.2192858008052,763.225 1277.4393727619483,757.375 1277.7057617055284,756.0C1278.7814590979665,750.4476527639443 1283.332684761006,727.9710481208966 1284.995302384445,720.0C1285.9704235067477,715.325 1288.6105063265202,702.725 1290.8621530950506,692.0C1293.113799863581,681.275 1296.3255063725887,665.975 1297.999278670623,658.0C1299.6730509686574,650.025 1301.691644323651,640.8 1302.4850416817198,637.5C1303.2784390397885,634.2 1304.673071732542,627.9 1305.5842254433942,623.5C1306.4953791542466,619.1 1307.5897744034473,613.925 1308.0162148860627,612.0C1308.442655368678,610.075 1310.1539734473176,602.1977087729691 1311.8191439497064,594.4949083843759C1314.9411721074064,580.0529280154968 1318.0747112879,566.3239276159584 1323.0018564997254,545.5C1324.5634811364307,538.9 1326.8377210923863,529.225 1328.0557230685158,524.0C1332.1538192693397,506.4199360354501 1340.273629262147,474.7550289208692 1343.5412579310837,463.6108993342C1344.976451672157,458.71622290277264 1348.6728922103307,452.9983528381987 1352.4747742290501,449.7920146844921C1356.5434930208255,446.36063826761796 1365.7128335409936,442.08655631580825 1373.5101344694144,439.98685439456676C1385.068827227172,436.87426330525255 1404.1783540813665,437.4493400422581 1415.0805708211108,441.2378634370948C1431.5879424267123,446.9741797301932 1441.706880785934,453.5395959271231 1446.769101202628,461.7981616855883C1451.5488942204217,469.5959720731259 1457.0733027367394,492.2837356651664 1468.9764999285526,553.0C1472.912128812238,573.075 1476.9742673249086,593.775 1478.003474401154,599.0C1480.194501392406,610.1232387471098 1485.0243345916194,635.6394753290957 1488.035563527457,652.0C1489.1997085290561,658.325 1491.0229305068083,668.0 1492.0871679224615,673.5C1493.151405338115,679.0 1494.501204035006,686.2 1495.0867205822192,689.5C1495.6722371294325,692.8 1496.5332128674338,697.525 1497.0,700.0C1497.4667871325662,702.475 1498.3327455049796,707.3125 1498.9243519386964,710.75C1499.5159583724135,714.1875 1500.4840416275865,719.8125 1501.0756480613036,723.25C1501.6672544950204,726.6875 1502.5332128674338,731.525 1503.0,734.0C1504.436199717827,741.6150220381627 1505.89964780143,750.0775946032193 1507.4962273447188,760.0C1508.336963817388,765.225 1509.9520618865404,774.675 1511.0853341650572,781.0C1519.3706630863282,827.2419371059017 1519.631870035686,831.0894228458936 1515.1248068329437,840.5C1510.7697282250058,849.5932390802201 1504.735397586822,854.4245144574786 1492.6770790992812,858.4723586223128C1473.019133960944,865.0713134105002 1454.1225869583686,865.6092258466869 1442.8189213160383,859.8916297258272C1435.7061300865646,856.2938527896601 1429.9032811900147,846.7154335102404 1427.0928062396924,833.9334621907049C1426.4357217455006,830.9450579858171 1425.5011050509695,826.7 1425.0158802518456,824.5C1424.5306554527217,822.3 1423.6195397142828,817.575 1422.9911786108705,814.0C1421.6092558513665,806.1376835096947 1420.2434911123773,799.1559060370145 1418.8077806334506,792.6145059070527L1417.7355094186305,787.7290118141054L1390.4099556104277,788.2070375544315C1361.5432609487827,788.7120235899663 1360.0,788.977060668912 1360.0,793.4295929571421C1360.0,795.3363807321467 1356.2687940632388,814.96031148462 1353.997344789375,825.0C1353.5618193400057,826.925 1352.8882006416136,830.075 1352.500414348504,832.0C1352.112628055394,833.925 1350.8931586564122,838.2 1349.790482350767,841.5C1345.7354438689354,853.6355894939728 1340.8952153527955,859.3615852313612 1332.05560293872,862.4803821406073C1327.261820742992,864.1717270090575 1310.9635445233994,864.3943580609118 1302.5,862.8841055087587zM622.0692428876134,752.0C624.8389738134027,752.0 632.6997943877705,733.7072832772949 635.9182300028342,719.7723723880436C641.9118712909054,693.8216102039273 644.3657033620609,669.8082894395105 644.3764313471638,637.0C644.3890631724448,598.3693926688303 640.9805027292568,574.8032121039479 633.9529536661074,564.9339295165763C631.0681152635652,560.8825475685105 625.500308206204,560.7983012251282 621.7971256582025,564.75C618.1069231413592,568.6878476690838 613.3919960862487,577.5213734254706 610.972519609157,585.0301517858787C597.5766300897733,626.6039245809201 594.5999122454201,687.2926779812573 604.0467383982302,726.2316528995863C607.6490553975251,741.0800823101017 615.4772691428785,754.1820402697518 619.7638451378214,752.537126721336C620.533696527079,752.2417070246012 621.5711255144854,752.0 622.0692428876134,752.0zM1405.8827074213798,675.3874827461173C1408.1631158002704,674.9164132214005 1408.2406198282893,674.6291918667985 1407.6878995155935,668.6976405292539C1407.0774657320117,662.1467336016132 1405.0347015967957,649.3838696168514 1400.133666589889,621.5C1392.8658834526977,580.1507916969816 1393.4041782841903,582.5406655741211 1391.944138972562,585.1408581808341C1391.4373901288604,586.0433301802929 1390.5516142421682,589.8683301802928 1389.9757481132465,593.6408581808341C1388.593659323553,602.6949914185598 1387.449181020898,609.6776629828845 1385.6554151846908,620.0C1380.843268071467,647.6917997187775 1376.8920330413498,674.2762593248311 1377.3939558342167,675.584249156449C1377.888083842762,676.8719261057322 1379.882151380046,677.0071221027301 1390.7374504833897,676.4889261690382C1397.7568527175254,676.1538432146168 1404.5722183396208,675.6581936743023 1405.8827074213798,675.3874827461173zM368.35448955404877,605.913223615408C387.1414853881179,600.4544327293024 398.0,586.0075864614395 398.0,566.4709842987774C398.0,548.9758068075922 389.84956443513795,535.2233584590329 376.0,529.3497947303736C371.35209446601016,527.3786302589904 360.2080243393524,526.5256296923694 356.75,527.8763419684267L354.0,528.9504983058725L354.0,540.8460026310141C354.0,553.3301952278473 356.7128930952932,604.5978046942078 357.4873968432614,606.75C358.108782031867,608.4767086047215 360.0451367544064,608.3276074654254 368.35448955404877,605.913223615408zM1125.3620116239267,596.7258453742584C1134.2069898117882,592.5253839827626 1141.7177911631352,585.3301050694348 1145.6423685301345,577.2974491784476C1148.2137694885437,572.0344164681386 1148.4719922833194,570.5320962301289 1148.443617403776,561.0C1148.4150906280724,551.4168766347581 1148.1542229176366,549.9777952431928 1145.4561806475747,544.5197516889248C1139.3951773374133,532.2585575569792 1129.6646915807555,526.0 1116.6626162542962,526.0C1112.1210116388784,526.0 1108.6861696808344,526.508993134888 1107.531861709066,527.3530437314546C1105.4757001925793,528.8565457405153 1105.3905822263328,524.7155693794313 1108.4906921159459,574.0C1109.303705877467,586.925 1109.9758966901834,598.3467510979816 1109.9844494775375,599.3816691066258C1109.997838045665,601.0017339686506 1110.562584907653,601.1878797426137 1114.0465652313815,600.7205799210486C1116.2721761086414,600.422062860337 1121.3641269852867,598.6244323142813 1125.3620116239267,596.7258453742584z"/></svg>