<svg version="1.1" xmlns="http://www.w3.org/2000/svg" xmlns:xlink="http://www.w3.org/1999/xlink" width="2048" height="2048" viewBox="0 0 2048 2048"><rect width="2048" height="2048" fill="#ffffff"/><path stroke="none" fill="#000000" fill-rule="evenodd" d="M1002.5,1921.5749505040521C997.8163914664483,1919.4112751556966 989.082354969485,1911.2275231476292 981.608808287433,1902.0C980.0497141369462,1900.075 973.7624210288928,1893.2983134364324 967.6370458250922,1886.9406965254054C945.3888920514835,1863.8490108793637 938.7344027729997,1856.6382788715432 922.010251680995,1837.5C911.485384443183,1825.4558703353553 887.9917930542631,1798.9357384971538 887.0180855211879,1798.0C886.7319269711121,1797.725 883.5737884865775,1794.125 880.0,1790.0C876.4262115134225,1785.875 873.2762115134225,1782.275 873.0,1782.0C872.7237884865775,1781.725 869.5737884865775,1778.125 866.0,1774.0C862.4262115134225,1769.875 859.2762115134225,1766.275 859.0,1766.0C858.4081519098378,1765.4107478621079 846.8210466187061,1752.0788484252694 842.5,1747.015418848727C829.0973847471596,1731.3101500880366 778.9294228310272,1682.0651845034442 764.0,1669.9596715003897C760.975,1667.5068521751755 758.275,1665.2688137063096 758.0,1664.9862526806883C757.725,1664.703691655067 755.025,1662.4598779487571 752.0,1660.0C748.975,1657.5401220512429 746.275,1655.2922275946673 746.0,1655.0046789853875C745.2430607211419,1654.2131995783152 728.2318713101572,1641.0528226007993 721.9927252241131,1636.4319161632027C718.9717263508509,1634.194470052964 712.225,1629.1963527882344 707.0,1625.3249889082476C696.7749928219514,1617.7489652792137 681.3729811119149,1607.3092332239462 675.578652813517,1604.0270927880501C670.0407148502012,1600.8901821428753 665.9052184775195,1598.5184697765987 661.0,1595.6662170803902C658.525,1594.227071106471 652.692984998749,1590.900930728598 648.0399666638867,1588.2747940184504C638.0231768868963,1582.6213756439522 632.5905858107092,1577.543591544107 629.937801009731,1571.3548956417158C625.4054389497398,1560.781323862175 629.2020435505755,1549.2019152786918 641.6937435325633,1535.5C642.6965865439747,1534.4 645.9882482083617,1530.589494711658 649.0085472312012,1527.032210470351C652.0288462540406,1523.474926229044 655.8976908279041,1518.974926229044 657.6059796175645,1517.032210470351C661.4552651628264,1512.6546908532046 676.4579984784908,1495.3888694669054 679.3592120525511,1491.9976105814771C680.536645423648,1490.6212964012893 685.0397024146646,1485.2212964012895 689.3660053659213,1479.9976105814771C708.9092683819132,1456.4005885884042 714.0405657432386,1451.1401394003353 720.5,1448.0799910670485C726.354194919173,1445.3065740598404 734.7313691822167,1444.8221647247383 740.0,1446.952405351641C743.2365052654944,1448.2610062470517 754.8563981482251,1455.5417956499352 756.0,1456.977681111219C756.275,1457.3229660556603 759.425,1459.606740737453 763.0,1462.0527359596472C766.575,1464.498731181841 769.725,1466.7627192868158 770.0,1467.0838206373683C770.275,1467.4049219879207 781.525,1475.0238269893182 795.0,1484.0147206404733C808.475,1493.0056142916285 819.725,1500.6516696866056 820.0,1501.0059548515333C820.275,1501.3602400164607 823.425,1503.6075603332708 827.0,1506.0C830.575,1508.3924396667292 833.725,1510.6098018351806 834.0,1510.9274714854478C834.275,1511.2451411357147 837.2,1513.524154751216 840.5,1515.9919461865616C846.8151535508393,1520.7145164428205 871.1436562693176,1539.991946516895 872.0,1540.9519305456538C872.275,1541.2602128375067 875.425,1543.9682688604867 879.0,1546.9698328189425C893.4634204905099,1559.1132962204267 905.7015048506112,1570.596995188048 930.0,1594.826068330612C955.0059383694347,1619.7605634928248 958.3625085948144,1623.3645480557661 980.3582351531618,1648.8962321951105C986.3302644874007,1655.8283044877996 993.9802644874006,1664.4332110391226 997.3582351531618,1668.018246753606C1000.7362058189228,1671.6032824680892 1007.0428035844484,1678.4657824680892 1011.3728968543296,1683.268246753606C1016.0310620431184,1688.4345724100988 1020.0238686735239,1692.0 1021.151303897574,1692.0C1022.1993345014772,1692.0 1035.760999984672,1683.5625 1051.2883383046737,1673.25C1078.6701346783536,1655.0643477469134 1098.5792603418504,1642.125505362637 1125.5,1625.020207794127C1132.65,1620.4771350863225 1143.225,1613.7338398833326 1149.0,1610.0351073430381C1154.775,1606.3363748027436 1162.65,1601.3742261696698 1166.5,1599.0081103806515C1170.35,1596.6419945916332 1179.2618426424624,1590.912000117711 1186.3040947610275,1586.274789327491C1199.1110009081535,1577.8416457286944 1212.4191383930715,1569.4845730835323 1218.995005204406,1565.7459727503083C1220.9172580668292,1564.6531076728695 1224.373336937064,1562.4631826360069 1226.6751804715946,1560.8794726683916C1228.977024006125,1559.2957627007763 1231.0837392866483,1558.0 1231.3567699838686,1558.0C1231.6298006810887,1558.0 1235.598721810854,1555.6887572525404 1240.17659471668,1552.8639050056454C1258.0091066645505,1541.8600583545908 1270.8004704916784,1534.2845824143726 1281.0,1528.6869111603373C1284.025,1527.0267409015387 1289.3584917723392,1523.943025330045 1292.8522039385316,1521.8342098903515C1296.345916104724,1519.725394450658 1299.328652782344,1517.9999999999998 1299.4805076665764,1518.0C1299.7269896115938,1518.0 1302.853053133096,1516.2962665067266 1321.5,1505.999173294054C1324.25,1504.4805865496946 1330.55,1501.1053475878598 1335.5,1498.4986422677543C1340.45,1495.891936947649 1347.2,1492.2943575720121 1350.5,1490.5040214330058C1353.8,1488.7136852939996 1360.55,1485.1111374885259 1365.5,1482.498359643064C1370.45,1479.8855817976023 1374.95,1477.4051473854768 1375.5,1476.9862831716737C1376.05,1476.5674189578708 1381.225,1473.7627907900498 1387.0,1470.7537761320714C1392.775,1467.7447614740931 1400.92003738624,1463.4558850517312 1405.1000830805333,1461.2229396379337C1431.7725587061452,1446.9747264654932 1477.0114389667626,1424.0046455317492 1489.0439887630887,1418.600348267089C1492.59479494339,1417.005539813988 1499.55,1413.795589344854 1504.5,1411.4671250023473C1509.45,1409.1386606598405 1516.425,1405.8833220347526 1520.0,1404.2330391688186C1523.575,1402.5827563028845 1529.9321962557897,1399.6253750988267 1534.1271027906437,1397.6610809375788C1538.3220093254977,1395.696786776331 1544.735387787734,1392.7242276431896 1548.3790549289465,1391.0553939750425C1556.3145534726061,1387.420861338018 1571.4501018937171,1379.9673406576771 1582.6159704074535,1374.1953800231063C1588.6342568489486,1371.0843535601718 1591.899995199353,1370.0 1595.2511605697903,1370.0C1605.59943490942,1370.0 1613.8342550560776,1376.9422808208515 1616.966900369275,1388.3072321235522C1618.7934609055374,1394.9338270523183 1616.9587975172078,1402.5198635229785 1612.1791496997348,1408.1038070280265C1610.0394372757662,1410.6035797620782 1595.9168047058108,1420.7024785386466 1575.7931498499056,1434.1229311217448C1545.414567884171,1454.382388051025 1534.2881646187484,1462.1461341334225 1524.9045833331745,1469.6317922971175C1522.9271041664206,1471.2093065337028 1519.8182567725212,1473.625 1517.9960335689539,1475.0C1512.505577163882,1479.142948867183 1487.969852289133,1498.967415820473 1477.9168340863985,1507.383341829609C1472.7375753388792,1511.719179835894 1466.2662013380925,1517.1191798358939 1463.5360029735389,1519.383341829609C1458.152945974068,1523.8475277387513 1450.80259362973,1530.1753888276978 1450.0,1531.0363813715974C1449.725,1531.3313911259759 1444.775,1535.3801487921821 1439.0,1540.0336206298334C1433.225,1544.687092467485 1428.275,1548.7269071439564 1428.0,1549.010986577548C1427.725,1549.2950660111394 1425.0294444222552,1551.546308344933 1422.0098764939003,1554.0137473193117C1415.7779354957772,1559.106175928187 1416.8787777491673,1558.1724261001743 1395.5,1576.4997961065758C1386.7,1584.0437660167645 1377.7,1591.8599300718718 1375.5,1593.8690495623696C1373.3,1595.8781690528676 1364.4568679923657,1603.6923202849516 1355.8485955385902,1611.233830078112C1347.2403230848147,1618.7753398712725 1339.5903230848148,1625.5322926056158 1338.8485955385902,1626.2492805988747C1338.1068679923656,1626.9662685921337 1331.2,1633.1214497441565 1323.5,1639.927460936703C1315.8,1646.7334721292498 1307.25,1654.3741234596876 1304.5,1656.9066861154538C1301.75,1659.4392487712203 1296.125,1664.4303899778151 1292.0,1667.9981110189983C1287.875,1671.5658320601815 1283.825,1675.1642564056017 1283.0,1675.9946095643768C1282.175,1676.8249627231517 1277.225,1681.3283654997567 1272.0,1686.0021712901657C1266.775,1690.6759770805745 1262.275,1694.725 1262.0,1695.0C1261.725,1695.275 1259.475,1697.2531832181687 1257.0,1699.3959627070415C1254.525,1701.5387421959142 1249.575,1706.0514490878604 1246.0,1709.4242002447C1242.425,1712.7969514015392 1237.925,1716.8303404912103 1236.0,1718.387287110636C1234.075,1719.9442337300613 1230.025,1723.5321835119141 1227.0,1726.3605088480863C1223.975,1729.1888341842587 1219.475,1733.2628226151708 1217.0,1735.4138164723354C1214.525,1737.5648103294998 1208.3972064960562,1743.189153655701 1203.3826811023473,1747.9123571972264C1198.3681557086381,1752.6355607387518 1187.052072111644,1763.25 1178.2358286645824,1771.5C1169.4195852175208,1779.75 1132.304156137543,1816.4553787001137 1095.7570973757431,1853.067508222475C1044.9203060417374,1903.994812686365 1028.2170030039572,1920.1477983863717 1024.664848229078,1921.817508222475C1018.3119289745861,1924.8037327648885 1009.2751275956706,1924.7048398736918 1002.5,1921.5749505040521zM933.0,1334.0500512578246C923.816051580162,1333.131570825074 923.5,1332.708074860925 923.5,1321.3204466238253C923.5,1315.9192009807214 923.6125,1259.9170941546017 923.75,1196.8713203435595C924.0,1082.2426406871193 924.0,1082.2426406871193 926.7842553741536,1081.0893643500347C928.4398693322282,1080.403586594546 940.7021794469282,1079.569449533185 957.0342553741536,1079.0316243426341C981.9077839346813,1078.2125239234742 984.8303298837228,1078.286324904165 988.0,1079.813580336159C991.5,1081.5 991.5,1081.5 991.35017893673,1128.75C991.2550426375836,1158.7537260219322 991.5548644830073,1176.0 992.1716075081588,1176.0C993.2917975825828,1176.0 993.2412959830051,1176.0514019974203 1002.5,1165.487461611864C1006.35,1161.0947117831909 1012.425,1154.3388209225957 1016.0,1150.4743708105414C1019.575,1146.609920698487 1026.539933309501,1138.9597758566385 1031.4776295766692,1133.4740489397668C1039.9669649194786,1124.0424895896992 1050.7749993981008,1112.5592754431912 1064.6565371055626,1098.2224496730284C1070.813074211125,1091.8639898474612 1070.813074211125,1091.8639898474612 1075.1565371055626,1094.0448494934894C1079.0274080871136,1095.9884199863923 1091.2286021454734,1104.8338614609934 1098.0,1110.6055658580922C1099.375,1111.7775681117635 1103.42465493595,1115.1884801753522 1106.9992331910003,1118.1853704438452C1110.5738114460503,1121.1822607123381 1113.647906377367,1124.4102413314283 1113.830555260593,1125.35866070849C1114.048771303159,1126.4917654912836 1107.533959440257,1133.8513930154172 1094.8313220695927,1146.8216411402273C1046.2292793013135,1196.4475995678097 1046.70020282936,1195.9318480111315 1048.159971476924,1197.935718664217C1050.215341506291,1200.757190196677 1054.8503800432336,1206.6752890780008 1062.0,1215.606910967601C1065.575,1220.0729592958205 1070.975,1226.9868515459502 1074.0,1230.9711159678895C1077.025,1234.955380389829 1081.525,1240.82424794284 1084.0,1244.0130438634696C1086.475,1247.2018397840993 1091.875,1254.1783085502507 1096.0,1259.5163077882507C1100.125,1264.8543070262508 1105.377409947368,1271.5734371983556 1107.6720221052622,1274.447708170706C1118.601799392683,1288.1385366984853 1131.9956815399166,1306.66372316669 1131.9977237830296,1308.0927824364699C1132.0004975326833,1310.0337132832024 1125.8802680454107,1313.1912307832579 1116.5,1316.0882888398992C1112.65,1317.2773458544827 1100.1062622336328,1321.3523402018666 1088.6250271858507,1325.1438318340856C1066.9445773203047,1332.3034487137907 1067.4106560384482,1332.241316787613 1063.4489437634797,1328.5C1062.4481463683649,1327.5548783365716 1055.6612620574956,1317.469450583843 1053.5,1313.7156970788726C1050.9414092531074,1309.2718495821646 1022.4279670965315,1265.4304261671966 1020.9601476192046,1263.6833846609911C1020.4133104223654,1263.032523097446 1017.6406784146052,1259.35 1014.7987431575152,1255.5C1009.7114293144674,1248.608161684236 1008.2296643214845,1247.0455805730417 1006.7528808230334,1247.015312774517C1006.3419652757017,1247.0068907485327 1004.1437077581365,1248.6822538221293 1001.867864117333,1250.7383418269537C997.7299665885994,1254.4766836539075 997.7299665885994,1254.4766836539075 998.4430487004734,1289.4883418269537C998.835243862004,1308.7447538221293 999.1989702564431,1325.9809596945547 999.2513295770046,1327.791021543455C999.4299025629671,1333.9642901357136 999.3923126265638,1333.9719886393996 967.46299232245,1334.3013446496602C951.5333465451025,1334.465661475954 936.025,1334.352579449628 933.0,1334.0500512578246zM1369.0,1330.9392525799506C1363.775,1330.5078560310515 1350.725,1329.6624495682186 1340.0,1329.060571551433C1319.4304818604091,1327.9062274223797 1310.3198831347438,1326.719212496128 1308.5637264046802,1324.9647566541905C1307.3868391560277,1323.789009254569 1307.3625241944833,1319.1794907865599 1307.75,1170.702251100538C1308.0,1074.9045022010762 1308.0,1074.9045022010762 1310.6460227268344,1072.452251100538C1313.292045453669,1070.0 1313.292045453669,1070.0 1341.8960227268344,1070.0760779255033C1372.5263742443617,1070.1575453934236 1376.0125309430834,1070.6261868866807 1379.0498579779444,1075.0706408029253C1380.5772865934225,1077.3056935364405 1380.6431254348447,1082.9388167620307 1379.8730225397587,1145.5C1379.412643646881,1182.9 1378.646810774583,1227.45 1378.1711717124297,1244.5C1377.6300091607015,1263.8987883694736 1377.6610619199148,1275.9581038182275 1378.254148867426,1276.7241151025714C1378.91118363261,1277.572719251506 1380.9787926059978,1277.7625107042725 1384.9942754763078,1277.3428096610664C1393.6347532195114,1276.4397009591385 1397.530387870975,1277.4520424666791 1398.9918378666307,1280.9802948669217C1400.6850127121206,1285.0679805423733 1399.024974143405,1328.0600554235973 1397.0836415584204,1330.399218087552C1395.597655220795,1332.1897220882604 1386.3088686200845,1332.3683408456063 1369.0,1330.9392525799506zM1151.0510991427595,1328.5729323174382C1149.7042036712771,1327.8270240493314 1148.2733320394518,1326.3804699864097 1147.8713844053698,1325.3583677331676C1146.9862082530592,1323.1074761665104 1146.7598264815606,1116.6436144785052 1147.6345520503985,1109.3634037553866C1148.1885937016377,1104.752197550719 1148.6224103427353,1104.023730559473 1151.8758599551734,1102.2413791126185C1155.6138991136418,1100.1935528678155 1156.6823143575123,1100.0758046304713 1191.0,1097.9295737969278C1199.525,1097.3964196079603 1212.35,1096.5434394110064 1219.5,1096.0340622481413C1250.920783867616,1093.7955965500312 1270.7682174878034,1092.9626440900643 1274.4118201204392,1093.7295358027643C1276.9082466494954,1094.254974224438 1279.079195539483,1095.56539276857 1280.4118201204392,1097.3512292019295C1282.3926350981935,1100.0056988894685 1282.5,1101.3743352776833 1282.5,1123.9703469975743C1282.5,1145.99195725692 1282.356118166227,1147.9500629216807 1280.5950124378878,1149.8955582549877C1278.7795453825788,1151.9011066028472 1277.745706008067,1152.0004694337865 1258.5950124378878,1152.0099895047147C1237.5227356710761,1152.0204648208537 1213.8429270673207,1154.0555432377062 1211.4228400802808,1156.0640370456977C1209.2177729943148,1157.894080185504 1209.3514526992392,1194.2085955563816 1211.5714285714284,1196.428571428571C1212.891882954793,1197.7490258119362 1216.2379495967043,1198.0 1232.5222074685291,1198.0C1255.3055105262104,1198.0 1261.7076172661796,1198.986873052265 1262.6245492225034,1202.6402209606415C1262.9660219768612,1204.0007567826258 1263.0546650322021,1213.195245243282 1262.8215337899278,1223.0724175398773C1262.4606035597828,1238.3641048976488 1262.1418988719695,1241.2866725566012 1260.6753511042618,1242.7532203243095C1259.251121313202,1244.1774501153702 1255.9716681466737,1244.6154227325922 1241.7265217022748,1245.2838460064152C1213.2351574383404,1246.6207428260666 1216.4465531323897,1241.2595049184495 1216.8355191299772,1286.8379238164082C1217.1447869638548,1323.0774382509933 1217.0348595671314,1326.3039992687309 1215.4305315678653,1328.0767617534684C1213.785199354219,1329.8948333850897 1212.044367823415,1329.9980623187341 1183.5950124378878,1329.9645645842706C1160.185593067864,1329.9370011297258 1152.9559778093183,1329.6278506664935 1151.0510991427595,1328.5729323174382zM602.0,1324.2767088533342C594.7399130552789,1323.6467219576775 582.2743447156814,1319.728213421677 575.5,1315.9465249920695C558.7298228933182,1306.5847952029117 550.094812599701,1299.1933981237887 539.3466775634363,1285.0C532.1063049346276,1275.4387606837347 528.1629827712594,1267.928268183557 525.9581128103907,1259.5C525.5264659576565,1257.85 524.5131937478324,1254.025 523.7063967885595,1251.0C517.9273290210433,1229.3319956826647 518.0440586732298,1198.8438342637883 523.9906768589699,1176.75C524.5458045865364,1174.6875 525.3928081446813,1171.5375 525.8729069881807,1169.75C528.8962262841015,1158.4936028754664 536.0860312307309,1143.7860532912287 545.2222761336359,1130.16870283784C561.1649061568305,1106.4066011777222 579.9570534196065,1093.2707173177787 604.312873461695,1088.8638315603785C613.9046870279323,1087.1283109940564 627.5953604075521,1089.3321520192758 638.0,1094.2865795456883C650.3850018473958,1100.1840057392828 660.7612231755619,1109.2365854857337 668.619378213705,1121.0C673.9441139434941,1128.9709643376082 680.0,1140.8787895741505 680.0,1143.3779731074699C680.0,1144.205169204549 680.3962690741171,1145.1268737677449 680.8805979424825,1145.4262054701276C681.3649268108479,1145.7255371725103 681.9968764208285,1146.989594819979 682.2849304091061,1148.2352224645024C682.5729843973837,1149.480850109026 683.7549771294872,1153.65 684.9115809248917,1157.5C691.2462958525707,1178.5864364862614 691.751796014519,1210.7039932353998 686.1313580971399,1235.0C681.8747763267133,1253.400334815296 669.4636133094054,1280.7725944259523 658.8513513238275,1295.16482311434C645.9844761203407,1312.6147325384757 628.6943666388572,1323.1181710045971 611.0,1324.2336803525682C607.975,1324.4243860074516 603.925,1324.4437488327965 602.0,1324.2767088533342zM729.8488323623085,1320.3297078601977C727.1940108142699,1319.6250063992559 726.189214453414,1315.310649883532 725.5799167809579,1302.0C725.2652122748076,1295.125 724.5576826974764,1281.175 724.0076288313328,1271.0C723.4575749651892,1260.825 722.5301784013473,1243.275 721.9467475783506,1232.0C721.3633167553538,1220.725 720.4823685700763,1204.75 719.9890849444005,1196.5C718.7914715113832,1176.4703247622347 716.7918430275021,1106.9848316660675 717.3697132713451,1105.4789259497213C717.6213797208408,1104.8230936950824 719.7786486914,1103.9601341054727 722.1636443170323,1103.5612379728107C724.5486399426645,1103.1623418401487 728.975,1102.3959174917984 732.0,1101.8580727542544C741.1884847121983,1100.22436096964 773.6009828744158,1099.6298114670033 782.5,1100.9317402718616C802.4603082947249,1103.851939205746 817.6414590011759,1107.4551929943666 830.0,1112.2058892655045C844.764998950783,1117.8816422096038 862.0394060539201,1127.9855259057167 871.0176275798411,1136.1972966743253C887.607582785886,1151.3710043869505 895.6205160613927,1175.834939281235 890.5075783264078,1195.7012098810242C887.0040562148425,1209.3141114902983 876.8497598017367,1224.3818188710193 865.0717667678912,1233.4447767381262C861.732295045551,1236.0144413177359 859.0,1238.712767542294 859.0,1239.441057237144C859.0,1240.1693469319941 862.4361586363271,1245.4305457469845 866.635908080727,1251.132610159345C875.2261538162743,1262.795718911561 876.850682125303,1265.022935875032 888.0564328616042,1280.5C892.4367721434746,1286.55 897.7035317285606,1293.6487047576063 899.7603430506842,1296.274899461347C905.2730756595968,1303.3137119304065 904.8831760143673,1304.8890963652652 897.0,1307.428029581174C893.425,1308.5794292493194 888.25,1310.0521541444075 885.5,1310.7007515702585C882.75,1311.3493489961093 872.9469441339795,1313.7491908193751 863.7154314088434,1316.0337333997377C854.4839186837074,1318.3182759801002 846.3070665053368,1319.9480740772365 845.5446487902423,1319.655506948929C844.2936496007105,1319.1754535173914 836.0,1307.8301303714834 836.0,1306.5988756644074C836.0,1306.3179009301145 834.7300592453347,1303.9307096961395 833.177909434077,1301.294006255574C831.6257596228194,1298.6573028150083 828.3992670495659,1292.9 826.0079259379581,1288.5C823.6165848263503,1284.1 820.7688635747477,1278.925 819.6796564899523,1277.0C818.5904494051568,1275.075 816.151380009239,1270.575 814.2595022768015,1267.0C809.2136080554052,1257.4649906639313 809.1525036835413,1257.4232396537923 802.8212357337476,1259.1845333182125C797.5075730579015,1260.6627396554027 797.5075730579015,1260.6627396554027 797.8563485161558,1289.2028286469013C798.2051239744102,1317.7429176383996 798.2051239744102,1317.7429176383996 795.8800557437996,1319.3714588191997C793.8438088335758,1320.7977016726002 789.7007342929663,1320.9855902451507 762.5274937565946,1320.8839986495248C745.4623721904676,1320.8201979067633 730.7569745630389,1320.5707670515662 729.8488323623085,1320.3297078601977zM1675.5,1318.942630609984C1673.3,1318.48757642781 1669.37085168769,1318.0893260114922 1666.7685593059778,1318.0576296848337C1664.1662669242658,1318.0259333581753 1658.9134970744312,1317.4643583441432 1655.0957374174568,1316.8096852092071C1648.6756736446607,1315.7087664363487 1648.0046599567502,1315.3520279597108 1646.1611390315038,1312.0596852092071C1645.0648695762038,1310.1018583441432 1639.8808302321368,1295.675 1634.6410516002438,1280.0C1629.401272968351,1264.325 1624.0198407669407,1248.35 1622.6823133748878,1244.5C1621.344785982835,1240.65 1618.819828368113,1233.0 1617.0712964532831,1227.5C1615.3227645384536,1222.0 1613.4791514862004,1216.6 1612.9743785593873,1215.5C1612.4696056325745,1214.4 1608.0064606370254,1201.125 1603.0562785692782,1186.0C1598.106096501531,1170.875 1593.335803575552,1156.475 1592.4556276226583,1154.0C1591.5754516697646,1151.525 1589.2612663561795,1144.55 1587.3129935924692,1138.5C1585.364720828759,1132.45 1583.4176908316954,1126.6 1582.9862602656613,1125.5C1582.5548296996271,1124.4 1581.6610125800796,1121.925 1581.0,1120.0C1580.3389874199204,1118.075 1579.3018539120867,1115.458204629708 1578.6952588714803,1114.184899177129C1576.527320536597,1109.6341733751135 1579.6774051153202,1107.8013453184165 1594.5,1104.9891546676513C1597.8,1104.3630679925634 1602.075,1103.4561245309417 1604.0,1102.9737247529365C1608.048138700132,1101.9592721761685 1622.4293742012655,1099.088688843012 1629.0,1097.9835705117898C1643.1169296347775,1095.6092338507403 1642.5146742777804,1095.6030081766912 1644.1076195797705,1098.1397419996279C1644.9227894736516,1099.4378838998325 1646.1651208077838,1102.975 1646.868355877842,1106.0C1647.5715909479004,1109.025 1648.5117086801247,1112.625 1648.957506393896,1114.0C1649.4033041076673,1115.375 1650.2539692610585,1118.3 1650.847873401432,1120.5C1652.8452781571302,1127.8989894392266 1656.1357720355638,1139.4613849656741 1657.6779332192066,1144.5C1659.435565486135,1150.2426113812842 1660.7623929142678,1155.0021422694656 1661.9989105632403,1160.0C1662.4751739149817,1161.925 1663.8359063494026,1166.875 1665.022760417509,1171.0C1666.2096144856155,1175.125 1667.5493722977362,1179.85 1668.0,1181.5C1668.4506277022638,1183.15 1669.799080031707,1187.875 1670.9965607320962,1192.0C1672.1940414324854,1196.125 1673.4721937361048,1201.3 1673.8368991845837,1203.5C1674.5905277853094,1208.0460876126506 1675.9729039151064,1208.6824479487893 1677.0953741034914,1205.0C1677.5144965270786,1203.625 1679.2828414670203,1197.775 1681.0250295255842,1192.0C1682.767217584148,1186.225 1685.8958616492757,1176.325 1687.9775718925348,1170.0C1690.0592821357936,1163.675 1693.6725833804617,1152.425 1696.0071302140195,1145.0C1709.0376582642393,1103.5565517974892 1713.6042656617462,1090.2620661763517 1715.5341223966434,1088.1522585152184C1717.7601575336832,1085.7186550766041 1745.1598529850467,1086.5023776930145 1752.2627198029757,1089.2028188219C1753.9730402368668,1089.8530660758108 1755.2635839367867,1091.252510737175 1755.650607273372,1092.8765890584627C1755.9944494904535,1094.3194650763082 1756.5826684473723,1095.95 1756.9577605109691,1096.5C1757.332852574566,1097.05 1758.2310770317229,1099.525 1758.9538148602064,1102.0C1759.6765526886898,1104.475 1761.047336001597,1108.975 1762.0,1112.0C1762.952663998403,1115.025 1764.308381378291,1119.525 1765.0127052886398,1122.0C1765.7170291989887,1124.475 1767.9591553153348,1131.675 1769.9952077694088,1138.0C1772.0312602234828,1144.325 1774.6710973791805,1152.65 1775.8615125598478,1156.5C1784.2345820382216,1183.5798944899757 1790.6864947226336,1201.5 1792.0632068320235,1201.5C1793.180231717777,1201.5 1793.9352697244396,1199.0886500253882 1797.0731009717367,1185.5C1798.5210101430644,1179.2297039110472 1810.0782491649054,1144.3749882297323 1812.9890957576522,1137.5C1813.4548320098502,1136.4 1815.699153698352,1130.325 1817.9764772876556,1124.0C1820.2538008769595,1117.675 1822.4978493153942,1111.6 1822.963251595288,1110.5C1823.428653875182,1109.4 1825.2688857782236,1104.7478308948607 1827.0526558242696,1100.1618464330238C1828.8364258703157,1095.575861971187 1830.859739568698,1091.6073173796915 1831.5489084873416,1091.3428584519227C1832.6903004300987,1090.9048652674078 1838.8785310656563,1091.902606320346 1848.0,1093.9953015062438C1853.059998732678,1095.1561929223897 1861.8741302654312,1097.088825730006 1866.5,1098.051708743649C1868.7,1098.5096426569592 1872.75,1099.4045813499424 1875.5,1100.040461394723C1878.25,1100.6763414395034 1882.075,1101.5225260629327 1884.0,1101.9208716690105C1885.925,1102.3192172750882 1888.85,1103.3008831966392 1890.5,1104.1023514946792C1894.3166771572155,1105.9562580070196 1894.2600088670054,1107.895642712101 1890.0646947886432,1119.0C1888.2984427843317,1123.675 1885.563237091782,1131.325 1883.9864599163107,1136.0C1882.4096827408393,1140.675 1879.2691193137275,1149.675 1877.0074300782844,1156.0C1874.745740842841,1162.325 1872.209606128166,1169.525 1871.3715751567838,1172.0C1868.4804107746845,1180.5386245736172 1863.8632628003536,1193.5057245801827 1863.0040159228888,1195.5C1861.9205415266322,1198.0146979443575 1857.7295372500535,1209.9014979165065 1854.0133195787794,1221.0C1852.4479445865047,1225.675 1849.306319255996,1234.675 1847.0319299554262,1241.0C1844.7575406548563,1247.325 1841.776049297908,1255.875 1840.4063936066518,1260.0C1839.0367379153959,1264.125 1837.5038607924025,1268.4 1837.0,1269.5C1836.4961392075975,1270.6 1834.968394722807,1274.875 1833.605012256021,1279.0C1830.667957513584,1287.8862451349503 1825.8853877979336,1301.0271388496892 1823.7167906596444,1306.1695086013183C1822.8656797069414,1308.1877383320432 1821.135888224284,1310.3920910709053 1819.8728095870724,1311.0680702432342C1818.222272271856,1311.9514110071163 1809.4571012074996,1312.325656214927 1788.7114627863298,1312.3985616419159C1761.597849184425,1312.4938457463013 1759.763363425467,1312.3864617625989 1758.4742914857047,1310.6285899240677C1757.2196759107912,1308.9177052796238 1755.1673890164616,1302.8146834575314 1749.8560658337965,1285.0C1748.231465542707,1279.5509360030599 1744.1653255856443,1266.2634059744987 1740.9817258698336,1256.0C1740.555215448233,1254.625 1739.147345591411,1250.014752748 1737.853126188007,1245.7550061066672C1736.5589067846033,1241.4952594653341 1735.217094154602,1238.007759465334 1734.8713203435595,1238.0050061066672C1734.5255465325174,1238.0022527480003 1733.6926322952122,1239.4625 1733.0203998162146,1241.25C1732.348167337217,1243.0375 1731.437443115288,1245.4 1730.9965682119278,1246.5C1729.3820759627433,1250.5282208412557 1726.1092673665332,1259.605670964064 1724.8673419002596,1263.5C1724.1657483778351,1265.7 1723.2335809183758,1267.9275 1722.7958586570167,1268.45C1722.3581363956575,1268.9725 1722.0,1270.3600000000001 1722.0,1271.5333333333333C1722.0,1272.7066666666667 1721.705659517522,1273.9610071491445 1721.345910038938,1274.3207566277288C1720.7563388419012,1274.9103278247655 1717.4805621265994,1283.8572409647627 1713.4083834827934,1296.0C1712.578370953172,1298.475 1711.494598385915,1301.4 1711.0,1302.5C1710.505401614085,1303.6 1709.3812368685071,1306.7175221976656 1708.501856120938,1309.4278271059238C1707.622475373369,1312.138132014182 1706.152787689818,1315.625632014182 1705.2358834908246,1317.1778271059238C1703.5687849472001,1320.0 1703.5687849472001,1320.0 1691.5343924736,1319.88500092515C1684.91547661312,1319.8217514339829 1677.7,1319.3976847921579 1675.5,1318.942630609984zM1482.0,1316.5033150174154C1474.016348997107,1314.8958335691598 1467.125374558796,1312.2092109428995 1455.830633350503,1306.300518129277C1446.0274251109383,1301.1721008413244 1433.0289698161428,1289.8038985234639 1425.4687670113963,1279.746606032583C1417.6862053199102,1269.3935108470337 1410.9518841615404,1253.853951117828 1406.9438294668212,1237.0C1405.2176459305908,1229.7413632906853 1405.2048662713867,1194.0107931327996 1406.9250519296797,1184.5C1411.4551101089182,1159.453606888548 1428.1603181045066,1127.7626606688168 1444.878319949601,1112.5C1455.4005559315344,1102.8937492795178 1461.3292875040609,1099.3795152502817 1478.0,1092.8672448795023C1482.7738879135447,1091.0023666494703 1505.2291918859864,1091.0031595066926 1510.0,1092.868374743126C1523.6395140556776,1098.2009366123548 1530.9696174457172,1103.0730646121704 1540.5832703457888,1113.1962746169702C1549.071683623679,1122.1346033784516 1552.7359789289126,1127.316015719303 1557.905382831465,1137.690208627886C1562.9459778918706,1147.8059021423505 1566.546766336356,1158.6133621320325 1569.170000623194,1171.5C1571.049465563466,1180.732871113474 1570.7394767015162,1215.465327357977 1568.6803275024308,1226.3650365501637C1567.1810405364677,1234.3012229770113 1561.485432050181,1253.275693351778 1559.0343048774835,1258.5C1558.5182096190083,1259.6 1556.2642246693201,1264.5039189547574 1554.0254494337319,1269.397597677239C1548.9234029497097,1280.5500242018295 1541.4313586071341,1290.5654113706862 1530.7802693467002,1300.4718235808978C1521.1794075152015,1309.40143561874 1510.3499271491473,1315.167538375887 1499.9180870304058,1316.9042384826657C1491.9909365922972,1318.2239560833582 1490.3649741386241,1318.1875746046776 1482.0,1316.5033150174154zM307.89311958057294,1313.5597862472396C307.6510020165548,1313.3176686832214 301.6135020165548,1312.6121422557908 294.4764529139063,1311.9919497418382C272.56984868506424,1310.088318177385 272.0394506897698,1309.9920947821245 270.51928910111866,1307.6457047270883C269.75471040507523,1306.4655671271898 267.9562130331068,1301.9 266.5226282745221,1297.5C265.0890435159374,1293.1 263.5106103814475,1288.6 263.0149990867668,1287.5C262.51938779208604,1286.4 260.25282869292516,1279.875 257.9782010886315,1273.0C255.70357348433782,1266.125 253.44438325097462,1259.6 252.95777834782436,1258.5C252.4711734446741,1257.4 247.1451326260141,1241.425 241.12213208413547,1223.0C235.09913154225686,1204.575 224.0699305693205,1170.9424243365245 216.61279658872132,1148.2609429700547C209.15566260812213,1125.5794616035846 203.2906168538709,1106.4062395550916 203.5793615792741,1105.6537828622922C203.8681063046773,1104.9013261694931 205.99337279155102,1103.7192125635927 208.30217599454903,1103.0268637380689C210.61097919754707,1102.334514912545 213.625,1101.4224262304142 215.0,1101.0C216.375,1100.5775737695858 219.525,1099.677573769586 222.0,1099.0C224.475,1098.322426230414 227.625,1097.4059472432132 229.0,1096.9633800284423C230.375,1096.5208128136715 235.55,1095.2016328282114 240.5,1094.031868949642C250.50583087605176,1091.6673316700708 256.01819228753595,1090.2844033465242 260.5,1089.0143157802672C271.05411294491915,1086.0234137862055 272.0618211355293,1086.4398104831776 274.5287787056866,1094.8111696413657C275.45082213607327,1097.9400263386146 276.605568638301,1101.625 277.0948820439703,1103.0C277.58419544963965,1104.375 279.0823860372752,1109.775 280.4241944609382,1115.0C283.0590423015412,1125.2600935605756 288.54289986323124,1145.6395216554374 289.9768150022909,1150.5C291.57798337798823,1155.9274091988311 294.82960604029915,1168.2830623892623 298.24977217743753,1181.9359322501332C300.100973905286,1189.3256949877064 302.03958496311884,1195.5080192737746 302.55779675039923,1195.6744306636183C303.0760085376796,1195.8408420534618 305.0232615779624,1191.1446725409019 306.8850257288053,1185.238498413485C308.74678987964825,1179.3323242860683 311.493203387868,1170.675 312.9881668581825,1166.0C314.48313032849705,1161.325 316.74156931087424,1154.125 318.00692015235404,1150.0C323.5574123138489,1131.90558743424 326.37200729532395,1123.174141599505 328.1233921093682,1118.616647328422C329.15552644921564,1115.9308033590542 330.0,1112.9833033590535 330.0,1112.0666473284205C330.0,1111.1499912977874 330.3717538607643,1109.9724999999976 330.82611969058735,1109.4499999999985C331.28048552041037,1108.9274999999993 332.24441514150453,1106.475 332.9681855152411,1104.0C336.0897589528504,1093.3254897707448 340.3029059397727,1081.322046132854 341.6984272969982,1079.1271518658716C343.2044709504986,1076.7584266838612 343.2316725672316,1076.7554468920462 357.353546168849,1077.4122172156724C374.6746440700506,1078.2177748488202 380.35756337716447,1079.3705724723525 382.40396155875555,1082.4937708625507C383.9240633375802,1084.8137394157243 386.8323815026592,1093.2014067258929 392.9816128970418,1113.0C394.77526615365997,1118.775 396.6017399022155,1124.625 397.04044344938757,1126.0C397.47914699655956,1127.375 400.17302619989607,1135.925 403.0268416790242,1145.0C413.8594150928881,1179.4470777630122 416.4365402554415,1186.4662712621794 417.9157070194781,1185.5520959269757C418.3556201558605,1185.2802146565937 419.4896273245716,1181.7822689169589 420.43572294994715,1177.7788831722314C422.1362469318216,1170.5831481059158 422.63563052209173,1168.7938743200305 425.3977821829052,1160.0C426.73980585656085,1155.7273933621889 429.22113314130127,1148.8647048618286 431.00208331233256,1144.5C431.4509212636147,1143.4 436.4066364888667,1130.8 442.0147838128926,1116.5C453.3215334996036,1087.6693521624713 456.40831779461314,1080.4837137022175 457.87628314120406,1079.5764612237172C458.42181837490216,1079.2393019072313 460.58532817282594,1079.5966067892107 462.68408269214575,1080.3704720725602C464.78283721146556,1081.1443373559098 472.575,1083.6788909509469 480.0,1086.002813394865C504.8206488746489,1093.771333663202 519.32295196272,1098.8943805341487 520.8684809193148,1100.4399094907435C522.2442679669741,1101.8156965384028 522.1739858297394,1102.6098952911068 520.1785816868132,1108.2358748882439C518.9566249517778,1111.6811436997098 512.8040920461342,1129.8 506.5062863409385,1148.5C500.20848063574283,1167.2 491.880618316526,1191.725 487.99992563156775,1203.0C484.11923294660954,1214.275 476.21739988801176,1237.675 470.44029661246157,1255.0C464.6631933369114,1272.325 459.5631205047783,1287.4 459.1068014299436,1288.5C458.65048235510886,1289.6 457.72302375911505,1292.3 457.0457823277351,1294.5C454.23445257747386,1303.6325266943168 454.19274606229914,1303.6750671776356 446.8639935912306,1304.8853849233765C443.1041666169802,1305.5063071507013 428.42042036144494,1306.0 413.7123589645845,1306.0C389.7691315212364,1306.0 387.1791125410581,1305.8370024570208 385.90498756211207,1304.25C383.34252317215856,1301.0582901206062 382.3452202896033,1298.6130531435317 378.05377286628413,1285.0C375.71307847670226,1277.575 372.5526794937074,1267.675 371.03066401518436,1263.0C369.5086485366613,1258.325 366.81699405691944,1249.775 365.04920961575783,1244.0C363.2814251745962,1238.225 361.6324163162101,1232.8622521507289 361.38474548601073,1232.0827825571755C361.1143070770589,1231.2316588437477 360.57898712743474,1231.0319387047307 360.04457029822413,1231.5827825571755C358.9929709649362,1232.6667061844166 349.5658710938003,1256.0930011668354 346.99938553438574,1264.0C345.34276055349926,1269.103840051938 342.9365702209337,1275.7264883575174 341.00448158427196,1280.5C340.5592543261223,1281.6 339.29581978690385,1284.975 338.19684927489755,1288.0C332.998229706765,1302.3095961372908 329.5551593611265,1310.6509671859785 328.18716916423176,1312.25C326.9630943967819,1313.6808112181002 325.0159534434487,1314.0 317.51167910455456,1314.0C312.46358893038285,1314.0 308.13523714459114,1313.801903811258 307.89311958057294,1313.5597862472396zM611.3165958964912,1257.5228933617734C619.9467087344874,1253.4211095798594 627.9822918473008,1241.9250335545955 631.6031590046626,1228.5C632.5717668255306,1224.908707657237 633.4188519379995,1216.6789564950104 633.7132160967067,1208.0C634.132530646704,1195.6370385812716 633.9050015176748,1192.3034697276532 632.1694103835873,1185.3814339146352C629.5362557553956,1174.8796571542118 626.4763091490636,1168.4763091490634 621.9079463050917,1163.9079463050916C616.6636069840125,1158.6636069840129 612.33087056488,1157.447743672005 604.6410246210885,1159.0624596296998C599.2291885691471,1160.1988384463068 597.8469270394168,1161.0176427296954 593.0,1165.958203031195C585.659048962126,1173.4409670542602 580.2729266602983,1184.5031282993755 576.975542564227,1198.8696599358868C575.0837797903388,1207.1119723107843 575.3004711641483,1229.33101419369 577.3376564861912,1236.0C583.2755693662292,1255.4385146444952 597.1763912850445,1264.2435542658604 611.3165958964912,1257.5228933617734zM1496.8771799565607,1252.0626581107358C1504.5292377335377,1248.1588695260737 1510.643892820422,1239.5868109759253 1515.1116374718317,1226.5C1517.0373207237876,1220.8593345895674 1517.0175200094566,1189.3274106271476 1515.084007333195,1182.5C1512.708555173857,1174.1120605175956 1509.276252239029,1167.4986164448148 1504.6420097829455,1162.3801072871647C1500.22361378445,1157.5 1500.22361378445,1157.5 1493.340639146645,1157.7054144255549C1484.2258530323236,1157.9774346860167 1480.1055074630142,1159.867427998381 1474.7767529804235,1166.2206275588856C1469.103191565734,1172.9849226683834 1466.8269215989712,1177.965504524419 1463.2233485932252,1191.5C1462.6375963849555,1193.7 1461.6277170480967,1197.5024054153748 1460.9791722890945,1199.949789811944C1460.3306275300924,1202.397174208513 1459.8,1209.2154675605589 1459.8,1215.1015528164903C1459.8,1223.6318034729738 1460.2547441837369,1227.0917566091452 1462.0409216568437,1232.1517630045464C1465.3164257937767,1241.4308364060346 1471.0533454067584,1249.1407521687613 1477.2125133970267,1252.541048927014C1480.9402971148932,1254.599049441264 1492.4545053485965,1254.3189383364536 1496.8771799565607,1252.0626581107358zM797.2012098810242,1208.593185939441C805.7412335070061,1206.3258333844658 809.4941339435906,1204.8326434518397 820.5,1199.3231508197005C831.9420962429061,1193.5952830968504 836.0,1188.6751761619785 836.0,1180.5297880256223C836.0,1167.100305369805 816.166603413416,1154.0 795.8348441187516,1154.0C788.0,1154.0 788.0,1154.0 787.9946918176627,1160.25C787.9880650550868,1168.0525326689628 790.0523473950306,1207.0548967017394 790.5616565637774,1208.75C791.024796529083,1210.2914410949586 790.7832106541764,1210.297146909824 797.2012098810242,1208.593185939441zM501.0,994.9494088747832C493.575,994.5571813356845 450.825,994.1929280608838 406.0,994.1399571530038C319.44026635770416,994.0376671880985 229.08079148592012,992.5554944430603 215.0,991.0069708811823C207.06775521492278,990.1346287290698 206.2971610222018,989.8413468811245 203.4632488333565,986.6161777329869C201.09650502818278,983.9226753965216 200.1601619222633,981.5429074275472 199.2193536423516,975.8300825768524C197.1940964278365,963.5322106393136 196.0,947.381373836357 196.0,932.2864841902212C196.0,919.8631638853758 196.27221402482698,917.3867402963931 198.01286275922516,913.9747869090171C200.31979498860375,909.4528261716621 203.34476511637547,907.1772493400059 208.72742783160402,905.9146028377322C213.74952171515258,904.7365373315633 1873.278503897774,904.7316232118478 1878.27257216829,905.909659058625C1883.382074663818,907.1149243399318 1886.6121929208357,909.3853133037851 1888.7291899372708,913.2594177030176C1890.2975685587733,916.1295504760228 1890.4693243180157,919.0149460129703 1890.2316582542235,938.5C1889.7899214649904,974.7157939123965 1887.5536748191762,986.0187274994605 1880.1052352691486,989.6832121421232C1875.1897247445033,992.1015459028296 1852.261224856405,992.7071020711892 1712.5,994.1097722992176C1587.5288378621349,995.3640066454964 522.8172498893709,996.1019107244814 501.0,994.9494088747832zM800.5,873.0329791032639C798.85,872.6003247039613 794.125,871.6671581608172 790.0,870.9592756740547C785.875,870.2513931872923 780.5875,868.7964108001306 778.25,867.7259814803622C774.0,865.7797463535104 774.0,865.7797463535104 774.0173290449605,857.6398731767551C774.0359587512913,848.8890477736413 775.5546011488037,832.3242657372447 776.5842280430907,829.6411010608709C777.3756098527978,827.5787931228083 780.32542777612,827.5664006065599 787.7012098810242,829.5943973721553C800.1092139191466,833.006020939516 802.778689433321,833.4501994748882 811.0,833.4711223752663C817.7405605667916,833.4882768272344 820.4550495971308,833.0354283249998 824.1139249936034,831.283373143129C834.1895119490812,826.4586708991683 840.0,815.2657714518775 840.0,800.6815994882297C840.0,794.0952380952381 840.0,794.0952380952381 835.25,798.8336725321335C830.1449742215825,803.9262683110161 820.3882945065602,809.1816799584637 812.8071799468221,810.9224426213517C807.1286525305203,812.2263364523434 796.3771377934116,812.3286567741247 792.3992232652265,811.1166616449609C790.8046504693519,810.6308255496895 787.475,809.6388188587904 785.0,808.9122023318519C779.5811134124168,807.3213124117941 772.8254505974221,803.7464341906075 767.8033767820751,799.8123056224923C763.228527586703,796.2285182119346 755.6001144331785,786.1986488027064 752.7977897124317,780.0828972005337C742.0026147705069,756.5236686935608 747.1258419418706,726.6469090696647 765.5179361277239,705.903723777448C772.9191259522948,697.5564279033314 783.0298430285862,690.1823484269128 792.0,686.589481056556C807.9606670773395,680.1966653974719 821.3194531400928,680.6756358242877 832.1709621832856,688.0297843005895C834.5519329824785,689.6433859393393 836.8375,690.9717942330134 837.25,690.9818027309764C837.6625,690.9918112289394 838.0,688.6149999999992 838.0,685.6999999999983C838.0,682.7849999999975 838.5400000000008,679.8599999999974 839.2000000000016,679.1999999999983C840.0116141636073,678.388385836395 844.6544472084344,678.0 853.5450124378895,678.0C865.0096950523134,678.0 866.9015822988833,678.2337683212063 868.3450124378878,679.828740671584C869.8479768422795,681.489497644734 869.9980778077595,687.3454185752282 869.9790742127868,743.578740671584C869.9583008468687,805.0489718762944 869.3795842841683,818.3500626006047 866.1102031091962,832.5C861.3073390319136,853.2868775141918 850.5585838328416,866.4859626515237 834.0092364577624,871.9188335277654C828.9108996442851,873.5925312853533 825.3036132668223,873.9823421634953 815.5848441187514,873.909811732816C808.9381798534381,873.8602081858648 802.15,873.4656335025663 800.5,873.0329791032639zM963.1641630000181,858.9244013724713C959.6794526500281,858.4723075836239 956.1677769033312,857.5542056060971 955.3604391184693,856.8841747557451C954.0816783268565,855.822897559673 953.9790816934142,845.0901690095347 954.5641436292563,773.5829684230071C955.0400805073359,715.4132060056538 955.5689595223237,690.7716757670598 956.3795405056335,689.0C957.4963083772018,686.5590957396884 957.8091641267754,686.4933907575833 969.6146633428822,686.2204010622613C979.5011212448128,685.9917871696122 981.9380551364969,686.2204347183483 982.9786630463016,687.4742905435986C984.1119282181783,688.8397915396249 984.6234442106693,688.7778092483416 987.6480831517906,686.908479579032C1002.662157108302,677.6292715643036 1031.8165456494453,682.2390714418714 1046.6470477812131,696.2372096102422C1057.6561240489148,706.6283999645668 1060.438619662389,713.4223098693531 1060.4748461292568,730.0C1060.4989220340062,741.0174389903611 1060.3607208321,741.7847861183226 1057.1813479183047,748.2867902613189C1055.3561021695105,752.0195249050442 1051.2468381278718,757.8695249050443 1048.0496500479967,761.2867902613189C1036.5888137859736,773.5365290110251 1016.8353740605232,780.088480555953 997.7745571118428,777.9623656250376C993.7735507003293,777.5160783807336 990.1221771644459,777.5172968961664 989.6603936987688,777.9650734371105C988.6860577331009,778.9098556150176 988.6679140574466,808.5931645292791 989.6260236441419,834.1949668901862C990.4410104243386,855.972361421133 990.051926770283,857.3942123075414 982.8553003447504,858.9376123971838C977.2931599171856,860.1304779882126 972.4354041741392,860.1272188605124 963.1641630000181,858.9244013724713zM530.5,848.8792526836062C528.3,848.3765293512303 524.319461865071,847.4704222930411 521.6543597001578,846.8656814431858C517.1039557650946,845.833144987697 504.5378752376399,841.0878235666514 495.47522022472924,836.9796687707482C493.26159134833034,835.9762177873473 490.6895769327799,834.3144677148973 489.75963263461716,833.2868908319704C487.9420399283509,831.2784734985604 488.1934467095378,829.9446818563393 493.8662501322459,811.5C494.8811904516693,808.2 496.3075441616022,803.475 497.03592504320784,801.0C499.43113025687353,792.8612184180967 501.0073517780452,792.2845265451875 507.3560956591259,797.2241611085155C509.63524304660666,798.9974497181992 511.725,800.7050438365678 512.0,801.0188147048904C513.0750391365469,802.2454182079996 519.7659784765508,805.701791073268 525.0,807.7342914063222C536.2333599973423,812.0964836200199 546.0206104165879,813.0110828911272 555.3800820377933,810.5732502249614C562.6449390399059,808.6809953593506 564.4036301634417,807.648437348369 567.6815741925345,803.3508311762612C570.1060805065894,800.1721395307911 570.4423048843578,798.8572503356155 570.4269741225384,792.6142607694459C570.4119460519405,786.4945330581246 570.0158688628661,784.9104841465811 567.5936883057569,781.2829762674221C564.4680433994926,776.6019455772661 558.5461085390597,772.4255539908528 549.4967604691665,768.5202797944082C546.1985422111248,767.0969234865405 542.6,765.5280472596442 541.5,765.033888179083C519.9788186730061,755.3658089271385 514.8212095123447,752.2950143051938 508.3034800966368,745.2689754819276C502.060850519263,738.5394911826573 500.6081948511273,734.8438840469022 500.1693708689471,724.5755153838159C499.57247800062635,710.6083753158692 502.7845357898635,702.2242227367343 512.4860650539302,692.4263293811671C519.5407368320383,685.3015844199323 528.5487318185753,680.0071068361594 539.564494074934,676.5108969603278C546.4283068016341,674.3324430973556 549.2647659577943,674.004716295243 560.9878797007673,674.0356215288689C573.7044699242967,674.0691458296988 577.9034779567169,674.6623921048774 590.0,678.1345258819131C591.925,678.6870696210867 594.4665588600844,679.3765194315495 595.6479085779655,679.6666365718302C596.8292582958466,679.9567537121109 599.2501181638521,681.6945801304826 601.0275971735334,683.5284730571005C603.6922503613791,686.2776974397593 604.1389618657646,687.3574419427724 603.5731888079924,689.6814119163848C603.1957851972634,691.2316353623731 602.4790544167989,694.75 601.9804537402936,697.5C600.020056035783,708.3124475987256 597.9427082290533,714.0 595.9539178259415,714.0C595.4172747645463,714.0 593.0706074558659,713.1532686344066 590.7391015844296,712.1183747431257C578.2342617164364,706.5678065248012 571.6680773663371,705.364451233718 562.9065647227769,707.0176299709764C556.9361347115356,708.1441692283416 555.0184381755967,709.0138477360774 551.8421861404507,712.0353437093962C548.8111390757384,714.9187095127485 548.0,716.4306942612062 548.0,719.1972805693713C548.0,726.5896641095289 553.177620050272,730.7589974050566 573.0,739.3287949285053C605.7330694275262,753.4802630179231 620.4045305502417,775.4899468056267 614.9099100832409,802.2007788970996C610.3993269192171,824.1279402456317 591.5123099412392,841.3521647905 564.8228146681033,847.8782609069099C555.5159225151533,850.1539754572838 538.278367373791,850.6566921229681 530.5,848.8792526836062zM1600.0,825.0863204738122C1598.625,824.622387738582 1595.475,823.6366047773182 1593.0,822.8956916710038C1569.5171628788826,815.8658970057589 1552.1556780784692,794.9111049266302 1549.174809872336,770.0C1547.86784963982,759.0777380160052 1549.2055526573843,750.4944496329886 1554.3178503493364,737.0C1559.4797765133096,723.3745507741837 1569.4803675585938,711.8899998135638 1581.5,705.7843666970609C1591.2852254606275,700.8137490915645 1597.1900150762572,699.5603612058126 1610.6671650521243,699.5931602836619C1617.9091058307927,699.6107848541241 1625.5591058307925,700.1553731648121 1627.6671650521243,700.8033565296353C1640.9207615675568,704.8772980864833 1647.6696062407725,707.133549194101 1648.855016472784,707.8868079277131C1649.8168184398442,708.4979767131083 1650.0633504403406,710.1628391156117 1649.7045652988795,713.6239207439339C1648.7335087952792,722.9913817569079 1644.7661529968846,736.817877577638 1642.6323106437144,738.2711932351858C1641.3841625031796,739.1212809808353 1635.0803542849503,738.2729844176911 1633.5,737.042268200597C1632.95,736.6139503696854 1629.5098924987728,735.7122074797322 1625.85531666394,735.0383951118121C1610.1863218944452,732.149424422538 1593.6712587786683,738.4646283393279 1587.9954324975324,749.5156566942097C1585.8340672055047,753.7239090163156 1585.5048089939346,755.6608102070926 1585.535922471728,763.9840214314004C1585.5684111251871,772.675107877162 1585.8401151515836,774.0514620431711 1588.378321061632,778.3825829564448C1591.5512451886339,783.7967686173808 1598.0785751673798,788.851596080713 1604.3011211692788,790.7133533540441C1609.4809816894156,792.263143905253 1622.5070712388194,792.3711089708289 1628.807179946822,790.9164686660408C1634.2939798666519,789.649614286599 1635.9897581779628,789.0285933644268 1641.8445007439068,786.141994945003C1648.018993222367,783.0977483315409 1650.730425927948,783.3377360130039 1652.7965103136305,787.111352354681C1653.7334296411336,788.8225961497556 1656.1875,792.8877797336072 1658.25,796.1450936521292C1660.3125,799.4024075706511 1662.0,803.1413050840564 1662.0,804.4537547930299C1662.0,808.0553005226134 1652.0213193238521,816.4937793457651 1642.0,821.3667698438518C1633.5,825.5 1633.5,825.5 1618.0,825.7149172689335C1609.475,825.8331217668471 1601.375,825.5502532090424 1600.0,825.0863204738122zM1499.6187222881242,814.1311866517227C1498.4438561149318,812.8329741431988 1498.0,810.3761484350644 1498.0,805.171259328416C1498.0,801.2270666977872 1497.590002138897,798.0 1497.0888936419933,798.0C1496.5877851450894,798.0 1495.1252851450895,799.2437020320252 1493.8388936419933,800.7637822933893C1490.4852904422276,804.7266085528455 1486.357489277313,807.3889863038901 1479.5,810.012181109573C1474.2772405698488,812.0100428421215 1471.6864386703528,812.3077304919664 1459.5,812.3102159373443C1446.6913331885467,812.3128282872345 1444.9043334057267,812.0837545351412 1438.5,809.6182465033204C1422.3159953301565,803.3878098641463 1413.2195147485431,793.8224271890676 1408.9071928257713,778.5C1406.6086077558848,770.3327288634856 1407.1447366668046,751.0412403155984 1409.9068430248724,742.5296578396225C1415.483361186941,725.3453107826793 1433.1129565301524,708.0072547619332 1450.0,703.0995184546588C1452.475,702.3802304761448 1455.5336738595065,701.3885846508182 1456.7970530211257,700.895861065044C1459.6399601833073,699.7871144167473 1479.2473456670607,699.7045652591527 1480.5500000000004,700.7958586570168C1481.0725000000002,701.233580918376 1483.3,702.2026213312558 1485.5,702.9492817967498C1487.7,703.6959422622438 1491.2222656545985,705.4456115032734 1493.327257010219,706.8374356657046C1496.5263654231285,708.9526920421432 1497.3075925275043,709.1326677309405 1498.087208595884,707.9340125259715C1498.6001906123795,707.1453056366872 1498.7795340207633,705.4782662476234 1498.4857495034034,704.2294805502742C1498.1919649860438,702.9806948529249 1498.4283194638142,701.068194852925 1499.0109816762265,699.9794805502742C1499.9936569997042,698.1433349126447 1501.1451090828048,698.0 1514.9127390430458,698.0C1526.8315395572165,698.0 1529.9983141199975,698.2930423516117 1530.98980520932,699.4877160287166C1531.876325690694,700.5559078609152 1532.4610942142908,710.4961300819627 1533.0635104040732,734.7377160287166C1533.524966209075,753.3069722129225 1534.429987136257,777.8182460562956 1535.0746680200332,789.2072134584346C1535.7193489038095,800.5961808605736 1535.9726078022236,810.6289996321823 1535.6374655720647,811.5023662842316C1534.391330595287,814.7497419794829 1528.7336330149742,815.9479400993464 1514.7138036505098,815.9336198143434C1503.0491400835765,815.9217051681377 1501.019831504287,815.6793949087431 1499.6187222881242,814.1311866517227zM236.05891415069408,810.8328486748653C229.21631693357583,810.3479208027862 223.36631693357583,809.6945676738101 223.05891415069408,809.380952832696C222.4332429384417,808.7426379287751 222.52049794256286,800.8566924406919 223.8265881518009,740.0C224.32825620861638,716.625 224.9100017158857,696.825 225.1193559457327,696.0C225.40298760456542,694.8822957209511 224.7354085580978,694.5571867723013 222.5,694.7243816860898C188.86736153863308,697.2398977279602 186.9141555896478,697.3141118403182 185.7233884100276,696.121747686384C184.83296529787165,695.2301304005364 184.5,688.9009992439123 184.5,672.8671149902673C184.5,653.1480565333665 184.6812225229422,650.7050646677098 186.22784349780676,649.574714345255C187.54589241876457,648.6114162605732 200.91933239115633,648.1762825563978 242.61514729592886,647.7400318386759C272.67785046110225,647.4254948554698 297.8878208870892,647.4034584332486 298.63730379812205,647.6910620115177C299.7313401463605,648.110883149369 300.0,652.6218937959491 300.0,670.5718050456974C300.0,691.9825452684214 299.914401994543,692.9754431453035 297.97929334756157,694.0110818640777C296.67619583275047,694.7084784897307 289.3072936777548,694.9873190820193 277.22929334756157,694.7962656225657C258.5,694.5 258.5,694.5 258.76135197655844,697.5C260.4098687250073,716.4229494663475 263.09194454296863,801.0134651594055 262.22968445008837,806.88841868903C261.45836654506553,812.1437434871895 259.2509425497028,812.4764440267285 236.05891415069408,810.8328486748653zM1305.1466381298612,810.9718823243902C1302.2022891012848,810.543648988823 1299.3859056941515,809.7859056941514 1298.8880083362315,809.2880083362313C1298.363270383409,808.7632703834088 1298.0914556176317,785.2880990909739 1298.24137020637,753.44137020637C1298.5,698.5 1298.5,698.5 1314.1536676293063,698.2250962007345C1331.9586315018325,697.912412149287 1333.0,698.2874504475088 1333.0,705.0124115770539C1333.0,707.1406665158619 1333.4462351934706,709.1577545277913 1333.991633763268,709.4948293813418C1334.5370323330656,709.8319042348921 1336.6745323330656,708.7715727708844 1338.741633763268,707.1385372391023C1349.7420021241396,698.4481110541452 1364.7823438589214,695.7390013128013 1377.9785068643632,700.0710784663917C1391.2719683218206,704.4350970563587 1392.0,705.80640516432 1392.0,726.4817248694546C1392.0,739.9844167766843 1391.7817845494035,742.1465067179689 1390.364077230354,742.6905320611668C1389.4643197070488,743.0358014188358 1388.0018197070488,742.7857670551164 1387.114077230354,742.1349001417902C1381.4135680773381,737.9554529550055 1374.295976945991,735.6520951752123 1367.0,735.6256872048664C1358.4114806924963,735.5946008452373 1354.969915023257,736.9923607209668 1350.1674437652655,742.4620733070301C1342.4516462409883,751.2498812006908 1340.7448473333297,760.0617648493553 1341.187329517942,788.824724199327C1341.4820845334787,807.9848775905932 1341.3887766994753,809.2311141853393 1339.558870364895,810.574724199327C1337.4028981134475,812.1577483422483 1315.0721415463133,812.4154718560521 1305.1466381298612,810.9718823243902zM1792.1207350084255,810.997500363843C1790.2621392630597,810.5587231926269 1788.4132027731512,809.6685761312046 1788.0119872530736,809.0193957829047C1786.9943754263609,807.3728652599297 1787.30878470252,699.3575545350274 1788.3341706884653,698.3332725572006C1789.6759158801865,696.9929719898505 1821.318613417043,697.9036083018019 1822.2116541136775,699.3082231450447C1822.628400299186,699.9637004152702 1822.9762651994986,702.6375 1822.984687225483,705.25C1822.9931092514673,707.8625 1823.4408712118252,710.0 1823.979713804056,710.0C1824.5185563962868,710.0 1827.3310563962868,708.2019361756843 1830.229713804056,706.0043026126318C1833.1283712118252,703.8066690495795 1835.9933628935753,702.0066690495794 1836.596361985723,702.0043026126318C1837.1993610778707,702.0019361756844 1839.2243610778705,701.2219420900893 1841.096361985723,700.2709824224206C1846.581623059094,697.4845190048397 1858.517711933737,697.3495176475035 1866.6979836404876,699.9814190897661C1875.0035533806886,702.6536336275801 1879.513793523066,705.9249182910792 1880.8404321740313,710.2389604914795C1882.1439605546454,714.4778513449135 1883.35451179063,735.1094333011845 1882.5220784995336,738.8994772500656C1881.6395833185393,742.9174514906667 1879.607131380347,743.3906574979459 1874.6825732809584,740.7247115367006C1860.5810794313386,733.0907635118846 1848.7947321161948,733.4500952594188 1840.7802875512618,741.7582944823691C1832.1193718111253,750.7366600870281 1830.5833793425213,757.9898855218001 1831.264494749394,786.6935345914922C1831.6780976871994,804.1236403579466 1831.5116220147909,808.2522447587082 1830.3269965035497,809.9435345914922C1828.9659582701777,811.8866888662307 1827.96679234624,811.9943598879056 1812.1932960313509,811.8976385193907C1803.0119832141079,811.8413397050556 1793.9793307537916,811.436277535059 1792.1207350084255,810.997500363843zM1244.5,810.3940884847699C1223.6565372939888,805.117884907873 1218.01295064238,790.579487105595 1218.0034171212687,742.1364562249371C1218.0,724.7729124498743 1218.0,724.7729124498743 1213.75,725.3435613315975C1209.9003870862643,725.8604501090775 1192.29687427562,726.4198701554391 1189.25,726.1221440658101C1188.530138062064,726.0518025746729 1188.0024099775474,724.6216410386334 1188.0056824290684,722.75C1188.008807765056,720.9625 1187.4795785142155,714.9028578213702 1186.829617427201,709.2841284919339C1185.0572731788661,693.9627149351433 1184.5784284578785,694.4543907779894 1202.1405581468925,693.5629158458102C1210.0140160461367,693.1632496053805 1216.8033505127767,692.6215360669743 1217.2279680727593,692.3591079826851C1217.6525856327416,692.0966798983959 1218.0,687.1206328280958 1218.0,681.3012256042407C1218.0,672.3970687315631 1218.27729828653,670.5099858136109 1219.75,669.3920459704859C1222.2232244171332,667.5146012091924 1249.290100392935,667.4396970148784 1250.8390034637798,669.3060110413511C1251.435144555845,670.0243171140942 1252.052744677794,675.0868171140942 1252.2114481792219,680.5560110413511C1252.5,690.5 1252.5,690.5 1267.2056098213734,690.1490447675309C1284.7132699591687,689.7312174888062 1283.616018629597,688.4904151511885 1282.5213996650473,707.4685661281575C1281.9395257684023,717.5569082981034 1281.4993617804678,720.0030537894804 1280.1533382068587,720.6287132961108C1279.2440021930863,721.0513914221799 1272.2,721.6453447094015 1264.5,721.9486094899364C1250.5,722.5 1250.5,722.5 1250.2329985696779,747.0356195234974C1250.0213493474268,766.484746755992 1250.2482318136013,771.9572179630886 1251.3274073583157,773.4330784615798C1253.1870796704648,775.976331891554 1256.5551540248434,775.0001231315629 1262.7121376378232,770.1333076549938C1268.5011494924229,765.5573571150879 1271.3147355760937,764.4638400928387 1272.7618627768838,766.2274220052641C1275.8554842718215,769.9975500972399 1286.9866092557968,793.4668299970734 1286.4632215036113,795.1158787810634C1285.3171974480433,798.7266808439041 1276.702511001803,804.4240661480953 1265.567905782918,808.9351472427111C1262.4132626629466,810.2132213781663 1247.7868140147177,811.2260951482331 1244.5,810.3940884847699zM338.5,808.511617715121C317.6589514777225,804.1697945641614 302.4178488045562,791.6279596161157 296.5607533752317,774.0C294.2148889750648,766.9397081864182 293.3629855661168,751.4665827489359 294.9760487611444,745.2170029869827C302.0298836283471,717.8879412576462 319.9299301264884,699.2916021849799 346.18516823173735,692.0159037950498C354.8262214210631,689.621345553953 359.93902732720767,689.4886012364934 367.5157809573145,691.4620948534961C376.69650603092623,693.8533699584743 382.06358491335214,697.0766604803999 390.057653720518,705.0C397.60535692415436,712.480923234233 400.89135903707756,717.7857705627574 404.61434967639843,728.5C406.55222044644216,734.0769122357402 406.9349494741426,754.0685262634319 405.19540627361295,758.8511319471909C404.66550659271167,760.3080093762359 403.6598342578871,763.525 402.9605788628917,766.0C398.7566278662482,780.8797975548837 386.79121598163584,797.5301674421748 376.13370790326996,803.3307102759045C365.3500103934817,809.1999340054637 351.17255929153356,811.1516965602458 338.5,808.511617715121zM1117.5,808.4760680234284C1100.310248284089,804.7930724566481 1088.271975760256,797.2687044047822 1080.132926430051,785.120257295202C1075.8313824957925,778.6997188693022 1074.5607371420206,775.6585475482639 1073.0637236968582,768.2007788970996C1071.000059665355,757.9200903899823 1071.8217388472428,749.6816748481104 1076.2105978158215,736.6492229839769C1082.4616263473736,718.0871709741008 1100.9493222706644,699.9366176809123 1120.0,693.65836672376C1130.4922701571122,690.2005839565278 1135.7534876838686,689.5841014785647 1142.807574726147,690.9858921279085C1153.0923416208627,693.0296846098107 1161.3761888706142,698.2423654248021 1170.9822761683165,708.7150608641031C1181.7640407061951,720.4694966509263 1184.5137104169307,727.7673573258861 1184.46523612398,744.5C1184.4374059425704,754.1065863519198 1183.9839949200743,757.8961579613801 1182.1919423812474,763.5C1175.2903668481006,785.0815877422142 1161.8448400106313,801.7645007966328 1147.834266509677,806.1302461960789C1141.9694507623947,807.95774400447 1130.6130884842028,810.0014573766233 1127.0,809.8796219223711C1125.075,809.8147097978934 1120.8,809.1831105433693 1117.5,808.4760680234284zM1712.5,808.5187022813195C1695.003462670972,804.1090858979189 1677.62739917056,791.1600240809904 1671.1767004700641,777.7235823118338C1665.8376190646093,766.60257670671 1665.5403181596885,765.2131890973128 1665.672373061793,752.0C1665.7725225014094,741.9792172607522 1666.2077782538292,738.4291754791369 1667.866895095573,734.1009949500237C1675.360355932485,714.5526120549941 1691.668724899991,701.125698296127 1715.5,694.883977424045C1722.1796268996766,693.1344962711286 1739.5056778057817,693.1156364005351 1744.0,694.8529544105016C1756.0157432605017,699.4977409361449 1763.1583429488549,705.7829034556075 1767.782337920677,715.7803289584517C1770.108705166601,720.8101102136457 1770.429002607704,722.7664789118292 1770.4378287465945,732.0C1770.4474343923164,742.0490070956214 1770.3015064208982,742.7720155460029 1767.0403391519353,748.8330558093052C1761.554514499306,759.0287315765219 1751.56105053999,766.5067050759434 1737.8521849123752,770.6741556310529C1733.9933820650967,771.8472191437301 1728.80294679902,772.2810578485222 1719.25,772.2290055415095C1711.9625,772.1892972509332 1706.0,772.549908398051 1706.0,773.0303636462156C1706.0,774.1822606406471 1713.692795094887,779.3424185793604 1717.5,780.7443109908736C1724.9519035587775,783.4882576159556 1730.7944007585857,784.1836046233926 1736.685545825572,783.0276859621611C1745.428691239072,781.3121680405328 1754.9195244500436,777.597061675578 1760.2854942833562,773.7896858014624C1761.817516139202,772.7026534040094 1763.6943683175725,772.0524765159754 1764.4562769019572,772.3448482724978C1766.3415599028997,773.0682992400078 1773.7346617780902,784.0946269704717 1774.5723767684767,787.4323493465276C1775.1540127569813,789.7497717107323 1774.5652917503112,790.7865174282468 1770.3744435060976,794.8249670429816C1760.6006183592485,804.2433706927137 1744.0208625672317,809.988098497692 1727.0,809.853799479399C1721.775,809.8125728748241 1715.25,809.2117791356884 1712.5,808.5187022813195zM664.205570237404,807.952402264751C662.9436338679762,807.445948440825 661.2209197779969,805.3369722760136 660.3773167041165,803.26578856517C659.5337136302361,801.1946048543265 653.5299342763277,788.7 647.0355848065421,775.5C632.2035400296213,745.3533329679561 629.0105819911738,738.4940871164789 620.6186327675842,718.75C619.8588807897556,716.9625 618.4629989340026,713.7 617.5166730881333,711.5C616.570347242264,709.3 615.452170669681,706.6 615.0318362601711,705.5C614.6115018506612,704.4 613.8027979437194,702.375 613.234716466967,701.0C610.4904966857343,694.3578151134827 609.8191710376788,691.9136160131009 610.3553037036106,690.5164766813124C611.0045209825746,688.8246435717949 615.2125894058386,686.8174713292995 622.0,684.9621679516382C624.475,684.2856395766403 628.975,682.9384367983359 632.0,681.9683839998509C640.0826593140523,679.3764480372729 643.6859460126365,678.902878006838 644.7518473271844,680.2924438840647C645.7857710818256,681.6403221064616 652.0138032060248,697.0684131315387 652.0053767406763,698.26089841557C652.0024195333043,698.6793925441334 652.8502435368792,700.9293925441334 653.889430081954,703.26089841557C654.9286166270286,705.5924042870065 656.5405616854207,709.525 657.4715302117143,712.0C659.2237105460255,716.6582093861819 660.2870668264958,719.1853949066182 663.8836413319657,727.2391015844298C665.0476385993845,729.8456074558661 666.0,732.2130117428727 666.0,732.5C666.0,732.7869882571273 666.8467313655934,734.9293925441339 667.8816252568743,737.2608984155702C668.916519148155,739.5924042870066 670.3281384598147,742.9794602294468 671.0185570605623,744.7876893987707C672.29429517384,748.1288897464275 673.7573206510847,748.5419878083604 675.1012763003496,745.9404809472464C676.6022977285047,743.034940465937 688.9494482971373,717.2521005912532 692.7917123636481,709.0C703.1438206031054,686.7665883851859 706.9066811429747,679.3663420208973 708.6595112435663,677.7935229790742C710.4603550678113,676.1776210972168 711.0108266953646,676.2362640386343 719.0306483210411,678.8983828004045C723.6887917444685,680.4446180636454 730.7755959698012,682.7553985474691 734.7791021551137,684.0334505422347C743.2069085503085,686.7238859446812 748.0,689.3811980694456 748.0,691.3631776113373C748.0,693.2700039555807 744.6435385911219,701.2949555378191 737.3937809602301,716.7215487934504C735.5272014321035,720.6934006298483 734.0,724.1675646863358 734.0,724.4419133634228C734.0,724.7162620405097 732.9253915345917,727.316565083457 731.6119811879814,730.2203645699723C726.6822291014607,741.1194804589489 722.6931894805255,750.2461860190693 721.0,754.5C720.5621556473961,755.6 719.5242370272206,758.075 718.6935141773879,760.0C717.8627913275551,761.925 715.0779424439188,768.45 712.5049611026407,774.5C709.9319797613624,780.55 707.4726336855889,785.95 707.0397476009216,786.5C706.6068615162543,787.05 705.2290347724554,790.425 703.9779103924795,794.0C698.3040415820523,810.2126814263422 700.0536513678146,809.0079609703546 682.285537390051,808.9366136995809C673.603491825523,808.9017512343504 665.4675066068318,808.458856088677 664.205570237404,807.952402264751zM352.1415574731293,780.8394422324161C357.39663722712487,779.2649820419789 363.07086616652253,774.1951703232195 366.0407322451447,768.4208035252283C369.4703474219786,761.752537858453 369.5063508802092,750.3470314616661 366.1162424084466,744.5C361.3886428232378,736.3461536723322 357.7639043084943,734.0 349.89405080453,734.0C345.86602511983574,734.0 343.93860112670393,734.5721906600423 341.3718023397074,736.5299835383952C331.1159059995609,744.3525370309343 326.34951843739873,761.8253034219316 331.86672518746184,771.3739802641368C334.7349591938958,776.3380573553113 336.21512196924726,777.7807445099329 340.7800331585014,780.0616159276881C345.18720440792345,782.2636721165627 346.9785681565188,782.3863114567082 352.1415574731293,780.8394422324161zM1131.141557473129,780.8394422324161C1144.2841049699484,776.9018392266886 1151.6541147209298,759.7081466232943 1145.9326508717065,746.3329053680152C1142.3774777526683,738.0218682934955 1137.23772119619,734.0 1130.1717838815566,734.0C1120.418526608641,734.0 1113.3840668002854,740.6426467023709 1109.0988151465535,753.8992232652265C1104.9442953526125,766.7513762262622 1113.546093302037,781.1058027821921 1125.8839804406107,781.909811732816C1126.6451696829465,781.9594152797672 1129.0110793475799,781.4777490045873 1131.141557473129,780.8394422324161zM1479.6302419036956,775.4765411285084C1483.796962001208,773.0346805134859 1488.30368555906,767.4740619466951 1490.793349116474,761.7029469788743C1494.505769189887,753.0974456497034 1489.5904388705287,739.1020417731432 1481.200614158939,734.3895842364433C1477.78784149015,732.4726733548771 1475.492240901752,732.0 1469.5952826491218,732.0C1458.380314755332,732.0 1451.5993037415874,735.7084836967878 1446.3095281902492,744.7348032031063C1444.0217506268036,748.6386004524669 1443.6474320959883,750.4406410037641 1443.5791409022615,757.8794065519791C1443.4831563266516,768.3347334432384 1445.2407480565828,771.5115932316788 1453.270581226429,775.3967551680441C1457.5642741557338,777.4742195415282 1460.0052263819741,777.9334965284012 1466.9121424545488,777.9634810014061C1474.1408867604723,777.99486260301 1475.9300356513136,777.6450064210408 1479.6302419036956,775.4765411285084zM814.3820805387568,773.9109499135998C825.2468622187045,770.8942409708327 836.0,752.9468156820158 836.0,737.829761118158C836.0,728.8442319899493 829.376058766653,720.255438402345 820.6297997883669,717.9003154350829C808.9490872789867,714.7550261893466 796.5403630553946,722.1028705532285 790.1543604988694,735.9463917911369C787.972134430632,740.6770026316689 787.593568846314,742.9078189719377 787.5997898312571,751.0C787.6080733891993,761.7751507258716 788.9285368849646,765.3992468169461 794.248948504905,769.2490390952717C801.810558909288,774.7205385629808 807.0755650791905,775.9396727334995 814.3820805387568,773.9109499135998zM1015.0,745.9682507580508C1019.8408368520327,743.486856224693 1022.7470218956308,740.5412245658629 1024.5046771151,736.3345635023578C1026.4179888259212,731.7553640170979 1026.333213799373,728.3440347612919 1024.2019683944618,724.1536281874473C1022.686442652819,721.1738357074375 1021.0990142574254,719.9452327252941 1014.7635688444383,716.8487028960323C1011.2771916426207,715.1446915285984 1001.6931982057255,715.9576315937535 997.0,718.3554565169386C992.5,720.6545735968799 992.5,720.6545735968799 992.2203004148097,732.6928169493392C991.9488649194857,744.3753746656212 992.0101243455823,744.7766138590401 994.2936365408036,746.2728285146991C995.587806181955,747.1208010317945 997.7386709952907,748.0328171499067 999.073336125994,748.299530999393C1003.0408875182065,749.09238973265 1011.2492169181941,747.8908878804101 1015.0,745.9682507580508zM1732.3411228371838,745.6459761865506C1737.5036193253065,742.6205517388981 1739.416739697449,740.4793289378862 1740.9595223530907,736.0C1741.9581126068283,733.1006841408929 1741.8928177175296,731.8605126213712 1740.5790693046624,728.7739055806035C1738.5180467528135,723.9316034644519 1734.656979436158,722.0 1727.038761511314,722.0C1716.2146676790508,722.0 1707.6538584078824,728.021348321092 1704.9995717376632,737.5015296029005C1703.4692849222522,742.9671775248178 1704.262358226272,745.3679266967755 1708.2827844316303,747.4402958133513C1713.138558878326,749.943253581107 1726.73926143023,748.9288856261892 1732.3411228371838,745.6459761865506zM1316.0,661.9429847389895C1298.32942971951,659.8413675935154 1287.117609109196,658.8270121710561 1272.5,658.0074543366936C1263.7,657.5140693454468 1255.375,656.8359630255095 1254.0,656.5005514034995C1245.9948338546847,654.5478053953107 1244.1256816765401,653.6368916952002 1243.5684871628764,651.4168519234246C1243.0513296682605,649.3563323415459 1244.5688281675123,643.1099354411214 1246.9494445763685,637.5C1247.4162374792863,636.4 1248.3389874199204,633.925 1249.0,632.0C1249.6610125800796,630.075 1250.574544422995,627.6 1251.0300707620345,626.5C1251.4855971010738,625.4 1254.079886328373,617.75 1256.7951579338107,609.5C1268.4482526822535,574.093585598536 1274.0,556.2694546652393 1274.0,554.2630916677016C1274.0,551.9010448931402 1260.4412801425142,524.8592678023758 1242.5306489120235,491.5C1225.4640198421462,459.7127200153262 1212.8523311593235,435.2030185328412 1192.4481723860372,394.1691365425655C1171.7590409040276,352.56215881087064 1171.5631928555142,351.9351080901531 1178.2383368732844,348.67321423347744C1180.2944221535906,347.6684820618901 1186.1444221535908,346.4021449395902 1191.2383368732844,345.8591317394777C1196.3322515929779,345.31611853936516 1204.325,344.4425827904193 1209.0,343.91794118626456C1217.9718027528315,342.9111003331298 1235.0542233065382,341.56692396505224 1253.7139652853512,340.39950214124474C1266.1948132525392,339.61865456505313 1264.068971053901,337.52022102122277 1274.5835362040286,361.0C1280.663558895,374.57712724507945 1311.5909884366506,436.7145792994956 1313.7187441744695,439.6280057845733C1315.2006382826798,441.65708716182075 1317.4968240393187,440.1920709980321 1318.277437850696,436.7194606452596C1318.7853815635192,434.45984062564526 1322.3627949850772,424.2906080983252 1328.0288099708926,409.0C1329.7611557277357,404.325 1331.548191240834,399.375 1332.0,398.0C1332.7872653467934,395.6040972427372 1335.692995183725,387.7640586384725 1342.192241970869,370.5C1343.8486708826492,366.1 1346.333676597633,359.0688924927272 1347.7144768930552,354.8753166505049C1349.0952771884772,350.6817408082826 1351.2591424946013,345.9567408082826 1352.5230664622195,344.3753166505049C1354.6881609556967,341.6663461557776 1355.2167935481305,341.51166321013596 1361.6605550198535,341.7016002242164C1365.4222497589342,341.8124803475354 1371.2,342.3445053611874 1374.5,342.88387803233184C1377.8,343.42325070347624 1384.55,344.3679969263847 1389.5,344.9833140832395C1434.568786099535,350.5856569773125 1438.0107950142485,351.6630271524803 1436.5492009780519,359.7100063014219C1435.6344505871882,364.7462729660817 1431.1733495932522,377.67277200258013 1426.9585168987694,387.5C1426.4867342185316,388.6 1425.4327346315254,391.525 1424.616295594311,394.0C1422.818452927594,399.4500831014973 1418.2201603621593,411.9811117387056 1414.5251012310662,421.5C1413.030601320551,425.35 1410.9510672165322,430.8625 1409.9039143332466,433.75C1405.6925478360095,445.3627462903197 1403.7669084752063,450.5950960250939 1403.0034317880722,452.5C1402.562556884712,453.6 1401.6610125800796,456.075 1401.0,458.0C1400.3389874199204,459.925 1399.4354264023657,462.4 1398.9920866276557,463.5C1397.236391142554,467.8561736252427 1394.7384677000916,474.72488655912485 1393.3552498969805,479.0C1392.5544608395562,481.475 1391.5021450026074,484.4 1391.0167702593164,485.5C1390.5313955160254,486.6 1388.723848899333,491.55 1387.0,496.5C1385.276151100667,501.45 1383.489810119976,506.4 1383.0303533762426,507.5C1382.2392689959602,509.39396026977334 1380.4180327562194,514.3208416387774 1376.0993605356248,526.25C1375.0540088302187,529.1375 1372.8343314311137,535.1 1371.1667440931697,539.5C1369.4991567552254,543.9 1366.479824046832,552.225 1364.4571158522951,558.0C1362.4344076577584,563.775 1358.5432117728317,574.8 1355.8100138857912,582.5C1353.0768159987508,590.2 1349.2676580445564,601.45 1347.3452184320258,607.5C1345.4227788194953,613.55 1343.446656312958,619.4 1342.9538350841653,620.5C1342.4610138553726,621.6 1339.349706881735,630.7329006312614 1336.0398195871926,640.7953347361365C1332.7299322926503,650.8577688410115 1329.5510953918997,659.9702688410115 1328.9757375855245,661.0453347361365C1327.8450544750717,663.1580354534512 1326.815247769417,663.229276566812 1316.0,661.9429847389895zM1583.5,622.3712010191293C1573.5719721795915,621.2177111807167 1559.4676226186677,618.6481187838959 1554.0,616.9967613557628C1534.4220093893948,611.0837233724243 1523.0925863213536,605.9650103094948 1513.3915263859978,598.6495672307616C1485.2389088845791,577.4200446609244 1470.1109969318697,543.4297158031558 1465.0353868015682,490.0C1462.5136278293273,463.45405542349926 1462.0,439.08086332403366 1462.0,345.96172678631683C1462.0,247.84615384615182 1462.0,247.84615384615182 1464.8374242902164,245.0087295559372C1466.7200048138486,243.12614903230627 1469.1597588300547,241.95347789535535 1472.0874242902164,241.52400704439682C1474.5143409305974,241.16799302266764 1493.0872810970156,241.01694933788008 1513.3606246600345,241.18835441153553C1550.221249320069,241.5 1550.221249320069,241.5 1553.1926914650326,245.0C1556.164133609996,248.5 1556.164133609996,248.5 1555.5873595610456,307.0C1555.2701338341228,339.175 1554.72373132454,385.525 1554.373131761973,410.0C1553.0956821718885,499.1774607143824 1557.3355119908779,525.6253044136596 1574.2020415087209,533.6917348333711C1582.250954534703,537.5411335380489 1584.0933325464723,538.0 1591.5,538.0C1598.5845662022941,538.0 1600.0289882261643,537.6668824093215 1607.9967416361822,534.1954645269346C1613.6690524744151,531.7241328647949 1621.0870055362748,523.215658701345 1625.6572491205957,513.9386672148635C1634.1238172651322,496.75265094517465 1638.7615672774796,477.4437685642453 1641.01451055164,450.0C1641.6240516127182,442.575 1642.545144445404,432.0948516125069 1643.061383513164,426.71078136112646C1643.5776225809236,421.32671110974604 1644.0,377.3647278956381 1644.0,329.0174853297756C1644.0,241.11340793729818 1644.0,241.11340793729818 1646.2225062434054,239.55670396864915C1648.1396096528133,238.2139124716213 1653.6789540813124,238.0000000000001 1686.533944796778,238.00000000000006C1723.4139284133646,238.0 1724.6919581601542,238.06435879132147 1726.7993330486752,240.02767715422266C1727.9963838167366,241.14289958904513 1729.1776373234168,243.05539958904512 1729.424340841298,244.27767715422266C1729.6710443591792,245.4999547194002 1730.1652280185122,257.075 1730.5225267509272,270.0C1730.879825483342,282.925 1731.6009612631424,307.45 1732.125050706039,324.5C1735.0205715821437,418.69886549276083 1734.3415368672715,452.8753848725085 1728.8765579426884,488.0C1726.2244293558085,505.0458106368411 1720.009932771056,529.6647157983294 1716.9527685553621,535.2364311555618C1716.428745849913,536.1914682911209 1715.9982934892287,537.541468291121 1715.9962077538416,538.2364311555618C1715.9902852224473,540.2098067849648 1704.316774428927,562.6354224249554 1699.7690681882527,569.4098802807706C1685.9944763290778,589.929101860307 1665.0370504904517,605.8556507888283 1642.0,613.3113545429172C1633.3390369942463,616.1143858781478 1627.9104302443918,617.4583844818875 1619.5,618.881838826929C1603.3545076058917,621.6144423481998 1588.9791574777225,623.0077979936685 1583.5,622.3712010191293zM1838.0,592.8653088646693C1816.7003606880382,591.9669901766441 1795.8906179362655,590.3883327703895 1786.5,588.9584438259276C1781.9434911254223,588.264634141696 1779.9433789719608,587.4067719563419 1778.1863549006866,585.3926629066872C1775.8727098013735,582.7404889220488 1775.8727098013735,582.7404889220488 1776.3324878779017,530.6202444610244C1776.5853658199921,501.954110007461 1777.2842484921005,465.45 1777.8855604825872,449.5C1778.9947739622176,420.0777445319382 1780.5564874028153,348.7626989492411 1781.5645577527516,281.5C1781.869544497882,261.15 1782.3171549796612,243.5221824521411 1782.559247712261,242.3270721158691C1782.801340444861,241.1319617795971 1784.1645497845618,238.7694617795971 1785.5886018004853,237.0770721158691C1788.177787283983,234.0 1788.177787283983,234.0 1827.8388936419915,234.00373806043686C1865.1773398713417,234.0072572100885 1867.6842911842923,234.11985015168932 1870.6469056410251,235.9263442036654C1875.4457134483193,238.85248187262584 1876.4075323703,243.13058018879562 1875.5972677122604,257.9451828409549C1875.21959990172,264.8503322784297 1874.4617820020135,298.4 1873.9132279351352,332.5C1873.3646738682567,366.6 1872.4639422854768,411.15 1871.9116021956247,431.5C1871.3592621057726,451.85 1870.6838211580964,495.05 1870.4106223119,527.5C1870.1018418223623,564.1763147977985 1869.5262454629353,587.4914290941608 1868.8893598098266,589.1202804790365C1867.7155116226104,592.1224273103373 1864.1324625447019,594.0708530320131 1860.202946978874,593.8438636119814C1858.7163261404933,593.7579885985712 1848.725,593.3176389622807 1838.0,592.8653088646693zM335.0,592.3859527045245C313.25849398276347,591.4790635307472 281.6890801869848,585.2472295995846 266.0,578.765283533033C264.625,578.1972020562806 262.375,577.2881497295579 261.0,576.7451672514269C252.56510279925538,573.4142571533615 232.58515224826095,562.0161092710944 230.0,559.060309451181C229.725,558.7458811806515 227.7,557.1634733189644 225.5,555.5438475363208C217.8594321975935,549.9189108968598 204.1607516727536,535.4561820889171 199.18679772296753,527.7630179950238C188.0051377817396,510.46845804565424 180.72901818525,491.32828166611534 177.03816760702958,469.5C176.38718761036742,465.65 175.43728990015123,460.0624483491111 174.92728380654916,457.0832185535802C173.44677144528086,448.43472083036676 173.79204440130837,409.6798856169378 175.44553263384591,398.91287085962847C177.7542427796591,383.87924937919524 178.168561742683,382.0586925332038 183.9598846533605,361.5C184.845882441909,358.354784925516 189.54928765418163,344.9343276856247 190.96919160646803,341.5C198.63035254949622,322.9699176741483 211.58741045207657,300.4980213656056 220.87885734387922,289.6265799591415C252.77376425150305,252.30799915588912 291.1070208561189,227.04222874804196 328.0,219.0221378661656C331.025,218.36453917176198 335.1272088017242,217.41554050416417 337.11601955938704,216.91325193817045C341.8137609609826,215.7268033115602 369.8809046855404,215.73004101809727 375.30717994682465,216.9176575082868C377.61323097607107,217.42236913784453 382.2,218.38946433211333 385.5,219.06675793999526C401.63145605340753,222.37758584023797 408.0053594238997,224.74186416873422 410.5346058149245,228.3528692206722C411.7527072289356,230.09195259956934 412.0,236.23789541455614 412.0,264.77216617028955C412.0,301.34339032491437 411.74392325658124,303.46112932156433 407.01575488543017,305.99156824120087C405.69372535992375,306.69909697149353 396.87340460759106,306.8201973600337 380.01857146159455,306.3622315644426C361.2672323002636,305.8527354523759 353.1674040523807,306.00894983273315 347.7424661276543,306.9847128863652C324.27915735959164,311.2049694366722 311.5720661503822,317.38240543394426 297.41820105474955,331.4493933926574C290.6366398772594,338.18932900603727 286.3111364356029,344.75349052910104 281.8993522916235,355.0C271.8196871128633,378.4103440574265 270.04334251321865,388.1562467721122 270.0184257014657,420.18462393567444C270.0048770143988,437.6002734076028 270.4034603701499,445.80552120482076 271.52430149384236,451.18462393567444C277.8481700624907,481.53391962810076 293.3976505747916,500.39461033244163 318.5,508.1636413018245C327.55923798814285,510.96742270478006 346.97211441717246,510.94122046283064 364.0,508.10222835186534C376.50656437018256,506.01705826956015 381.7580192080823,505.0732659220856 386.5,504.05852456431273C399.6667386795741,501.24096058178384 402.1516721558709,501.0365326313718 405.6197751285033,502.4855985769002C407.6688149391873,503.341742074981 409.44427042206405,505.01166395835685 410.102247188205,506.70163117040033C411.70530553767986,510.818974196802 410.2525010413845,581.3668495262231 408.4759923308063,585.6722189034269C405.72889590263986,592.3298078967307 404.89225975999597,592.4888902181058 372.044992023878,592.5993976415219C355.7952464107451,592.654066344359 339.125,592.5580161227101 335.0,592.3859527045245zM1013.1518533514695,589.9461533266665C1011.4885380909135,588.9346309260397 1009.6218814310146,587.161996082937 1009.0037274405829,586.0069647864381C1007.5341025976155,583.2609456487882 1006.1721719356834,506.61068147289444 1005.8941836711398,411.0C1005.6753889212523,335.7482077209973 1005.8904714523765,330.80151847116053 1010.046532987005,315.5C1010.6440773021927,313.3 1011.4952151939685,309.925 1011.9379505242844,308.0C1015.9419597181023,290.5906875500531 1027.1432996120564,272.75566848214265 1040.4282714845674,262.63708606398075C1055.8220585579584,250.91231127901904 1078.5412433630618,244.00049685072852 1101.6879469771777,244.00017137824298C1123.0772862631966,243.9998706165649 1149.1720738086972,252.2847196243952 1164.7974734229656,264.0368509889639C1169.5,267.5737019779278 1169.5,267.5737019779278 1169.8334113709877,274.5368509889639C1170.016787625031,278.36658294503377 1169.6969018371901,286.0 1169.122554064675,291.5C1168.5482062921596,297.0 1167.5843913072438,306.9 1166.9807429870843,313.5C1165.498532602292,329.7057744765104 1164.6195841768513,332.7886353542427 1161.212766798363,333.73084360949167C1157.5220594742364,334.7515660381307 1148.2561744229795,334.402576418259 1141.4316410096299,332.9858087281548C1132.980932355083,331.23144835579205 1110.2888100012676,331.18299366173665 1106.0,332.9101512247166C1100.665495703398,335.05842299192074 1096.3918694649828,338.57351041410857 1092.784510595758,343.7799835383951C1089.6234762576319,348.34227992282337 1089.503058492365,348.8842742715594 1089.1808233258573,360.0C1088.926017661833,368.7896982382302 1089.1822791099985,371.9471983640255 1090.2681585796195,373.39749394655416C1091.9634950658758,375.6617774933976 1101.6883978338308,376.69361322121927 1132.0,377.8253433546971C1146.0816912990924,378.35110488607876 1152.3335859539857,378.9687880547799 1154.5,380.04832887555807C1157.5,381.5432520036152 1157.5,381.5432520036152 1157.3399108803255,411.1978813239507C1157.162546392356,444.0525697376596 1156.9537300355335,445.2726758681839 1150.9988527211212,448.24844600092086C1148.073912496022,449.71009656101313 1144.5474822029414,450.00744133290397 1129.5,450.0612059102318C1119.6,450.0965785598463 1108.125,450.6597778594319 1104.0,451.3127599093109C1096.5,452.5 1096.5,452.5 1096.5237985884078,476.0C1096.536887812032,488.925 1097.1072351026498,509.625 1097.791237012003,522.0C1100.9015820463865,578.2725326847395 1101.0195969171243,583.1564443176334 1099.353844904439,586.6667561113413C1098.1949332404336,589.1089811550719 1096.9923676083665,590.069957272752 1094.6485276856088,590.426798268569C1092.916837458524,590.6904417277827 1074.5521141561262,591.1039553766985 1053.8380314580584,591.3457174883818C1018.5904563322695,591.7571056400241 1015.9821901063665,591.6673838695392 1013.1518533514695,589.9461533266665zM672.5,588.268482033342C670.2455774848971,588.0380893137229 667.4686740627818,586.9084245304429 666.1367111832244,585.6798492328987C663.7734223664488,583.5 663.7734223664488,583.5 664.4384916884767,499.5C665.2287073702472,399.69368647717636 666.1615261685789,358.50363603727953 667.713065158204,354.9061660973786C669.6686337928397,350.371894367465 673.4195954621155,349.6279187229667 690.823073930654,350.32246591945466C710.7284003277059,351.1168581824291 711.9632424027449,351.45209656725103 714.5,356.7503441182006C715.6,359.0477935522145 716.9535804725101,360.94383180317055 717.5079566055781,360.96376245365843C718.062332738646,360.98369310414625 720.537332738646,359.9277270142977 723.0079566055781,358.61717114288376C729.7316723954725,355.0505395223826 736.100583037104,353.13617071643785 746.3070020101344,351.6139380563308C769.8754754530921,348.0988266231693 791.6875762998012,357.1566470637559 807.9790688392474,377.2242408631897C810.7812391591276,380.6759083884354 814.4871922268227,385.25240615455726 816.214520100792,387.39423589901617C819.3551162352815,391.2884717980323 819.3551162352815,391.2884717980323 821.7023970979341,388.39423589901617C822.993401572393,386.8024061545573 824.3799818952109,385.05 824.783686704196,384.5C841.0593996135389,362.32626835027577 852.1965278012522,353.37866906134917 870.0,348.1730900574751C889.4906598543379,342.4741921921178 899.0777723177979,342.53800120404884 916.5,348.4825804349063C922.4667238621736,350.51846605150706 937.575617179912,360.52657916363285 944.3392681223852,366.9232788016438C960.9076080175399,382.59272932639607 970.697435361794,409.6305855718283 975.1021746944544,451.8852517087008C976.3849456924752,464.1908743932311 975.6643739239115,572.502371172075 974.2438993564205,580.8954219185707C973.7277820968802,583.9449649724212 972.6885360684043,585.8956656804497 970.8498905105353,587.2660938069517C968.2860185559832,589.1770669274808 967.2935143499154,589.2110507666846 940.3498905105353,588.3104290242497C922.24443394355,587.7052332295734 911.7280541001705,586.9591115193467 910.2937549872215,586.1779903358946C907.100178862063,584.4387645776084 906.0118930370501,579.1249508536525 906.0055769344026,565.2399436719445C906.0025096204811,558.496912691514 905.5516367574619,540.496912691514 905.0036372388045,525.2399436719445C903.6322669131756,487.0593360981733 901.9391868114434,473.8117346302976 897.6243127668868,467.5C894.5038385242021,462.9354159270645 892.9234999495523,462.06640118692576 887.6801752671886,462.03180337186984C879.7505531645567,461.97948015795697 873.2725068334346,467.39979551678914 866.205629500387,480.0C859.9104311007011,491.22430507283457 856.9042514993401,506.5411233128272 855.5091006451713,534.5C853.0320807142274,584.1395745262895 852.9404182046172,584.8911521752386 849.1136090792241,586.9391982659824C846.4913066555771,588.3426119329621 802.5940605530617,588.3446531910234 794.560195339196,586.9417350446065C782.7060647123913,584.8717009422619 779.4794415485127,583.9171304949799 777.8656413269919,582.0027858456408C776.4643914023048,580.3405755795003 776.137797623852,575.6736103305097 775.5758457778791,549.2820270313516C774.2186296995241,485.5415456297077 772.704802757549,474.5670038449806 763.8838503651825,464.52049409412723C755.848736366456,455.3690048278117 744.9188563821382,458.50730540735753 738.9133108025405,471.6902945762414C734.7052212120561,480.92762343467354 733.3032101271392,496.5038161934059 731.106876229798,558.4189452777915C730.1390635062933,585.701795930802 730.5873208884258,584.4852240248559 721.1381679825955,585.4740499465092C718.037175592168,585.7985596342096 712.125,586.4808930100701 708.0,586.9903463373103C699.0852671334479,588.0913500513277 678.1442899237137,588.84530527616 672.5,588.268482033342zM516.5,582.9269058553543C514.85,582.3723742071857 510.35,580.9390557935805 506.5,579.7417538251204C478.58135284333775,571.0594028647539 450.3965535360617,544.12321692244 437.9523026372556,514.2307845274363C433.87207331897247,504.42963377559863 431.3884736380983,494.41192516609703 429.04613648180884,478.30737140247254C425.0614235434207,450.91079291394465 432.69660749128724,417.6984523365093 448.31261050080013,394.5C453.30559128198297,387.0826457257458 462.9576612638379,375.1812796545901 466.15472529092096,372.5C480.8215807040231,360.19935769730387 496.12488381308833,352.88053696792076 515.0,349.1396962456129C529.2904611387482,346.30748380045424 533.8673002762395,345.97640311855906 543.6629134356984,347.0662703199214C552.3615075908119,348.034082371428 556.3208998973541,348.8426291339959 566.0,351.6277225904944C567.375,352.02336923760765 571.875,354.06317211046854 576.0,356.16061786351867C602.5570832739218,369.664143082012 625.6711454526526,398.91041745385746 635.1474356742576,431.0C641.6050701017117,452.86750175086047 641.558796759401,477.2673306413622 635.0203727366968,498.0C634.5867415010994,499.375 633.649273231586,502.525 632.9371099155559,505.0C629.6757776578828,516.3341942164843 623.9970627715292,526.3702479241917 607.6233362534108,549.737303615742C594.9037614238441,567.8894947547868 584.4030246928554,576.1625790730322 569.0,580.1669892332698C558.7154345042602,582.8407250342567 521.988434015762,584.7714575890665 516.5,582.9269058553543zM542.4383691209646,503.04240315902325C553.802933285486,495.2233775497822 562.5900536886406,469.13880026391473 558.9963831746666,453.88991890158525C557.3062763100659,446.71835462830484 553.9143160746818,440.13727850867446 549.8357808802291,436.11653218187666C544.2530138361159,430.6128675042943 541.354286150358,429.51375791975283 532.4393923339571,429.5203494905673C525.013216951264,429.5258403199506 523.9225526984884,429.8007511554501 518.5822528602466,433.0131547059726C508.7413926405975,438.93282499928046 503.88268117718667,450.07785817266 503.78336021374594,466.95922265353295C503.7311867650892,475.82702832603087 503.9782303156052,477.08088174609577 507.0204064728877,483.3886397116015C516.6077159781041,503.26731365181024 530.7252288248117,511.10125544886034 542.4383691209646,503.04240315902325z"/></svg>