<svg version="1.1" xmlns="http://www.w3.org/2000/svg" xmlns:xlink="http://www.w3.org/1999/xlink" width="2304" height="2304" viewBox="0 0 2304 2304"><path stroke="none" fill="#000000" fill-rule="evenodd" d="M1100.5,1748.1329734608034C1094.7347964201797,1747.3205485722751 1088.799262571937,1743.7648025599406 1084.5,1738.547999699059C1082.85,1736.5458598956793 1080.4895266100527,1733.7850748356977 1079.2545035778949,1732.4129217879886C1078.0194805457372,1731.0407687402792 1076.3083751589538,1728.6990260002826 1075.4520471628207,1727.2090490324404C1074.5957191666876,1725.719072064598 1072.3606074811155,1722.025 1070.4851323059938,1719.0C1068.6096571308724,1715.975 1065.9185756258044,1711.25 1064.5049511836205,1708.5C1059.7214563572807,1699.1944090807362 1058.7449354582664,1697.504293959718 1056.9937636146112,1695.5C1056.032682522349,1694.4 1054.7191505069397,1691.8522926927833 1054.0748035803686,1689.8384282061852C1053.4304566537971,1687.8245637195869 1052.2744383101142,1685.9355534639435 1051.5058739277392,1685.6406276380887C1050.7373095453645,1685.345701812234 1049.4082842995913,1682.7465702837897 1048.5524844926877,1679.8647797971012C1047.6966846857842,1676.9829893104127 1046.1375130405056,1673.696999566056 1045.0876586142913,1672.5625803651974C1044.0378041880767,1671.428161164339 1042.6904929713683,1668.658961954537 1042.0936336882728,1666.4088043434153C1041.4967744051771,1664.1586467322938 1040.1234774413274,1661.5167331107145 1039.0418626574956,1660.5378851843502C1037.9602478736635,1659.559037257986 1036.5532506584507,1657.1763659607527 1035.9152021792443,1655.2430600793878C1035.2771537000378,1653.309754198023 1033.6852133773054,1650.1513717414573 1032.3775570176163,1648.2244323981308C1031.0699006579273,1646.2974930548046 1030.0,1643.9838302070332 1030.0,1643.0829594030834C1030.0,1642.1820885991333 1029.2156158348096,1640.3323846772785 1028.2569240773546,1638.9725062434054C1027.2982323198994,1637.6126278095323 1023.9148430528255,1631.1 1020.7382812616345,1624.5C1017.5617194704436,1617.9 1014.5098975043306,1611.825 1013.9564546702725,1611.0C1013.4030118362142,1610.175 1012.0075050862331,1607.475 1010.8553285592034,1605.0C1009.7031520321736,1602.525 1007.929568493514,1599.58718760477 1006.9140318066266,1598.4715280105997C1005.8984951197391,1597.3558684164295 1004.408234986116,1594.5742122657514 1003.6023426207973,1592.2900698979815C1002.7964502554788,1590.0059275302117 1001.2062399254419,1587.2062399254419 1000.0685418873818,1586.0685418873818C998.9308438493218,1584.9308438493217 997.9918112289392,1582.9875 997.9818027309761,1581.75C997.971794233013,1580.5125 996.6481235744304,1577.5589871509526 995.0403123785704,1575.186638113228C993.4325011827106,1572.8142890755032 991.3314401535678,1568.7642890755033 990.3712878693643,1566.186638113228C989.4111355851609,1563.6089871509525 987.5848062437435,1560.227973623125 986.31277822177,1558.6732747180558C985.0407501997964,1557.1185758129864 984.0,1555.2406021898612 984.0,1554.5C984.0,1553.7593978101388 982.9042211737968,1551.8511914199387 981.5649359417707,1550.259541355111C980.2256507097446,1548.6678912902833 978.8072085192786,1546.0458649134084 978.4128421851796,1544.4328160731666C978.0184758510806,1542.819767232925 976.6779259586355,1540.2739318297859 975.4338424241905,1538.7754040661907C974.1897588897455,1537.2768763025956 972.6277738046676,1534.3518763025957 971.9627644573509,1532.2754040661907C971.297755110034,1530.1989318297858 969.9645111042262,1527.6 969.0,1526.5C968.0354888957738,1525.4 966.715297261927,1522.8406172457162 966.0662408136739,1520.8124827682584C965.4171843654206,1518.7843482908006 964.0771997210521,1516.0843482908006 963.0884971595217,1514.8124827682584C962.0997945979914,1513.5406172457162 960.7584731846495,1510.8669136215792 960.1077829076507,1508.8709191590651C959.4570926306521,1506.8749246965508 958.0416499994767,1504.4426802936002 956.962354838372,1503.465931596953C955.8830596772674,1502.4891829003057 955.0,1501.2444885018397 955.0,1500.6999440448067C955.0,1499.1480862328817 947.8786604168537,1484.7358032739933 946.3629023189071,1483.2200451760505C945.6149576208085,1482.4721004779535 944.7117048298977,1480.654112936848 944.355673894661,1479.1800728624826C943.9996429594242,1477.7060327881172 942.938193292287,1475.375 941.9968968565782,1474.0C941.0556004208695,1472.625 938.6204692190547,1467.675 936.5854941858788,1463.0C934.5505191527028,1458.325 932.2609755266267,1453.3473524661567 931.4976194612652,1451.9385610359038C930.7342633959037,1450.529769605651 929.3078805687211,1446.029769605651 928.3278798453041,1441.9385610359038C926.2088535919614,1433.092263109749 925.8698749858168,1409.4206844556447 927.7463284763129,1401.3276235816384C929.5790192617818,1393.4233093179744 939.334735987544,1379.2180815693869 947.6523656985041,1372.342588421037C960.0799473844481,1362.0697395804975 974.4888598169717,1352.0 976.7608220658643,1352.0C977.3579721195036,1352.0 979.1185758129911,1350.9401903243486 980.6732747180588,1349.6448673874415C982.2279736231264,1348.3495444505343 985.3,1346.7176521270453 987.5,1346.0184400019107C989.7,1345.3192278767758 992.3347444029504,1344.016537552427 993.354987562112,1343.1235726144691C994.8494989174649,1341.8155057798854 997.5814674887285,1341.5 1007.413523534113,1341.5C1019.2675304515817,1341.5 1019.7106814197493,1341.5787671808125 1022.8852612539431,1344.25C1024.6827653744108,1345.7625 1026.7911259521582,1347.0 1027.5705069822707,1347.0C1029.065638619945,1347.0 1043.0,1360.790446911413 1043.0,1362.2701367882978C1043.0,1362.744955652905 1044.1592002096545,1364.653233637838 1045.5760004658987,1366.5107545325932C1048.1777705249456,1369.921850928664 1052.5465084094449,1377.5668872270478 1055.570188362812,1384.0C1056.4749733581416,1385.925 1057.8066541831618,1387.8401806067218 1058.5294790850787,1388.2559569038262C1059.2523039869957,1388.6717332009307 1060.145019937063,1390.4717332009307 1060.5132923074502,1392.2559569038262C1060.8815646778378,1394.0401806067218 1062.2667307874563,1397.177851883215 1063.5914392177137,1399.2285597404775C1064.9161476479712,1401.2792675977403 1066.0,1403.2746916412991 1066.0,1403.6628353928304C1066.0,1404.3450045166687 1067.0420368466177,1406.7120472334655 1072.9719523646595,1419.5C1078.3382978551372,1431.0726054532058 1082.0,1439.6690822908454 1082.0,1440.694897704936C1082.0,1441.2643594062388 1082.8148216234376,1442.8034690277066 1083.8107147187502,1444.115141308198C1084.8066078140625,1445.4268135886891 1086.205878330986,1448.5166591304946 1086.9202047563574,1450.9814647344324C1087.6345311817288,1453.4462703383704 1089.0697095582914,1456.5444567496813 1090.1094900376074,1457.8663234262347C1091.1492705169233,1459.188190102788 1092.0,1460.8170082800793 1092.0,1461.4859193757711C1092.0,1462.1548304714631 1093.0516388312676,1464.6816440601522 1094.3369751805944,1467.101060683969C1095.6223115299213,1469.520477307786 1097.6665996092518,1474.4852110689408 1098.8798375791066,1478.1338023754238C1101.7158100374056,1486.6624708756474 1103.8273579895822,1488.7283649116428 1107.9592291577837,1487.0168878357954C1110.0927797799918,1486.1331422320673 1111.2497532403916,1484.7549996938465 1111.9317656510698,1482.284954292446C1112.4610116801075,1480.3681831314418 1114.954842090232,1476.032434758867 1117.4736110069016,1472.6499579089464C1122.6828760054711,1465.6543902940898 1125.242879890546,1462.0159049805027 1130.9473404356982,1453.5C1133.1578770541903,1450.2 1135.8740358909959,1446.4492721506974 1136.983248961933,1445.165049223772C1138.09246203287,1443.8808262968466 1139.0,1442.3348293464621 1139.0,1441.7295004451396C1139.0,1441.124171543817 1139.8641419096323,1439.6998993931197 1140.9203153547382,1438.5644512213676C1141.9764887998442,1437.4290030496154 1144.7889887998442,1433.7410301668067 1147.1703153547382,1430.368955926237C1152.0429413026307,1423.46908055675 1156.0356917281015,1418.3535710366164 1168.9225543436323,1402.5C1177.9227541168789,1391.427847630117 1180.8402751912326,1387.597893590312 1185.4479731307997,1380.806379686596C1186.8262369202716,1378.774888514224 1189.6458031767763,1375.4208634898912 1191.7136759230325,1373.3529907436346C1193.7815486692884,1371.2851179973777 1196.3794195282562,1368.3570027214507 1197.4867222762944,1366.846067908241C1199.2105380196344,1364.493889858664 1206.740797170925,1355.8406185115473 1216.9327416614901,1344.5C1218.4156156680804,1342.85 1222.9492090670096,1337.7170960204473 1227.0073936591102,1333.0935467121053C1231.065578251211,1328.4699974037633 1236.0542950099882,1322.9850081918862 1238.0934309008371,1320.9046817968233C1240.1325667916863,1318.8243554017604 1242.4082367943452,1316.2640417148336 1243.1504753511904,1315.2150958258749C1243.8927139080358,1314.1661499369163 1247.2,1311.051453975371 1250.5,1308.2935492446632C1253.8,1305.535644513955 1258.1980624904204,1301.7538621804345 1260.273472200934,1299.889588503506C1267.5730534500406,1293.3326098470172 1269.5638967453067,1291.947971695542 1276.6645394596303,1288.4895465595941C1280.605036162427,1286.5702959518173 1284.2117002673544,1285.0 1284.6793485816909,1285.0C1285.1469968960273,1285.0 1287.3229541391936,1284.002679790068 1289.5148091220603,1282.7837328668174C1292.933559416945,1280.8824779088548 1295.3760188718609,1280.5133670440277 1306.6987246652773,1280.1868545790294C1319.0767446075315,1279.8299100573854 1320.227085853445,1279.9602955843275 1325.1987246652773,1282.2837386618996C1328.1144260993747,1283.6463610425114 1331.625,1285.1004335633006 1333.0,1285.5150109303195C1340.9410179233162,1287.9093136954832 1358.3485728072171,1304.150878601711 1365.2461648031324,1315.601268427135C1366.2065554448552,1317.1955707922107 1368.342702538318,1320.525 1369.9931583441607,1323.0C1371.6436141500033,1325.475 1373.6844668747585,1329.075 1374.5283866213945,1331.0C1375.3723063680306,1332.925 1376.7177592985702,1335.684443562198 1377.5182820225937,1337.132096804885C1381.6092669347204,1344.5301723324058 1381.1601765866733,1371.8398234133265 1376.8771023803995,1376.1228976196007C1375.9031954220693,1377.096804577931 1374.398467044323,1379.155069096474 1373.5332615409634,1380.6968187719187C1372.6680560376035,1382.2385684473634 1370.40308834417,1385.525 1368.5,1388.0C1366.59691165583,1390.475 1364.3072931460586,1393.85 1363.411958867175,1395.5C1362.5166245882913,1397.15 1361.012808942392,1399.175 1360.070146320732,1400.0C1359.1274836990722,1400.825 1354.1158382859792,1406.45 1348.9331565138586,1412.5C1343.7504747417381,1418.55 1339.158295224261,1423.6540104347243 1338.7283131416875,1423.8422454104987C1338.2983310591137,1424.030480386273 1337.0791033315704,1425.830480386273 1336.0189181915912,1427.8422454104987C1334.9587330516117,1429.8540104347244 1331.933264355785,1433.878351478396 1329.295654423087,1436.7852255075468C1326.658044490389,1439.6920995366975 1323.15,1443.866209157528 1321.5,1446.0610246649476C1319.85,1448.255840172367 1315.9125,1453.230786064606 1312.75,1457.116459981034C1309.5875,1461.0021338974618 1307.0,1464.6098027210428 1307.0,1465.1335018112138C1307.0,1465.6572009013848 1305.0558502074941,1468.2039035307498 1302.6796671277648,1470.7928409875806C1300.3034840480352,1473.3817784444113 1297.2939204225902,1477.075 1295.991747960109,1479.0C1293.899884637619,1482.0923990575875 1289.5411190544955,1487.7289676733074 1281.685674746897,1497.5C1280.359153385164,1499.15 1277.8548608138065,1503.02440537643 1276.1205801438796,1506.1097897253999C1274.386299473953,1509.19517407437 1272.074690485701,1512.5274184773205 1270.9836712810975,1513.514777287512C1269.8926520764937,1514.502136097704 1269.0,1515.8726545937502 1269.0,1516.5603739453927C1269.0,1517.2480932970352 1267.5375,1519.6263877582744 1265.75,1521.8454727481462C1263.9625,1524.064557738018 1261.375,1527.495918043149 1260.0,1529.4707178706594C1258.625,1531.4455176981696 1256.4611922988684,1534.50997883398 1255.1915384419294,1536.2806315057937C1252.8688274420479,1539.51987219751 1248.3194306856458,1546.5905488755127 1240.0,1559.8913347079651C1237.525,1563.848269524685 1232.35,1571.8537556647282 1228.5,1577.681303908061C1224.65,1583.5088521513937 1221.05,1589.0091090283333 1220.5,1589.904096967927C1219.95,1590.7990849075206 1218.3147297970047,1593.0992945195708 1216.866066215566,1595.015673883594C1215.4174026341273,1596.9320532476172 1213.9031818701912,1599.625 1213.501131184597,1601.0C1213.0990804990024,1602.375 1211.9862714166027,1604.4 1211.0282221125972,1605.5C1210.070172808592,1606.6 1208.4799445790254,1609.075 1207.4943816024493,1611.0C1206.5088186258733,1612.925 1204.786957079917,1616.3 1203.6680226114354,1618.5C1202.549088142954,1620.7 1200.5910371364564,1623.7720263768745 1199.3167981525526,1625.326725281943C1198.0425591686487,1626.8814241870116 1197.0,1628.7090715360273 1197.0,1629.388163835311C1197.0,1630.0672561345946 1196.0785562579986,1631.6119308637726 1194.9523472399965,1632.8207743445955C1193.8261382219946,1634.0296178254184 1192.3074033093674,1636.7115751604435 1191.5773807674914,1638.7806795335403C1190.8473582256156,1640.849783906637 1189.1813019676172,1644.2024119836676 1187.875033527495,1646.2309641491638C1181.7688709757952,1655.7134479072215 1180.0,1658.8742762369354 1180.0,1660.3030075100214C1180.0,1661.1519555693717 1178.8695092280002,1663.1900613837638 1177.4877982844448,1664.8321315420042C1176.1060873408894,1666.4742017002445 1174.3157194840023,1669.688004609786 1173.5092030469177,1671.9739157854297C1172.7026866098333,1674.259826961073 1171.1642908854199,1677.2469733914213 1170.0905458815546,1678.6120189639812C1169.0168008776893,1679.977064536541 1167.8566624583875,1682.3761264636305 1167.5124605053284,1683.9432676908468C1167.1682585522692,1685.5104089180634 1165.9774803681344,1687.6153924246296 1164.8662867628063,1688.62100881655C1163.755093157478,1689.6266252084706 1161.0465137382066,1694.0607867487142 1158.847221386647,1698.4747011282027C1156.6479290350878,1702.8886155076912 1153.1177832098026,1709.65 1151.0024528860135,1713.5C1148.8871225622242,1717.35 1146.8049656244752,1721.175 1146.3754374687935,1722.0C1141.4699071484645,1731.4221122893512 1127.9004476527275,1745.3718888967283 1122.0449596227186,1747.0123986743995C1117.0512778783327,1748.4114594676687 1106.4054390003191,1748.9651601399244 1100.5,1748.1329734608034zM653.4821610615159,1298.5485224339145C645.5888973853331,1296.613179950695 636.1786936673202,1289.7298080726632 632.2258979669425,1283.0C631.0952369375239,1281.075 629.1761725846218,1276.575 627.961310516049,1273.0C625.7919552019551,1266.6161927773442 625.7645155148289,1265.8743465835312 626.4262928462997,1231.5C626.7968951965105,1212.25 627.758616136839,1189.75 628.5634504914743,1181.5C631.3826074181451,1152.6020727295206 633.9735796138589,1099.7337283569486 632.7976891989335,1095.1010835963616C631.387746272456,1089.5463442871817 629.7499187154675,1088.9721500685757 613.5,1088.3356451207392C601.3073951335728,1087.8580640656962 586.2775614791612,1085.8455165859082 583.661141033539,1084.340117173224C583.0225134650925,1083.9726725723108 581.825,1083.0897734167836 581.0,1082.3781190498307C580.175,1081.6664646828776 577.5549125034553,1079.4084526642378 575.1775833410118,1077.3603145639645C572.8002541785681,1075.3121764636912 569.9503348554904,1071.8628102070534 568.8444292897277,1069.6950562158806C565.9337049815178,1063.9895652303328 564.8124350953517,1049.7845437693811 565.1819681998976,1023.2964692005623C565.5,1000.5 565.5,1000.5 568.5168306598048,995.5905056502872C574.1247117015989,986.4644182449264 580.5026666537192,984.2854942938881 611.5,980.9060091510205C622.4915764417615,979.7076522192593 655.9564668590041,980.3900934026931 670.0,982.0989850948563C674.675,982.6678639219045 694.4998542171521,983.702973934421 714.0552315936714,984.3992295671152C746.8042326848719,985.5652350108268 749.9612707652766,985.8334236079223 754.0552315936714,987.7972069150634C756.4998542171521,988.9698388237407 760.1315323143862,990.5738335383693 762.1256273653028,991.3616396142378C764.1197224162192,992.1494456901063 766.5947224162192,993.9808011968522 767.6256273653028,995.4313185181176C768.6565323143863,996.8818358393829 770.7249929626578,999.6743216376093 772.222206583684,1001.6368425141761C774.9444131673681,1005.2050622897524 774.9444131673681,1005.2050622897524 774.3903721329497,1029.3525311448761C773.7325390244984,1058.0237008080962 772.1234710643574,1067.213919380493 766.7997266812807,1072.7066296257728C765.0440935445359,1074.5179833315979 763.0828185609494,1076.0 762.4413378288662,1076.0C761.799857096783,1076.0 759.576255073793,1077.35 757.5,1079.0C755.4237449262068,1080.65 752.9993678505641,1082.005313152682 752.1124953874607,1082.0118070059602C751.2256229243574,1082.0183008592383 746.9,1082.9129877065561 742.5,1084.0C738.1,1085.0870122934439 732.11176902393,1085.9816991407617 729.1928200531778,1085.9881929940398C722.7470788230091,1086.0025329836171 715.0378295928614,1087.7564073313422 713.0,1089.6721018755343C710.5884294607614,1091.939137618433 711.4646355937407,1133.2166971413828 715.0023151514506,1184.0C715.5578716608662,1191.975 716.047499270029,1213.125 716.0903765051456,1231.0C716.1718118482097,1264.9494081955502 715.2956610339996,1274.243132037577 711.5346002478027,1279.3251578781926C710.6493543788581,1280.5213210451866 708.5185393947262,1283.6473447715275 706.7994558386205,1286.271877270061C704.8643352764622,1289.2262344250269 702.688537432236,1291.283792386091 701.0869246864869,1291.6739710266522C699.6641161089191,1292.0205900942437 697.2603607989952,1293.3334933109154 695.7452462199894,1294.5915337303672C694.1201162027438,1295.9409229296318 691.0446405351126,1297.1121112121018 688.2452462199894,1297.4476487082788C685.6353607989952,1297.7604715266789 680.125,1298.4656972190562 676.0,1299.0148169135618C666.6073306004026,1300.2651683684226 659.9185655990167,1300.1266588869253 653.4821610615159,1298.5485224339145zM1179.5,1289.983459385941C1172.9,1288.9267717540204 1164.8,1287.6417268512262 1161.5,1287.127804046398C1158.2,1286.6138812415697 1153.7,1285.5236021654432 1151.5,1284.7049616550057C1149.3,1283.8863211445682 1143.45,1281.7620305511857 1138.5,1279.9843158919339C1133.55,1278.2066012326818 1128.2279736231255,1275.682883250939 1126.6732747180565,1274.3760537102833C1125.1185758129875,1273.0692241696274 1123.3185758129875,1271.9808131286295 1122.6732747180565,1271.9573625080657C1120.2211769005614,1271.8682518340636 1112.993372698577,1264.258477411697 1109.891400264914,1258.5C1106.9416384940698,1253.0240852745956 1106.6203046415308,1251.5445930731948 1106.2126036860118,1241.562006053776C1105.7543222908091,1230.3409533555619 1106.8955639176152,1222.1941113860485 1109.7233879465716,1216.5C1111.9239313733613,1212.0689819261488 1118.2158596306876,1203.0 1119.0894923412661,1203.0C1119.505873743432,1203.0 1121.2665613262034,1201.8051387703074 1123.0021314140915,1200.3447528229053C1128.9652523169323,1195.3271173900628 1147.293808413967,1196.0322932087931 1160.6437478188325,1201.7929824339024C1164.4146865184746,1203.420196256885 1169.3545323532185,1205.0285021003376 1171.621183007152,1205.366995419353C1173.8878336610858,1205.7054887383686 1177.7128336610858,1206.8765064083902 1180.121183007152,1207.9692569082904C1183.7064179747913,1209.5960006817993 1186.6950148003568,1209.960056217615 1196.6116252662446,1209.978037999509C1208.0481336311568,1209.998775811058 1209.0236051730517,1209.840092355014 1214.1116252662446,1207.1312502035476C1219.0240238813024,1204.515908245469 1219.6097757656948,1203.8313205725296 1220.742736639534,1199.3812502035476C1222.558407875939,1192.2496140142428 1221.4092960382184,1185.380112911233 1217.8737018336017,1182.229884151123C1214.2850873950526,1179.032414147778 1205.7432685689967,1173.6010140194012 1200.360165345663,1171.0937284603988C1198.083256285778,1170.0332135551175 1195.9267227672124,1168.6904519411228 1195.5678686377396,1168.1098137626327C1195.2090145082668,1167.5291755841426 1191.1361789599403,1165.207760453849 1186.5171229747914,1162.9511134730915C1181.8980669896425,1160.6944664923342 1177.6061040821705,1158.2303107414205 1176.9794276248535,1157.4752118043943C1176.3527511675363,1156.7201128673685 1174.3010123103145,1155.5943876634858 1172.4200079421385,1154.9736002402108C1170.5390035739624,1154.3528128169357 1169.0,1153.4413503373526 1169.0,1152.9481280633595C1169.0,1152.4549057893666 1167.5375,1151.296121062033 1165.75,1150.3730508915073C1158.7059826856403,1146.7354999748352 1141.6146386131202,1131.3282318636352 1140.376833261191,1127.5C1140.0211636111742,1126.4 1138.4408749069448,1124.021841697262 1136.8650805851257,1122.2152037716937C1135.2892862633066,1120.4085658461254 1134.0,1118.2614177293399 1134.0,1117.4437635121703C1134.0,1116.626109295001 1132.8886663770495,1114.277780998007 1131.5303697267768,1112.225256185517C1130.138667542648,1110.1222522033254 1128.4293471954797,1105.2212837970158 1127.6141629605627,1100.9966964450405C1126.818545889418,1096.8735134002682 1125.6798795123682,1092.2332051524713 1125.0837932337859,1090.6849003388254C1123.2559606420753,1085.9371950116436 1123.802560715995,1068.4195930543553 1126.0412512713824,1060.0C1128.4039850147935,1051.1138872822603 1134.5275928733543,1036.3248598689631 1137.013954459826,1033.5C1137.9821432805063,1032.4 1139.6919398855318,1029.7 1140.813502470994,1027.5C1143.081357826277,1023.0514905308941 1146.052678366979,1019.75867559017 1154.0788040739085,1012.7994038465583C1160.2133628254614,1007.4802669506149 1169.1046496955819,1001.0 1170.2682427645777,1001.0C1170.6942935295372,1001.0 1172.7207324022634,999.9023906972435 1174.7714402595248,998.5608682160968C1176.8221481167861,997.21934573495 1179.85,995.8037233422888 1181.5,995.4150406768496C1183.15,995.0263580114104 1185.7272682185007,993.8506105904356 1187.2272627077793,992.8022686302388C1188.727257197058,991.7539266700421 1192.6719871623827,990.4585578554106 1195.9933292973901,989.923671264391C1199.3146714323975,989.3887846733713 1203.7124032138968,988.0952320069177 1205.7660665896108,987.0491097833831C1211.4683613613702,984.1443994221686 1236.7955405196417,982.6811395713645 1258.944242880717,983.9767782845021C1275.0495327420115,984.9188938400963 1276.6655376961382,985.1892160623463 1279.997993465923,987.4986094709452C1281.983222703392,988.8743742619254 1284.720270731097,990.0 1286.0803224163783,990.0C1289.9874779101267,990.0 1300.5915660442577,1000.6471087131608 1304.2209781379815,1008.2142520085499C1306.6865289733214,1013.3548025967136 1307.33045890872,1016.1894948714738 1307.7553742922614,1023.7732824615707C1308.4005770287092,1035.2887057559385 1306.5631619568114,1046.8910407945177 1303.3427833901585,1051.6365338397704C1302.0542525255714,1053.535290190906 1301.0,1055.4890352055404 1301.0,1055.9781894278472C1301.0,1056.467343650154 1298.6181338703584,1059.287801227654 1295.7069641563521,1062.2458729334028C1291.8459377602871,1066.1691045067455 1289.1304396622534,1067.983539732405 1285.6698594497384,1068.9524422941029C1279.3966451515196,1070.7088337170333 1267.1236949565525,1069.8243558615097 1260.0,1067.1024859366653C1255.692124521373,1065.4565035108644 1252.2544049567443,1065.0008991575753 1244.1396957562092,1065.0005042240468C1234.1581607753835,1065.0000184342628 1233.5970435096651,1065.1181574682053 1228.7917091118359,1068.2319077575105C1223.0346081661826,1071.9623816956375 1220.0,1077.045095153979 1220.0,1082.9572811096702C1220.0,1089.2554304235948 1224.6487068957613,1093.6046917084736 1238.7602966441489,1100.5091366507531C1245.217133489867,1103.6683040654405 1251.625,1106.8548108506495 1253.0,1107.5902628401063C1254.375,1108.3257148295631 1257.8048924068362,1110.0185325460152 1260.6219831263024,1111.3520799877774C1263.4390738457687,1112.6856274295399 1266.0317342586554,1114.2423301147373 1266.383450710495,1114.8114192882163C1266.7351671623346,1115.3805084616952 1268.371517425887,1116.1423252271093 1270.0197846295007,1116.504345433581C1271.6680518331143,1116.8663656400527 1273.4624138344116,1117.9955110612714 1274.0072557434946,1119.0135574807337C1274.5520976525777,1120.031603900196 1276.0050909771987,1121.184228142837 1277.2361297982077,1121.5749446866023C1282.2207795544216,1123.1570110612697 1299.8635640304674,1139.8421873072134 1301.9963848078944,1144.9912721541882C1302.681825541468,1146.6460724693848 1303.643721019094,1148.0 1304.1339303137302,1148.0C1304.624139608366,1148.0 1306.133634248397,1150.3625 1307.4883628471325,1153.25C1308.843091445868,1156.1375 1310.3977984998292,1159.175 1310.943267411491,1160.0C1311.4887363231526,1160.825 1313.1871475285197,1164.65 1314.7175145345288,1168.5C1317.426384540953,1175.3148029092247 1317.5,1176.0159061814452 1317.5,1195.0C1317.5,1212.5259051198427 1317.2795681566454,1215.1074138092793 1315.322586447785,1220.5C1314.1250089940668,1223.8 1312.623131341075,1228.4943236471224 1311.9850805522474,1230.9318303269388C1311.3470297634196,1233.3693370067551 1309.7393658619164,1236.9612975373595 1308.4124941044622,1238.913964839393C1307.085622347008,1240.8666321414262 1306.0,1243.1979314186613 1306.0,1244.0946298999147C1306.0,1245.9470975102138 1301.8740679326477,1251.6252264219702 1296.2895741252146,1257.4581678847924C1291.1034411535836,1262.8750259000476 1279.3147519022325,1273.0 1278.1939397666324,1273.0C1277.6907744193386,1273.0 1275.5287976024988,1274.1888406115565 1273.3895468403218,1275.641868025681C1264.2388843454016,1281.8572045807048 1254.560726279237,1285.9214748392296 1245.0061975971748,1287.5612437351501C1239.7846062756207,1288.4573845413806 1234.6096062756208,1289.7078702690726 1233.5061975971748,1290.3401009077993C1232.215505481829,1291.0796411311314 1224.3670487609322,1291.5636330879229 1211.5,1291.6971603929132C1195.8197556724326,1291.8598815269936 1188.9081465965405,1291.4897430447074 1179.5,1289.983459385941zM1411.9851270963597,1291.131685211574C1405.7506892704434,1289.5657205175298 1394.0,1277.6077171941579 1394.0,1272.8292516572724C1394.0,1271.7865951425651 1392.892936350492,1268.7488275808194 1391.5398585566486,1266.078657075615C1390.1867807628055,1263.4084865704108 1388.6415531663476,1258.5030521976587 1388.106019453409,1255.177691802833C1387.5704857404705,1251.852331408007 1386.371517581505,1247.9704480018586 1385.441645766819,1246.5512842336138C1384.5117739521331,1245.1321204653693 1383.186987609274,1241.1650145167062 1382.497676116021,1237.7354932365847C1380.9363771716044,1229.967585684023 1378.5408214272434,1220.4335133682794 1374.900627645256,1207.5C1373.3526286421363,1202.0 1371.7832810435282,1195.25 1371.413188537238,1192.5C1371.0430960309477,1189.75 1370.1712784304825,1186.375 1369.47581609176,1185.0C1368.7803537530372,1183.625 1367.4717937844136,1178.45 1366.567905050374,1173.5C1365.6640163163345,1168.55 1364.278418112823,1162.833267329618 1363.4887979314594,1160.7961496213732C1362.6991777500962,1158.7590319131284 1361.5667323757648,1154.0476034250908 1360.9722526551677,1150.3263085368449C1360.3777729345709,1146.6050136485992 1359.0335707781971,1142.1723526489016 1357.985136752115,1140.4759507597387C1356.936702726033,1138.779548870576 1355.5665493817035,1134.0409773586139 1354.9403515424938,1129.945791844267C1354.3141537032843,1125.85060632992 1352.7059491545367,1119.35 1351.3665636563883,1115.5C1350.02717815824,1111.65 1348.6625295861047,1105.8 1348.3340112738656,1102.5C1348.0054929616263,1099.2 1346.6979447846293,1093.35 1345.4283486583165,1089.5C1344.1587525320037,1085.65 1342.171084012879,1077.55 1341.011307504706,1071.5C1338.4643459511594,1058.213718297992 1337.6050527159462,1054.7102881822939 1335.6153239827324,1049.5C1334.7751778986933,1047.3 1334.0680338772895,1044.0290487394518 1334.0438928240578,1042.231219421004C1334.0197517708261,1040.4333901025561 1332.8357966200913,1035.7083901025562 1331.4128813779807,1031.731219421004C1329.2703149573035,1025.7425616995815 1328.818715633618,1022.6957541202927 1328.7847512810622,1014.0C1328.7609527403145,1007.9069570536586 1329.2400745743212,1002.4507245110336 1329.9263052367323,1001.0C1333.7517028696363,992.9129260546243 1339.493188815579,985.0 1341.5356359066936,985.0C1342.249677905229,985.0 1345.8027312900456,983.425 1349.4313100951747,981.5C1353.0598889003038,979.575 1356.9501291695578,978.0 1358.0762884712944,978.0C1359.2024477730313,978.0 1362.5590763491132,976.8479538829574 1365.5354630848096,975.439897517683C1370.1070087136882,973.277210174441 1372.8528005982366,972.7927484676648 1383.2235376657654,972.3190510874431C1395.5,971.75830713952 1395.5,971.75830713952 1399.387504612539,974.87915356976C1401.5256321494358,976.595619106392 1403.7879241805529,978.0 1404.4148202372442,978.0C1405.8838374590148,978.0 1410.6865809219744,983.4740975799574 1412.6875370177045,987.4291230120554C1413.5420396178947,989.1181053554249 1414.883429880003,991.2342091489318 1415.668404266834,992.1315758865151C1416.4533786536647,993.0289426240984 1417.5639854202984,996.8539426240984 1418.1364193037975,1000.6315758865151C1418.7088531872964,1004.4092091489317 1419.8419983657545,1008.5419374882157 1420.6545197003707,1009.8154166404794C1421.4670410349866,1011.0888957927431 1422.7499351801291,1014.913895792743 1423.5053955784651,1018.3154166404794C1424.2608559768012,1021.7169374882158 1425.581193952784,1026.7090188978086 1426.4394799695378,1029.408930884019C1427.297765986292,1032.1088428702292 1428.0,1035.8807275752918 1428.0,1037.790896895269C1428.0,1039.7010662152463 1428.8454245769283,1042.6670473174377 1429.8787212820625,1044.3819660112501C1430.912017987197,1046.0968847050626 1432.2969164244896,1049.1875 1432.9562733649345,1051.25C1434.9647401618502,1057.5325800632986 1439.920363476242,1055.7665583769528 1442.556914591209,1047.8286462100166C1443.5050989642195,1044.9739303547876 1445.0740798368217,1041.2571466531222 1446.0435387525476,1039.569126872982C1447.0129976682736,1037.8811070928418 1448.1302432552716,1034.925 1448.5263067236544,1033.0C1448.9223701920373,1031.075 1450.2605321663927,1027.475 1451.5,1025.0C1452.7394678336073,1022.525 1454.0800846539964,1018.9905728645102 1454.4791484897537,1017.1457174766894C1454.878212325511,1015.3008620888685 1456.088392967045,1011.7937436066125 1457.1684388042734,1009.3521208494535C1458.2484846415018,1006.9104980922947 1459.7823049497845,1002.4167260042523 1460.576928378235,999.3659606538035C1462.1639135233986,993.2731132506212 1466.0368735828656,986.054035508045 1469.665193520026,982.4257155708831C1470.9493370840116,981.1415720068969 1472.0,979.6644758596393 1472.0,979.1432796880887C1472.0,978.622083516538 1473.4332796826725,977.6960062970388 1475.1850659614943,977.085330311424C1476.9368522403163,976.4746543258091 1479.2368173009427,975.1931330116234 1480.2960994295531,974.2375051687893C1481.8798343174478,972.8087440166254 1484.026662346743,972.5210343571184 1492.377709425347,972.6183741295297C1502.744120758519,972.7392049798881 1505.372182711976,973.5099511557404 1516.0,979.546213140835C1517.375,980.3271693809143 1520.1773554080273,981.7970970994761 1522.227456462283,982.8127191820834C1524.2775575165388,983.8283412646906 1527.0574002319474,985.7484612097885 1528.4048847187469,987.079652393412C1529.7523692055465,988.4108435770354 1531.3521369282546,989.95 1531.959924102543,990.5C1532.5677112768312,991.05 1534.4426992986737,993.6373858017438 1536.1265641510818,996.2497462260974C1542.1563344340293,1005.6043765769758 1542.2619813449053,1021.1470517808069 1536.3563372492738,1030.0537505852058C1535.0603517621732,1032.0083134070692 1533.9802482291739,1035.158313407069 1533.9561071759417,1037.0537505852058C1533.9319661227096,1038.9491877633427 1533.209236595908,1042.3 1532.3500415608264,1044.5C1531.4908465257452,1046.7 1529.0176295727395,1053.675 1526.8540038874803,1060.0C1524.690378202221,1066.325 1522.0381077290228,1073.3295759564412 1520.9600695025954,1075.5657243476471C1519.882031276168,1077.8018727388533 1519.0,1080.4189563931934 1519.0,1081.3814658017366C1519.0,1083.538279752342 1517.1318679564542,1087.1592887021 1515.3274429797414,1088.5C1514.5872137158078,1089.05 1513.4828047508684,1092.425 1512.8732008354314,1096.0C1512.2635969199944,1099.575 1510.9555266769773,1103.85 1509.9663780731712,1105.5C1508.9772294693653,1107.15 1507.8450009622609,1110.3 1507.4503147240505,1112.5C1507.05562848584,1114.7 1506.0265471410835,1117.85 1505.1634672912578,1119.5C1503.409608510635,1122.8529539458161 1495.0544646864266,1146.7173479232763 1491.85931778636,1157.5C1490.7184745617315,1161.35 1489.136841952564,1165.2342761882878 1488.344578654877,1166.131724862862C1487.55231535719,1167.0291735374362 1486.4467347949908,1169.5041735374361 1485.887732961101,1171.631724862862C1484.6965662912587,1176.1652846359882 1480.9396787392357,1186.0160771946505 1479.7980732045744,1187.59919106559C1479.362120083994,1188.2037461516645 1478.5489901706553,1191.1287461516645 1477.9911178415996,1194.09919106559C1477.433245512544,1197.0696359795156 1476.0715974200648,1200.7333803993465 1474.965233191646,1202.2408453318808C1473.8588689632268,1203.7483102644153 1472.664724745372,1206.4483102644153 1472.3115793741908,1208.2408453318808C1471.9584340030099,1210.0333803993465 1470.3938600828792,1214.3544477400485 1468.8347484405672,1217.8432172001076C1467.2756367982552,1221.3319866601669 1466.0,1224.8924507647139 1466.0,1225.7553596546566C1466.0,1226.6182685445992 1464.9413787436874,1229.1638208045508 1463.6475083193056,1231.4121424545488C1462.3536378949238,1233.660464104547 1460.7819538887757,1237.5986000182606 1460.1548771945322,1240.163555596135C1459.5278005002888,1242.7285111740093 1457.0619175366055,1249.0345814251496 1454.6751372752362,1254.1770450431136C1452.288357013867,1259.3195086610776 1450.0016826946207,1264.8709086428169 1449.5936387880224,1266.5134894469786C1449.1855948814243,1268.1560702511404 1448.0441565878173,1270.4 1447.0571092466735,1271.5C1446.0700619055299,1272.6 1444.9931323151393,1274.6447231904974 1444.663932379139,1276.0438293122165C1444.3347324431386,1277.4429354339359 1442.3631749567412,1280.4757163872152 1440.2826935204782,1282.7833425417264C1433.955810544426,1289.8009877740217 1421.4159094600543,1293.500507009326 1411.9851270963597,1291.131685211574zM1610.5,1289.069314777801C1601.9796572920463,1287.099877571485 1594.4579669787163,1284.4045635536263 1592.0,1282.4400456570002C1591.175,1281.7806685055778 1588.925,1280.4487323257688 1587.0,1279.4801874796472C1583.0257649268447,1277.480590130359 1582.095944603913,1276.703702491198 1572.7124869172908,1267.5426205814458C1565.4439331297096,1260.4463220913483 1560.5267598046983,1253.2693191372164 1554.1848015573541,1240.5C1548.2051655975501,1228.4602045744964 1546.2465956190842,1223.8555400333667 1545.4652337799587,1220.0C1545.075114230609,1218.075 1543.8784617116444,1214.7669559943547 1542.8060059600373,1212.6487910985659C1541.7335502084302,1210.530626202777 1540.4584453741381,1205.1306262027772 1539.9724396616107,1200.6487910985659C1539.4864339490832,1196.1669559943546 1538.3916554725697,1189.35 1537.5395986026917,1185.5C1535.6253835305076,1176.850661806218 1534.0528154340486,1158.0900889269856 1534.0226902388622,1143.5436511348657C1534.0013949578083,1133.2608802118834 1535.1216626374044,1123.476069464527 1538.49281659993,1104.5C1539.274489404345,1100.1 1540.1910389524287,1093.5963484112594 1540.5295933734492,1090.0474409139101C1540.8681477944697,1086.4985334165608 1542.180126255783,1081.0985334165607 1543.4451010652565,1078.0474409139101C1544.71007587473,1074.9963484112595 1546.0537819482938,1070.7806598824052 1546.431114562065,1068.6792441831226C1547.2883119036137,1063.9053977538101 1552.7488846130732,1050.0332572640677 1554.5967681294394,1047.9350659614952C1555.3548013439151,1047.0743522403175 1556.5026547786294,1044.8243522403175 1557.1475535399156,1042.9350659614952C1557.7924523012018,1041.045779682673 1559.1480749752468,1038.4268135886891 1560.160048371127,1037.115141308198C1561.1720217670072,1035.803469027707 1562.0,1034.150495404581 1562.0,1033.4418665901408C1562.0,1032.7332377757002 1563.125,1030.8164640279997 1564.5,1029.1823693730285C1565.875,1027.5482747180572 1567.0,1025.872594696001 1567.0,1025.4586359906814C1567.0,1023.0542825722465 1583.7414979028601,1005.092209075944 1590.5,1000.2453169906537C1593.25,998.2731413453743 1596.85,995.4395244977566 1598.5,993.9483906626142C1600.15,992.457256827472 1603.3,990.6769673087002 1605.5,989.9921917320105C1607.7,989.3074161553208 1610.2206904140444,988.1197549937962 1611.1015342534322,987.3529447064004C1611.98237809282,986.5861344190048 1616.2573780928199,985.3233622323046 1620.6015342534322,984.5467842915111C1624.9456904140445,983.7702063507177 1631.4047117505322,982.3798462541589 1634.954915001183,981.4570951880472C1646.0245675227375,978.5799264896413 1668.292003505486,981.2263231655047 1678.0,986.572833252429C1679.375,987.3300905684648 1682.525,988.8885442354646 1685.0,990.0360636235396C1687.475,991.1835830116146 1690.625,993.1927114468672 1692.0,994.5007934796563C1706.236573826427,1008.0445072475303 1709.2240660854734,1012.2788667599408 1710.8750051383668,1021.2535180473698C1711.4571212599235,1024.417952973423 1712.4646624890424,1027.999712710883 1713.1139856475202,1029.212984130614C1713.763308805998,1030.4262555503449 1714.3407942365013,1034.839505011694 1714.3972866041945,1039.0202051558344C1714.4853976663821,1045.5408369762292 1714.087458080279,1047.439459408968 1711.598163718497,1052.3751909083678C1708.0947612895673,1059.3216790332856 1701.2865531238056,1066.564497074325 1696.3029700371305,1068.6467710421398C1691.2173725938462,1070.7716693297295 1685.6229317121579,1069.7164636293774 1676.7938380569387,1064.9670204272384C1664.124151072387,1058.1516030048124 1663.2303315879321,1057.8659638664458 1654.1119218574106,1057.7185288554888C1644.6304173483059,1057.5652229871957 1638.545444341326,1059.1123108337736 1636.9571394615016,1062.080085648749C1636.392010623339,1063.136038541937 1635.3255802702272,1064.0 1634.5872942323642,1064.0C1632.922228570006,1064.0 1624.0,1074.6915538470087 1624.0,1076.6868108669594C1624.0,1077.4881879874338 1622.9085706742696,1080.0239916371074 1621.574601498377,1082.3219300884564C1618.2177469824999,1088.1045562593022 1614.4289911255562,1099.4109034954251 1613.5853194885076,1106.1634231752564C1613.197238817568,1109.2695159402654 1611.9387978312618,1114.215920038791 1610.7887839633827,1117.155432283091C1608.8773209788105,1122.041259319279 1608.6893586358922,1124.6458268704755 1608.598924829074,1147.5C1608.5,1172.5 1608.5,1172.5 1611.9566839537938,1181.313154598287C1616.3404881745312,1192.4900932025753 1621.6469249060729,1198.0 1628.0273168390167,1198.0C1636.0227702144496,1198.0 1642.315566124515,1192.3600739070914 1645.0817543063408,1182.7149393931577C1645.8608654342765,1179.9983376523166 1645.5519962990043,1179.3464603910693 1641.876384850169,1175.9499142619338C1635.3501200255437,1169.9191463648485 1635.0701274384744,1169.6408320451424 1632.484427211596,1166.614251742254C1627.9679153979048,1161.3276428960376 1627.2932621476139,1156.2831078421239 1629.134718961838,1141.567724983503C1630.253570041017,1132.6268028479835 1630.3339779026617,1132.4386105860365 1634.884718961838,1128.1100171914734C1643.4354471422353,1119.976698894723 1643.3419492391722,1120.0035378452535 1663.0,1120.039412266501C1685.7509066654661,1120.0809309104095 1698.2790155895516,1121.2566280809535 1704.0,1123.8870467566223C1706.475,1125.0250128399402 1709.9920836543401,1125.9659588992392 1711.8157414540894,1125.978037999509C1715.6547596440178,1126.0034659529667 1718.9444491140162,1127.5345301870843 1720.8107042937017,1130.1644106090052C1721.5315916552377,1131.1802671645023 1723.4440916552378,1132.6954085250745 1725.0607042937017,1133.531391410277C1726.6773169321657,1134.3673742954793 1728.0,1135.6273783805636 1728.0,1136.331400488242C1728.0,1137.0354225959204 1729.125,1139.1362923762115 1730.5,1141.0C1731.875,1142.8637076237885 1733.0,1145.3711776902815 1733.0,1146.5721557033175C1733.0,1147.7731337163536 1733.675,1150.371254486355 1734.5,1152.3457574144313C1736.584920329253,1157.3356741355417 1736.3810200976961,1161.5213887550033 1733.6309268385303,1170.1863072243452C1730.9767419082928,1178.5490403594526 1725.6718489074267,1186.8595851658495 1721.7760286498592,1188.7579659846888C1720.356163296809,1189.4498472762675 1717.7531129778404,1191.3623472762674 1715.991472385484,1193.0079659846888C1714.2298317931277,1194.65358469311 1712.4227680721024,1196.0 1711.9757752276496,1196.0C1711.0802085184944,1196.0 1707.5019735259898,1206.4795702511328 1706.512597014413,1212.0C1704.9762705321245,1220.5722496113021 1702.710988611639,1228.4262430834196 1700.9346217660054,1231.3394829987592C1699.8746916611838,1233.0777673494415 1699.0057939936783,1235.2529736231254 1699.0037380604376,1236.1732747180567C1699.0016821271968,1237.0935758129879 1697.9469115696286,1239.1185758129877 1696.6598034880635,1240.6732747180567C1695.3726954064982,1242.2279736231255 1693.8093672226564,1244.996168675608 1693.1857408573037,1246.8248192791289C1692.562114491951,1248.65346988265 1690.9152029223224,1251.5004962595244 1689.5259373692402,1253.1515445610726C1688.1366718161582,1254.8025928626207 1687.0,1256.7521108247342 1687.0,1257.4838066991026C1687.0,1258.8688521665788 1683.4112964061103,1263.2070023077013 1676.3759178073415,1270.3265680076297C1670.6900207723936,1276.08050390959 1665.7565410846007,1279.9495801961243 1661.2852576581442,1282.16140245032C1659.203365946165,1283.1912576351056 1656.375,1284.6504657202213 1655.0,1285.4040870839108C1646.1928095594083,1290.2312048076267 1623.583208790162,1292.093437052284 1610.5,1289.069314777801zM854.0,1264.99041311959C844.2403746090058,1264.019787596741 830.0,1259.8080108254787 830.0,1257.8920996773036C830.0,1257.4162068777364 828.3372343042556,1256.332092174057 826.3049651205679,1255.4829558913493C824.2726959368803,1254.6338196086417 821.9101959368803,1253.331667508836 821.0549651205679,1252.5892845584478C817.489079774472,1249.4939184496873 809.3442365394548,1241.0892651822282 807.3016693610829,1238.3972763382872C806.0925875096784,1236.8037743522293 803.6985167730932,1233.7108963170733 801.9815121686711,1231.5242140379405C800.2645075642489,1229.337531758808 798.6146067901894,1226.323033950947 798.3150660040944,1224.825330020472C798.0155252179994,1223.3276260899968 796.9201980814444,1221.3327678183866 795.8810057006388,1220.3923116391159C794.841813319833,1219.451855459845 793.5000897096463,1216.8571913966887 792.8993976780014,1214.626391498768C792.2987056463566,1212.3955916008472 790.9968064924481,1209.5401047060077 790.0062884470935,1208.2808650657912C788.9093491847395,1206.886332771761 787.7261863201769,1202.5725861793983 786.9795844801146,1197.2456692236078C786.3054153436306,1192.4355511506235 785.0558298345413,1187.15 784.2027277932497,1185.5C783.1103019462585,1183.3871195234672 782.5198751496824,1178.507962144398 782.2060629212995,1169.0C781.8342058241143,1157.7333797622186 782.1008312069459,1154.093797927492 783.8177201634385,1147.0C784.9491952848958,1142.325 786.1115392406588,1135.4583636983123 786.4007067318005,1131.7408082184718C786.7681899162606,1127.016421252481 787.6901408244313,1123.6785035462347 789.4632329033019,1120.6529506730205C790.8584548064858,1118.272184502863 792.007402688947,1115.4638208045506 792.0164504198822,1114.4121424545488C792.0254981508174,1113.360464104547 793.1187668528596,1110.7 794.4459364244206,1108.5C795.7731059959815,1106.3 797.739711452688,1102.6455723466042 798.8161707726572,1100.3790496591205C799.8926300926263,1098.112526971637 801.2811795305241,1095.9442554819452 801.9018361902079,1095.5606685709167C802.5224928498916,1095.1770816598882 803.7121935625191,1093.2312436175398 804.5456155516024,1091.2365840323648C805.3790375406857,1089.2419244471898 806.7380713743156,1086.9101959368816 807.5656907374467,1086.0549651205688C817.1512867862151,1076.1495695983826 826.1386947057524,1068.0 827.4768448852406,1068.0C827.8807886985522,1068.0 829.5269948685025,1066.8929058128906 831.1350808184632,1065.5397906953124C832.743166768424,1064.1866755777341 835.7331269274355,1062.7819174959598 837.7794367273777,1062.4181060691471C839.82574652732,1062.0542946423345 842.9832638540878,1060.8618542957397 844.7961418979728,1059.76823863227C847.320352496326,1058.2455127889252 850.4819495596305,1057.6700943910732 858.2961418979728,1057.3112056152654C867.934892238971,1056.8685188780548 869.0964550815474,1057.0390711270486 879.2698804299936,1060.3907792253394C894.7872984016504,1065.5031041010616 898.377139323364,1067.9161027858981 911.5,1082.055036174483C916.879808517438,1087.8513908067334 923.0,1096.6775139042393 923.0,1098.6395525103717C923.0,1099.3034008195289 924.0634253351895,1101.1185758129868 925.3631674115322,1102.6732747180558C926.662909487875,1104.227973623125 928.0579622994107,1106.5589049525274 928.4632847705004,1107.8531221167275C928.8686072415902,1109.1473392809276 930.2801819064007,1111.7976353590725 931.6001173589682,1113.7426689570493C932.9200528115357,1115.6877025550261 934.0053409939239,1118.678797602499 934.0118688753865,1120.3895468403218C934.0256005835478,1123.988188973362 936.0725854025754,1131.8514876161662 938.3926442820866,1137.2178813691035C939.675298558694,1140.1847146499094 940.0,1144.635929395283 940.0,1159.2525401739963C940.0,1175.0058647159794 939.7200978280384,1178.3656894868707 938.0,1183.2596762912058C936.9,1186.3893735659865 936.0,1190.4999319747542 936.0,1192.3942505329114C936.0,1197.6960283150224 933.0864462538809,1208.1076515961888 930.5135928123103,1212.0C929.2411622996219,1213.925 927.8768379041355,1216.625 927.4817608223404,1218.0C927.0866837405455,1219.375 926.1767250386645,1221.175 925.459630373716,1222.0C924.7425357087676,1222.825 923.8576886715762,1224.6948266912043 923.493303624402,1226.1551704248986C923.1289185772276,1227.6155141585928 921.7438586515295,1229.831455470612 920.4153926784061,1231.079484451608C919.0869267052827,1232.327513432604 918.0,1233.8994153339177 918.0,1234.5725997878603C918.0,1236.1460540420246 898.2084890879752,1255.0 896.556790440367,1255.0C895.8710420164883,1255.0 894.5156255469568,1255.8777464028494 893.5447538414078,1256.9505475618876C891.3529732442441,1259.372437860632 874.4057427011885,1264.6995311919545 867.0,1265.294470234734C863.975,1265.5374830799033 858.125,1265.4006573780885 854.0,1264.99041311959zM870.2596995173716,1182.25C875.1529715992526,1177.141001723455 878.0,1170.4415748003055 878.0,1164.0360694916226C878.0,1156.4810601863048 874.7218153786326,1147.6099207758907 870.1340808177497,1142.75C866.9321711320417,1139.3581238577362 866.1011165581224,1139.0 861.4319109263156,1139.0C855.1833908408202,1139.0 852.4908619892324,1140.8432853459046 848.7845148552018,1147.6583138479612C844.6867345281765,1155.1930883075443 843.6417998338834,1160.703906810972 844.8452035858622,1168.4336116272366C846.4862066167175,1178.9741047994153 852.8777664690211,1184.7602913996116 863.0629087952341,1184.9258364056377C866.7901100767775,1184.9864167626765 868.1082192809831,1184.4963310103744 870.2596995173716,1182.25zM379.0,876.5108015297383C378.175,876.3031097961144 375.81398292265,875.8581019733754 373.7532953836666,875.5218952569846C371.69260784468327,875.185688540594 368.7751408822507,873.7693410820712 367.27003546714974,872.3744564602671C365.7649300520488,870.979571838463 364.0732874184818,869.5371845168922 363.51082961477863,869.1691513012208C361.71803871734164,867.9960737927106 357.03733878797397,861.2381480820438 354.9408617419217,856.7959577401049C353.82575706273883,854.4331809830472 352.27503990070863,851.3495262764615 351.4948236040768,849.9433917254701C348.4920130879255,844.531615997292 347.71391819059085,825.1489260277026 348.3257355994575,771.0C348.7801827344996,730.7791368106359 349.27581998753357,716.3950051181768 350.44485489795284,709.5C351.28411791623836,704.55 352.43068468528486,689.25 352.9927810513895,675.5C354.8065338333169,631.1319836679767 355.98948972830783,612.65954850016 357.5072079657851,605.0050146424442C358.324553854905,600.8827726957884 359.4830901658279,592.5577726957883 360.0817331011693,586.5050146424442C360.9754915969506,577.4684026426714 361.6806002454525,574.6056792259595 364.02387930289694,570.5C368.43074941195556,562.778685288983 373.42634527071766,558.696905216267 382.5,555.4036104171131C390.5,552.5 390.5,552.5 417.5,552.5063984857976C442.87239801523805,552.5124112609218 444.8616893299471,552.6460537629154 450.5,554.723370194858C453.8,555.9391854676526 460.03094645700736,557.4003200700414 464.34654768223857,557.9703359779443C469.3197226093407,558.6272059418924 473.09611042014717,559.7170402840803 474.6590304504934,560.9464333591255C476.01529474780233,562.0132710108724 478.784348290795,563.4186494133636 480.8124827682548,564.0694964757727C482.84061724571467,564.7203435381817 485.175,565.8261489138118 486.0,566.5268417549505C486.825,567.2275345960892 489.075,568.530019190426 491.0,569.4212519645878C498.35455740491346,572.8262507171661 505.6095293638061,578.4949944988302 514.7774542684795,588.0C520.2109151516363,593.6332350146618 527.6180343744169,604.7702044167488 532.0698695422614,614.0C535.1639479892982,620.4148178241113 539.2469426355265,634.2868080227672 541.1942152360277,645.0C542.7901489924317,653.7802522928224 541.5694644582506,674.4812164489653 539.0839424255555,680.7870363603638C537.9377740914999,683.6948887179889 537.0,686.8690265557692 537.0,687.8406759998757C537.0,689.5205116504854 535.6262869251698,692.6755601653973 528.8426091265305,706.576003218098C527.2117469742709,709.9178049880519 523.7674890403317,715.2502234113073 521.1887026066656,718.4258219364433C518.6099161729995,721.6014204615792 515.15,725.929051570126 513.5,728.042779955436C505.9697162750417,737.6894311426374 482.80658457077044,753.3651263914886 472.91525616021113,755.50858571554C471.03686527209504,755.9156346270944 468.3055332752701,757.0927228503703 466.8456295006001,758.1243373228194C465.38572572593023,759.1559517952687 463.28831819603016,760.0 462.18472387860004,760.0C461.08112956116986,760.0 457.3255962858998,760.8941944800168 453.83909437799986,761.9870988444818C450.3525924700999,763.0800032089469 446.55724440295046,763.9800032089469 445.40498756211207,763.9870988444818C444.2527307212737,763.9941944800169 442.5439468090817,764.8464517604581 441.6076899794632,765.881003912129C440.07119437827544,767.5788124406815 439.88566317076464,771.6960034247684 439.70270241735113,808.1552806807358C439.50082909387305,848.3833368837805 439.4907970450539,848.5602538956839 437.25,851.4091354604079C436.0125,852.9824555181649 435.0,855.1015078596615 435.0,856.1181406637338C435.0,858.0778573120402 426.34603720056896,868.0 424.63679802661017,868.0C424.0824554554789,868.0 422.6998993931198,868.825766589947 421.56445122136756,869.8350368665488C420.4290030496154,870.8443071431507 417.025,872.7203123843527 414.0,874.0039374025533C409.2683124254189,876.0117762617406 406.5442956443882,876.3762601232986 394.5,876.6131119678045C386.8,876.7645329604919 379.825,876.7184932633622 379.0,876.5108015297383zM958.1200896628293,875.9341339601222C947.0749186441376,873.9733265036541 936.1394314372717,861.4864504799688 932.2758260040206,846.4234125696416C928.1867377221508,830.4812847119714 931.9905922801431,669.5363508561995 937.473607973734,626.5C938.2444039238152,620.45 939.1589591963764,610.325 939.5059530238702,604.0C940.1652776787594,591.9818368174045 942.8548683833109,576.6764484717684 945.3618585467915,570.6763764493999C947.6646868201361,565.1649326086983 954.1395464840783,559.6520818084765 962.7107292466492,555.9051318688765C970.5,552.5 970.5,552.5 997.5,552.5C1021.4177291407374,552.5 1025.0137118098771,552.7100039331235 1029.0,554.3395872566798C1031.475,555.3513602478537 1037.1729847222596,556.7717335249603 1041.6621882716881,557.4959723169167C1046.6934916303708,558.3076675377588 1051.5219925132549,559.8076393411724 1054.2500458171385,561.4063850602369C1056.6841639177078,562.8328732771066 1059.389152818574,564.0 1060.2611322635082,564.0C1061.1331117084424,564.0 1063.1185758129898,565.0224330034564 1064.6732747180579,566.2720733410142C1066.227973623126,567.5217136785722 1069.075,569.3319629546756 1071.0,570.2948495101332C1077.6741198954855,573.6332496747433 1084.3890515834967,579.178562030214 1090.3846153846155,586.3030164123044C1091.971153846154,588.1882804624598 1094.0847222935172,590.6674146012091 1095.0814341565338,591.8122033873027C1096.0781460195503,592.9569921733963 1097.6235067193688,595.1550690964733 1098.5155690450197,596.6968187719183C1099.4076313706703,598.2385684473633 1101.2300053597696,601.3 1102.5652890207962,603.5C1105.9354146352837,609.0525852433273 1109.8908619979916,617.4984202596171 1112.1121396925191,623.8848309191826C1114.0417111430102,629.4325549656477 1115.9976908942233,645.8757806592042 1115.9991642344748,656.5616629672287C1116.001083369267,670.4808160656916 1107.4459962751432,694.1057694230334 1099.25,702.8146373040673C1098.5625,703.5451582154017 1098.0,704.6939863855148 1098.0,705.3675887932075C1098.0,706.0411912009001 1093.7376014399854,711.0715483437573 1088.5280031999673,716.5461602217789C1082.8583193428142,722.5042623937599 1079.0447651662303,727.340366659311 1079.0280031999673,728.5934495470068C1078.9853438111509,731.7825593022345 1082.6653008855635,741.7590404414606 1084.9606913367315,744.6771565317649C1086.0823111015293,746.1030650002756 1087.0,747.8495045954173 1087.0,748.5581334098579C1087.0,749.2667622242983 1088.125,751.1835359719994 1089.5,752.8176306269713C1090.875,754.4517252819434 1092.0,756.4415072558675 1092.0,757.2393683468026C1092.0,758.0372294377379 1092.962107246559,759.5472692787262 1094.1380161034645,760.5950124378878C1095.3139249603698,761.6427555970496 1096.9007470174533,763.9763407813409 1097.6642873414276,765.7807572918687C1098.4278276654015,767.5851738023964 1101.0973975954785,772.2516962433895 1103.5966649638203,776.150807160742C1106.0959323321624,780.0499180780947 1108.5904461123935,784.1985772967538 1109.1400289198896,785.3700498688734C1109.689611727386,786.541522440993 1111.4509629833283,789.75 1113.0541428219842,792.5C1114.6573226606401,795.25 1116.8565181452734,799.4043888320709 1117.9412438989473,801.7319751823798C1119.0259696526211,804.0595615326886 1120.7782364302193,807.2095615326887 1121.835170071388,808.7319751823798C1126.3977263994068,815.3039090869358 1126.684769767193,838.3492504057762 1122.3003414189832,846.0783614087875C1121.3101536385425,847.8239187907383 1119.825,850.4639335886395 1119.0,851.9450609596793C1116.3832262860626,856.6429702585037 1109.0300355140755,862.3657785204015 1103.1259469264269,864.299447632922C1100.031676116892,865.3128633026475 1093.2096132742695,866.3905539844301 1087.9658072761545,866.694315814661C1079.645290428747,867.1763045508852 1077.8382896056903,866.9763193029061 1073.7706712982229,865.1233050257223C1071.2071525084755,863.9554872615751 1068.6369062591434,863.0 1068.0590129663738,863.0C1067.4811196736043,863.0 1063.8341069082965,860.0870468561578 1059.9545401545784,856.5267707914618C1052.9666083264242,850.113949976957 1046.767932496088,842.0879644670896 1045.4522415029978,837.7493347675107C1045.077080142283,836.5122006453798 1043.9772779775417,834.6 1043.0082366924617,833.5C1042.0391954073816,832.4 1040.7178976259304,829.8484964260377 1040.072019400348,827.8299920578615C1039.4261411747657,825.8114876896854 1038.2489435619925,823.6215679497689 1037.4560247052968,822.963503746936C1036.6631058486012,822.3054395441031 1035.541290886894,820.0102008876702 1034.9631025681701,817.8629733993073C1034.3849142494462,815.7157459109443 1032.8066845866754,812.330369572716 1031.4559255397905,810.3399148699109C1030.1051664929057,808.3494601671059 1029.0,806.2458258850027 1029.0,805.6651720207926C1029.0,805.0845181565827 1027.899636870356,803.4598142347274 1026.5547486007913,802.0547188611145C1025.2098603312263,800.6496234875016 1023.5203980735487,797.7 1022.8003880281741,795.5C1021.1589516087734,790.4845698044348 1018.0680951646453,789.9683396047558 1016.8130272615061,794.5C1016.3560508202986,796.15 1016.0506022965341,808.7793081213774 1016.1342527642515,822.5651291586164C1016.262280437564,843.6644324889988 1016.0372758251976,848.0946160515032 1014.7121606415728,850.5651291586164C1013.8463595063821,852.1793081213774 1012.4940392351001,854.85 1011.7070044831685,856.5C1010.9199697312367,858.15 1009.31392496037,860.3572444029504 1008.1380161034645,861.4049875621121C1006.9621072465591,862.4527307212737 1006.0,863.8610227826701 1006.0,864.5345254763264C1006.0,866.2459927722772 998.1934719976776,872.4606579238686 993.4501244634642,874.5253016742104C988.7469528416547,876.5724579969792 966.6738579707527,877.4526521116921 958.1200896628293,875.9341339601222zM1792.0,876.4045113037193C1779.8225800461628,874.9718183251606 1780.1545535776656,875.1113548379475 1773.4019146294077,868.5872857394515C1768.008930032673,863.3768480978391 1766.4048300363743,861.0182365088015 1763.9439033766482,854.6805623422322C1759.3857825619436,842.9419416802613 1758.763948185689,830.5907502355965 1760.0250085267794,776.8414746517318C1762.8452926665734,656.6345150675833 1762.7965859687504,657.9652887699763 1764.9091159332786,643.3969590766993C1766.0338984885054,635.640286568884 1767.4128395995997,621.4652865688839 1767.973429513488,611.8969590766993C1769.5038842547717,585.7746692998555 1770.3302496559618,580.4934963367607 1774.1502205786192,572.4220464958097C1778.2723378976914,563.7121730823586 1782.2582416101288,560.1161753515601 1792.5560369429309,555.8167096250188C1800.5,552.5 1800.5,552.5 1826.5,552.5160443284174C1850.2788136313015,552.530717985928 1853.0980117146496,552.7164505313672 1859.5,554.6901285248045C1863.35,555.8770504521879 1869.631414502773,557.3171381765347 1873.458698895051,557.8903234677975C1877.364453689013,558.4752607156528 1881.5828417477178,559.7941285153205 1883.073841312017,560.8964721545663C1884.5348852490704,561.9766686410261 1887.2534707462976,563.570572979219 1889.1151424169661,564.4384817949949C1892.2860085114871,565.9167352810626 1897.3446850775265,568.810334766428 1904.9567576882696,573.5C1909.9043003919708,576.5480948088192 1925.0716317409222,592.0861434805653 1926.6091524643998,595.6816189117957C1927.3574520446814,597.4315093132833 1928.4365854271937,599.1517906442484 1929.0072266477605,599.5044663139404C1930.3743060935574,600.3493678767644 1935.0128439818404,609.6396370004001 1938.7411504395934,619.0C1945.6633466128822,636.3790083166815 1945.537982198123,668.8716982393279 1938.4817334330542,686.2372329128385C1934.2614120490323,696.6235075139268 1926.5359771076664,707.5699770736195 1917.1528619493363,716.4589413617653C1913.6619360214713,719.7660217270538 1910.006597672773,724.0294723517638 1909.0298878411184,725.9332760833431C1907.3242486940976,729.2579095287995 1907.3270927632218,729.6501484023063 1909.1018368836408,735.8561050148951C1910.1181186886831,739.4098571956694 1911.809236273445,743.2585412776348 1912.8598759608897,744.4087363081514C1913.9105156483342,745.5589313386681 1915.0919035135335,747.5589049525271 1915.4851823279987,748.853122116727C1916.2386789239665,751.332757916568 1919.4816115997287,756.6744076426154 1922.980166742496,761.198608578304C1924.1279223527754,762.6828432963711 1925.9466818316414,765.8858948668523 1927.0218544733093,768.3165009571512C1928.097027114977,770.7471070474501 1929.6569532118922,773.3003333091623 1930.4883569108981,773.9903370942894C1931.319760609904,774.6803408794166 1932.0,775.8302629320607 1932.0,776.5457194334984C1932.0,777.2611759349362 1933.0300178472544,779.1185758129873 1934.288928549454,780.6732747180563C1935.5478392516538,782.2279736231253 1937.1487228056167,784.625 1937.8464475582605,786.0C1938.5441723109043,787.375 1940.3973202607249,790.75 1941.9645541134173,793.5C1949.9707056602426,807.5482651749415 1952.0562875149496,813.0203325750988 1954.6549543805631,826.7965716210417C1955.0103399073396,828.6805668476421 1954.5174056741669,833.394051681302 1953.5045790730674,837.7965716210417C1948.8565903189683,858.0002897573814 1936.081677994823,867.354414783318 1913.0,867.4550841148057C1906.9324850256885,867.4815472114832 1904.8089627318245,867.0592149740305 1901.8819660112501,865.2438974537984C1899.8920473174378,864.0097538542093 1897.701454071211,863.0 1897.0139810196351,863.0C1895.7717678575816,863.0 1890.6645965694343,859.1437828271781 1886.1286057747739,854.7808961980065C1882.698535906182,851.4817259297557 1876.5729478359485,843.0624474299215 1874.257501048316,838.4647261182031C1866.2963439741902,822.6564675388408 1861.9676137196695,814.62169490622 1860.594865446581,813.1048251385464C1859.7176894509614,812.1355565736035 1859.0,810.8219153325573 1859.0,810.1856223806662C1859.0,808.2012493729745 1851.9970598326806,795.6248045597555 1849.4507804324794,793.0363636363633C1844.8840928073557,788.3940603870471 1844.5432547563078,790.3465972711455 1844.5206357820057,821.279364217995C1844.5,849.5 1844.5,849.5 1841.5378986769563,855.0C1836.0002934419067,865.2821698082483 1832.4790710950151,868.5395922588439 1821.0,873.9992581120109C1817.502872293133,875.6625589633873 1814.1599646493567,876.2149543835242 1806.0,876.4779180646663C1800.225,876.6640236820131 1793.925,876.6309906395869 1792.0,876.4045113037193zM796.2287205263474,868.5687345745064C791.9445066955609,867.7248235803404 789.0755035152174,866.4884585647865 787.1740016652329,864.6667041751472C785.6431100021289,863.2000168788162 783.8781269981602,862.0 783.2518172119692,862.0C782.6255074257783,862.0 781.3156075263998,860.65 780.3409285466839,859.0C779.3662495669679,857.35 778.2372814854594,856.0 777.8321105877762,856.0C777.4269396900929,856.0 775.2739630769729,852.2716869171792 773.0477181141761,847.7148598159538C769.0,839.4297196319077 769.0,839.4297196319077 769.0024278817351,818.9648598159538C769.0049281195755,797.8901030968317 770.3374250008529,774.8898746943554 771.9766288607864,767.6271773086105C772.8827298393887,763.612583779784 773.7899969085267,747.237894408312 776.0944188966002,693.3077899671733C777.2136065069591,667.1155799343467 777.2136065069591,667.1155799343467 774.8399856489375,662.8077899671733C772.466364790916,658.5 772.466364790916,658.5 754.3660071139341,657.8656843662538C737.4897435618154,657.2742663400818 735.8339906610674,657.0428931266588 729.8828247184761,654.4444295503331C723.8264784906636,651.8000410001904 717.0,646.6457391841781 717.0,644.7173108122273C717.0,644.2276152209927 715.6132315294178,641.8959145373682 713.9182922875951,639.5357537375062C709.8401530644428,633.8570461512015 708.8489589550597,625.9450138971479 708.6521874298016,597.5C708.5125047406028,577.3076676478561 708.6821794874772,574.9248330211367 710.7171933702814,568.5C712.7116230293873,562.2032972401644 713.4628271092777,561.1100628508524 718.1940157704441,557.6189097750544C723.9367177928553,553.3813590737914 724.7343561448299,553.0699859385849 736.5,550.4728244740049C746.7653909695695,548.2068305196414 787.4918177797795,547.8072130778229 802.0,549.8301228060907C807.5039740421297,550.597554760346 828.1903333566934,551.4748663386716 851.1789631899914,551.9158099567654C884.7718494377189,552.560153221749 891.2278001267563,552.9192405087479 893.2693659530278,554.256925814811C894.5956577182027,555.1259455559315 897.5629731739159,556.3437768234173 899.8634002990573,556.9632175203351C902.7593467444226,557.7430149174135 905.8077335483921,559.8445244256327 909.7729975360207,563.7947366664564C915.5,569.5 915.5,569.5 915.7894093577995,601.7719555892231C916.078818715599,634.0439111784463 916.078818715599,634.0439111784463 908.5156878717697,641.389381954347C897.7680473905506,651.8277150593592 895.5943566966569,652.5410341621388 865.1158250835596,655.6314961943392C861.2390389706876,656.0245945378186 859.0542601035401,656.8548308055503 857.312110775335,658.596980133756C854.8925713835507,661.0165195255413 854.8925713835507,661.0165195255413 855.5032505844918,686.2582597627706C856.3039607876528,719.3547184637546 857.8002425013369,747.5127497075825 859.0232518140274,752.5C860.2468370484277,757.4895988155939 861.9496410635778,792.5054154424687 861.9410258587599,812.5C861.9328524552511,831.4692306834721 860.8274000156141,840.4856475311672 858.1593075117516,843.3448810591944C857.0532309534741,844.5301964766376 855.8234356395449,846.8079492874232 855.4264290363535,848.4065539720515C854.5454472309439,851.9539550225094 847.1100680068665,859.4867874929467 840.6724033728559,863.3539561472853C830.6302930713296,869.3863508725877 811.672120261441,871.610799078871 796.2287205263474,868.5687345745064zM1639.5,869.489502956548C1638.95,869.2955716879126 1630.8509286390758,868.624266712873 1621.5020636423906,867.9977141231268C1602.7453131370992,866.7406534415913 1599.2222148118028,865.7136530845506 1596.0480487784537,860.577744556656C1594.9571367569172,858.8126118270742 1593.1946060303737,856.5811035991125 1592.1313138305795,855.6188373834077C1591.068021630785,854.6565711677029 1589.8909234953019,852.2321092535954 1589.5155401961724,850.2311442409465C1589.1401568970432,848.2301792282976 1587.9718865655384,844.9050550486745 1586.91938390394,842.8419793973396C1584.1464733305509,837.4066256485916 1582.9337684870825,807.3509941640704 1582.890892535892,743.0C1582.85643237165,691.2799619266808 1585.099926972717,605.5584560859933 1586.9737087945898,587.0C1589.7352247472304,559.6491782876703 1589.9033242414737,558.604769810998 1591.956648803947,556.0408064108306C1593.0757775389084,554.6433628848738 1594.8521446824032,551.925 1595.9041313450466,550.0C1598.5543074797934,545.1505192598474 1602.6904110581515,541.6260766567292 1608.033432787849,539.6644206458568C1612.01293011753,538.2033738352796 1618.0612838623604,538.0007527746338 1657.533432787849,538.0061607415745C1695.5925078366167,538.0113751072794 1702.9427628352387,538.2432307055471 1705.3823087046467,539.5155001800301C1706.9675784922022,540.3422484633147 1709.997201744796,541.295730286668 1712.1148048215218,541.6343486763708C1714.3663044456787,541.9943779875896 1717.2141511498446,543.4437818255223 1718.9733944812087,545.1250092379152C1720.628015717311,546.7062541570618 1722.4118380074224,548.0 1722.93744401479,548.0C1723.4630500221572,548.0 1725.604645758207,550.5785658546134 1727.696545650456,553.7301463435854C1731.5,559.4602926871707 1731.5,559.4602926871707 1731.4929197405024,572.9801463435854C1731.486313174,585.5954766592373 1731.2925885640777,586.9683233669718 1728.597330143457,593.5C1725.0315188120612,602.1413704796813 1720.429627881292,607.4482915293656 1712.5550748654564,612.0C1706.5,615.5 1706.5,615.5 1686.8687512741644,615.3104927148918C1667.2375025483288,615.1209854297837 1667.2375025483288,615.1209854297837 1663.9143667352387,619.2561835651254C1661.5826340677634,622.1577130604526 1660.3848814055934,624.8992520590152 1659.8995572357062,628.4456908502335C1659.0751878953208,634.4696550136364 1660.6353806944862,655.0353806944893 1662.021940039509,656.4219400395084C1663.3929583698925,657.7929583698884 1674.5338496203972,658.8883001576492 1687.72148661919,658.9486487796153C1697.485973166614,658.9933325472529 1699.6859725780625,659.3285895689714 1704.665386922415,661.5307229030875C1713.0523463004322,665.2398343649918 1718.8036855838957,671.8668256601236 1722.3605370736936,681.9199922956517C1724.994370080329,689.3643183187675 1725.185873534629,690.8568405394636 1724.776915120522,700.752539946946C1724.2231707648664,714.1516717489545 1721.7548921419548,721.1924762790975 1715.374614497492,727.5727539235606C1712.9396291554506,730.0077392656023 1710.1198969376267,732.0 1709.1085429023278,732.0C1708.0971888670292,732.0 1706.0034467791857,732.9960486026006 1704.4557827071203,734.2134413391125C1701.877348702146,736.2416378230184 1700.2255443922377,736.4717877451402 1684.7188138201907,736.9634413391125C1667.795779609744,737.5 1667.795779609744,737.5 1664.4121047679773,741.5C1660.34138289121,746.3121903754113 1659.6149608151834,749.5598363350142 1660.2050242798784,760.3087730257791C1660.7625311204736,770.4646394584203 1663.1461296540006,775.589784570993 1668.7861438315385,778.7596498458432C1672.3804451215753,780.7797601661351 1674.610215659856,781.0637680075525 1691.1393551841834,781.6067981043841C1706.967732035307,782.1268061182012 1710.5714200804289,782.5559219132356 1717.2685157414508,784.7181760499004C1724.2141288030743,786.9606676215196 1725.6103966584744,787.8599426963743 1730.4498178320437,793.2076763834903C1738.1464021299244,801.7126776324616 1740.50687143686,809.3120087177692 1740.4803110281848,825.5C1740.4630517073188,836.0191806020853 1740.1114440890367,838.5244265970481 1737.6310159518748,845.8015654588856C1734.467219226935,855.0835872812775 1731.0018943523332,859.1219502385082 1722.4286099877145,863.5178937478763C1717.1625985796074,866.2180361536573 1717.8556618728198,866.1474090371865 1669.0,868.9625749154227C1651.4922935897457,869.9714057408167 1641.3790171987541,870.1520487549884 1639.5,869.489502956548zM1290.4378460959106,863.9480807039256C1286.9654345975966,862.6120398015167 1283.5731618774935,860.1071775496795 1279.6359661615143,855.9719468464677C1273.6906462227885,849.7275863105518 1270.7568963145059,843.3856563162724 1267.621453742191,830.0C1266.9128808073158,826.975 1265.585020447046,823.0634002573638 1264.670652941592,821.307556127475C1263.7562854361377,819.5517119975863 1262.6035753634908,815.2767119975863 1262.1090750023768,811.807556127475C1261.614574641263,808.3384002573638 1259.728015974042,802.4041392359825 1257.9167224085525,798.6203094132945C1253.962782628767,790.360447212646 1251.5343190610738,789.0 1240.7440083899878,789.0C1227.4066944135093,789.0 1220.866305594582,794.8285419494104 1217.3917211015369,809.8106566511042C1216.5542791289722,813.4216356657422 1215.4881539069872,817.087876081355 1215.02255394157,817.9578575746884C1214.556953976153,818.8278390680217 1213.4477721945434,823.0652598913662 1212.5577055379936,827.3743482932316C1211.6676388814437,831.6834366950969 1210.062327840406,836.8495172207921 1208.9903476690208,838.8545272392207C1207.9183674976357,840.8595372576493 1205.7375958027171,845.425 1204.1441883469795,849.0C1200.7124665983595,856.699477749486 1198.434192432874,858.9962372929476 1190.7294450925447,862.523587309847C1185.7943035008352,864.7829698707517 1183.9960056327736,865.094890055578 1178.2323907173463,864.6912390541592C1154.4338293860699,863.0245223746696 1136.4264006755911,852.5830916996963 1131.9472249851983,837.8532403014198C1130.8846546096295,834.3589581356389 1130.0118411070455,829.6034561059151 1130.0076394239004,827.2854580131448C1129.9980605419105,822.0009495397609 1133.4677536936858,803.8630284122275 1135.0558941066452,800.8955609064014C1135.7088728747665,799.6754589175705 1136.8622259945498,795.9373250818356 1137.6189010394971,792.5885968269907C1139.9709379927754,782.1794619487133 1142.6508161252443,772.5209731299905 1143.764122794754,770.4407405895729C1144.350812412559,769.3445010111101 1145.3556300154046,765.5534864795045 1145.9970508010776,762.0162638526716C1146.6384715867507,758.4790412258387 1147.834292906451,754.2873355663079 1148.6544315115234,752.7013623870475C1149.4745701165955,751.1153892077873 1150.8051154599962,746.5962754610042 1151.6111989413027,742.6588873941962C1152.4172824226093,738.7214993273883 1153.9102856495763,733.25 1154.9289838901182,730.5C1158.2577692607044,721.5138651420042 1162.0346737592793,708.5500107992011 1162.017152753578,706.1705554144252C1162.00771873911,704.889360892359 1163.0865323205455,701.064360892359 1164.4145162678792,697.6705554144252C1165.7425002152127,694.2767499364913 1167.1238577598037,689.925 1167.4841997003039,688.0C1167.844541640804,686.075 1169.209621819952,681.125 1170.5177112095216,677.0C1171.825800599091,672.875 1173.1925512472167,667.25 1173.5549348720228,664.5C1173.9173184968288,661.75 1175.1128590268845,657.9318594846974 1176.21169160548,656.0152432993276C1178.1060987805208,652.7109624433621 1180.227795137136,645.9916941763291 1183.6369355532308,632.5C1184.4707940165254,629.2 1186.224270712159,623.575 1187.5335504324166,620.0C1188.8428301526742,616.425 1190.2125928756125,611.925 1190.5774675945013,610.0C1190.9423423133903,608.075 1191.8012935502836,605.375 1192.4862481209307,604.0C1193.171202691578,602.625 1194.3102486737228,599.025 1195.0174614145858,596.0C1195.7246741554488,592.975 1196.86588712765,589.6 1197.5534902416994,588.5C1198.241093355749,587.4 1199.1312999681993,584.9341709601489 1199.5317271582558,583.020379911442C1200.4382832687904,578.6876097785088 1206.184873041735,566.6121287112326 1209.44916767957,562.18056534615C1212.5087458987055,558.0269222921897 1218.8074400899943,553.331526840311 1226.1759358013849,549.7115061128219C1230.954739392823,547.3637585221076 1233.1734299600064,546.9120451298453 1240.2130477040107,546.8536260961639C1247.908738823576,546.789762566202 1249.1370357763342,547.0710644021673 1255.6454126850658,550.387911997231C1266.0401378982651,555.6853494087753 1273.009844687227,562.7572376701972 1277.4380038819231,572.5C1279.437837173254,576.9 1281.9009685659664,582.075 1282.911629199062,584.0C1283.9222898321575,585.925 1285.0785834046187,589.0180607849778 1285.4811704711979,590.8734684110618C1285.8837575377768,592.7288760371458 1287.0128335123234,595.6538760371458 1287.9902281924124,597.3734684110618C1288.9676228725016,599.0930607849779 1290.0646494125465,602.5042204753977 1290.428064948068,604.9538232786615C1290.7914804835893,607.4034260819252 1291.9212554414314,610.7784260819252 1292.9386759654947,612.4538232786615C1293.956096489558,614.1292204753977 1295.115038076594,617.525 1295.5141017144633,620.0C1295.913165352333,622.475 1297.0499807890374,626.0994677096685 1298.0403582404729,628.0543726881522C1299.0307356919086,630.009277666636 1300.3635453423165,634.4901639198528 1301.0021574636014,638.0118976953006C1301.6407695848864,641.5336314707486 1302.8270266615546,645.6986130654853 1303.6382843006418,647.2674123502712C1304.4495419397288,648.8362116350571 1305.9261879546102,653.8396166921677 1306.9197198892668,658.3860902549616C1307.9132518239235,662.9325638177553 1309.413981007097,667.7431145133501 1310.2546736296522,669.0762029118387C1311.0953662522077,670.4092913103274 1312.0904150309239,673.6765628182472 1312.4658931379104,676.3368062627716C1312.841371244897,678.9970497072959 1314.240149968998,683.2265723995095 1315.5742903025794,685.7357455788017C1316.9084306361608,688.2449187580938 1318.0,691.523415875073 1318.0,693.0212947276443C1318.0,694.5191735802156 1319.074772449633,699.0646508880021 1320.388383221407,703.1223554116143C1321.7019939931806,707.1800599352264 1323.105920185336,712.525 1323.5082192039745,715.0C1323.910518222613,717.475 1325.032271694239,721.075 1326.0010046964767,723.0C1326.9697376987147,724.925 1328.085171723904,728.975 1328.4797469746754,732.0C1328.8743222254468,735.025 1329.988473989387,739.3242919364787 1330.9556397834317,741.5539820810639C1331.922805577476,743.783672225649 1333.0463047971346,747.8231107928037 1333.4523047160064,750.5305122302966C1333.858304634878,753.2379136677895 1335.0217257944237,757.0824241424834 1336.037685070552,759.0738688407275C1337.0536443466804,761.0653135389715 1338.3984403587413,766.7008749718168 1339.0261206529094,771.5973386914948C1339.6538009470773,776.4938024111726 1340.989238373448,782.1237257641178 1341.9937593781772,784.1082794758173C1342.9982803829064,786.0928331875168 1344.358306530288,791.2667239680436 1345.0160397056916,795.6058145436547C1345.6737728810951,799.9449051192657 1347.173194141177,805.296179355148 1348.3480869503176,807.4975350678374C1350.2467835412046,811.0550567025731 1350.4851308203447,813.1159272570723 1350.4921278471047,826.0359919269706C1350.4996951934327,840.0091561421519 1350.40320101397,840.6984740377333 1348.0,843.8388100103812C1338.8648235534756,855.7760233540617 1335.5391566449962,857.9557612887874 1318.8385462079918,862.9520672341051C1306.689998960838,866.5865367085524 1298.0800546268176,866.8884877343104 1290.4378460959106,863.9480807039256zM1463.0158931947058,861.8741350444483C1454.445143670936,860.8819461099702 1440.9992875843348,856.4875858796942 1431.69506988768,851.6378972449786C1425.998441019893,848.6686120049923 1422.72606196102,846.5245451682225 1413.1696209221684,839.5C1408.6737415679306,836.1952647469566 1396.0166754136408,822.9329268404173 1394.429547856792,819.8637605779579C1393.6150483747015,818.288692260081 1392.5227049372095,817.0 1392.0021179956984,817.0C1391.4815310541874,817.0 1390.0937673696935,814.7641683646957 1388.9181986968233,812.0314852548793C1387.7426300239529,809.2988021450628 1386.1458051899958,806.5359707036239 1385.3696990658073,805.8918598294593C1383.7914784012878,804.5820530128836 1377.9186092616642,792.5142063329396 1376.0610093647554,786.763928075361C1375.3972032703114,784.7090885168096 1374.4671941822733,782.7887418839912 1373.9943225024485,782.4964911135422C1373.521450822624,782.2042403430933 1372.6135616981753,779.3854727091808 1371.9767911147849,776.2325630381812C1371.3400205313944,773.0796533671815 1369.9480932882782,768.9920289346757 1368.8836194634155,767.148953188168C1367.8191456385528,765.3058774416604 1366.6931343503554,761.0308774416604 1366.3813721563106,757.648953188168C1366.069609962266,754.2670289346756 1364.956262147714,748.9107082281272 1363.907265901751,745.7460182847271C1362.226683960802,740.675913612714 1362.0,736.891292717915 1362.0,713.9031020141165C1362.0,691.9783361985534 1362.3119383989551,686.2727581651944 1363.9543253369882,678.1570837293893C1365.0292042723318,672.8456876782252 1366.3959461539314,665.4117560707231 1366.9915295183207,661.637235712718C1367.58711288271,657.862715354713 1368.9576664810654,653.0431424849963 1370.0372041813325,650.9270737800144C1371.1167418815996,648.8110050750325 1372.0043960120668,645.8242490043094 1372.009768915704,644.2898380672964C1372.0151418193411,642.7554271302834 1373.0908188733777,639.1992750469607 1374.4001623691183,636.3872778821349C1375.709505864859,633.575280717309 1377.1137530643134,629.750280717309 1377.5207117012392,627.8872778821349C1377.9276703381647,626.0242750469607 1379.1019932841282,623.426813588689 1380.1303182478246,622.1151413081977C1381.1586432115212,620.8034690277066 1382.0125189876103,619.0034690277066 1382.0278199724671,618.1151413081977C1382.043120957324,617.226813588689 1383.393120957324,614.7323373099609 1385.0278199724671,612.5718606888022C1386.6625189876102,610.4113840676434 1388.006880814539,608.1613840676434 1388.0152906989756,607.5718606888022C1388.023700583412,606.9823373099609 1389.6209228838427,604.25 1391.5646735888215,601.5C1393.5084242938003,598.75 1396.392251582269,594.5534714051639 1397.9731786743073,592.1743809003642C1401.613359686896,586.696379968876 1407.7922748156059,579.2156964289877 1410.8767530269074,576.5522928388671C1412.1839671917064,575.4235317774901 1414.2089671917063,573.5914437437134 1415.3767530269074,572.4809860971409C1420.1116461093864,567.9785353303552 1428.9190875483353,561.9269736531446 1436.5,557.9672782551193C1438.7,556.818164618575 1442.075,555.0061343685359 1444.0,553.9405443661434C1445.925,552.8749543637509 1448.6659811021912,552.0024086985717 1450.0910691159802,552.0015539990785C1451.5161571297692,552.0006992995853 1454.8911571297692,551.3143518080407 1457.5910691159802,550.4763373512014C1465.8748174376037,547.9051791483445 1477.5504740481035,547.4904832113862 1485.0,549.5028270251312C1488.575,550.4685433915943 1493.525,551.5819455516352 1496.0,551.9770540474443C1500.4105645561237,552.6811556746925 1509.518682951773,557.0241140689945 1514.8235465477755,560.9525499664749C1524.294227910778,567.9659187301977 1526.6283041690692,570.0633656982335 1530.3476652341456,574.9028292491205C1540.1019236819313,587.5946269525583 1540.7840573894262,588.9340151641937 1542.0555985940991,597.8916769671551C1543.6318915247984,608.9962317576028 1542.2121880410202,622.5346592649063 1539.2216146222008,624.9168177791619C1538.1284705467124,625.7875680006229 1536.7305153254124,627.4845917098347 1536.1150474637561,628.6879815774104C1532.147096479471,636.4462940856824 1517.8931333096903,646.4287245329805 1511.090656296247,646.2132299129216C1508.7237100657308,646.1382477883756 1501.9682712359302,643.3141249552976 1494.598159948588,639.3185134210172C1490.2494156637051,636.9608973489023 1480.0518590311974,636.4047022627808 1476.3426278116324,638.3228202726466C1472.243602795667,640.4425084885072 1462.0,650.011420286521 1462.0,651.7207763647457C1462.0,652.4768731535437 1460.9060894090426,654.1092999191251 1459.5690875756504,655.3483913993709C1458.2320857422583,656.5874828796167 1456.830251976191,658.9284958748589 1456.4539014288343,660.5506424999089C1456.0775508814777,662.172789124959 1454.6711816219515,665.1356665994255 1453.328636407665,667.13481466539C1451.5760397787155,669.7445592936498 1450.642868928029,672.9877247675992 1450.0196887547945,678.63481466539C1449.5423127600022,682.9606665994255 1448.3842599293546,689.875 1447.446238020022,694.0C1445.1286794380278,704.1915840724108 1445.0160521509904,720.0088656470076 1447.214821084599,726.5C1448.1463400208286,729.25 1449.589964193744,735.1877916930255 1450.422874802189,739.6950926511677C1451.255785410634,744.2023936093098 1452.8513747381414,749.5957295043811 1453.968628863317,751.6802835291038C1455.0858829884928,753.7648375538265 1456.0,755.8448110273183 1456.0,756.3024468035298C1456.0,757.6990653414795 1462.4215704395997,764.962743234695 1463.6732747180567,764.9819741033339C1464.3185758129878,764.9918883465002 1466.2169439839506,766.1531109887319 1467.8918706535294,767.5624688638486C1472.110516234814,771.1122250891793 1481.8292925616759,771.4358072205492 1487.0,768.1986651309995C1488.925,766.9935111754311 1491.264315138177,766.0057939936783 1492.1984780848377,766.0037380604376C1493.1326410314985,766.0016821271969 1495.09531281046,764.8894005476984 1496.5599709269743,763.5320012171076C1498.0246290434886,762.1746018865167 1500.1853139053117,760.772372089512 1501.3614928421366,760.4159350015415C1502.5376717789616,760.0594979135709 1504.9553288578795,758.6776659867204 1506.734064128621,757.3451973863181C1508.5127993993624,756.0127287859158 1511.848948935958,754.2589350184044 1514.1477297655003,753.4478779029596C1516.4465105950426,752.6368207875148 1518.9352534963673,751.4686979690008 1519.678269546222,750.8520494173731C1520.4212855960768,750.2354008657453 1524.0601360594812,749.5216177974067 1527.7646039093427,749.2658648210653C1533.8539624539787,748.8454612341211 1535.0637577001041,749.0994733286294 1540.377570789416,751.9141196769449C1548.46044768679,756.1954972039106 1555.9884091247357,762.7193762182019 1557.7379081876627,766.9589285228767C1558.5416028780867,768.9065178352945 1559.8809543166178,771.2674468915466 1560.714244717732,772.20543753677C1562.5643152557298,774.287963454895 1564.9170518956673,784.8019524913303 1564.964870760017,791.2007788970994C1565.0179961257122,798.3096886851293 1563.140553188344,805.6406090776223 1558.9979585902138,814.5C1555.7819122159972,821.3778663658139 1553.5910369437877,824.183200451279 1543.378604848635,834.5C1532.5286326153612,845.4608551221608 1524.1719859531418,852.0 1521.0146231169497,852.0C1520.3403719024338,852.0 1518.5280125963923,853.0608084569656 1516.987157992413,854.3573521265901C1515.4463033884338,855.6538957962147 1512.296605461643,857.0167673294894 1509.9878292662113,857.3859555338674C1507.6790530707797,857.7551437382455 1504.506348516875,858.7210369081031 1502.937374701979,859.5323848002178C1497.3359676250614,862.428984973902 1477.738843670697,863.5785307340709 1463.0158931947058,861.8741350444483zM615.5,835.0523858013313C601.5510025419524,831.453985430239 596.3532860600549,828.7992756794258 585.1641299043893,819.558479886552C577.845446042354,813.5141936060869 565.0625628782374,797.8934880640658 565.0216053011649,794.9442796579896C565.0097223855242,794.0886334698838 563.8985696369474,791.8956544689295 562.5523769709941,790.0709929892021C561.206184305041,788.2463315094747 559.7971699403923,785.3530058761702 559.4212339384414,783.6413804707477C559.0452979364907,781.9297550653253 558.1370856652512,779.6126596740344 557.4029844467983,778.4922796012127C556.6688832283454,777.3718995283908 555.4040073392729,773.3152993156 554.5921491377484,769.4776124616774C553.7802909362239,765.6399256077548 552.3024335705159,760.925 551.3080216583974,759.0C549.7451073494343,755.9744831009273 549.5004080839321,752.8564512948338 549.5030102099731,736.0C549.50559861892,719.2324074018752 549.7542025844095,716.0450057786734 551.2771882932706,713.2529046694209C552.251330623599,711.4670022376024 553.476407391853,706.6296818725939 553.9995811116128,702.5033038582908C554.5769904162638,697.9491587053967 555.9429308306723,693.1370970309014 557.4754030283153,690.2583557944487C558.8639313627419,687.6500123736384 560.0,684.916248779521 560.0,684.1833255852987C560.0,682.9156238325074 564.6162863094993,673.8743466916939 570.3570175568769,663.8984775915106C571.8134176725813,661.3676402668415 577.6558407808706,654.5435718208485 583.3401800197421,648.7338810448596C592.6001102182012,639.2697500703387 594.6771510295628,637.6867073357993 603.304757628754,633.5176275368829C612.4718816487172,629.0878391446566 613.4518417442483,628.8376332258806 623.7170864926361,628.3058995073048C635.5433882381592,627.6933039425344 648.0859158378643,629.1710491867641 651.8185769933699,631.6167827095234C653.0958601613785,632.4536907844627 655.939214286533,633.7729124521859 658.1371417159355,634.5483864155751C663.2375992310966,636.3479326387438 665.7072070277941,638.1801114596956 677.1987971701642,648.6900495016005C680.7302865755506,651.9198666449571 683.9070065191698,655.8172799723424 685.3985036666595,658.75C686.3075748108515,660.5375 687.4210702484105,662.0 687.8729379723461,662.0C688.8992113553625,662.0 696.0,675.4302590489643 696.0,677.37132758075C696.0,678.155397102946 697.3210173921079,681.3082028703279 698.9355942046843,684.3775626193765C700.5501710172608,687.4469223684251 702.1750394466649,692.1051179491308 702.5464129366935,694.729108354278C702.917786426722,697.353098759425 704.0978732287087,701.525 705.1688280522196,704.0C710.084317310534,715.3598030908965 709.7383338531532,755.338938233986 704.6279335863155,766.5015228018042C703.3386637039326,769.3176591788763 701.9721266327535,773.7002012121485 701.5911845392509,776.2405050979648C701.2102424457482,778.7808089837813 700.0022293120326,781.9987424975953 698.9067109087719,783.3914684619963C697.811192505511,784.7841944263972 696.2575956327471,788.136944174679 695.454273413741,790.8420234581781C694.6509511947348,793.5471027416771 693.320107859777,796.3193709287857 692.4968437805012,797.0026194295303C691.6735797012255,797.685867930275 691.0,798.792326262222 691.0,799.4614157227458C691.0,801.4909237413549 685.8995949820026,807.8412962592793 678.2255153823315,815.3665714428184C668.0216282435788,825.3725998744472 664.6137913263904,827.9941777230114 660.2799373573118,829.1717302497975C658.2009718107903,829.7366064892542 655.8167351586768,830.8044657981861 654.9816336859484,831.5447509363129C652.6084810513936,833.6484589086239 640.3517020046787,836.2051891835515 631.0,836.547253523118C625.1617608378206,836.760803251525 620.3079616629714,836.2926879151045 615.5,835.0523858013313zM637.8557199969484,754.3580744305998C641.4057169385152,752.0338243490506 642.1980934666576,750.7638384044058 644.4454629590314,743.7963267722162C645.8504583315641,739.4404246232751 646.997916238024,734.4417911295053 646.9953694178312,732.6882523416164C646.9881456725744,727.714553163056 642.7231708211756,718.4566375896229 638.0976394210642,713.3740861447736C634.2431788255707,709.1387902243378 633.5808514534497,708.7937101680575 630.1952838321499,709.2568694538234C623.5669356639014,710.1636541785173 618.6902179493742,714.336072941436 615.0331250486566,722.2292987593269C612.0656382011579,728.6341247877641 611.8056079593491,729.9363113031269 612.3024379079341,735.9041080722297C613.0758825542733,745.1945312334136 616.4921487414251,751.6626270410873 622.1340439342885,754.5185152167678C628.2671622561041,757.6230571298253 632.9417357352306,757.5753527857718 637.8557199969484,754.3580744305998zM1249.5442607995008,710.3128820576421C1251.6835644281027,708.1735784290402 1251.0482277011452,701.4970634085741 1247.4209684213606,688.0C1244.1105949863547,675.682071582986 1242.9281640749978,673.5802055177055 1239.0882283296282,673.1878841618616C1234.8956616540938,672.7595349519574 1231.4316564185624,676.3710349290369 1230.5501209992854,682.0895376904259C1230.176179008361,684.5152919606917 1228.6900183247328,691.4000070826521 1227.247541702334,697.3889046281158C1224.6248569343363,708.2778092562315 1224.6248569343363,708.2778092562315 1226.923212429478,710.1389046281158C1230.1420314945412,712.7453461806019 1246.9822791163508,712.8748637407921 1249.5442607995008,710.3128820576421zM447.7146832389494,680.579469978477C449.7966074575273,679.2549656854148 452.4,677.2178157504086 453.5,676.0524701229076C454.6,674.8871244954067 457.1393386310997,672.261086415593 459.14297473577705,670.2168299455439C464.2348502551155,665.0217251803658 466.0,660.997525062409 466.0,654.5841381826568C466.0,649.9512783430097 465.5600534703623,648.5957707127192 463.25,646.1111858300876C461.7375,644.4844119552859 459.71964552274056,642.0312210298694 458.76587893942343,640.6596504402731C457.8121123561063,639.2880798506769 455.6957443572311,637.8724479386485 454.0628389419229,637.5138017468767C452.4299335266147,637.1551555551049 449.954786490249,635.9656752085435 448.56251219444346,634.8705120878517C445.62946700460446,632.563378405278 440.252430118592,631.4688439902649 436.4901939883464,632.413105150597C433.87181586366285,633.0702762266827 433.87181586366285,633.0702762266827 434.1859079318314,657.2851381133414C434.3586585693241,670.6033121510036 434.8940175716077,682.1109761755573 435.3755946035727,682.8577248345716C436.60851190078364,684.7695256000927 442.97673898313263,683.5937139414036 447.7146832389494,680.579469978477zM1026.5902776549567,674.9280724379732C1039.9261096726789,667.9959853540242 1044.1432746881885,663.167350959097 1044.80080375815,654.0771044610959C1045.162748386816,649.0732711045085 1044.8320856675932,647.5696156786739 1042.4914753962853,643.5756662296747C1040.2261601899775,639.7101980947396 1038.54289772189,638.3239710972979 1032.633337218419,635.4571359673109C1024.9115673248596,631.7111651487485 1018.1587615773926,630.898851427481 1016.0330015417844,633.4602355747838C1014.648240586053,635.1287704519108 1014.89973397,674.5725379779202 1016.3090169943749,676.75C1017.5782697324595,678.7111033311254 1020.2095936463535,678.2448101671242 1026.5902776549567,674.9280724379732zM1855.0,675.197393756818C1861.6980800497172,671.8607271985994 1869.0160080927392,664.9631178860964 1871.876912362269,659.2898380672964C1874.9257167295843,653.2439453498158 1874.6237753038822,648.7420406158346 1870.7706527350147,642.7956606242128C1868.137834036857,638.732529968887 1866.357433848758,637.2751367200449 1861.132337325252,634.9059648680036C1853.989547480476,631.6672693589043 1846.083271944949,630.9898108700276 1844.0480698460965,633.4420793788138C1842.6765257670488,635.0946888937892 1842.9145330126166,674.595403756265 1844.3090169943748,676.75C1845.563128698785,678.6877091475363 1848.9935482368162,678.1895238273764 1855.0,675.197393756818z"/></svg>