<svg version="1.1" xmlns="http://www.w3.org/2000/svg" xmlns:xlink="http://www.w3.org/1999/xlink" width="8180" height="7160" viewBox="0 0 8180 7160"><path stroke="none" fill="#000000" fill-rule="evenodd" d="M0.0,7135.256801462316C0.0,7088.925627000871 92.24992879464203,7059.784875228846 103.69713952746568,7102.5C117.7992719245759,7155.1219320095715 113.66800309754436,7160.0 55.0,7160.0C3.1522204755203376,7160.0 0.0,7158.581890598903 0.0,7135.256801462316zM2084.8852360892315,6462.119490693771C2012.6972858070437,6393.50936585901 1913.853745374198,6339.627019249239 1799.7529404070183,6306.685993286554C1753.424428930629,6293.310901850559 1711.0916167215257,6275.348336082375 1705.6800243867888,6266.769180468363C1677.4122698691556,6221.955482417092 1830.619591501277,6143.686913822611 2099.640395770906,6065.507817612452C2774.3105518668553,5869.44453103227 3795.4082129200387,5819.1580656578735 4940.0,5925.627323966444C5030.75,5934.068835866639 5224.25,5952.03153888222 5370.0,5965.544441778846C5924.831314735743,6016.984453305641 6175.908430679088,6016.561739241959 6358.072340282634,5963.880920702448C6461.881588972803,5933.85984679779 6524.444362403194,5895.891536623522 6584.508260481844,5826.460714063358C6629.026400561168,5775.0 6629.026400561168,5775.0 6651.9138377443005,5797.678415241515C6670.842206709187,5816.433918874163 6674.594817911035,5830.272316547325 6673.6077435879,5877.678415241515C6671.395161654246,5983.941819178937 6606.953487696584,6082.1875455628815 6503.1889693360445,6137.493457861829C6327.220150648089,6231.283861435914 6058.951780126449,6246.717105586251 5420.0,6199.8083695758305C4965.4710942400625,6166.439065173586 4767.244434772064,6157.663268374579 4360.0,6152.880551532021C3744.689954275851,6145.654292637342 3384.0384507168446,6167.605041142729 3000.75899496577,6235.6096048294075C2709.588021631781,6287.271531141118 2463.535390116569,6362.170946888774 2270.045000758823,6458.041898715901C2206.8197511761755,6489.368854422155 2152.819751176175,6515.9573318351295 2150.045000758823,6517.127404078065C2147.2702503414703,6518.297476321002 2117.948356240154,6493.543915298069 2084.8852360892315,6462.119490693771zM810.0,6395.739424405963C735.827684700521,6379.816731446646 699.7310882168409,6359.12409978247 652.4727699737903,6305.435815048102C603.813526904919,6250.155995664676 584.9301175621716,6189.240476464033 594.2223983557669,6117.52739415137C614.0690388746499,5964.361148234491 747.1836107329774,5839.202367644624 1033.0586493552487,5704.918847341187C1137.5253095833339,5655.847928252284 1159.1979362356938,5641.864052154778 1163.8169635624008,5620.549375475968C1207.6582778416366,5418.241968972236 1218.2602074739693,5364.92687414063 1215.2476307449622,5361.914297411633C1213.2828165908204,5359.949483257498 1195.0642980130003,5384.308992783062 1174.762033905362,5416.046540801776C1028.9686431463547,5643.958300568711 794.7580641624069,5716.789622236958 651.2078113164548,5578.853644398729C517.4277005322697,5450.305696690648 524.3634965467488,5224.678520354938 675.3689945307593,4792.870386789513C734.6279907135907,4623.416182271883 780.0,4463.085202315226 780.0,4423.136008599682C780.0,4409.197559148772 767.2815042670425,4385.743042728589 750.7692307692383,4369.230769230777C713.7423869857065,4332.2039254472265 667.327815012989,4330.6938232914135 602.1675626981144,4364.396000972148C445.95933676666857,4445.190000358367 379.5074529938359,4631.981830132654 449.3771770005821,4793.8796227446455C473.2975194916676,4849.306357326504 470.1580753603291,4871.183969087454 435.63244387712166,4889.661526308809C384.1396998307696,4917.219606602397 292.3962529178438,4874.878614685421 253.55138985304322,4805.628358861056C171.9383065061242,4660.133524937682 263.5274497245169,4426.427794344597 453.41185660447945,4295.6493945700195C567.2842514192794,4217.2224725437545 733.00017401166,4181.966652205384 840.480552164326,4213.301095289013C977.1156756200763,4253.135208014848 1031.9289260938554,4323.853047328859 1038.4055654214342,4468.655944030112C1043.052050126245,4572.5407538371965 1033.5556797788477,4622.473811692264 959.77051585299,4882.128495741761C890.8149509251281,5124.787513790293 870.0,5226.57224357757 870.0,5321.104678382209C870.0,5400.78372688263 888.9140163919383,5430.0 940.496599268842,5430.0C1003.6738713358293,5430.0 1055.7287331227847,5382.754944316388 1133.3125602388504,5255.0C1220.5680324201396,5111.319049933637 1318.0669564936688,4814.46596514663 1374.7171905645264,4520.0C1397.3106326419902,4402.56006640673 1407.6868491496593,4379.945963209762 1446.4015251950843,4363.769938710977C1511.4851666947243,4336.576256962663 1619.0831565956908,4351.446016063774 1658.1524351347457,4393.0333573226235C1679.819729044154,4416.097134788224 1679.819729044154,4416.097134788224 1655.3388052656164,4535.548567394112C1641.8742971874203,4601.24685532735 1603.4459338826014,4812.450255045491 1569.9424423660184,5004.889455656646C1536.4389508494355,5197.3286562678 1504.9989102854922,5372.70663903845 1500.0756855572558,5394.618306258086C1495.1524608290197,5416.529973477723 1493.2444332583916,5436.577766591725 1495.8356242891934,5439.1689576225335C1501.5943685488237,5444.9277018821795 1623.6713091822219,5325.817844776816 1651.7810266093331,5287.013812758849C1662.9313137280972,5271.621409776216 1678.7187913919852,5226.621409776216 1686.864310306862,5187.013812758849C1708.5440053520792,5081.596265542539 1737.0612227304614,5002.751424891713 1777.8563849212185,4935.437527167409C1818.8900321912606,4867.730118071323 1887.966108203502,4797.411008061432 1930.9209715967595,4779.618521074061C1953.8764824873385,4770.11003713198 1960.0,4761.263870926215 1960.0,4737.610325976168C1960.0,4716.289171474502 1970.8158840876913,4696.8802810357665 1997.5,4670.3173164032505C2055.200687572321,4612.87860161531 2114.148992533045,4609.556366055467 2190.0,4659.468313269133C2198.25,4664.897029093272 2231.315883840999,4674.398064156732 2263.4797418688872,4680.5817245212675C2312.2276523678597,4689.953750779592 2329.8989645811885,4699.577563884858 2369.6687763310674,4738.412371682938C2401.4703865289325,4769.466313488617 2424.2290211089235,4803.616387487672 2437.9250017956074,4840.833065785542C2464.523761231414,4913.111020587807 2481.0299773217876,5033.347218502421 2473.3063381317875,5098.561265568497C2466.1432139099634,5159.042640818001 2470.5640935023557,5160.810171548157 2552.124873928897,5130.074040620561C2644.1587042471388,5095.391147155886 2657.1388724775143,5078.660069672177 2680.191271314774,4965.0C2718.1392633591804,4777.897067670234 2739.593384318812,4712.120017378387 2771.4013415288764,4685.355385947302C2849.1748087537526,4619.913327796748 3020.0,4649.13915870375 3020.0,4727.887182945036C3020.0000000000005,4741.307679271002 3004.391552658306,4820.398266150809 2985.314561462902,4903.644042677941C2922.7458065174783,5176.673711686877 2907.8835417746786,5273.044186795168 2911.5901367530178,5381.690824869656C2915.250585988178,5488.984852290127 2925.7283484933537,5510.0 2975.562709433012,5510.0C3046.2815949552514,5510.0 3131.559034515528,5342.068350472779 3188.843081037475,5090.0C3199.467299309535,5043.25 3223.0215878169893,4937.884166778055 3241.1859443873736,4855.853703951233C3275.241257006195,4702.05948366001 3296.075569802788,4655.171006773525 3340.300153192247,4632.793105118837C3373.8757189738917,4615.803669572425 3472.883835570988,4616.758276236167 3515.2988240565664,4634.480389990976C3578.2875132410463,4660.798744771933 3578.545462612232,4672.95733716986 3521.3957453957764,4921.86229406442C3437.765817044396,5286.096882182417 3418.2062561202,5418.636419419946 3439.79632151666,5474.79647912623C3453.9461366428395,5511.602966171396 3466.0438981744464,5519.651561156133 3507.5111107449093,5519.84687225483C3532.253867621006,5519.9634109544595 3549.028870530973,5510.719263016363 3577.715685171104,5481.159458880893C3646.220303847592,5410.5701259119005 3744.3748434981107,5206.696328109463 3819.9951735546983,4977.928129975835C3860.6296054287554,4855.0 3860.6296054287554,4855.0 3837.814802714378,4840.198074142425C3755.7963201932816,4786.985626398444 3724.2450491130103,4719.394371071387 3732.5561368286976,4614.705879448785C3742.2920110394666,4492.070428997577 3832.4205425860987,4390.0 3930.972182920699,4390.0C4006.297759841812,4390.0 4057.7608728018286,4440.57595895846 4073.4279259807545,4530.0C4079.100882761308,4562.379970513758 4062.95935756193,4661.70720425379 4045.3952002916412,4702.5C4038.4487909578966,4718.633051689325 4047.584854373048,4720.0 4162.357274509518,4720.0C4314.7495302716825,4720.0 4360.235842371209,4737.44662902007 4398.143251346245,4810.437546508591C4430.772458852801,4873.265259011845 4422.166949278235,4919.261113464425 4349.364510780327,5071.156546587463C4280.182836241743,5215.497596626842 4260.286736908144,5280.6714530220315 4260.118688753865,5363.500000000011C4260.010611939988,5416.769525594027 4263.0399338428,5425.039933842819 4294.00000000001,5456.000000000011C4349.937626242667,5511.937626242632 4407.75569472042,5500.606115240408 4486.350559134581,5418.302053069185C4558.889988343361,5342.339205674938 4614.155907700218,5241.980848044723 4700.730912915694,5029.0049878248055C4763.207867223758,4875.3107078815 4763.336257451286,4874.788160578314 4764.368614450004,4770.0C4765.523362135955,4652.788719316158 4781.378065050066,4603.294507550344 4838.674045538226,4538.037990900656C4899.461262825654,4468.805175209071 5004.05680070153,4440.899446350123 5071.685158575288,4475.871429366735C5100.581032108703,4490.814066305327 5102.112577331586,4494.495992346138 5097.856573296604,4538.789070940419C5094.73667819976,4571.258438355167 5081.974774359694,4602.705776177413 5056.668013990157,4640.284157814134C4995.155872273161,4731.624444084671 5012.177805223397,4801.2765736253195 5127.470208737572,4930.0C5179.5410786132725,4988.136881359111 5295.4219857067965,5141.265957120388 5301.779429820126,5160.338289460383C5304.349141242763,5168.047423728293 5322.276312976791,5165.253852939321 5358.45693654521,5151.506298027043C5443.331381080276,5119.256547419831 5456.68430282456,5106.967370118097 5464.6631030731705,5053.760917952577C5496.228982933754,4843.264549509558 5635.255278404276,4625.346210343548 5781.7753923987175,4556.699673638501C5970.994828628308,4468.047961458318 6149.3418067153,4511.813944262463 6198.618968436271,4658.992232652198C6216.756323316937,4713.163876351344 6212.525570614188,4811.647534186814 6189.485129515249,4871.610159111905C6133.786936728493,5016.564408413652 6009.260840624391,5114.018267343028 5815.0,5164.681427903779C5765.0,5177.721410742808 5765.0,5177.721410742808 5767.982301813863,5231.360705371404C5769.622567811488,5260.862317417132 5781.83065262259,5308.804202418438 5795.111379171867,5337.89822759653C5815.569643781881,5382.716051640663 5826.452657298777,5393.9789257621405 5866.356846334473,5411.630445895482C5994.3414308369565,5468.244112898769 6146.2383112053285,5389.025477309566 6277.0373372330705,5197.448639967723C6326.501623606604,5125.0 6326.501623606604,5125.0 6338.422113906381,4950.0C6364.293961340742,4570.185647808654 6435.722957815451,4245.700856959228 6544.244123403413,4015.0C6612.421714954755,3870.0639526299415 6695.442140732165,3800.5077230786037 6810.0,3792.344230843504C6893.021939861654,3786.4280155289443 6945.907090126771,3817.5468089894594 6985.0,3895.318105897086C7012.78362313662,3950.5907476915877 7014.963836200278,3962.757319021828 7014.510501120277,4060.0C7013.344521157431,4310.1086338915065 6881.0899052635805,4643.996069145583 6682.242563447367,4898.837183692799C6616.826113074787,4982.674367385599 6616.826113074787,4982.674367385599 6612.159294326339,5128.837183692799C6605.015712244839,5352.5711943399965 6625.988556055707,5419.999999999996 6702.721661702894,5420.0C6777.011105093769,5420.0 6839.247331767521,5351.0633711613045 6933.988830209762,5163.834422329175C6973.057384329462,5086.626815942396 6977.089291979431,5070.0 6956.7431402670945,5070.0C6932.869703238258,5070.0 6898.4694530756315,5022.7778176186 6893.081872166262,4982.610402579143C6884.471851003253,4918.417901460208 6940.12362294824,4840.0 6994.289905708763,4840.0C7014.31172986635,4840.0 7017.924248326612,4828.541608972787 7043.945363978592,4682.5C7128.860447961697,4205.920300005129 7258.474324598337,3909.6507358454733 7412.680804023485,3839.649751653692C7459.8909349359965,3818.219033307626 7552.046798203253,3813.7087372060523 7596.849003388257,3830.636183963269C7795.68898521972,3905.763137910275 7747.162416187798,4341.142378531244 7501.06589374122,4690.0C7475.846577504343,4725.75 7418.039758406574,4792.83807426072 7372.606295746177,4839.084609468266C7327.17283308578,4885.331144675812 7290.000000000001,4924.412603958679 7290.000000000002,4925.932296763525C7290.000000000002,4927.451989568372 7324.181911212782,4963.32390089994 7365.95980269507,5005.6476552781205C7441.919605390138,5082.599935965723 7441.919605390138,5082.599935965723 7495.209124953106,5077.099972371096C7598.875520675933,5066.400656499275 7672.234468193014,5020.019777113306 7731.452890320875,4927.735866722518C7765.0243991709285,4875.419205739676 7800.698313549212,4863.934468965724 7819.648162415119,4899.342585459104C7838.253336135433,4934.1066705518215 7830.650639780833,4966.746603762499 7789.644740750499,5028.153422239737C7733.398563630825,5112.382737291974 7619.269453864386,5181.790166963294 7516.651654455882,5194.173716943917C7495.753590276197,5196.6956207828125 7486.427770165825,5202.581059185361 7489.202437211238,5211.496662848895C7491.513777677418,5218.923498282003 7503.807131427533,5255.713597742783 7516.521001100382,5293.252439428408C7561.379879056165,5425.702304112257 7572.726194043333,5519.372733416891 7567.001703788319,5710.0C7561.1914593818665,5903.48290590798 7543.069819932961,5994.869277374135 7489.44973154055,6101.090075693748C7429.360671903642,6220.125834049767 7342.427473397693,6281.607690637717 7232.762370306032,6282.627345719309C7089.382721287353,6283.9604752527475 6986.769393339895,6176.159085316204 6943.064451387328,5978.282491636117C6925.288119923791,5897.799146710264 6920.29291290598,5659.259196993694 6932.734742812677,5485.0C6939.576406496743,5389.17624829891 6939.171358638322,5386.044062074727 6923.035897594893,5410.0C6888.1632920669,5461.774533809274 6787.511978798902,5552.225178709682 6742.725903550034,5572.036189234024C6677.320993757768,5600.967890639832 6585.257178600226,5606.674954746249 6522.13894223165,5585.710442545485C6439.754767068491,5558.346812876361 6364.205976831605,5460.89357937033 6344.677100939716,5356.79572129573C6338.295778522905,5322.780348421686 6338.295778522905,5322.780348421686 6251.647889261452,5410.021785039817C6155.21098890239,5507.11928853396 6117.260603316827,5533.6496744632595 6015.0,5575.457780869301C5952.323133660566,5601.082518178915 5932.96913755764,5604.124806194141 5830.0,5604.538249823798C5726.006959987557,5604.955804645968 5709.601884432614,5602.469090132699 5658.600840654346,5578.557218789876C5549.182107000623,5527.256176932822 5480.310649635023,5430.6676463707045 5457.279971260373,5296.215481152065C5446.550274594218,5233.5759476812755 5446.550274594218,5233.5759476812755 5395.775137297109,5252.293725852707C5345.0,5271.011504024138 5345.0,5271.011504024138 5344.382642837716,5363.005752012069C5343.895962928464,5435.527389400922 5339.199225108613,5464.681561832333 5322.1938941059925,5500.738500011717C5288.302944827126,5572.598545711531 5229.008359433325,5632.433926370678 5153.892070767878,5670.57531728909C5088.766650279795,5703.643699203231 5081.74004885129,5705.0 4975.547764483691,5705.0C4877.363497020632,5705.0 4859.5199069723985,5702.204037304966 4815.999945051707,5680.0C4692.408372776427,5616.943146081316 4683.878525521344,5481.098425975951 4797.088504834305,5378.820010922074C4818.283765742046,5359.671366028287 4874.859640707495,5322.617660658991 4922.81267142419,5296.478443434753C4970.765702140885,5270.3392262105135 5010.0,5247.075133966224 5010.0,5244.780460669664C5010.0,5221.589767251972 4848.264442891969,4987.525416089225 4839.13367050901,4997.502018853957C4835.359410028275,5001.625908484281 4815.443472589824,5047.75 4794.876031756898,5100.0C4709.090524029952,5317.931477967694 4595.356269326145,5509.092956246763 4505.0,5587.215842690741C4454.014425466285,5631.298453441314 4366.847025283401,5675.584498751473 4313.5518748137965,5684.4824851368C4200.736679413072,5703.317746204434 4086.816145097612,5646.28767706576 4035.0,5545.0358719797005C4006.5612589654024,5489.4648938858345 4005.0,5480.1322695621 4005.0,5365.707050870361C4005.0,5231.422906788685 4016.2329050346834,5185.792373731698 4092.1051964903118,5011.8665674322765C4115.304378696973,4958.685934643028 4128.92951479419,4915.147843025876 4123.866567432329,4910.375509427925C4118.989955344548,4905.7788154377795 4082.6636230004447,4898.886134017476 4043.1413844454337,4895.058439605028C3971.2827688908665,4888.098995218759 3971.2827688908665,4888.098995218759 3959.642251267626,4931.54949760938C3943.280359299776,4992.623450596204 3855.1176659650882,5229.152374170118 3819.138247101637,5308.503281644133C3702.061983687794,5566.709446140925 3557.496545469812,5709.969916422288 3413.992232652244,5709.992111049701C3295.398380665987,5710.010452981778 3218.5929856094817,5654.000516525195 3179.709839443207,5539.1428894959245C3163.319458911085,5490.72704871041 3163.319458911085,5490.72704871041 3120.2640766838913,5555.742159863121C3012.8704847265717,5717.910185253087 2868.504407401252,5770.702898356421 2750.0272796313393,5691.132726464498C2655.19397262011,5627.441930764102 2627.059299491702,5547.616444516979 2631.716493829119,5355.453830824321C2633.5224222231036,5280.938598006628 2632.75,5220.005705073732 2630.0,5220.047402084554C2627.25,5220.089099095376 2612.482109792588,5226.652759683318 2597.18246620575,5234.633314502204C2581.882822618913,5242.61386932109 2543.4175154289896,5256.4238886717985 2511.704005783698,5265.322246392669C2454.043079155895,5281.501078612431 2454.043079155895,5281.501078612431 2435.9516298033477,5351.730200939323C2392.169413484709,5521.688205169152 2283.654921159413,5672.33252360198 2161.797051955757,5732.322955327235C2102.4953968839127,5761.51706411176 2086.3382739950016,5764.989588381332 2010.2102747753158,5764.902317774649C1942.803099915985,5764.825044431004 1914.5534312247387,5760.024129412919 1875.0,5741.923887625153C1778.6036015388563,5697.811453745452 1702.703394167278,5600.218306241191 1679.0628333357,5489.98617269611C1668.24448253876,5439.541942617061 1668.24448253876,5439.541942617061 1608.0792921502236,5492.2709713085305C1574.9884374365288,5521.271937088839 1526.9018676052176,5561.303240948961 1501.2202480806434,5581.229424331023C1458.7347575228027,5614.193610064029 1453.367579611409,5623.206280450908 1441.6687757533316,5681.229424331023C1403.8186696529824,5868.956492737407 1320.905264548286,6091.94273061224 1251.376241436509,6192.99970163896C1137.6375519812038,6358.313220087564 977.7568787670941,6431.752069577366 810.0,6395.739424405963zM939.2308757154598,6192.028120816996C982.6977027106984,6157.191193716928 1031.065348392299,6079.288852154723 1064.1369567659488,5990.850741763932C1094.821660415224,5908.7955487420695 1121.2318121781132,5817.898478844782 1115.9289881665864,5812.595654833253C1113.7272951854056,5810.39396185207 1081.1175802647133,5825.329747426889 1043.4629550094926,5845.786289443962C827.0533003863444,5963.3546668396375 733.7034371426025,6077.705838847884 774.4760127857776,6175.2883479299235C800.3218788794048,6237.146212512407 873.6410567450796,6244.595743068978 939.2308757154598,6192.028120816996zM7343.463014854847,6067.5C7418.194004264665,5968.289470004206 7452.223122996444,5689.5138604026315 7415.322261197981,5478.809903065183C7399.314819089278,5387.407392804722 7364.970019705863,5278.546901413332 7331.34815286099,5212.642597917579C7310.85936273097,5172.481251457561 7274.784028650589,5141.882638016059 7262.456793618941,5154.2098730477255C7246.253226873285,5170.413439793415 7198.715419823973,5675.67791931045 7197.463806583684,5845.0C7196.43745640108,5983.84780285236 7214.293805990311,6069.803881983657 7248.284431877923,6089.638002155166C7282.466033425458,6109.58355993895 7317.986615743164,6101.321672618219 7343.463014854847,6067.5zM2160.1381551123404,5553.685535203663C2204.545194833727,5513.566442633369 2276.8240277177365,5378.585631767386 2286.609575154077,5317.5C2291.7599583633446,5285.3490739297995 2289.9339768929103,5279.98606542605 2273.8084237697535,5279.902310842961C2212.9419638973004,5279.586176262532 2062.231845181624,5170.816733934229 2038.3930636365028,5110.0C2029.1794089293148,5086.494419992552 2027.9620313022824,5086.128580630582 2018.027677180558,5103.8799105373155C1981.334244769038,5169.4460476174245 1955.380366733803,5366.6744122939745 1971.3589359681514,5458.524387880553C1993.7703553756323,5587.352463489019 2076.6365395444027,5629.124228387386 2160.1381551123404,5553.685535203663zM4981.282429295066,5554.336830037914C4999.431432532654,5544.951615714388 5019.184866214904,5521.905038930062 5030.566210021315,5496.836830037914C5049.021713800486,5456.187287082759 5056.36168150269,5389.695014836026 5043.782054364498,5377.1153876978315C5036.077984227071,5369.411317560403 4946.552068950368,5413.564999979503 4901.87888464479,5447.101240070324C4846.893845334537,5488.37860832548 4838.39450569146,5541.819569432641 4883.891000930787,5560.202943770693C4916.509894345283,5573.382977199145 4948.134800515996,5571.478135063634 4981.282429295066,5554.336830037914zM2322.7509696024304,5097.5C2330.2243225618568,5049.125958614531 2312.225609894633,4893.310656418728 2295.407665542134,4860.78833822958C2270.4014974338734,4812.431741319607 2223.0523690007176,4806.038540090192 2183.423025309067,4845.667883781843C2160.1527300644607,4868.938179026448 2158.1314798676244,4877.24604861546 2161.7841100654077,4934.6095131621905C2164.9194843063365,4983.849627647195 2172.187813975537,5007.08200488684 2194.554990153073,5039.357850582546C2218.8750994388447,5074.451779667731 2290.0029173207645,5129.5878840782025 2311.365006410068,5129.90539504998C2314.865759935605,5129.957427772491 2319.9894433721684,5115.375 2322.7509696024304,5097.5zM5900.0,4994.259940424894C6013.711568866116,4922.322071811209 6097.507978263095,4748.936549691672 6044.285714285716,4695.714285714286C6022.387747280508,4673.816318709077 5973.5445736982865,4676.1141566896895 5939.067046667201,4700.664321369039C5878.556531891413,4743.751608378877 5804.500391481878,4891.607981929777 5785.238245528122,5007.790355190514C5778.143932992063,5050.5807103810275 5778.143932992063,5050.5807103810275 5821.571966496032,5033.4914302456145C5845.457384923215,5024.092326171138 5880.75,5006.438155751814 5900.0,4994.259940424894zM6697.823641363443,4677.5C6816.655321068132,4475.768789725898 6899.263454351703,4227.040882547837 6899.7835792296255,4069.411296351047C6900.317451302062,3907.6154710939736 6824.021725025303,3952.809594861565 6765.2725113535835,4149.089545007453C6724.701065149382,4284.637936902625 6640.0,4694.4617910043635 6640.0,4755.21726400821C6640.0,4770.546156251459 6654.470477983036,4751.097260761395 6697.823641363443,4677.5zM7388.864025564024,4650.088612323087C7505.111982559218,4476.296031152544 7578.631925044791,4285.18818792896 7587.320551212692,4134.220436857563C7592.9292148947925,4036.7680518383204 7583.03389292969,4000.0 7551.198038036241,4000.0C7526.142775873703,4000.0 7505.1700743087495,4025.8209369848582 7475.22153101319,4093.5399092051275C7415.862289310509,4227.761690886104 7296.324801725779,4740.0 7324.361640797065,4740.0C7326.760543235451,4740.0 7355.786616380582,4699.539875545389 7388.864025564024,4650.088612323087zM3965.0293444733525,4589.826311561275C3973.738866592592,4538.275095059327 3956.830890307645,4505.640543281575 3929.1014494844967,4520.480889642078C3888.1323849299297,4542.40686759213 3878.5288603925337,4608.528860392534 3911.521563672746,4641.521563672746C3931.749968807764,4661.749968807764 3933.809549563839,4661.994982506813 3945.7984114743026,4645.599236882125C3952.813817745148,4636.005097127273 3961.4677375947203,4610.907280732891 3965.0293444733525,4589.826311561275zM1797.927967348022,4237.927967348022C1757.3218325523112,4197.321832552311 1769.8483699532612,4193.515498113305 1966.6223631824366,4186.668208327686C2188.049742379146,4178.963036485877 2195.295200525963,4176.261389110416 2205.0558101495803,4097.76242995342C2208.664092576566,4068.7430934790386 2210.127650831222,3891.246948297522 2208.308161826595,3703.326551772272C2204.584902299011,3318.780998042276 2160.801717841461,3360.6964998298513 2583.6046175460747,3344.039317289999C2793.1415619617055,3335.7841820144076 2780.0,3349.7717977428147 2780.0,3135.0C2780.0,3031.666666666667 2783.7373737373737,2970.0 2790.0,2970.0C2795.5,2970.0 2809.0,2979.0000000000005 2820.0,2990.0C2838.5567601272223,3008.5567601272232 2840.0,3023.333333333334 2840.0,3194.769470201458C2840.0,3375.5436085048973 2839.513474993421,3379.8434062152824 2817.5,3393.6193693339033C2800.461493568505,3404.282012840519 2731.9607819260455,3409.323534257199 2535.294044317213,3414.389188148565C2392.45576869168,3418.068352584585 2273.20576869168,3423.4551692747505 2270.294044317213,3426.359891904489C2267.3823199427457,3429.2646145342264 2262.75,3607.4168469156552 2260.0,3822.2537416409973C2255.0,4212.866277505255 2255.0,4212.866277505255 2230.0,4230.701373952269C2208.558104246576,4245.998105103034 2177.307696974241,4249.057338739221 2010.427967348022,4252.196202547662C1833.7674702149673,4255.519034158633 1814.2055565838382,4254.205556583838 1797.927967348022,4237.927967348022zM3736.3364240252736,4204.716179121272C3639.2092341004213,4186.281204175147 3536.946703881951,4144.143397555765 3469.909545478144,4094.933600277975C3420.0484162575726,4058.332167290524 3405.653765481798,4033.673193295189 3451.6323616277714,4063.623594339324C3464.4845627324967,4071.9955023498323 3517.75,4093.613399280043 3570.0,4111.663365295346C3663.1005897696386,4143.825326660834 3668.498913582244,4144.486668860444 3840.0,4144.740742661586C4040.5506406423315,4145.0378525205015 4104.216677589485,4132.78531712571 4230.463084151937,4069.596081735038C4444.938470148642,3962.2462092097817 4555.384554765613,3797.014770842095 4616.709738937019,3491.756762612267C4629.38808305512,3428.6478437327632 4632.985695415463,3292.758099130988 4636.943050756887,2727.5C4639.590292770361,2349.3749999999995 4645.163624962433,2040.0 4649.328233405936,2040.0C4653.492841849438,2040.0000000000002 4664.347692787263,2048.2293330221287 4673.450124378879,2058.287406715841C4688.496517405125,2074.9134838644927 4690.000000000001,2136.2700374531846 4690.0,2733.6815442301418C4690.0,3124.9831049154727 4685.746523892771,3430.068408813914 4679.48482537732,3487.8941375143004C4638.202894734737,3869.1257978498725 4454.945657372195,4107.66060819551 4139.709260387157,4190.487191285038C4036.927224170221,4217.49259086533 3840.210719374326,4224.431770952847 3736.3364240252736,4204.716179121272zM5036.549875621121,4121.712593284159C5027.447444029504,4111.654519590447 5020.0,4098.805241197564 5020.0,4093.158641299974C5020.0,4080.421858910968 5123.510656796463,4070.1650244274215 5252.996599268843,4070.0710904342804C5338.629552293276,4070.0089690559407 5389.982114577737,4059.423498743415 5412.252287822694,4037.2431985376843C5413.491046125177,4036.009439341958 5416.866046125177,3823.5 5419.752287822694,3565.0C5425.0,3095.0 5425.0,3095.0 5447.5,3131.1803398874986C5469.981798409777,3167.3314113429637 5470.0,3167.7323225653136 5470.0,3626.76904353645C5470.0,3997.328031180132 5467.381410566012,4089.758541735501 5456.460210079167,4104.694173360571C5438.494193873583,4129.264164557039 5369.450625458389,4138.361505583958 5194.049875621121,4139.269968852442C5069.635739957726,4139.91435419535 5051.158152696518,4137.854557756361 5036.549875621121,4121.712593284159zM1715.6446621142927,4110.712343618059C1697.516049577081,4090.68045224609 1696.8093888376668,4053.7614035767374 1695.921196937616,3080.2722325831555C1695.011489629271,2083.201426828822 1695.2494500101286,2070.363450437202 1715.0,2050.969697378294C1733.2299608587577,2033.0690637579835 1758.0105088361465,2030.414972772812 1995.0,2020.9806319013665C2138.0,2015.2879290815445 2349.5,2008.1409576941167 2465.0,2005.098473262638C2580.5,2002.0559888311593 2709.2949158824276,1997.155524078962 2751.2109241831718,1994.2085515910885C2862.1541741445208,1986.4085076793317 2860.0,1982.45626179425 2860.0,2193.802989363217C2860.0,2320.4663077463993 2856.512680662244,2370.9466006709595 2846.849481922418,2384.1618123934945C2834.907022071963,2400.4940994198582 2801.836008504272,2403.1386868663353 2486.849481922418,2412.94990740555C2140.0,2423.7535973220106 2140.0,2423.7535973220106 2140.0,2661.2866287172565C2140.0,2791.929795984641 2143.375,2900.398053727672 2147.5,2902.3272014795475C2151.625,2904.2563492314225 2275.7798651740363,2901.776790880145 2423.399700386747,2896.8170718100428C2623.8144712864405,2890.0835528372772 2694.7377257794437,2890.731062754522 2703.399700386747,2899.3733952349153C2711.0146960451166,2906.9711229240365 2716.082318011765,2968.9628576110717 2718.1503778269926,3079.817021130403C2721.2698014483294,3247.0274149785064 2721.073290379776,3248.8316245513724 2698.1503778269926,3263.4412399747007C2680.4312380859656,3274.734299556572 2623.3864847545074,3279.6660383680974 2455.0,3284.4625273908923C2334.0,3287.9092123941705 2213.625,3293.237421689065 2187.5,3296.3029924906573C2140.0,3301.8767575844613 2140.0,3301.8767575844613 2139.889943361189,3663.4383787922307C2139.773026459595,4047.537556667625 2136.6522462119315,4095.898191039143 2111.1296598002027,4109.117166574687C2102.258346910091,4113.711907333744 2013.8755593295045,4120.625150164986 1914.7234651766762,4124.47992842189C1740.3313646362742,4131.25984450014 1733.8332026048633,4130.8104546331115 1715.6446621142927,4110.712343618059zM6062.5,4084.6735726616225C6013.518758273636,4050.2611981979267 6032.604612861071,4043.4363522841923 6196.763729851189,4036.662661552571C6282.983781269342,4033.1049672016316 6355.452531269343,4032.119197936009 6357.805396517856,4034.472063184522C6360.158261766368,4036.824928433035 6357.871105557756,4051.4062500000005 6352.722827165385,4066.875C6343.362320997438,4095.0 6343.362320997438,4095.0 6214.181160498719,4097.740612348113C6109.383373723862,4099.963924999751 6080.753050160961,4097.497477795607 6062.5,4084.6735726616225zM3697.414743092135,4079.4642150323875C3424.368965169995,4041.518093889668 3239.9320243697703,3875.3707944979087 3169.3685111935956,3603.7815507934147C3137.3776186176374,3480.653011282573 3130.49136021398,3334.178712731411 3130.2368195099966,2771.430111958147C3130.049019776862,2356.235074806598 3132.587401733884,2248.9996535378364 3142.5,2253.3649238949492C3279.4067384958275,2313.6553655330176 3282.949187253194,2314.534242772069 3390.0,2314.769373631257C3447.75,2314.8962181340657 3511.875,2311.4210912360463 3532.5,2307.046869413436C3570.0,2299.093738826872 3570.0,2299.093738826872 3570.3804509576694,2712.046869413436C3570.859347233247,3231.8555654865754 3580.1410043844,3414.8024951361645 3609.849242544394,3490.0C3639.7737296118817,3565.744874188982 3668.843003023272,3600.7490231598476 3729.020621614036,3633.5017878493863C3877.198476942088,3714.1502837754956 4050.372308915683,3650.0678469212294 4094.468270863089,3498.269024101841C4124.960218205397,3393.301550718362 4129.386259151277,3287.1632913606118 4129.691243338053,2653.6078396230932C4129.987830080896,2037.4967230836103 4130.752681398761,2011.285155199763 4149.095886686137,1988.6078396230932C4167.719904356885,1965.5833616538234 4172.720701309513,1964.921971750209 4351.471225674393,1961.842304606303C4529.533594102879,1958.7744936023148 4535.252367247115,1959.3041692358972 4552.375338988255,1980.450144229393C4568.768956914357,2000.695405388436 4569.997159227706,2043.8723355004345 4569.959329084999,2598.6078396230896C4569.914815319492,3251.350979945886 4561.891821534096,3422.0413486771977 4524.488930090618,3565.9972429202458C4455.169376541148,3832.7936839072277 4297.427860242973,3997.829233353069 4051.3565057070164,4061.007506871246C3961.7987709459244,4084.0012562780985 3793.2900567622173,4092.7883407332383 3697.414743092135,4079.4642150323875zM4955.0,3996.867787009394C4935.267925823383,3981.8195052556666 4934.9646005588975,3968.284737724998 4932.357519282337,2986.5308691438663C4929.715038564674,1991.4465614388655 4929.715038564674,1991.4465614388655 4952.357519282337,1966.14396060437C4974.297151567294,1941.6267813657532 4980.587405349469,1940.5502427310907 5155.0,1931.4629338809937C5262.720407382148,1925.8504457845847 5341.839003191194,1925.7220913607089 5352.031371232589,1931.1432890758574C5372.721976716303,1942.1483727539385 5405.897653076699,2003.5947823493125 5640.267210902828,2465.0C5844.317740573053,2866.715905117996 5966.9375006383825,3099.9741165882683 5981.960836778124,3115.0C5988.6252562469135,3121.6655494501 5990.880881914552,2929.9346428308695 5988.725446520819,2540.0C5986.946914270135,2218.25 5989.0560328172705,1944.8854576460117 5993.412376625565,1932.5232392133591C6004.08441334664,1902.2386577218708 6017.991691819311,1900.0759202918491 6219.5538266135045,1897.3557131348832C6394.107653227009,1895.0 6394.107653227009,1895.0 6407.667233687142,1920.0C6418.944699585441,1940.7924314683955 6420.148095329114,2111.6197138515354 6414.817418732453,2935.0C6408.675539589665,3883.6792369370723 6407.627752505642,3925.8018999593714 6389.713593529532,3944.2126403515044C6373.178320870419,3961.2062716264086 6349.882041729769,3964.233405992681 6188.009581870715,3970.422196900041C6087.354311841822,3974.270500808409 5995.6025517470625,3973.887806143226 5984.116781660141,3969.5717643107455C5956.102109480572,3959.0446080003558 5830.536293096495,3733.475288313378 5488.926190258311,3080.0C5350.395049339779,2815.0 5350.395049339779,2815.0 5350.197524669889,3397.14816241512C5350.002844087197,3970.914181290022 5349.70909733815,3979.4520112101636 5329.79652230657,3990.108897956738C5318.684609575184,3996.055813176312 5234.309609575184,4003.4412294527397 5142.29652230657,4006.5209341265786C5001.698786039966,4011.226781070365 4971.808207884795,4009.686239127588 4955.0,3996.867787009394zM6480.0,2892.1222578321294C6480.0,2065.6417816466246 6481.608712408547,1970.0 6495.510266463384,1970.0C6504.040913018247,1969.9999999999998 6517.540913018246,1985.6054661609683 6525.510266463384,2004.678813691041C6537.790090642998,2034.0685698109473 6539.938016653015,2169.4261006712013 6539.593593203873,2892.1788136910413C6539.187186407746,3745.0 6539.187186407746,3745.0 6509.593593203873,3779.6222578321294C6480.0,3814.2445156642593 6480.0,3814.2445156642593 6480.0,2892.1222578321294zM786.7907824505417,3735.3622110219703C751.175871400683,3699.7472999721113 779.0801856656192,3635.595326420538 853.4030698994497,3582.220669464653C989.5855404519948,3484.4218188942336 1227.2284387003137,3369.12195595032 1263.740178269612,3383.1328250366482C1307.4941899319247,3399.9228146847418 1263.9719019471809,3453.6728549952254 1100.0,3585.3520003135213C922.292267550149,3728.061830763537 825.7357377828083,3774.3071663542373 786.7907824505417,3735.3622110219703zM3710.733669234509,3549.425827690844C3652.235518138886,3468.6714763963887 3648.655581332886,3426.010223415152 3649.118413174305,2815.1715185414246C3649.5352775527253,2265.0 3649.5352775527253,2265.0 3672.267638776362,2246.3611677125386C3695.0,2227.722335425077 3695.0,2227.722335425077 3700.8941638230062,2841.3611677125386C3706.8988262880894,3466.5039655716646 3708.2872302779533,3488.52558425074 3746.360032912142,3562.5C3767.934656669499,3604.4189047571563 3744.282881977265,3595.7391702621726 3710.733669234509,3549.425827690844zM7282.905211836501,3535.550095988852C7223.066926538569,3507.6903180803183 7149.748554711037,3459.35525991652 6997.5,3347.397015519213C6912.691884324948,3285.0321033553905 6890.0,3263.2829662892714 6890.0,3244.363164247666C6890.0,3187.896527700387 6970.937495102828,3208.9644209784437 7194.637063683936,3323.6596774160043C7374.396992004378,3415.8261988209624 7444.868819997035,3493.702608574393 7394.285714285715,3544.2857142857147C7372.48104248099,3566.090386090438 7343.642840257108,3563.8285941119866 7282.905211836501,3535.550095988852zM575.8741967859702,3169.7317301604053C511.3867042010019,3158.522717629408 482.38819355410783,3130.6658313295075 495.7263017596945,3092.7391278123105C509.4149567788826,3053.815649875275 549.7195510816996,3038.0586933992045 664.968675748964,3026.574345186787C774.2541854750732,3015.684259453905 1115.3791919402893,3031.1475616303346 1181.505065120734,3049.9890996685644C1226.3797254741148,3062.7754354753315 1238.9271183552369,3088.587074922729 1211.1873179989836,3111.04940251702C1171.0558685233746,3143.545878821029 684.0309126885153,3188.531189330969 575.8741967859702,3169.7317301604053zM7355.0,2993.7063032073147C7252.827661029492,2987.2348390831735 6986.167287522225,2960.171878103818 6963.1917478631585,2953.94227190598C6933.096226579561,2945.782148196263 6925.578329820972,2919.9348005114207 6947.110548028767,2898.653355782717C6968.463156219991,2877.549429255041 7060.143955469517,2865.120291753224 7305.6893519658315,2850.040938615185C7476.5426252787365,2839.548553582367 7596.726166975259,2846.8405473976377 7640.684581189382,2870.366376733923C7663.933474837533,2882.808807017229 7676.56763353716,2927.2554205555066 7663.050136009642,2949.047767026628C7657.607911211413,2957.821495161983 7642.017708753667,2970.4763603264864 7628.405241659098,2977.169689614415C7601.251643588897,2990.5212718054468 7449.564534385655,2999.6958988049023 7355.0,2993.7063032073147zM5889.565436758389,2827.3764067128945C5870.076426975503,2787.5693830208024 5769.483952375193,2587.0924746003125 5666.026604313254,2381.872165778472C5562.569256251316,2176.651856956632 5479.872065969021,2006.7946006976515 5482.255070352598,2004.4115963140712C5491.188627715456,1995.4780389511993 5528.628433150902,2047.7537002848812 5572.20142930798,2130.0C5792.8350143272855,2546.4573832678943 5957.707254509794,2900.453636412751 5930.768071499174,2899.8764067128945C5927.595632174627,2899.808430404986 5909.054446541276,2867.183430404986 5889.565436758389,2827.3764067128945zM2210.0,2661.418773604876C2210.0,2482.8375472097523 2210.0,2482.8375472097523 2537.5,2475.6072674496318C2754.221314269814,2470.822669794207 2873.4563882236785,2464.38096080559 2890.0,2456.563354084292C2915.0,2444.749720479072 2915.0,2444.749720479072 2917.725586835587,2262.3748602395362C2920.5858072609763,2070.991377782182 2924.861528704024,2055.647488455754 2963.450124378879,2098.287406715841C2977.628643701339,2113.9544942163247 2980.0000000000005,2143.822363118719 2980.0,2306.73753109472C2980.0,2475.1897798776868 2978.0020626015953,2498.694926406204 2962.5,2512.619889860066C2947.9346582346534,2525.7034295791345 2891.109648207258,2530.1557045003083 2623.640209194774,2539.169765481187C2446.8923242519,2545.126394466534 2295.0173242519,2550.0 2286.140209194774,2550.0C2272.028675518743,2550.0 2270.0,2568.2251634206195 2270.0,2695.0C2270.0,2840.0 2270.0,2840.0 2240.0,2840.0C2210.0,2840.0 2210.0,2840.0 2210.0,2661.418773604876zM1105.0,2734.782787913125C821.7698291703389,2607.3155464203205 738.2954858594286,2547.995858940074 754.015709822713,2485.3614977540014C763.6986589974981,2446.7815552941265 793.9235044456868,2435.699465307537 848.0954816129343,2450.8666812731617C904.966800027564,2466.7896660662295 1135.8761808308238,2605.504169077186 1207.8073036140916,2666.9568480844005C1277.6553107088469,2726.629865732417 1296.5949613251018,2755.004294863384 1279.9584532542026,2775.0500607661616C1260.3391148042738,2798.6899174030573 1233.0398617221426,2792.4069030525297 1105.0,2734.782787913125zM6886.818063971333,2628.4180595247826C6851.571930670988,2608.6933316346403 6867.257651456941,2574.479299107565 6937.5,2517.869527424633C7120.840042532276,2370.111968582065 7268.2869828995445,2280.0 7326.717265777843,2280.0C7374.096030418754,2280.0 7390.0,2293.832018658586 7390.0,2335.0383321632708C7390.0,2388.887985274977 7326.20694442135,2436.658080851052 7108.828450266419,2545.5877670854898C6945.448672762603,2627.4583678076506 6909.241637224758,2640.9669220334576 6886.818063971333,2628.4180595247826zM3283.647098695194,2189.6775067386448C3230.603474706923,2173.343174092586 3156.5893948699504,2117.045086581875 3132.882649767082,2075.0C3116.4625846762774,2045.8782013124455 3110.3108377107606,2018.6826980313317 3110.2621933558603,1975.0C3110.1008602096676,1830.122611412122 3214.933088536972,1720.9804369819892 3504.7789011954374,1564.2636069110993C3552.569370299818,1538.4237620744773 3593.31789205368,1512.2686049044983 3595.331171759576,1506.1410354222571C3597.344451465472,1500.0134659400157 3605.465865256954,1452.25 3613.3787579628697,1400.0C3627.765835609989,1305.0 3627.765835609989,1305.0 3601.4430573813775,1340.0C3543.824179236824,1416.6127616752606 3454.5573449903327,1491.4797564921114 3371.7629538424835,1532.6298749846837C3294.4430613343784,1571.0590812923879 3282.713544283698,1573.9862015833226 3206.7629538424835,1573.8058966330918C3145.992095589566,1573.6616280170201 3113.132282038325,1568.3025513539085 3078.7759500105176,1552.9326143076185C2945.4492094886646,1493.286444665603 2870.0,1352.732037769815 2870.0,1164.0036907747367C2870.0,806.2376807091155 3091.9168016794256,453.73477102057933 3373.379801197775,364.41193720854346C3474.8624996137864,332.20620423148324 3598.932352030874,328.07365045798286 3677.8080604003626,354.27195455507376C3729.948299912226,371.59016162623004 3729.948299912226,371.59016162623004 3760.743380725346,340.7950808131152C3786.664446961108,314.8740145773576 3799.2089036747393,310.00000000000034 3840.0019779498043,310.00000000000045C3964.7143872862393,310.0000000000008 4007.0758347613632,449.9523936875979 3929.846873378681,606.8266885419099C3892.4748024299497,682.7401434474714 3850.172544190154,709.9999999999999 3769.740966132071,710.0000000000001C3678.9201939095205,710.0000000000005 3649.7541256994327,675.5607625161041 3680.2749124821366,604.3586551946892C3701.4238931374352,555.0200846958923 3693.4755384889927,535.998370412948 3645.02907563718,520.0095958256079C3572.516298238968,496.0782211849391 3471.0966469588275,547.1036984232824 3386.8433809233056,649.9060027112854C3251.4071928469084,815.1595634737503 3170.5431306136416,1145.3541591218336 3234.98878714509,1269.9783167295866C3320.195086193423,1434.7491300518286 3538.785650809796,1292.3019298815746 3648.4514188435646,1000.5403637976468C3664.067956924766,958.9931637089411 3684.5783323519486,903.8837671381118 3694.030030903971,878.075038084693C3707.7996992343087,840.4756968512503 3717.553091673354,829.1859640751345 3743.1074686810966,821.266992955484C3837.7325507393334,791.94390314638 3943.0123512461905,800.187564150326 3966.99397609824,838.7978437133573C3976.522562722898,854.138813964051 3973.8735804343933,902.8656737614687 3954.1068316557803,1075.8511766714437C3940.4222153583946,1195.6098814967113 3930.524926114186,1299.2873964164662 3932.1128555575397,1306.2456542708992C3935.0055434450132,1318.921323393156 4008.069219331768,1268.9703204503207 4083.1798493780275,1202.9665930779165C4114.422026845244,1175.512420974761 4121.819170639176,1160.3496647663812 4134.925550697549,1096.8976189174978C4169.307195969419,930.4454236939023 4233.426767454645,790.5585148304435 4311.74574283326,711.1366175638498C4353.074538133922,669.2258121855474 4418.004604239187,631.0667815803179 4450.0,629.8853768524054C4458.25,629.5807521158296 4478.5,605.9901322823274 4495.0,577.4617772224007C4559.24781964965,466.3778614168635 4688.117771106425,432.15711601993405 4812.388467166474,493.18092040475324C4936.5172332806005,554.1350293140424 5003.332668943441,691.3820875743725 5016.614237772523,912.6855746596369C5022.821029072833,1016.1059292913367 5023.907251882664,1020.1140890772153 5044.038503512366,1013.8810550903929C5136.559027251122,985.2348695699952 5215.302376647285,923.4370621482914 5263.429094362908,841.7032446786836C5288.297313817746,799.4694376335781 5301.688950703738,785.8804218117746 5315.908622747088,788.4502220941641C5348.237618337863,794.2927662643294 5360.0,810.8655559711262 5360.0,850.5734505426767C5360.0,901.6940793205628 5346.198106534368,934.9448757890573 5299.053173109255,997.4033432230606C5247.540420244708,1065.648377492476 5177.272459577756,1112.0193405666016 5074.91496671766,1145.3157686504524C4992.246672057662,1172.2073898796223 4992.19728969748,1172.2442793132282 4985.866214567755,1211.836648131213C4976.022197590682,1273.3977483899926 4917.041820947887,1410.7278470310964 4871.892782136832,1477.2127547132009C4745.954804655896,1662.6646497475792 4549.428161729055,1731.8860553753157 4355.184002894818,1659.2100018377987C4246.954631338671,1618.7162045017428 4163.157299726881,1507.2764940817547 4137.600508254239,1369.8518424724484C4126.390821181277,1309.5748181714848 4126.390821181277,1309.5748181714848 4095.6954105906384,1338.7749240267408C4078.8129347657873,1354.8349822471318 4033.174054497047,1388.3817622437787 3994.275676660105,1413.3233240192894C3955.3772988231635,1438.2648857948002 3918.723472655706,1464.595504071351 3912.822729621311,1471.8358090782908C3906.9219865869154,1479.0761140852308 3894.4601574895473,1523.25 3885.1297760716034,1570.0C3818.0432608901347,1906.1378752107744 3720.5912879587013,2079.098914799289 3551.2683190244747,2162.5485441945534C3497.1067482254653,2189.241691846591 3474.5823693842935,2194.361748237221 3401.2683190244747,2196.645309482067C3353.820743561014,2198.123190515218 3300.8911944128376,2194.987679280678 3283.647098695194,2189.6775067386448zM3394.7109507999494,2025.765239139178C3453.393396826239,2001.2461476335282 3525.0009884746114,1865.4304189183958 3554.9661180497433,1721.81461296432C3561.8901778070867,1688.6292259286406 3561.8901778070867,1688.6292259286406 3518.4450889035434,1710.6830698753138C3322.7861291255545,1810.0045875569176 3217.059799273127,1956.9056290584833 3296.348586918013,2019.2741985096711C3327.3960465966375,2043.6961338521792 3348.4681703706706,2045.086706487577 3394.7109507999494,2025.765239139178zM1875.6612963510488,1536.7201358784268C1844.7199581345144,1514.0952769854935 1852.6715604645788,1469.7256138392695 1894.0828772281839,1433.92835829556C1956.479794682291,1379.9904839701658 2274.6893908793313,1291.116371217326 2420.608923298246,1286.8726574462312C2478.6788697647507,1285.18383465862 2485.2886332717003,1287.017519656539 2487.940203167005,1305.551745987937C2492.3995578102604,1336.7222191466533 2467.9905589237874,1351.9219733327232 2305.3461594548535,1419.255081105183C2012.4950522767474,1540.4924260447747 1916.6522392120387,1566.6934451007983 1875.6612963510488,1536.7201358784268zM4650.599463490181,1477.3858547834384C4700.8212407803185,1443.5414039552663 4744.784939567254,1379.851067089733 4777.975965643215,1292.855149798921C4827.102570931506,1164.0910049165834 4827.100516643995,1172.5571913762728 4778.008117045491,1160.351902224938C4672.690067508436,1134.1678644111996 4585.28441143695,1075.3531376506114 4528.038284147082,992.1487437441432C4491.490430436386,939.0282592582194 4488.482663352298,941.929355475039 4460.801198708686,1057.0012568350714C4410.6842170579,1265.337645217337 4434.066888046522,1438.9462504447397 4518.414271847668,1484.75928650543C4558.145021632382,1506.3389276345094 4612.102229981127,1503.3291366985875 4650.599463490181,1477.3858547834384zM6120.0,1410.1672143934397C6106.25,1405.627603362463 6029.75,1381.2742786634146 5950.0,1356.0487150622212C5759.993563273346,1295.948157641727 5639.1335489241865,1248.0974464248313 5626.415908134892,1227.9357984983776C5619.015919847915,1216.2043806219183 5620.127543726411,1206.8955820838348 5630.4076394298945,1194.5088245351974C5642.594830341166,1179.8241578383959 5656.973994722358,1178.18226632918 5729.827751881511,1183.1564931929752C5852.246095597356,1191.514835132738 6037.353391327878,1226.0255377549017 6145.386989136837,1260.6317823338718C6216.099577276076,1283.2830424010017 6244.855661676935,1297.883507852709 6264.323898976076,1321.0201933161657C6313.944041391165,1379.99038204304 6287.088066052303,1420.4902174177141 6199.21259328416,1419.2105263157896C6169.395666977872,1418.7763157894735 6133.75,1414.7068254244164 6120.0,1410.1672143934397zM2365.0,1048.1585645151974C2337.5,1042.946154379214 2240.75,1025.278357031099 2150.0,1008.8967926304972C1946.831933361918,972.222293812012 1854.7009966817723,945.6100875908633 1823.749625306041,914.658716215132C1796.0266618561175,886.9357527652083 1794.3352567501938,872.5376787598796 1815.2874222212718,842.6242722868781C1850.95990024099,791.6946757076574 1969.7135079390837,803.2378359796946 2200.081894616159,880.0272982053865C2369.6620313486046,936.5540104495352 2468.427612191476,978.6328790296748 2488.3261839890724,1002.8331731669778C2495.8747448680037,1012.0136005585321 2498.8342393287517,1027.9193816129591 2495.152307283502,1039.520122242825C2487.8311189095525,1062.5871442260652 2453.237076392087,1064.8832129281298 2365.0,1048.1585645151974zM4857.422834423692,900.451388992267C4848.032342909511,730.0345200712765 4800.0469643164215,619.9999999999998 4735.119705650701,620.0C4706.836459411196,620.0 4664.314990565807,667.589125752861 4655.096606141471,709.560155118945C4644.882641053179,756.0640335570308 4667.967509122067,844.832139510544 4703.948401417971,897.4096730881658C4737.11004180857,945.8675391907321 4834.133356648501,1014.8061248785989 4852.8717838323255,1003.2251399832802C4858.8844153771615,999.5091293267421 4860.665236071177,959.2938825629284 4857.422834423692,900.451388992267zM5622.5,953.3771929824561C5604.431174469087,946.0862633822627 5607.152809180038,915.6453772757716 5627.5,897.4532918358533C5657.9961293729675,870.1872089623613 5889.156202438899,770.6144088120119 6055.0,713.306559661507C6200.837129778089,662.912077885448 6300.0,673.1821515241427 6300.0,738.6806541774223C6300.0,804.595342726036 6205.908738113408,842.8180031083906 5840.833207540789,925.2078195605075C5692.482194961022,958.6875016355054 5649.427025797293,964.2424840936444 5622.5,953.3771929824561zM7180.318033718704,264.4112963510488C7180.143115173418,258.5875093441257 7186.606884826583,245.0875093441257 7194.681966281296,234.41129635104883C7202.757047736008,223.73508335797197 7209.507047736008,219.764916642028 7209.681966281296,225.58870364895114C7209.856884826582,231.4124906558743 7203.393115173417,244.91249065587428 7195.318033718704,255.58870364895114C7187.242952263992,266.264916642028 7180.492952263992,270.235083357972 7180.318033718704,264.4112963510488zM7210.0,212.44889430884348C7210.0,206.94889430884345 7216.75,196.8468918698639 7225.0,190.0C7233.367403794105,183.05567163518526 7240.0,181.97283649508694 7240.0,187.55110569115652C7240.0,193.05110569115652 7233.25,203.15310813013608 7225.0,210.0C7216.632596205895,216.94432836481474 7210.0,218.02716350491306 7210.0,212.44889430884348zM7243.81556798602,164.4806221242376C7247.230531165904,155.58137072917205 7245.554056860388,151.56740408483057 7239.885456027863,155.07079206798707C7224.915424615529,164.32278029346276 7227.353764637151,154.9661898959772 7260.933175858272,74.30482361898312C7290.67744477861,2.8558826525686243 7293.1530164488395,0.0 7325.343005914521,0.0C7343.755165723411,0.0 7361.610350717539,4.515432251036522 7365.021194790363,10.034293891192272C7368.432038863188,15.553155531348022 7343.385350364398,56.05315553134801 7309.361887015275,100.03429389119226C7248.300940328528,178.9659980817985 7232.171389629767,194.8248645136402 7243.81556798602,164.4806221242376z"/></svg>