<svg version="1.1" xmlns="http://www.w3.org/2000/svg" xmlns:xlink="http://www.w3.org/1999/xlink" width="570" height="460" viewBox="0 0 570 460"><path stroke="none" fill="#000000" fill-rule="evenodd" d="M325.36829369207,417.5C349.4123666217563,336.9479084788927 363.5238800722435,299.00246223057405 371.2007364975615,294.2579040329745C383.2756789499751,286.79517918518394 382.4914599925541,294.94741318887725 363.67409595977836,372.5C352.92784443319874,416.7888601696614 342.37106502726476,440.0 332.9740693730122,440.0C322.79853549219774,440.0 320.59659906396115,433.48605957976577 325.36829369207,417.5zM242.5,380.5643812564463C214.5312681184716,357.23195390028854 213.94309601003047,343.27014005930556 240.57284099044097,334.8181873324444C260.79575907293884,328.39968247037393 280.0,293.57086610259336 280.0,263.3130814413697C280.0,252.4183104335517 269.683550465807,256.9861187675067 244.65203771693842,278.9640780531149C203.32898231407069,315.2462012437005 170.55914045195414,319.29819553573884 162.66267648540747,289.1020709404745C156.965695182972,267.3167809734685 149.27428685062134,267.1731165931608 84.9077523185853,287.6497214469081C46.50728567289778,299.86587052841395 10.0,286.79448541485874 10.0,260.8291002887063C10.0,236.45678991179307 63.63934476242699,183.1652886992028 107.5,163.96137397249734C142.19263979418628,148.7715759030619 146.51907344540922,140.51907344541019 128.98313560998042,122.98313560998042C120.96064975662088,114.9606497566205 121.65905170182653,104.22456841706754 131.55268365671415,83.48313560998011C141.8568623081761,61.88101516462243 153.28090245599674,54.22007093963052 178.84112539961035,51.77157735287633C197.37724151798886,49.99594489695831 216.96297562973595,52.96297562973565 222.3649789812705,58.364978981270426C228.7940780152938,64.79407801529403 220.77741219473074,67.63639899655665 199.1570038696628,66.5934016283941C173.32889329717113,65.34741908510946 163.41833860362058,70.31611892618646 153.70327186752942,89.38182850850906C142.99229052828423,110.40200933722969 143.9486472438435,116.07873556360005 160.6396696262605,130.55478252545976C187.06757870803725,153.47558654850002 185.24506590835873,158.10975853117873 146.97974996072585,165.2883750746203C84.22402821408465,177.0614194405043 4.132367297885633,280.0 57.728037757839786,280.0C67.47845852465167,280.0 99.58661470904582,264.10815618439403 129.07949594538235,244.68479152087568C183.20603458603313,209.03824042378898 202.72266956917076,206.651248469402 184.10569786899748,237.9547839460234C178.53023602298754,247.32965277571054 175.69157115805953,263.0620844670516 177.797553724713,272.9157432601146C183.2182429550553,298.27854680121965 218.1483579195994,286.3005142891354 252.29270946191224,247.37029634937022C267.303699665964,230.255280431987 282.6208263821247,219.2874930487916 286.3307688311582,222.99743549782488C290.0407112801918,226.70737794685817 293.50899202233126,250.44601655237835 294.03805936924596,275.7499657323141C294.78891206521837,311.6613455808347 290.223287030912,325.62618158713053 273.23222681500516,339.388577622518C251.46445363001038,357.0200091855659 251.46445363001038,357.0200091855659 272.9544490372274,378.51000459278293C300.58781196917545,406.143367524731 275.21350310897964,407.8550513550722 242.5,380.5643812564463zM410.0,285.31384796338716C410.0,276.3679172293063 404.1371082552241,272.87749858401287 395.0,276.3837360052304C384.3014137675249,280.4891687476935 379.9560889472489,275.38085335553967 379.84687225482935,258.5698880418433C379.7626519949855,245.60644961882946 375.3315594803123,228.25 370.0,220.0C361.7157426012224,207.18102577823777 360.28399045303587,207.54453007461075 360.15312774517065,222.5C359.8500494560887,257.1368977942167 343.73448529123266,239.02603294272689 333.45827198261384,192.5C327.68803850884774,166.375 319.6280831835226,137.28176284274159 315.54726014855805,127.84836187275906C309.1909959442267,113.154956058085 313.4251922414893,111.11393064356247 345.0901972741863,113.60766983587095C395.1041924891947,117.54646156834683 434.00367465129125,78.5833782947623 395.0,63.61626399476954C386.75,60.45044195161873 380.0,53.32412883446512 380.0,47.78001262331708C380.0,32.47185306504014 431.41426342687635,68.66096828492107 463.03480727787417,106.22597698325347C478.453951280705,124.54382380197289 503.46475675662055,152.0116435883988 518.614375002131,167.2655765086444C550.6677843610795,199.5396938034132 563.133664487283,226.88294895002167 549.6057946494448,235.24363230519018C544.3693951148773,238.479905196227 534.8436102814063,229.62401774661976 528.4373839083981,215.56388241717403C522.03115753539,201.5037470877283 513.0120171852243,190.0 508.3948497969189,190.0C497.41040368564893,190.0 497.80188496136077,197.20761356229983 510.0270433202315,220.05053090607214C516.8320701215753,232.7658397946853 516.6840108329294,240.86905412407708 509.56627693603946,245.26805559523237C503.57485473031875,248.97095815931866 492.1293368475024,234.05911337890097 482.8696424582092,210.4862245266151C472.6203429053537,184.39404599288198 463.9217491467593,173.6544765851926 459.2110494008472,181.27654888487388C455.1136768446718,187.9062369453368 455.86499286559115,204.12410703716944 460.8806405584459,217.3162602000575C473.8665688619357,251.47184002396958 472.17469215441304,270.0 456.0698880418432,270.0C448.40832646485705,270.0 439.5495580483813,276.75 436.3837360052304,285.0C428.9856729989452,304.27904315844194 410.0,304.50488739835816 410.0,285.31384796338716zM436.8311403508772,238.125C433.63887667657605,230.14767303102622 431.2693129003894,232.5172368072129 430.7894736842105,244.16666666666663C430.35526315789474,254.70833333333331 432.71875,260.6145833333333 436.04166666666674,257.29166666666663C439.36458333333337,253.96875 439.7198464912281,245.34375 436.8311403508772,238.125zM236.2995194337267,155.59608522458663C275.2638227981769,138.63940835316743 285.2415402406133,123.36493249418862 269.6364518148271,104.56195123500088C256.7539011199648,89.03942725585024 225.06800671872523,83.92969729486184 234.29735645799042,98.86309886705291C237.3100894480096,103.737803243932 230.4221971066674,110.17202444147651 218.99092903278557,113.16136819492961C203.2771713748279,117.27060813178467 199.80969742438015,123.64680465844793 204.77727933661635,139.2982693278767C212.39437732508668,163.29761994884154 195.1343097098047,167.80362954036616 186.06988804184329,144.1821253176421C176.9867547775819,120.51185945659134 176.53872157963747,121.28775197870134 226.5907457597791,74.00913225133635C274.82261758725747,28.449809442268254 310.24779406022736,12.158186455239894 271.5784533419795,53.31981341225813C249.6706261497694,76.63962682451626 249.6706261497694,76.63962682451626 274.8353130748847,88.10542550076005C323.3522758464271,110.21123310236881 290.3690388299319,170.53922392820516 230.27493756594572,169.6085818936479C206.04492419038476,169.23334591422747 206.29399429448185,168.65403699609521 236.2995194337267,155.59608522458663zM416.8311403508772,148.125C413.63887667657605,140.14767303102622 411.2693129003894,142.5172368072129 410.7894736842105,154.16666666666666C410.35526315789474,164.70833333333331 412.71875,170.61458333333331 416.04166666666674,167.29166666666663C419.36458333333337,163.96875 419.7198464912281,155.34375 416.8311403508772,148.125zM220.0,130.3138479633871C220.0,124.98646434325003 226.75,123.2179139620795 235.0,126.38373600523042C243.25,129.54955804838133 250.0,133.9083264648571 250.0,136.06988804184329C250.0,138.2314496188295 243.25,140.0 235.0,140.0C226.75,140.0 220.0,135.6412315835242 220.0,130.3138479633871zM165.0,100.0C168.3991869381244,94.5 173.16476341281168,90.0 175.59016994374946,90.0C178.01557647468726,90.0 180.0,94.5 180.0,100.0C180.0,105.5 175.23442352531274,110.0 169.40983005625054,110.0C163.58523658718832,110.0 161.60081306187556,105.5 165.0,100.0zM325.0,30.0C285.0,22.83810595714872 285.0,22.83810595714872 332.5,21.41905297857436C358.625,20.63857384035846 380.0,24.5 380.0,30.0C380.0,35.5 376.625,39.36142615964154 372.5,38.580947021425644C368.375,37.80046788320974 347.0,33.9390417235682 325.0,30.0z"/></svg>